<?xml version="1.0" standalone="no"?>
<!DOCTYPE svg PUBLIC "-//W3C//DTD SVG 1.1//EN" "http://www.w3.org/Graphics/SVG/1.1/DTD/svg11.dtd" >
<svg>
<metadata>
Created by FontForge 20090622 at Wed Mar 20 19:34:15 2019
 By deploy user
Copyright &#194;&#169; 2018 by Dave Bailey. All rights reserved.
</metadata>
<defs>
<font id="ProspectusM-Reg" horiz-adv-x="0" >
  <font-face 
    font-family="ProspectusM Reg"
    font-weight="400"
    font-stretch="normal"
    units-per-em="1000"
    panose-1="0 0 5 0 0 0 0 0 0 0"
    ascent="750"
    descent="-250"
    x-height="459"
    cap-height="638"
    bbox="-407 -359 1200 1062"
    underline-thickness="48"
    underline-position="-37"
    unicode-range="U+000D-U+FB02"
  />
<missing-glyph horiz-adv-x="1000" 
d="M500 -32l-241 32l-89 220q-19 45 -36 59.5t-42 14.5v369h137q47 0 74 -26.5t27 -74.5v-116h67v217h206v-217h67v116q0 48 27 74.5t74 26.5h137v-369q-25 0 -42 -14.5t-36 -59.5l-89 -220zM327 214h70q58 0 58 48v32h-185v-32q0 -48 57 -48zM603 214h70q57 0 57 48v32
h-185v-32q0 -48 58 -48z" />
    <glyph glyph-name="f_f" unicode="ff" horiz-adv-x="571" 
d="M563 716q42 0 77 -19l-28 -102h-22q-2 10 -6.5 27.5l-6.5 25.5q-4 20 -12 27.5t-22 7.5q-46 0 -72 -52.5t-26 -141.5v-30h119v-16q-46 -18 -53 -21q-11 0 -33 1t-33 1q-2 -180 0 -366q0 -22 21 -25l67 -11v-22h-233v22l44 8q20 5 20 26v120v140.5v109.5l-196 6
q-2 -184 0 -375q0 -21 21 -26l58 -9v-22h-224v22l44 8q20 5 20 26q2 201 0 378q-12 0 -35.5 1t-35.5 1v23h71q-1 117 58.5 182t152.5 65q80 0 127 -52q55 62 138 62zM168 459h196v5q0 78 26 137q-37 76 -99 76q-56 0 -89 -50t-34 -141v-27z" />
    <glyph glyph-name="f_i" unicode="fi" horiz-adv-x="535" 
d="M473 30l45 -8v-22h-220v22l45 7q21 6 21 28q2 167 0 338q0 18 -6.5 26.5t-26.5 9.5q-52 2 -157 4q0 -254 1 -377q0 -23 19 -27l60 -9v-22h-231v22l45 8q19 5 19 25q2 193 0 382q-48 2 -71 2v23h71v1q0 66 20 117t54.5 80t74.5 43.5t84 14.5q84 0 125 -22l-24 -133h-23
q-2 6 -8.5 24t-13.5 35t-14 31q-12 33 -60 33q-61 0 -94 -52t-34 -146v-26h278q-3 -178 -1 -404q0 -24 22 -28z" />
    <glyph glyph-name="f_l" unicode="fl" horiz-adv-x="522" 
d="M462 30l42 -8v-22h-210v22l43 7q22 4 22 29q1 173 -1 591q-22 36 -66 36q-122 0 -124 -201v-24h117v-16l-52 -21q-10 0 -32 1.5t-33 2.5q0 -247 1 -367q0 -24 20 -29l54 -9v-22h-220v22l45 8q20 5 20 26v376q-13 1 -37 2.5t-35 1.5v24h72q-1 127 62 191.5t155 64.5
q70 0 135 -17q-1 -324 0 -641q0 -24 22 -28z" />
    <glyph glyph-name="f_f_i" unicode="ffi" horiz-adv-x="800" 
d="M738 30l45 -8v-22h-215v22l44 8q22 4 22 28q2 164 0 332q0 20 -7 29t-27 9q-110 2 -156 2v-372q2 -23 21 -27l58 -9v-22h-224v22l44 8q20 5 20 26q2 199 0 376q-33 0 -98.5 0.5t-96.5 1.5q-2 -184 0 -379q0 -19 21 -24l57 -9v-22h-223v22l44 8q20 5 20 26v124v144v111
q-12 0 -36 0.5t-35 0.5v24h71q-1 116 58.5 181t152.5 65q77 0 132 -55q63 66 164 66q76 0 118 -21l-25 -127h-25q-2 9 -11 37t-12 40q-15 38 -62 38q-63 0 -97.5 -53t-35.5 -143v-28h272q-2 -193 0 -402q0 -24 22 -28zM168 460h195v4q0 77 29 135q-38 78 -101 78
q-56 0 -89 -49.5t-34 -141.5v-26z" />
    <glyph glyph-name="f_f_l" unicode="ffl" horiz-adv-x="799" 
d="M737 30l44 -8v-22h-212v22l42 7q22 4 22 29q1 292 0 580q-20 48 -67 48q-62 0 -92 -54t-31 -148v-24h117v-16l-53 -21q-38 2 -64 2v-365q1 -24 21 -29l54 -9v-22h-221v22l45 8q20 5 20 26q2 197 0 371q-118 4 -194 5q-2 -184 0 -375q0 -21 21 -26l58 -9v-22h-224v22l44 8
q20 5 20 26q2 201 0 378q-12 0 -36 0.5t-35 1.5v24h71q-1 116 58.5 181t152.5 65q80 0 127 -52q58 62 147 62q71 0 142 -13q-1 -329 0 -645q0 -23 23 -28zM168 460h194q0 84 28 142q-38 75 -99 75q-56 0 -89 -50t-34 -141v-26z" />
    <glyph glyph-name=".notdef" horiz-adv-x="1000" 
d="M500 -32l-241 32l-89 220q-19 45 -36 59.5t-42 14.5v369h137q47 0 74 -26.5t27 -74.5v-116h67v217h206v-217h67v116q0 48 27 74.5t74 26.5h137v-369q-25 0 -42 -14.5t-36 -59.5l-89 -220zM327 214h70q58 0 58 48v32h-185v-32q0 -48 57 -48zM603 214h70q57 0 57 48v32
h-185v-32q0 -48 58 -48z" />
    <glyph glyph-name=".null" horiz-adv-x="600" 
 />
    <glyph glyph-name="nonmarkingreturn" horiz-adv-x="333" 
 />
    <glyph glyph-name="CR" unicode="&#xd;" horiz-adv-x="600" 
 />
    <glyph glyph-name="space" unicode=" " horiz-adv-x="228" 
 />
    <glyph glyph-name="exclam" unicode="!" horiz-adv-x="185" 
d="M41 643l92 40l14 -7l-43 -530h-24zM91 -9q-26 0 -40 16t-14 37q0 20 14.5 36.5t40.5 16.5q24 0 40 -14.5t16 -37.5q0 -24 -15 -39t-42 -15z" />
    <glyph glyph-name="quotedbl" unicode="&#x22;" horiz-adv-x="268" 
d="M26 687l13 15h55l13 -15l-29 -210h-23zM153 687l12 15h56l13 -15l-30 -210h-22z" />
    <glyph glyph-name="numbersign" unicode="#" horiz-adv-x="676" 
d="M635 389h-145l-43 -151h188v-27h-196l-62 -220h-44l62 220h-181l-62 -220h-45l62 220h-127v27h135l43 151h-178v27h186l64 227h45l-64 -227h181l64 227h44l-64 -227h137v-27zM403 238l43 151h-181l-43 -151h181z" />
    <glyph glyph-name="dollar" unicode="$" horiz-adv-x="493" 
d="M426 169q0 -72 -47.5 -115.5t-124.5 -48.5v-85h-22v84h-1q-107 0 -160 29q0 2 3 157h21q37 -94 44 -110q7 -22 32.5 -35t60.5 -15v259q-84 57 -111 85q-50 52 -50 115q0 57 40.5 97.5t120.5 46.5v80h22v-79h1q92 0 151 -27q-1 -5 -15 -139h-21q-6 15 -17.5 48l-14.5 42
q-6 22 -30 35.5t-54 15.5v-232q4 -3 26 -18t28 -19.5l25 -18.5t25.5 -21.5t21 -21.5t20 -24.5l13.5 -25t10.5 -29t2.5 -30.5zM142 518q0 -60 90 -125v215q-43 -4 -66.5 -28t-23.5 -62zM254 30q100 8 100 103q0 43 -26 75.5t-74 65.5v-244z" />
    <glyph glyph-name="percent" unicode="%" horiz-adv-x="853" 
d="M207 -9h-27l464 656h26zM194 266q-71 0 -112.5 50t-41.5 135t41.5 135t112.5 50q69 0 111 -50t42 -135t-42 -135t-111 -50zM194 282q41 0 66 45t25 123t-25 124t-66 46q-43 0 -67.5 -45t-24.5 -122q0 -80 24.5 -125.5t67.5 -45.5zM661 -5q-71 0 -112.5 50t-41.5 135
t41.5 134.5t112.5 49.5q69 0 111 -50t42 -134q0 -85 -42 -135t-111 -50zM661 10q42 0 66.5 45.5t24.5 123.5t-25 124t-66 46q-43 0 -67.5 -45t-24.5 -123q0 -80 24.5 -125.5t67.5 -45.5z" />
    <glyph glyph-name="ampersand" unicode="&#x26;" horiz-adv-x="628" 
d="M580 31l44 -7v-24h-140l-47 67q-82 -78 -199 -78q-94 0 -149.5 52.5t-55.5 137.5q0 79 49.5 137.5t126.5 81.5q-42 63 -42 113q0 59 41.5 96t114.5 37q59 0 110 -18l-24 -113h-23l-23 63q-17 43 -56 43q-30 0 -48.5 -19.5t-18.5 -52.5q0 -27 11.5 -53t41.5 -70l183 -269
v197q0 17 -5.5 23.5t-20.5 8.5l-29 4v24h126v-18q0 -62 -11 -114t-41 -153l50 -73q15 -19 35 -23zM280 45q78 0 143 43l-195 282l-6 9q-50 -18 -82 -64t-32 -107q0 -72 47 -117.5t125 -45.5z" />
    <glyph glyph-name="quotesingle" unicode="'" horiz-adv-x="141" 
d="M26 687l13 15h55l13 -15l-29 -210h-23z" />
    <glyph glyph-name="parenleft" unicode="(" horiz-adv-x="386" 
d="M358 -214q-126 62 -199.5 188.5t-73.5 284.5t74 285t199 190l17 -27q-93 -66 -148 -185.5t-54 -261.5q0 -142 54.5 -261.5t147.5 -185.5z" />
    <glyph glyph-name="parenright" unicode=")" horiz-adv-x="386" 
d="M28 -214l-17 27q93 66 147.5 185.5t54.5 261.5q1 142 -54 261.5t-148 185.5l17 27q125 -63 199 -190t74 -285t-73.5 -284.5t-199.5 -188.5z" />
    <glyph glyph-name="asterisk" unicode="*" horiz-adv-x="354" 
d="M198 553l119 -42l5 -14l-22 -39l-15 -2l-96 83l-4 -2l23 -125l-8 -12h-46l-9 12l23 125q-1 0 -3 2l-97 -83l-14 2l-23 39l6 14l119 42v3v1l-119 42l-6 14l23 39l14 2l96 -81l4 2l-23 123l9 12h46l8 -12l-23 -123q2 0 4 -2l96 81l14 -2l23 -39l-5 -14l-119 -42v-1v-3z" />
    <glyph glyph-name="plus" unicode="+" horiz-adv-x="527" 
d="M292 287v-152h-58v152h-151v57h151v152h58v-152h152v-57h-152z" />
    <glyph glyph-name="comma" unicode="," horiz-adv-x="178" 
d="M25 -137l-15 19q71 50 87 102l-23 14q-40 22 -39 51q1 22 16 35.5t37 12.5q24 -1 40 -18t16 -47q1 -43 -32.5 -90t-86.5 -79z" />
    <glyph glyph-name="hyphen" unicode="-" horiz-adv-x="442" 
d="M66 287h310v-47h-310v47z" />
    <glyph glyph-name="period" unicode="." horiz-adv-x="179" 
d="M88 -9q-26 0 -40 16t-14 37q0 20 14.5 36.5t40.5 16.5q24 0 40 -14.5t16 -37.5q0 -24 -15 -39t-42 -15z" />
    <glyph glyph-name="slash" unicode="/" horiz-adv-x="338" 
d="M328 765l35 -16l-396 -985l-35 15z" />
    <glyph glyph-name="zero" unicode="0" horiz-adv-x="576" 
d="M288 -9q-107 0 -171 87.5t-64 236.5t64 236t171 87q108 0 172 -87t64 -236t-64.5 -236.5t-171.5 -87.5zM288 17q68 0 108 79t40 217q0 139 -40 219t-108 80t-108 -79t-40 -216q0 -139 40 -219.5t108 -80.5z" />
    <glyph glyph-name="one" unicode="1" horiz-adv-x="317" 
d="M36 24l62 7q21 1 21 25q3 247 0 493q0 19 -19 19h-63l-7 23l153 40h19q-2 -287 0 -575q0 -23 22 -25l62 -7v-24h-250v24z" />
    <glyph glyph-name="two" unicode="2" horiz-adv-x="494" 
d="M417 152h23l-28 -152h-372v18q136 149 189 220q110 150 110 246q0 56 -27 89.5t-73 37.5q-41 4 -84 -18q-15 -6 -18 -22l-38 -115h-23l-18 135q101 47 192 47q83 0 130 -38t47 -111q0 -88 -78 -187.5t-217 -219.5v-6h239q18 0 24 16z" />
    <glyph glyph-name="three" unicode="3" horiz-adv-x="494" 
d="M223 327q95 -4 152.5 -45t57.5 -113q0 -80 -62 -129t-167 -49q-90 0 -158 21l15 144h24l38 -101q3 -17 19 -24q25 -14 62 -14q61 0 101 39.5t40 98.5q0 73 -51.5 112.5t-146.5 42.5v20q78 17 128 65t50 109q0 46 -25 74.5t-76 32.5q-37 2 -71 -12q-15 -6 -20 -23
l-35 -102h-23l-20 115q88 49 187 49q83 0 125.5 -34.5t42.5 -94.5q0 -64 -50 -110.5t-137 -67.5v-4z" />
    <glyph glyph-name="four" unicode="4" horiz-adv-x="500" 
d="M470 210l-23 -47h-65v-107q0 -22 23 -25l44 -7v-24h-264v24l91 8q23 3 23 26q0 18 0.5 52.5t0.5 52.5h-278l-10 60l303 408h67q-1 -134 -1 -402h89v-19zM48 229q83 -1 252 -1q1 112 -1 337z" />
    <glyph glyph-name="five" unicode="5" horiz-adv-x="509" 
d="M212 394q232 -1 232 -190q0 -100 -60 -157t-169 -57q-71 0 -153 14l14 149h24l47 -103q7 -17 21 -22q25 -11 63 -9q62 4 102.5 44.5t40.5 105.5q1 71 -44 108t-138 37h-107l-12 11l29 304h326v-53l-16 -21h-290l-19 -162q38 1 109 1z" />
    <glyph glyph-name="six" unicode="6" horiz-adv-x="541" 
d="M298 398q87 0 140 -52.5t53 -141.5q0 -96 -60 -154.5t-154 -58.5q-104 0 -164 69.5t-60 188.5q0 157 109.5 266.5t284.5 130.5l6 -21q-117 -19 -197.5 -96.5t-105.5 -193.5q56 63 148 63zM277 17q59 0 93.5 44.5t34.5 123.5q0 82 -37 129.5t-98 47.5q-39 0 -72.5 -21
t-55.5 -55q-2 -30 -2 -45q0 -105 36.5 -164.5t100.5 -59.5z" />
    <glyph glyph-name="seven" unicode="7" horiz-adv-x="478" 
d="M422 629l17 -14l-222 -619h-88l-17 14l285 548h-291q-16 0 -23 -15l-23 -68h-22l-1 154h385z" />
    <glyph glyph-name="eight" unicode="8" horiz-adv-x="530" 
d="M321 337q36 -19 58.5 -33.5t48 -36t37.5 -47.5t12 -56q0 -83 -59.5 -128.5t-150.5 -45.5q-97 0 -155.5 40.5t-58.5 111.5q0 110 150 164q-61 34 -95 72t-34 93q0 74 53.5 120.5t136.5 46.5q89 0 140.5 -38.5t51.5 -104.5q0 -106 -135 -158zM150 503q0 -26 11.5 -48.5
t36.5 -42.5t46 -33t58 -32q77 50 77 141q0 57 -31 91t-84 34q-51 0 -82.5 -31t-31.5 -79zM267 16q59 0 94.5 31.5t35.5 84.5q0 15 -4.5 29t-10 24.5t-19 22.5l-21.5 19t-27.5 19t-28 16.5l-32.5 17t-31 16.5q-91 -55 -91 -148q0 -60 36.5 -96t98.5 -36z" />
    <glyph glyph-name="nine" unicode="9" horiz-adv-x="532" 
d="M257 638q101 0 161.5 -66.5t60.5 -181.5q0 -157 -101.5 -267t-262.5 -133l-7 21q101 22 175 98.5t99 185.5q-50 -53 -143 -53q-85 0 -139 52.5t-54 140.5q0 89 58.5 146t152.5 57zM270 276q37 0 69 18.5t52 50.5q2 30 2 46q0 105 -37 163.5t-99 58.5q-57 0 -91.5 -44
t-34.5 -118q0 -80 39 -127.5t100 -47.5z" />
    <glyph glyph-name="colon" unicode=":" horiz-adv-x="199" 
d="M98 293q-26 0 -40 16t-14 37q0 19 14.5 36t40.5 17q24 0 40 -14.5t16 -37.5q0 -24 -15 -39t-42 -15zM98 17q-26 0 -40 16t-14 37q0 19 14.5 36t40.5 17q24 0 40 -14.5t16 -37.5q0 -24 -15 -39t-42 -15z" />
    <glyph glyph-name="semicolon" unicode=";" horiz-adv-x="199" 
d="M98 293q-26 0 -40 16t-14 37q0 19 14.5 36t40.5 17q24 0 40 -14.5t16 -37.5t-15 -38.5t-42 -15.5zM33 -111l-14 20q70 48 86 101l-23 14q-39 22 -38 51q0 22 15 35.5t38 12.5q24 -1 39.5 -18t15.5 -47q1 -43 -32.5 -89.5t-86.5 -79.5z" />
    <glyph glyph-name="less" unicode="&#x3c;" horiz-adv-x="526" 
d="M444 144l-361 149v48l361 148v-58l-282 -114l282 -115v-58z" />
    <glyph glyph-name="equal" unicode="=" horiz-adv-x="527" 
d="M83 373v57h361v-57h-361zM83 203v57h361v-57h-361z" />
    <glyph glyph-name="greater" unicode="&#x3e;" horiz-adv-x="527" 
d="M83 144v58l282 115l-282 114v58l361 -148v-48z" />
    <glyph glyph-name="question" unicode="?" horiz-adv-x="380" 
d="M194 687q77 0 121.5 -41t44.5 -107q0 -57 -30 -106t-97 -102l-45 -36l-18 -138h-22l-28 188l52 40q115 85 115 174q0 49 -27.5 77.5t-71.5 28.5q-41 0 -78 -23l-45 -134h-22l-23 132q31 20 80 33.5t94 13.5zM160 97q23 0 39 -14.5t16 -37.5q0 -24 -14.5 -39t-41.5 -15
q-26 0 -40.5 16t-14.5 37q0 20 15 36.5t41 16.5z" />
    <glyph glyph-name="at" unicode="@" horiz-adv-x="902" 
d="M857 350q1 -149 -96 -240.5t-259 -91.5l-13 15l93 320h-9q-98 -195 -184 -322q-14 -19 -46 -7q-45 15 -67.5 33.5t-22.5 48.5q0 92 33 182t86.5 147t109.5 57q68 0 171 -48l-84 -397q120 14 190.5 95.5t71.5 206.5q0 129 -94 208.5t-248 79.5q-187 0 -302 -118.5
t-115 -309.5q0 -158 111 -255.5t290 -97.5l-6 -23q-189 0 -305.5 104t-116.5 272q0 202 122.5 327t321.5 125q165 0 266.5 -86t101.5 -225zM387 85q8 -3 36 38.5t69.5 116.5t88.5 170q-64 35 -140 42q-45 -37 -79 -130.5t-34 -193.5q0 -12 17.5 -24.5t41.5 -18.5z" />
    <glyph glyph-name="A" unicode="A" horiz-adv-x="577" 
d="M573 27l24 -3v-24h-234v24l48 5q30 5 19 32l-62 175q-115 -1 -230 0l-43 -122q-10 -26 13 -44q18 -18 59 -46v-24h-190v24q19 13 38 32q39 30 52 68l185 507l63 23l213 -590q13 -33 45 -37zM148 263q105 -1 211 0l-106 294z" />
    <glyph glyph-name="B" unicode="B" horiz-adv-x="564" 
d="M350 354q75 -12 122 -59.5t47 -116.5q0 -87 -62.5 -132.5t-166.5 -45.5h-259v24l48 5q22 3 22 26q3 260 0 530q0 23 -23 26l-48 5v24h239q102 0 154.5 -36t52.5 -103q0 -58 -37 -96.5t-89 -49.5v-1zM271 615q-16 0 -76 -6q-1 -83 -1 -248h112q25 0 50.5 33t25.5 88
q0 67 -30.5 100t-80.5 33zM290 25q58 0 95.5 34t37.5 111q0 76 -37.5 121t-108.5 45l-83 -1q-1 -100 1 -301q66 -9 95 -9z" />
    <glyph glyph-name="C" unicode="C" horiz-adv-x="650" 
d="M358 -9q-148 0 -230.5 91.5t-82.5 234.5q0 141 86 235.5t239 94.5q112 0 215 -35q-5 -101 -13 -179h-24q-28 92 -37 118q-15 36 -58 52.5t-93 16.5q-106 0 -165 -79.5t-59 -214.5q0 -134 63.5 -221t167.5 -87q106 0 147 77q15 26 51 103h24q-12 -98 -26 -170
q-77 -37 -205 -37z" />
    <glyph glyph-name="D" unicode="D" horiz-adv-x="674" 
d="M30 0v24l49 5q22 3 22 25q3 267 0 531q0 23 -22 26l-49 5v24h276q145 0 234.5 -84.5t89.5 -228.5q0 -145 -85 -236t-235 -91h-280zM310 26q96 0 158 79.5t62 211.5q0 134 -63.5 215.5t-172.5 81.5q-34 0 -99 -7q-1 -289 0 -573q77 -8 115 -8z" />
    <glyph glyph-name="E" unicode="E" horiz-adv-x="522" 
d="M456 181h24q-7 -90 -18 -181h-432v24l49 5q22 3 22 25q3 266 0 531q0 23 -22 26l-49 5v24h439q-7 -81 -18 -163h-24q-25 71 -47 119q-6 18 -23 18h-83q-36 0 -79 -8q-1 -89 -1 -259h118q16 0 27 17q16 27 32 58h24q3 -102 0 -204h-24q-19 54 -32 85q-9 19 -26 19h-119
q-1 -91 1 -288l164 -8q17 -1 28 17q36 65 69 138z" />
    <glyph glyph-name="F" unicode="F" horiz-adv-x="507" 
d="M30 640h444q-5 -56 -19 -166h-24q-25 72 -50 123q-6 18 -23 18h-85q-25 0 -79 -8q0 -47 -0.5 -136t-0.5 -132h112q19 0 30 18l32 52h24v-208h-24q-15 47 -32 91q-9 22 -29 22h-113q0 -42 0.5 -126t0.5 -128q1 -24 22 -27l77 -8v-25h-262v24l48 5q22 3 22 25q3 267 0 531
q0 23 -22 26l-49 5v24z" />
    <glyph glyph-name="G" unicode="G" horiz-adv-x="668" 
d="M405 301h238v-25l-37 -5q-21 -4 -21 -28v-204q-82 -48 -224 -48q-151 0 -233.5 91.5t-82.5 233.5t86 236.5t236 94.5q119 0 222 -35q-8 -119 -15 -177h-25q-30 106 -34 115q-15 33 -58.5 50.5t-94.5 17.5q-105 0 -165 -80.5t-60 -208.5q0 -139 63.5 -225t168.5 -86
q84 0 134 51q1 57 -1 174q0 24 -25 27l-72 6v25z" />
    <glyph glyph-name="H" unicode="H" horiz-adv-x="716" 
d="M635 608q-23 -3 -23 -25q-1 -264 0 -527q0 -22 23 -25l50 -6v-25h-240v25l55 6q24 3 24 25q0 44 0.5 132t0.5 131q-167 -1 -335 0q0 -43 0.5 -131t0.5 -132q0 -22 25 -25l55 -6v-25h-240v25l49 6q23 3 23 25q3 263 0 527q0 22 -23 25l-49 6v25h240v-25l-55 -6
q-25 -3 -25 -26q0 -39 -0.5 -117t-0.5 -116q167 -3 335 0q0 38 -0.5 116t-0.5 118q0 22 -24 25l-55 6v25h240v-25z" />
    <glyph glyph-name="I" unicode="I" horiz-adv-x="294" 
d="M31 0v24l49 6q24 3 24 27q2 261 0 524q0 24 -24 27l-49 6v24h232v-24l-50 -6q-23 -3 -23 -27q-1 -262 0 -524q0 -24 23 -27l50 -6v-24h-232z" />
    <glyph glyph-name="J" unicode="J" horiz-adv-x="447" 
d="M169 -9q-73 0 -148 32l3 172h25q13 -47 47 -130q13 -49 72 -49q92 0 93 175v388q-2 25 -24 28l-64 7v24h247v-24l-49 -6q-24 -3 -24 -28q-1 -186 0 -359q1 -230 -178 -230z" />
    <glyph glyph-name="K" unicode="K" horiz-adv-x="615" 
d="M576 30l40 -6v-24h-139l-238 334l188 208q19 19 -2 35l-36 39v24h197v-24l-61 -27q-19 -9 -37 -27l-167 -182l229 -333q9 -13 26 -17zM190 57q0 -24 23 -27l50 -6v-24h-232v24l49 6q24 3 24 27q2 261 0 524q0 24 -24 27l-49 6v24h232v-24l-50 -6q-23 -3 -23 -27
q-1 -262 0 -524z" />
    <glyph glyph-name="L" unicode="L" horiz-adv-x="493" 
d="M34 0v24l43 6q23 4 24 29q2 266 0 527q-2 22 -23 25l-48 5v24h241v-24l-54 -5q-23 -3 -23 -25q-2 -357 0 -551l157 -8q17 -1 26 16q38 81 72 165h24q-14 -140 -22 -208h-417z" />
    <glyph glyph-name="M" unicode="M" horiz-adv-x="759" 
d="M713 29l45 -6v-24h-244v24l63 7q24 3 22 27q-23 245 -51 505l-180 -571h-24l-188 571l-53 -433q-3 -30 16 -45q37 -35 78 -61v-24h-196v24q22 16 55 62q16 17 19 43l58 450q3 28 -24 31l-60 7v24h176l163 -497l158 497h176v-24l-61 -8q-26 -3 -25 -30q15 -158 55 -524
q1 -22 22 -25z" />
    <glyph glyph-name="N" unicode="N" horiz-adv-x="676" 
d="M444 639h201v-25l-56 -52q-15 -15 -15 -38v-531h-68l-375 580v-453q0 -25 22 -40l87 -56v-24h-204v24l53 53q15 15 15 41v485l-14 3l-56 8v25h160l353 -552v434q0 24 -21 40l-82 53v25z" />
    <glyph glyph-name="O" unicode="O" horiz-adv-x="715" 
d="M355 -9q-145 0 -227.5 90.5t-82.5 235.5t85 237.5t230 92.5t227.5 -90.5t82.5 -235.5t-85 -237.5t-230 -92.5zM364 20q100 0 156.5 83t57.5 207q1 141 -62.5 224.5t-164.5 83.5q-100 0 -157 -83.5t-57 -208.5q-1 -140 62.5 -223t164.5 -83z" />
    <glyph glyph-name="P" unicode="P" horiz-adv-x="533" 
d="M502 464q0 -92 -61 -144t-173 -52q-42 0 -74 4q0 -145 1 -213q0 -25 24 -28l74 -7v-24h-263v24l49 6q22 4 22 26q3 263 0 529q0 23 -22 26l-49 5v24h245q109 0 168 -47.5t59 -128.5zM407 456q0 78 -46 118t-109 40q-17 0 -57 -6q-1 -97 -1 -299q33 -15 76 -15
q66 0 101.5 41t35.5 121z" />
    <glyph glyph-name="Q" unicode="Q" horiz-adv-x="715" 
d="M468 9l377 -158v-20l-106 -24l-328 188q-24 -4 -56 -4q-145 0 -227.5 90.5t-82.5 235.5t85 237.5t230 92.5t227.5 -90.5t82.5 -235.5q0 -113 -53 -196.5t-149 -115.5zM137 326q-1 -129 53.5 -210.5t143.5 -93.5l23 34l65 -27q74 23 114.5 100t41.5 181q1 141 -62.5 224.5
t-164.5 83.5q-100 0 -157 -83.5t-57 -208.5z" />
    <glyph glyph-name="R" unicode="R" horiz-adv-x="577" 
d="M553 27l34 -3v-24h-140l-179 297h-74q0 -163 1 -239q0 -23 23 -27l56 -7v-24h-243v24l47 6q23 4 23 25q3 270 0 530q0 23 -23 26l-48 5v24h248q111 0 169.5 -42t58.5 -119q0 -64 -43 -110.5t-112 -63.5h12l165 -261q10 -15 25 -17zM195 608q-1 -90 -1 -279q48 -6 85 -6
q59 0 94 37.5t35 108.5q0 70 -38.5 108t-108.5 38q-22 0 -66 -7z" />
    <glyph glyph-name="S" unicode="S" horiz-adv-x="490" 
d="M230 -9q-114 0 -173 32q2 51 2 163h24q3 -7 19.5 -48.5t27.5 -65.5q18 -53 109 -53q124 0 124 105q0 44 -31.5 81.5t-76.5 66l-90.5 58.5t-77 72t-31.5 93q0 65 50 108.5t148 43.5q86 0 165 -29q-7 -54 -16 -145h-23l-18.5 51l-15.5 43q-6 24 -33 38.5t-64 14.5
q-114 0 -114 -93q0 -39 31.5 -74.5t76.5 -64.5l90 -60t76.5 -73t31.5 -91q0 -82 -58 -127.5t-153 -45.5z" />
    <glyph glyph-name="T" unicode="T" horiz-adv-x="597" 
d="M559 638q-1 -56 -1 -166h-27q-18 49 -44 113q-9 19 -28 21l-120 6q-2 -363 0 -554q0 -25 24 -28l63 -6v-24h-256v24l60 6q24 3 24 27q1 276 0 555l-120 -5q-17 -2 -27 -20l-56 -115h-27q10 132 13 166h522z" />
    <glyph glyph-name="U" unicode="U" horiz-adv-x="673" 
d="M334 -10q-235 0 -235 253q1 116 -1 339q0 24 -21 28l-50 6v24h249v-24l-64 -7q-22 -2 -22 -27q-1 -174 0 -350q1 -102 47 -153t127 -51q95 0 137 62t42 190v230q0 26 -17 37q-61 58 -75 69v24h199v-24q-21 -22 -57 -66q-15 -12 -15 -37v-234q0 -140 -61 -214.5
t-183 -74.5z" />
    <glyph glyph-name="V" unicode="V" horiz-adv-x="614" 
d="M405 640h198v-24q-17 -18 -58 -65q-13 -13 -23 -37l-193 -522h-44l-220 597q-7 19 -26 22l-33 5v24h243v-24l-63 -5q-29 -3 -19 -31l174 -478l149 411q9 24 -11 41q-37 34 -74 62v24z" />
    <glyph glyph-name="W" unicode="W" horiz-adv-x="938" 
d="M724 640h204v-24q-49 -54 -59 -66q-17 -19 -22 -37l-179 -522h-44l-153 456l-159 -456h-44l-203 598q-7 20 -26 23l-33 4v24h242v-24l-63 -4q-28 -3 -18 -31l156 -480l127 374q5 18 -1 36l-28 78q-6 20 -26 23l-45 4v24h253v-24l-62 -4q-27 -3 -19 -31l157 -481l136 412
q8 23 -8 38q-22 19 -83 66v24z" />
    <glyph glyph-name="X" unicode="X" horiz-adv-x="636" 
d="M586 29l41 -5v-24h-260v24l54 5q14 2 17 13.5t-7 26.5l-143 224l-132 -172q-20 -25 5 -45q45 -34 72 -52v-24h-223v24q39 24 64 48.5t56 64.5l140 183l-170 267q-14 21 -35 24l-40 5v24h260v-24l-55 -6q-14 -2 -16.5 -12.5t7.5 -26.5l130 -202l116 152q19 26 -4 45
q-31 25 -68 50v24h215v-24q-65 -43 -118 -112l-124 -162l184 -288q14 -22 34 -25z" />
    <glyph glyph-name="Y" unicode="Y" horiz-adv-x="556" 
d="M352 640h195v-23l-57 -44q-15 -10 -23 -28l-140 -258q-2 -112 0 -230q0 -26 23 -28l56 -6v-23h-251v23l55 6q23 2 23 28q3 118 0 224l-173 311q-10 16 -28 19l-30 5v24h241v-24l-64 -5q-27 -3 -13 -29l149 -266l118 222q12 24 -10 38q-38 25 -71 42v22z" />
    <glyph glyph-name="Z" unicode="Z" horiz-adv-x="537" 
d="M408 53q15 32 68 154h24q-8 -84 -23 -207h-450l-1 20l374 592l-243 -6q-21 0 -28 -22q-19 -43 -53 -135h-25q1 31 3.5 94t4.5 95h442l1 -20l-374 -592l251 8q20 0 29 19z" />
    <glyph glyph-name="bracketleft" unicode="[" horiz-adv-x="335" 
d="M73 734h249v-32l-166 -6v-871l166 -7v-32h-249v948z" />
    <glyph glyph-name="backslash" unicode="\" horiz-adv-x="338" 
d="M10 765l397 -986l-36 -15l-396 985z" />
    <glyph glyph-name="bracketright" unicode="]" horiz-adv-x="335" 
d="M262 734v-948h-249v32l166 7v871l-166 6v32h249z" />
    <glyph glyph-name="asciicircum" unicode="^" horiz-adv-x="600" 
d="M475 296l-20 -13l-155 197l-155 -197l-21 13l151 265h49z" />
    <glyph glyph-name="underscore" unicode="_" horiz-adv-x="600" 
d="M-10 -85h620v-48h-620v48z" />
    <glyph glyph-name="grave" unicode="`" horiz-adv-x="300" 
d="M234 511q-115 56 -183 120l2 25l63 21l134 -147z" />
    <glyph glyph-name="a" unicode="a" horiz-adv-x="486" 
d="M428 43l42 -4v-22q-53 -9 -125 -24h-12l-11 66q-53 -38 -89.5 -53t-77.5 -15q-49 0 -82 29.5t-33 79.5q0 48 30.5 80t94.5 54q39 13 152 46v31q-2 133 -90 133q-65 0 -91 -75q-11 -26 -24 -73h-22l-30 111q100 63 191 63q153 0 153 -147v-79.5v-97v-75.5q1 -25 24 -28z
M132 114q0 -39 17 -61t51 -22q52 0 117 56v169q-39 -11 -106 -35q-79 -30 -79 -107z" />
    <glyph glyph-name="b" unicode="b" horiz-adv-x="531" 
d="M303 469q85 0 134.5 -60t49.5 -157q0 -122 -63 -191.5t-165 -69.5q-83 0 -138 45q-14 -21 -23 -43h-20q2 200 0 643q0 22 -22 26q-9 1 -27.5 2.5t-27.5 2.5v23q49 8 140 26h19q0 -46 -0.5 -145.5t-0.5 -150.5q79 49 144 49zM267 18q135 0 135 204q0 93 -36.5 148.5
t-99.5 55.5q-53 0 -107 -41q0 -171 1 -248v-12q0 -42 31 -74.5t76 -32.5z" />
    <glyph glyph-name="c" unicode="c" horiz-adv-x="475" 
d="M263 -9q-105 0 -162 68t-57 165q0 107 65 177t168 70q72 0 142 -27l-31 -153h-22q-4 13 -14.5 50.5t-16.5 54.5q-14 47 -67 47q-62 0 -99.5 -49.5t-37.5 -133.5q0 -94 45.5 -150t126.5 -56q69 0 102 28l12 -16q-48 -75 -154 -75z" />
    <glyph glyph-name="d" unicode="d" horiz-adv-x="542" 
d="M480 43l42 -4v-22q-12 -3 -53 -11t-63 -13l-13 1l-13 64q-69 -67 -147 -67q-83 0 -135.5 64.5t-52.5 165.5q0 112 61.5 180t159.5 68q61 0 109 -33q0 35 -0.5 100.5t-0.5 95.5q0 24 -22 27q-11 1 -32 2.5t-32 2.5v23l149 27h19q-2 -294 0 -643q0 -25 24 -28zM267 33
q57 0 108 58v238q-6 49 -39.5 79.5t-74.5 30.5q-59 0 -94.5 -50t-35.5 -135q0 -98 37 -159.5t99 -61.5z" />
    <glyph glyph-name="e" unicode="e" horiz-adv-x="477" 
d="M262 471q87 0 134.5 -58.5t39.5 -157.5l-19 -25q-123 -3 -284 -1q8 -81 52.5 -128t116.5 -47q69 0 103 29l12 -16q-44 -76 -155 -76q-104 0 -161 68.5t-57 165.5q0 109 61 177.5t157 68.5zM131 254q75 0 219 2q7 83 -20.5 135t-76.5 52q-54 0 -88 -50t-34 -131v-8z" />
    <glyph glyph-name="f" unicode="f" horiz-adv-x="302" 
d="M289 719q52 0 86 -21l-37 -99h-20l-15 56q-5 19 -12 26t-22 7q-45 0 -69.5 -52.5t-25.5 -146.5v-27h119v-20l-52 -15q-44 2 -67 4v-373q0 -23 20 -26l68 -10v-22h-239v22l45 8q19 5 19 25q2 193 0 380q-14 1 -37.5 2.5t-33.5 1.5v23h71v2q0 66 17.5 117t47.5 80
t64.5 43.5t72.5 14.5z" />
    <glyph glyph-name="g" unicode="g" horiz-adv-x="507" 
d="M481 421h-32h-35.5h-29.5q45 -43 45 -114q0 -72 -53 -117.5t-140 -45.5q-38 0 -70 9l-64 -86q62 2 172 2q199 0 199 -122q0 -84 -65.5 -137.5t-174.5 -53.5q-145 0 -222 60l128 170q-9 0 -29 -0.5t-31 -0.5q-19 63 -27 82q49 48 91 94q-47 19 -72.5 58t-24.5 90
q0 72 52.5 117.5t139.5 45.5q72 0 122 -31q40 14 109 48h12q-1 -43 0 -68zM242 169q46 0 73 37t27 102q0 67 -30 103t-79 36q-47 0 -74 -36.5t-27 -102.5t30.5 -102.5t79.5 -36.5zM432 -92q0 42 -40.5 60t-138.5 18h-85l-82 -122q38 -20 99 -34.5t110 -14.5q69 0 103 24.5
t34 68.5z" />
    <glyph glyph-name="h" unicode="h" horiz-adv-x="541" 
d="M481 28l42 -6v-22h-220v22l52 7q22 5 22 29q1 135 0 263q0 52 -18 76t-57 24q-44 0 -138 -62q0 -198 1 -300q0 -23 23 -29l51 -8v-22h-220v22l43 8q22 4 22 28q1 192 -1 576q0 24 -22 27q-35 4 -55 5v23q28 5 80.5 15.5t59.5 11.5h18v-322l47 27q86 49 137 49t81 -34.5
t29 -94.5v-283q0 -24 23 -30z" />
    <glyph glyph-name="i" unicode="i" horiz-adv-x="258" 
d="M126 553q-26 0 -40 16.5t-14 37.5q0 19 14.5 36t40.5 17q24 0 40 -14t16 -38t-15 -39.5t-42 -15.5zM24 22l43 8q22 4 23 28v329q-1 26 -22 29l-52 3l-1 23q76 13 138 27l18 -1q-2 -196 0 -410q0 -24 22 -28l43 -8v-22h-212v22z" />
    <glyph glyph-name="j" unicode="j" horiz-adv-x="268" 
d="M137 553q-26 0 -40 16.5t-14 37.5q0 19 14.5 36t40.5 17q24 0 40 -14t16 -38t-15 -39.5t-42 -15.5zM19 -221q47 14 64 63.5t17 145.5q2 207 0 397q0 29 -21 32q-9 1 -31.5 1.5t-33.5 0.5v23q84 14 149 27l18 -1v-435q1 -137 -37 -197t-121 -77z" />
    <glyph glyph-name="k" unicode="k" horiz-adv-x="527" 
d="M164 59q0 -25 23 -29l53 -7v-23h-220v23l42 7q22 4 22 29q2 289 0 573q0 24 -23 28l-55 6v22l138 27l19 -1q-1 -228 1 -655zM487 29l32 -6v-23h-125l-198 267l177 132q-64 32 -82 40v20h183l2 -24l-201 -144l185 -244q10 -14 27 -18z" />
    <glyph glyph-name="l" unicode="l" horiz-adv-x="249" 
d="M21 0v22l42 8q22 4 22 28q2 293 0 575q0 24 -23 28q-35 4 -56 5v23q23 4 141 27h19q-1 -17 -0.5 -336.5t0.5 -320.5q0 -25 22 -29l43 -8v-22h-210z" />
    <glyph glyph-name="m" unicode="m" horiz-adv-x="835" 
d="M775 30l42 -8v-22h-220v22l51 8q23 4 23 29q1 134 0 261q0 52 -18 76t-57 24q-46 0 -135 -59q1 -7 1 -21v-139q-1 -139 0 -143q0 -24 22 -28l50 -8v-22h-227v22l51 8q23 4 23 29q1 134 0 261q0 52 -18 76t-57 24q-48 0 -136 -59v-303q0 -23 23 -28l51 -8v-22h-220v22
l43 8q22 6 22 28q1 157 0 329q0 25 -23 28l-50 3l-1 22l133 27l15 -1l5 -73l47 27q86 49 137 49q39 0 65.5 -20.5t37.5 -57.5l50 29q86 49 137 49t80.5 -34.5t29.5 -94.5q-1 -137 0 -282q0 -24 23 -28z" />
    <glyph glyph-name="n" unicode="n" horiz-adv-x="547" 
d="M487 30l42 -8v-22h-221v22l51 9q23 3 23 27q1 136 0 262q-1 53 -18.5 76.5t-55.5 23.5q-50 0 -136 -59q-1 -102 -1 -303q2 -24 23 -27l51 -9v-22h-221v22l43 8q22 4 22 28q1 158 0 330q0 26 -24 27l-49 3l-1 23q23 4 135 26h15l4 -74l47 27q86 49 138 49q51 0 81 -34.5
t29 -93.5v-88v-104v-91q0 -24 23 -28z" />
    <glyph glyph-name="o" unicode="o" horiz-adv-x="532" 
d="M264 -9q-103 0 -161.5 65t-58.5 172t61.5 175t162.5 68q102 0 161 -65t59 -172t-61.5 -175t-162.5 -68zM270 18q57 0 91 56t34 148q0 100 -36 161t-97 61q-58 0 -91.5 -56t-33.5 -149q0 -100 36 -160.5t97 -60.5z" />
    <glyph glyph-name="p" unicode="p" horiz-adv-x="537" 
d="M309 469q83 0 133 -63t50 -161q0 -117 -64 -185.5t-161 -68.5q-59 0 -103 29q0 -35 0.5 -102t0.5 -98q0 -23 23 -27l57 -9v-22h-228v22l44 7q23 4 23 27q2 269 0 564q0 27 -25 30l-43 3v23q102 21 121 26l18 -1l6 -60q73 66 148 66zM276 22q58 0 94.5 49.5t36.5 140.5
q0 102 -39 157t-99 55q-54 0 -104 -53q0 -34 -0.5 -111.5t-0.5 -119.5q3 -52 35.5 -85t76.5 -33z" />
    <glyph glyph-name="q" unicode="q" horiz-adv-x="534" 
d="M475 -209l51 -9v-22h-223v22l46 8q23 4 23 27v224q-79 -50 -141 -50q-86 0 -136 59.5t-50 157.5q0 121 62.5 191t164.5 70q85 0 140 -48q18 29 26 46h15q-2 -208 0 -649q0 -23 22 -27zM265 33q53 0 107 42v237v22q0 41 -31.5 73.5t-75.5 32.5q-136 0 -136 -202
q0 -93 36.5 -149t99.5 -56z" />
    <glyph glyph-name="r" unicode="r" horiz-adv-x="398" 
d="M323 471q32 0 44 -27l-31 -146h-23q-10 49 -25 103q-3 11 -11.5 15t-19.5 -2q-27 -14 -81 -63q-2 -189 0 -292q0 -24 21 -28l66 -9v-22h-239v22l43 7q21 4 21 28q1 168 0 334q0 25 -23 28l-50 4v21q92 16 141 27h14l4 -88l37 31q38 32 62 44.5t50 12.5z" />
    <glyph glyph-name="s" unicode="s" horiz-adv-x="419" 
d="M195 -9q-85 0 -143 26q0 20 0.5 64t1.5 63h24q28 -63 40 -83q19 -42 87 -42q46 0 68.5 21t22.5 55q0 32 -25 55t-60 38.5l-70.5 32.5t-60.5 47t-25 72q0 57 43 93t115 36q79 0 131 -26q-1 -13 -3.5 -52t-3.5 -57h-23q-22 54 -26 61q-26 47 -87 47q-36 0 -58 -18t-22 -50
t25 -55t60.5 -38.5t71.5 -33t61 -48t25 -72.5q0 -61 -46 -98.5t-123 -37.5z" />
    <glyph glyph-name="t" unicode="t" horiz-adv-x="345" 
d="M315 57l7 -21q-46 -44 -120 -44q-117 0 -116 127v313l-73 3v25h76q30 72 53 137h24v-137h151v-17l-58 -19l-93 4v-301q1 -91 74 -91q40 0 75 21z" />
    <glyph glyph-name="u" unicode="u" horiz-adv-x="541" 
d="M481 44l43 -3v-23q-39 -7 -117 -23l-14 1l-13 75l-42 -25q-80 -55 -144 -55q-52 0 -81 34.5t-29 94.5q2 132 0 276q0 22 -23 26l-45 9v23l131 13l18 -1v-323q1 -102 75 -102q56 0 135 66q2 140 0 289q0 23 -22 26l-50 9v23l135 13l18 -1q-1 -140 1 -394q0 -25 24 -28z
" />
    <glyph glyph-name="v" unicode="v" horiz-adv-x="471" 
d="M306 459h162v-22q-27 -17 -44 -31q-19 -16 -27 -39l-142 -373h-41l-161 413q-8 18 -24 22l-36 8v22h214v-22l-50 -7q-26 -5 -17 -31l119 -324l107 291q9 24 -9 39q-10 7 -27.5 17.5t-23.5 14.5v22z" />
    <glyph glyph-name="w" unicode="w" horiz-adv-x="753" 
d="M579 462h171v-22q-18 -9 -48 -37q-18 -18 -29 -45l-130 -364h-41l-117 311l-123 -311h-41l-168 418q-7 18 -25 21l-34 7v22h215v-22l-46 -7q-22 -5 -13 -29l121 -317l89 229q11 25 2 46v1l-21 49q-8 18 -24 21l-34 7v22h213v-22l-44 -7q-24 -5 -15 -29l115 -315l92 267
q9 27 -9 39q-3 3 -24 21t-32 24v22z" />
    <glyph glyph-name="x" unicode="x" horiz-adv-x="479" 
d="M445 28l29 -6v-22h-210v22l30 5q14 3 17.5 13t-4.5 24l-98 149l-90 -105q-25 -30 1 -47q27 -27 44 -39v-22h-157v22q58 60 94 103l93 109l-118 177q-12 17 -31 22l-27 7v22h207v-22l-29 -5q-14 -2 -17.5 -11.5t6.5 -24.5l87 -133l77 89q25 29 -2 48q-22 22 -42 37v22h151
v-22q-42 -44 -89 -100l-82 -94l130 -197q10 -15 30 -21z" />
    <glyph glyph-name="y" unicode="y" horiz-adv-x="475" 
d="M303 461h170v-23q-22 -12 -47 -33q-19 -17 -27 -41l-229 -604q-26 2 -88 4v17l136 175l6 18l-168 427q-10 27 -33 32l-29 5v23h215v-24l-42 -4q-33 -5 -19 -38l117 -313l104 280q9 24 -6 36q-6 4 -27 19.5t-33 20.5v23z" />
    <glyph glyph-name="z" unicode="z" horiz-adv-x="460" 
d="M411 462v-17l-270 -419l158 5q31 0 43 31q21 41 45 109h23l-7 -171h-366v18l270 420l-153 -3q-13 0 -19.5 -6.5t-14.5 -26.5l-42 -93h-23l5 153h351z" />
    <glyph glyph-name="braceleft" unicode="{" horiz-adv-x="362" 
d="M325 -213q-93 2 -152.5 38.5t-59.5 107.5q0 30 24.5 108.5t24.5 98.5q0 36 -35 61.5t-95 33.5v35q60 9 95 34t35 61q0 20 -24.5 101.5t-24.5 112.5q0 70 59.5 106.5t152.5 38.5v-30q-59 -3 -95.5 -28.5t-36.5 -68.5q0 -30 24.5 -109.5t24.5 -107.5q0 -52 -41 -84.5
t-112 -40.5v-5q71 -8 112 -40.5t41 -84.5q0 -28 -24.5 -104.5t-24.5 -106.5q0 -43 36.5 -68.5t95.5 -27.5v-31z" />
    <glyph glyph-name="bar" unicode="|" horiz-adv-x="185" 
d="M69 -359v1214h47v-1214h-47z" />
    <glyph glyph-name="braceright" unicode="}" horiz-adv-x="362" 
d="M37 724q93 -2 152.5 -38.5t59.5 -106.5q0 -31 -24.5 -109.5t-24.5 -98.5q0 -35 35.5 -61t94.5 -33v-36q-60 -9 -95 -34t-35 -60q0 -20 24.5 -102t24.5 -112q0 -71 -59.5 -107.5t-152.5 -38.5v31q59 2 95.5 27.5t36.5 68.5q0 30 -24.5 109.5t-24.5 107.5q0 52 41 84.5
t112 40.5v6q-71 8 -112 40.5t-41 84.5q0 28 24.5 104t24.5 106q0 43 -36.5 68.5t-95.5 28.5v30z" />
    <glyph glyph-name="asciitilde" unicode="~" horiz-adv-x="533" 
d="M113 263l-30 2q0 46 18.5 80t58.5 34q35 0 118.5 -23t115.5 -28l32 51l31 -1q-1 -47 -19.5 -80.5t-58.5 -33.5q-35 0 -120 23t-113 27z" />
    <glyph glyph-name="uni00A0" unicode="&#xa0;" horiz-adv-x="228" 
 />
    <glyph glyph-name="exclamdown" unicode="&#xa1;" horiz-adv-x="185" 
d="M93 523q27 0 41 -15.5t14 -37.5q0 -19 -14.5 -36t-40.5 -17q-24 0 -40 14.5t-16 37.5q0 24 14.5 39t41.5 15zM144 -129l-92 -40l-14 8l43 529h24z" />
    <glyph glyph-name="cent" unicode="&#xa2;" horiz-adv-x="467" 
d="M303 157q67 0 102 26l12 -14q-48 -68 -154 -68h-1v-95h-22v96q-94 7 -145 67t-51 142q0 87 54 147.5t142 72.5v93h22v-91h15q70 0 142 -24l-31 -138h-22q-4 12 -14.5 46t-16.5 49q-15 42 -67 42h-6v-347q17 -4 41 -4zM131 343q0 -66 28.5 -112.5t80.5 -63.5v338
q-50 -10 -79.5 -53t-29.5 -109z" />
    <glyph glyph-name="sterling" unicode="&#xa3;" horiz-adv-x="542" 
d="M433 157h22q0 -95 -1 -157h-188q-127 0 -212 -10l-2 25q58 13 83.5 44t25.5 85q0 52 -31 143h-89v22h81q-36 102 -36 154q0 78 52.5 123t150.5 45q86 0 159 -28q-14 -137 -15 -143h-23q-6 15 -17.5 47.5l-15.5 43.5q-19 53 -101 53q-54 0 -83 -27t-29 -78q0 -25 7 -53.5
t23 -73.5l22 -63h176v-22h-170q16 -60 16 -108q0 -107 -84 -150l1 -3q120 10 192 27q46 10 62 30t24 74z" />
    <glyph glyph-name="currency" unicode="&#xa4;" horiz-adv-x="511" 
d="M459 126l-31 -29l-54 54q-48 -39 -118 -39q-73 0 -118 40l-56 -56l-30 29l58 58q-33 45 -33 116q0 69 33 118l-57 56l30 29l54 -55q46 40 119 40q72 0 118 -40l54 54l30 -29l-56 -55q33 -50 33 -118q0 -70 -33 -117zM256 166q56 0 90 37t34 96t-34 96.5t-90 37.5
t-90 -37.5t-34 -96.5t34 -96t90 -37z" />
    <glyph glyph-name="yen" unicode="&#xa5;" horiz-adv-x="550" 
d="M352 637h193v-24q-29 -20 -56 -43q-14 -10 -24 -28l-132 -245h124v-22h-130q0 -12 -0.5 -37t-0.5 -38h131v-22h-131q0 -81 1 -121q0 -26 23 -28l55 -6v-23h-249v23l55 6q21 1 23 28q1 39 1 121h-140v22h140q0 13 -0.5 38.5t-0.5 36.5h-139v22h129l-162 292q-10 16 -28 19
l-30 5v24h239v-24l-63 -6q-27 -3 -13 -28l148 -264l117 220q12 24 -10 38q-28 18 -70 42v22z" />
    <glyph glyph-name="brokenbar" unicode="&#xa6;" horiz-adv-x="185" 
d="M69 292v505h47v-505h-47zM69 -312v503h47v-503h-47z" />
    <glyph glyph-name="section" unicode="&#xa7;" horiz-adv-x="413" 
d="M268 128q44 -26 68.5 -57t24.5 -76q0 -60 -41.5 -98t-111.5 -38q-78 0 -130 28q6 74 7 114h23q2 -4 6.5 -17.5t9 -25.5t9.5 -20q26 -49 86 -49q36 0 58 19t22 52t-25 59t-60.5 45l-70.5 39.5t-60 53.5t-25 77q0 48 26 86t66 58q-92 56 -92 134q0 59 41.5 97t111.5 38
q77 0 129 -27q-1 -23 -3.5 -63.5t-3.5 -50.5h-23q-16 47 -24 62q-26 50 -86 50q-36 0 -58 -19.5t-22 -52.5t25 -58.5t60 -44.5l70.5 -39.5t60.5 -53.5t25 -77q0 -49 -26 -87t-67 -58zM121 266q0 -38 27 -62t80 -53l12 -6q25 11 41.5 37.5t16.5 57.5q0 50 -65 91
q-11 7 -54 31q-26 -12 -42 -38.5t-16 -57.5z" />
    <glyph glyph-name="dieresis" unicode="&#xa8;" horiz-adv-x="355" 
d="M98 543q-23 0 -35.5 15t-12.5 34q0 18 12.5 34t35.5 16q21 0 35 -13.5t14 -35.5t-12.5 -36t-36.5 -14zM258 543q-23 0 -35.5 15t-12.5 34q0 18 13 34t36 16q21 0 34.5 -13.5t13.5 -35.5t-12.5 -36t-36.5 -14z" />
    <glyph glyph-name="copyright" unicode="&#xa9;" horiz-adv-x="725" 
d="M360 -10q-147 0 -231 91t-84 238q0 144 86 236t234 92q147 0 231 -91.5t84 -237.5q0 -144 -86 -236t-234 -92zM360 18q134 0 213 84t79 216q0 134 -76.5 217.5t-210.5 83.5t-212.5 -84.5t-78.5 -215.5q0 -134 76.5 -217.5t209.5 -83.5zM368 137q-86 0 -134 51.5
t-48 130.5q0 78 51.5 132t138.5 54q60 0 120 -21l-8 -107h-21l-15 57q-19 44 -82 44q-59 0 -92.5 -41t-33.5 -110q0 -70 35 -117t90 -47q60 0 84 46q4 7 8 15.5l9 19t8 15.5h20l-13 -100q-44 -22 -117 -22z" />
    <glyph glyph-name="ordfeminine" unicode="&#xaa;" horiz-adv-x="309" 
d="M296 352l3 -15q-9 -1 -38.5 -6.5t-42.5 -7.5h-9l-11 36q-65 -42 -106 -42q-33 0 -54 18.5t-21 48.5q0 56 81 80q74 23 95 28v21q0 76 -50 76q-17 0 -33 -10t-22 -26q-1 -2 -22 -57h-16l-21 62q70 50 131 50q44 0 72 -21t27 -66q0 -108 1 -147q0 -18 14 -20zM85 394
q0 -48 44 -48q28 0 65 28q0 13 -0.5 49.5t-0.5 53.5q-11 -3 -32 -10t-22 -7q-54 -19 -54 -66z" />
    <glyph glyph-name="guillemotleft" unicode="&#xab;" horiz-adv-x="466" 
d="M237 392l-125 -160l125 -160l-23 -20l-182 159v42l182 159zM425 392l-124 -160l124 -160l-22 -20l-182 159v42l182 159z" />
    <glyph glyph-name="logicalnot" unicode="&#xac;" horiz-adv-x="527" 
d="M83 287v57h361v-168h-61v111h-300z" />
    <glyph glyph-name="uni00AD" unicode="&#xad;" horiz-adv-x="442" 
d="M66 287h310v-47h-310v47z" />
    <glyph glyph-name="registered" unicode="&#xae;" horiz-adv-x="435" 
d="M218 714q82 0 134.5 -53t52.5 -135t-52.5 -135t-134.5 -53t-135 53t-53 135t53 135t135 53zM218 359q73 0 119.5 47t46.5 120t-46.5 120t-119.5 47t-120 -47t-47 -120t47 -120t120 -47zM296 584q0 -46 -42 -61q41 -61 64 -91v-11h-39l-62 96h-23v-69q0 -6 9 -9l19 -2v-16
h-87v16l16 2q8 1 8 9v162q0 9 -8 9l-17 1v18h90q72 0 72 -54zM194 620v-85q16 -2 27 -2q17 0 28 12.5t11 35.5q0 41 -42 41q-8 0 -24 -2z" />
    <glyph glyph-name="macron" unicode="&#xaf;" horiz-adv-x="339" 
d="M50 616h239v-57h-239v57z" />
    <glyph glyph-name="degree" unicode="&#xb0;" horiz-adv-x="269" 
d="M134 437q-46 0 -76.5 30t-30.5 75q0 46 30.5 76.5t76.5 30.5q47 0 77.5 -30t30.5 -76t-30.5 -76t-77.5 -30zM134 472q31 0 51.5 20.5t20.5 50.5t-20.5 50.5t-51.5 20.5t-51 -20.5t-20 -51.5q0 -30 20.5 -50t50.5 -20z" />
    <glyph glyph-name="plusminus" unicode="&#xb1;" horiz-adv-x="527" 
d="M292 365v-152h-58v152h-151v57h151v152h58v-152h152v-57h-152zM83 98v57h361v-57h-361z" />
    <glyph glyph-name="uni00B2" unicode="&#xb2;" horiz-adv-x="332" 
d="M270 467h16l-19 -94h-242v12l61.5 60.5t57 62.5t54.5 77.5t17 63.5q0 30 -16.5 49t-43.5 22q-26 3 -51 -7q-9 -3 -12 -13l-28 -72h-15l-12 83q66 26 124 26q54 0 85 -22t31 -63q0 -51 -50 -105.5t-137 -118.5v-4h150q11 0 17 10z" />
    <glyph glyph-name="uni00B3" unicode="&#xb3;" horiz-adv-x="331" 
d="M151 559q61 -2 97.5 -25t36.5 -64q0 -46 -40.5 -74.5t-108.5 -28.5q-57 0 -103 11l11 86h15l28 -61q2 -6 11 -12q13 -7 37 -7q38 0 63 22t25 55q0 41 -32.5 63.5t-90.5 23.5v14q48 7 79 35t31 63q0 55 -60 61q-29 0 -43 -6q-11 -3 -14 -13l-25 -62h-16l-13 69
q57 28 122 28q54 0 82 -20t28 -54q0 -36 -32 -63t-88 -38v-3z" />
    <glyph glyph-name="acute" unicode="&#xb4;" horiz-adv-x="300" 
d="M66 511l-16 19l134 147l63 -21l2 -25q-68 -64 -183 -120z" />
    <glyph glyph-name="uni00B5" unicode="&#xb5;" horiz-adv-x="545" 
d="M527 44l1 -23q-14 -3 -119 -23l-11 1l-15 71l-40 -26q-78 -55 -144 -55q-15 0 -29 3v-240l-81 -10v410v76.5v91.5v76q0 23 -23 26l-49 9l-1 23l136 13l18 -8q-2 -151 0 -307v-11q0 -53 18 -77t57 -24q57 0 135 63q2 145 0 293q0 23 -23 26l-49 9l-1 23l136 13l18 -8
q-2 -184 0 -383q0 -27 25 -30z" />
    <glyph glyph-name="paragraph" unicode="&#xb6;" horiz-adv-x="533" 
d="M80 494q0 65 42.5 104.5t116.5 39.5h107v-744h-123v25l43 7q30 6 30 38v391q-46 -4 -56 -4q-71 0 -115.5 39.5t-44.5 103.5zM379 638h123v-25l-42 -6q-31 -6 -31 -36v-677h-50v744z" />
    <glyph glyph-name="periodcentered" unicode="&#xb7;" horiz-adv-x="191" 
d="M94 199q-26 0 -40 16t-14 37q0 19 14.5 36t40.5 17q24 0 40 -14.5t16 -37.5q0 -24 -15 -39t-42 -15z" />
    <glyph glyph-name="cedilla" unicode="&#xb8;" horiz-adv-x="249" 
d="M111 -53q88 -13 88 -74q0 -43 -37.5 -66.5t-103.5 -23.5l2 25q74 6 74 45q0 32 -70 37l-12 19l59 91h28z" />
    <glyph glyph-name="uni00B9" unicode="&#xb9;" horiz-adv-x="218" 
d="M29 387l38 4q14 3 14 16q2 169 0 274q0 13 -13 13h-38l-5 13l102 27h13q-2 -165 0 -327q0 -14 14 -16l38 -4v-14h-163v14z" />
    <glyph glyph-name="ordmasculine" unicode="&#xba;" horiz-adv-x="335" 
d="M166 318q-69 0 -106.5 40.5t-37.5 103.5q0 62 39 104t108 42q68 0 105.5 -40t37.5 -103t-38.5 -105t-107.5 -42zM172 335q33 0 52.5 30t19.5 83q-1 58 -22.5 100t-58.5 41q-34 0 -53.5 -30.5t-18.5 -84.5q1 -56 23 -97.5t58 -41.5z" />
    <glyph glyph-name="guillemotright" unicode="&#xbb;" horiz-adv-x="466" 
d="M246 253v-42l-182 -159l-23 20l125 160l-125 160l23 20zM253 412l181 -159v-42l-181 -159l-23 20l124 160l-124 160z" />
    <glyph glyph-name="onequarter" unicode="&#xbc;" horiz-adv-x="654" 
d="M534 647h26l-463 -656h-27zM67 288q14 3 14 16q2 170 0 274q0 13 -13 13h-38l-5 13l102 27h13q-2 -165 0 -327q0 -12 14 -16l38 -4v-14h-163v14zM573 135h56v-11l-14 -33h-42q1 -19 1 -57q0 -15 14 -16l27 -4v-14h-172v14l55 5q16 2 16 16v56h-175l-8 41l193 229h50
q-1 -80 -1 -226zM353 135h162q0 133 -1 187z" />
    <glyph glyph-name="onehalf" unicode="&#xbd;" horiz-adv-x="727" 
d="M534 647h26l-463 -656h-27zM67 288q14 3 14 16q2 170 0 274q0 13 -13 13h-38l-5 13l102 27h13q-2 -165 0 -327q0 -12 14 -16l38 -4v-14h-163v14zM665 94h16l-19 -94h-242v12l61.5 60.5t57 62.5t54.5 77.5t17 63.5q0 30 -16.5 49t-43.5 22q-26 3 -51 -7q-9 -3 -12 -13
l-28 -72h-15l-12 83q66 26 124 26q54 0 85 -22t31 -63q0 -51 -50 -105.5t-137 -118.5v-4h150q11 0 17 10z" />
    <glyph glyph-name="threequarters" unicode="&#xbe;" horiz-adv-x="717" 
d="M598 647h26l-463 -656h-27zM135 281q38 0 63 22t25 55q0 41 -32 63.5t-91 23.5v14q48 8 79 35.5t31 62.5q0 55 -60 61q-24 2 -43 -6q-11 -3 -14 -13l-25 -62h-16l-13 69q60 29 122 29q54 0 82 -20.5t28 -54.5q0 -36 -32 -63t-88 -38v-3q61 -2 97.5 -25t36.5 -64
q0 -46 -40.5 -74.5t-108.5 -28.5q-57 0 -103 11l11 86h15l28 -61q2 -6 11 -12q15 -7 37 -7zM637 135h56v-11l-14 -33h-42q1 -19 1 -57q0 -15 14 -16l27 -4v-14h-172v14l55 5q16 2 16 16v56h-175l-8 41l193 229h50q-1 -80 -1 -226zM417 135h162q0 133 -1 187z" />
    <glyph glyph-name="questiondown" unicode="&#xbf;" horiz-adv-x="380" 
d="M220 417q-23 0 -39 15t-16 38t14.5 38t41.5 15q26 0 40 -16t14 -37q0 -19 -14.5 -36t-40.5 -17zM337 6l23 -132q-32 -19 -80.5 -32.5t-93.5 -13.5q-77 0 -121.5 41t-44.5 106q0 58 29.5 106.5t97.5 102.5l44 35l18 139h23l28 -189l-52 -39q-115 -84 -115 -175
q0 -49 27.5 -77t71.5 -28q41 0 78 23l45 133h22z" />
    <glyph glyph-name="Agrave" unicode="&#xc0;" horiz-adv-x="577" 
d="M344 690q-128 22 -213 66l-5 25l56 38l172 -107zM573 27l24 -3v-24h-234v24l48 5q30 5 19 32l-62 175q-115 -1 -230 0l-43 -122q-10 -26 13 -44q18 -18 59 -46v-24h-190v24q19 13 38 32q39 30 52 68l185 507l63 23l213 -590q13 -33 45 -37zM148 263q105 -1 211 0
l-106 294z" />
    <glyph glyph-name="Aacute" unicode="&#xc1;" horiz-adv-x="577" 
d="M453 756q-84 -44 -212 -66l-10 22l171 107l56 -38zM573 27l24 -3v-24h-234v24l48 5q30 5 19 32l-62 175q-115 -1 -230 0l-43 -122q-10 -26 13 -44q18 -18 59 -46v-24h-190v24q19 13 38 32q39 30 52 68l185 507l63 23l213 -590q13 -33 45 -37zM148 263q105 -1 211 0
l-106 294z" />
    <glyph glyph-name="Acircumflex" unicode="&#xc2;" horiz-adv-x="577" 
d="M291 744l-130 -61l-19 17q69 74 136 113h26q65 -37 136 -113l-19 -17zM573 27l24 -3v-24h-234v24l48 5q30 5 19 32l-62 175q-115 -1 -230 0l-43 -122q-10 -26 13 -44q18 -18 59 -46v-24h-190v24q19 13 38 32q39 30 52 68l185 507l63 23l213 -590q13 -33 45 -37zM148 263
q105 -1 211 0l-106 294z" />
    <glyph glyph-name="Atilde" unicode="&#xc3;" horiz-adv-x="577" 
d="M188 736l-13 -43l-23 1q0 40 13.5 69.5t42.5 29.5q27 0 93 -22t92 -22l12 44l24 -1q0 -40 -13.5 -69t-43.5 -29q-26 0 -92 21t-92 21zM573 27l24 -3v-24h-234v24l48 5q30 5 19 32l-62 175q-115 -1 -230 0l-43 -122q-10 -26 13 -44q18 -18 59 -46v-24h-190v24q19 13 38 32
q39 30 52 68l185 507l63 23l213 -590q13 -33 45 -37zM148 263q105 -1 211 0l-106 294z" />
    <glyph glyph-name="Adieresis" unicode="&#xc4;" horiz-adv-x="577" 
d="M211 688q-23 0 -35.5 15t-12.5 34q0 18 12.5 34t35.5 16q21 0 35 -13.5t14 -35.5t-12.5 -36t-36.5 -14zM371 688q-23 0 -35.5 15t-12.5 34q0 18 13 34t36 16q21 0 34.5 -13.5t13.5 -35.5t-12.5 -36t-36.5 -14zM573 27l24 -3v-24h-234v24l48 5q30 5 19 32l-62 175
q-115 -1 -230 0l-43 -122q-10 -26 13 -44q18 -18 59 -46v-24h-190v24q19 13 38 32q39 30 52 68l185 507l63 23l213 -590q13 -33 45 -37zM148 263q105 -1 211 0l-106 294z" />
    <glyph glyph-name="Aring" unicode="&#xc5;" horiz-adv-x="577" 
d="M291 690q-50 0 -80 31.5t-30 73.5q0 43 30 73.5t80 30.5t80 -30t30 -73t-30 -74.5t-80 -31.5zM291 873q-34 0 -53 -22.5t-19 -54.5q0 -33 19 -56.5t53 -23.5t53 23t19 56q0 32 -19 55t-53 23zM573 27l24 -3v-24h-234v24l48 5q30 5 19 32l-62 175q-115 -1 -230 0l-43 -122
q-10 -26 13 -44q18 -18 59 -46v-24h-190v24q19 13 38 32q39 30 52 68l185 507l63 23l213 -590q13 -33 45 -37zM148 263q105 -1 211 0l-106 294z" />
    <glyph glyph-name="AE" unicode="&#xc6;" horiz-adv-x="834" 
d="M765 175h26l-19 -175h-421v25l49 5q22 4 22 26q1 57 1 177q-117 -2 -232 0l-81 -124q-18 -30 8 -49l56 -35v-25h-195v25l35 23q14 7 26 18t18.5 20t18.5 27l345 522h355l-15 -161h-25l-39 115q-7 19 -25 19h-82q-24 0 -82 -8q0 -44 -0.5 -129.5t-0.5 -128.5h123
q18 0 27 18q4 7 13 27t14 29h25v-201h-25l-27 82q-6 19 -27 19h-123q0 -46 0.5 -140t0.5 -141l168 -8q20 -2 28 17zM209 260q107 -2 214 0q1 100 -1 325z" />
    <glyph glyph-name="Ccedilla" unicode="&#xc7;" horiz-adv-x="647" 
d="M358 -9h-15l-23 -44q88 -13 88 -74q0 -43 -37.5 -66.5t-103.5 -23.5l2 25q74 6 74 45q0 32 -70 37l-12 19l55 84q-129 14 -200 103.5t-71 220.5q0 141 86 235.5t239 94.5q112 0 215 -35q-5 -101 -13 -179h-24q-28 92 -37 118q-15 36 -58 52.5t-93 16.5q-106 0 -165 -79.5
t-59 -214.5q0 -134 63.5 -221t167.5 -87q106 0 147 77q15 26 51 103h24q-12 -98 -26 -170q-77 -37 -205 -37z" />
    <glyph glyph-name="Egrave" unicode="&#xc8;" horiz-adv-x="522" 
d="M337 690q-128 22 -213 66l-5 25l56 38l172 -107zM456 181h24q-7 -90 -18 -181h-432v24l49 5q22 3 22 25q3 266 0 531q0 23 -22 26l-49 5v24h439q-7 -81 -18 -163h-24q-25 71 -47 119q-6 18 -23 18h-83q-36 0 -79 -8q-1 -89 -1 -259h118q16 0 27 17q16 27 32 58h24
q3 -102 0 -204h-24q-19 54 -32 85q-9 19 -26 19h-119q-1 -91 1 -288l164 -8q17 -1 28 17q36 65 69 138z" />
    <glyph glyph-name="Eacute" unicode="&#xc9;" horiz-adv-x="522" 
d="M446 756q-84 -44 -212 -66l-10 22l171 107l56 -38zM456 181h24q-7 -90 -18 -181h-432v24l49 5q22 3 22 25q3 266 0 531q0 23 -22 26l-49 5v24h439q-7 -81 -18 -163h-24q-25 71 -47 119q-6 18 -23 18h-83q-36 0 -79 -8q-1 -89 -1 -259h118q16 0 27 17q16 27 32 58h24
q3 -102 0 -204h-24q-19 54 -32 85q-9 19 -26 19h-119q-1 -91 1 -288l164 -8q17 -1 28 17q36 65 69 138z" />
    <glyph glyph-name="Ecircumflex" unicode="&#xca;" horiz-adv-x="522" 
d="M284 744l-130 -61l-19 17q69 74 136 113h26q65 -37 136 -113l-19 -17zM456 181h24q-7 -90 -18 -181h-432v24l49 5q22 3 22 25q3 266 0 531q0 23 -22 26l-49 5v24h439q-7 -81 -18 -163h-24q-25 71 -47 119q-6 18 -23 18h-83q-36 0 -79 -8q-1 -89 -1 -259h118q16 0 27 17
q16 27 32 58h24q3 -102 0 -204h-24q-19 54 -32 85q-9 19 -26 19h-119q-1 -91 1 -288l164 -8q17 -1 28 17q36 65 69 138z" />
    <glyph glyph-name="Edieresis" unicode="&#xcb;" horiz-adv-x="522" 
d="M204 688q-23 0 -35.5 15t-12.5 34q0 18 12.5 34t35.5 16q21 0 35 -13.5t14 -35.5t-12.5 -36t-36.5 -14zM364 688q-23 0 -35.5 15t-12.5 34q0 18 13 34t36 16q21 0 34.5 -13.5t13.5 -35.5t-12.5 -36t-36.5 -14zM456 181h24q-7 -90 -18 -181h-432v24l49 5q22 3 22 25
q3 266 0 531q0 23 -22 26l-49 5v24h439q-7 -81 -18 -163h-24q-25 71 -47 119q-6 18 -23 18h-83q-36 0 -79 -8q-1 -89 -1 -259h118q16 0 27 17q16 27 32 58h24q3 -102 0 -204h-24q-19 54 -32 85q-9 19 -26 19h-119q-1 -91 1 -288l164 -8q17 -1 28 17q36 65 69 138z" />
    <glyph glyph-name="Igrave" unicode="&#xcc;" horiz-adv-x="294" 
d="M200 688q-128 22 -213 66l-5 25l56 38l172 -107zM31 0v24l49 6q24 3 24 27q2 261 0 524q0 24 -24 27l-49 6v24h232v-24l-50 -6q-23 -3 -23 -27q-1 -262 0 -524q0 -24 23 -27l50 -6v-24h-232z" />
    <glyph glyph-name="Iacute" unicode="&#xcd;" horiz-adv-x="294" 
d="M97 688l-10 22l171 107l56 -38l-5 -25q-84 -44 -212 -66zM31 0v24l49 6q24 3 24 27q2 261 0 524q0 24 -24 27l-49 6v24h232v-24l-50 -6q-23 -3 -23 -27q-1 -262 0 -524q0 -24 23 -27l50 -6v-24h-232z" />
    <glyph glyph-name="Icircumflex" unicode="&#xce;" horiz-adv-x="294" 
d="M160 811q65 -37 136 -113l-19 -17l-130 61l-130 -61l-19 17q69 74 136 113h26zM31 614v24h232v-24l-50 -6q-23 -3 -23 -27q-1 -262 0 -524q0 -24 23 -27l50 -6v-24h-232v24l49 6q24 3 24 27q2 261 0 524q0 24 -24 27z" />
    <glyph glyph-name="Idieresis" unicode="&#xcf;" horiz-adv-x="294" 
d="M68 686q-23 0 -35.5 15t-12.5 34q0 18 12.5 34t35.5 16q21 0 35 -13.5t14 -35.5t-12.5 -36t-36.5 -14zM228 686q-23 0 -35.5 15t-12.5 34q0 18 13 34t36 16q21 0 34.5 -13.5t13.5 -35.5t-12.5 -36t-36.5 -14zM31 0v24l49 6q24 3 24 27q2 261 0 524q0 24 -24 27l-49 6v24
h232v-24l-50 -6q-23 -3 -23 -27q-1 -262 0 -524q0 -24 23 -27l50 -6v-24h-232z" />
    <glyph glyph-name="Eth" unicode="&#xd0;" horiz-adv-x="675" 
d="M309 640q145 0 234 -84.5t89 -228.5q0 -145 -84.5 -236t-234.5 -91h-280v24l48 5q23 3 23 25q0 44 0.5 130t0.5 129h-74v27h74q0 41 -0.5 123t-0.5 122q0 23 -23 26l-48 5v24h276zM313 26q96 0 157.5 79.5t61.5 211.5q0 134 -63 215.5t-172 81.5q-34 0 -99 -7
q-1 -90 -1 -267h154v-27h-154q0 -186 1 -279q75 -8 115 -8z" />
    <glyph glyph-name="Ntilde" unicode="&#xd1;" horiz-adv-x="676" 
d="M237 735l-13 -43l-23 1q0 40 13.5 69.5t42.5 29.5q27 0 93 -22t92 -22l12 44l24 -1q0 -40 -13.5 -69t-43.5 -29q-26 0 -92 21t-92 21zM444 639h201v-25l-56 -52q-15 -15 -15 -38v-531h-68l-375 580v-453q0 -25 22 -40l87 -56v-24h-204v24l53 53q15 15 15 41v485l-14 3
l-56 8v25h160l353 -552v434q0 24 -21 40l-82 53v25z" />
    <glyph glyph-name="Ograve" unicode="&#xd2;" horiz-adv-x="715" 
d="M410 690q-128 22 -213 66l-5 25l56 38l172 -107zM355 -9q-145 0 -227.5 90.5t-82.5 235.5t85 237.5t230 92.5t227.5 -90.5t82.5 -235.5t-85 -237.5t-230 -92.5zM364 20q100 0 156.5 83t57.5 207q1 141 -62.5 224.5t-164.5 83.5q-100 0 -157 -83.5t-57 -208.5
q-1 -140 62.5 -223t164.5 -83z" />
    <glyph glyph-name="Oacute" unicode="&#xd3;" horiz-adv-x="715" 
d="M307 690l-10 22l171 107l56 -38l-5 -25q-84 -44 -212 -66zM355 -9q-145 0 -227.5 90.5t-82.5 235.5t85 237.5t230 92.5t227.5 -90.5t82.5 -235.5t-85 -237.5t-230 -92.5zM364 20q100 0 156.5 83t57.5 207q1 141 -62.5 224.5t-164.5 83.5q-100 0 -157 -83.5t-57 -208.5
q-1 -140 62.5 -223t164.5 -83z" />
    <glyph glyph-name="Ocircumflex" unicode="&#xd4;" horiz-adv-x="715" 
d="M357 744l-130 -61l-19 17q69 74 136 113h26q65 -37 136 -113l-19 -17zM360 647q145 0 227.5 -90.5t82.5 -235.5t-85 -237.5t-230 -92.5t-227.5 90.5t-82.5 235.5t85 237.5t230 92.5zM578 310q1 141 -62.5 224.5t-164.5 83.5q-100 0 -157 -83.5t-57 -208.5
q-1 -140 62.5 -223t164.5 -83q100 0 156.5 83t57.5 207z" />
    <glyph glyph-name="Otilde" unicode="&#xd5;" horiz-adv-x="715" 
d="M242 693l-23 1q0 40 13.5 69.5t42.5 29.5q27 0 93 -22t92 -22l12 44l24 -1q0 -40 -13.5 -69t-43.5 -29q-26 0 -92 21t-92 21zM355 -9q-145 0 -227.5 90.5t-82.5 235.5t85 237.5t230 92.5t227.5 -90.5t82.5 -235.5t-85 -237.5t-230 -92.5zM364 20q100 0 156.5 83t57.5 207
q1 141 -62.5 224.5t-164.5 83.5q-100 0 -157 -83.5t-57 -208.5q-1 -140 62.5 -223t164.5 -83z" />
    <glyph glyph-name="Odieresis" unicode="&#xd6;" horiz-adv-x="715" 
d="M278 688q-23 0 -35.5 15t-12.5 34q0 18 12.5 34t35.5 16q21 0 35 -13.5t14 -35.5t-12.5 -36t-36.5 -14zM438 688q-23 0 -35.5 15t-12.5 34q0 18 13 34t36 16q21 0 34.5 -13.5t13.5 -35.5t-12.5 -36t-36.5 -14zM355 -9q-145 0 -227.5 90.5t-82.5 235.5t85 237.5t230 92.5
t227.5 -90.5t82.5 -235.5t-85 -237.5t-230 -92.5zM364 20q100 0 156.5 83t57.5 207q1 141 -62.5 224.5t-164.5 83.5q-100 0 -157 -83.5t-57 -208.5q-1 -140 62.5 -223t164.5 -83z" />
    <glyph glyph-name="multiply" unicode="&#xd7;" horiz-adv-x="482" 
d="M124 159l-41 41l117 116l-116 116l40 40l115 -116l117 117l41 -41l-117 -117l119 -114l-42 -42l-116 117z" />
    <glyph glyph-name="Oslash" unicode="&#xd8;" horiz-adv-x="715" 
d="M568 575q102 -90 102 -254q0 -145 -85 -237.5t-230 -92.5q-102 0 -178 49l-50 -68h-47l67 91q-102 91 -102 254q0 145 85 237.5t230 92.5q102 0 178 -49l50 69h47zM137 326q0 -127 51 -206l315 430q-62 68 -152 68q-100 0 -157 -83.5t-57 -208.5zM578 310q0 126 -52 208
l-314 -430q60 -68 152 -68q100 0 156.5 83t57.5 207z" />
    <glyph glyph-name="Ugrave" unicode="&#xd9;" horiz-adv-x="673" 
d="M399 690q-128 22 -213 66l-5 25l56 38l172 -107zM334 -10q-235 0 -235 253q1 116 -1 339q0 24 -21 28l-50 6v24h249v-24l-64 -7q-22 -2 -22 -27q-1 -174 0 -350q1 -102 47 -153t127 -51q95 0 137 62t42 190v230q0 26 -17 37q-61 58 -75 69v24h199v-24q-21 -22 -57 -66
q-15 -12 -15 -37v-234q0 -140 -61 -214.5t-183 -74.5z" />
    <glyph glyph-name="Uacute" unicode="&#xda;" horiz-adv-x="673" 
d="M296 690l-10 22l171 107l56 -38l-5 -25q-84 -44 -212 -66zM334 -10q-235 0 -235 253q1 116 -1 339q0 24 -21 28l-50 6v24h249v-24l-64 -7q-22 -2 -22 -27q-1 -174 0 -350q1 -102 47 -153t127 -51q95 0 137 62t42 190v230q0 26 -17 37q-61 58 -75 69v24h199v-24
q-21 -22 -57 -66q-15 -12 -15 -37v-234q0 -140 -61 -214.5t-183 -74.5z" />
    <glyph glyph-name="Ucircumflex" unicode="&#xdb;" horiz-adv-x="673" 
d="M346 744l-130 -61l-19 17q69 74 136 113h26q65 -37 136 -113l-19 -17zM451 640h199v-24q-21 -22 -57 -66q-15 -12 -15 -37v-234q0 -140 -61 -214.5t-183 -74.5q-235 0 -235 253q1 116 -1 339q0 24 -21 28l-50 6v24h249v-24l-64 -7q-22 -2 -22 -27q-1 -174 0 -350
q1 -102 47 -153t127 -51q95 0 137 62t42 190v230q0 26 -17 37q-61 58 -75 69v24z" />
    <glyph glyph-name="Udieresis" unicode="&#xdc;" horiz-adv-x="673" 
d="M267 688q-23 0 -35.5 15t-12.5 34q0 18 12.5 34t35.5 16q21 0 35 -13.5t14 -35.5t-12.5 -36t-36.5 -14zM427 688q-23 0 -35.5 15t-12.5 34q0 18 13 34t36 16q21 0 34.5 -13.5t13.5 -35.5t-12.5 -36t-36.5 -14zM334 -10q-235 0 -235 253q1 116 -1 339q0 24 -21 28l-50 6
v24h249v-24l-64 -7q-22 -2 -22 -27q-1 -174 0 -350q1 -102 47 -153t127 -51q95 0 137 62t42 190v230q0 26 -17 37q-61 58 -75 69v24h199v-24q-21 -22 -57 -66q-15 -12 -15 -37v-234q0 -140 -61 -214.5t-183 -74.5z" />
    <glyph glyph-name="Yacute" unicode="&#xdd;" horiz-adv-x="556" 
d="M447 756q-84 -44 -212 -66l-10 22l171 107l56 -38zM352 640h195v-23l-57 -44q-15 -10 -23 -28l-140 -258q-2 -112 0 -230q0 -26 23 -28l56 -6v-23h-251v23l55 6q23 2 23 28q3 118 0 224l-173 311q-10 16 -28 19l-30 5v24h241v-24l-64 -5q-27 -3 -13 -29l149 -266l118 222
q12 24 -10 38q-38 25 -71 42v22z" />
    <glyph glyph-name="Thorn" unicode="&#xde;" horiz-adv-x="526" 
d="M495 342q0 -92 -60.5 -144t-167.5 -52q-41 0 -78 6q0 -16 0.5 -47t0.5 -46q0 -23 24 -27l74 -7v-25h-257v25l47 6q25 4 25 26q2 270 0 521q0 22 -25 26l-47 6v25h257v-25l-74 -7q-24 -3 -24 -27v-63h83q106 0 164 -46t58 -125zM189 481v-291q35 -16 80 -16q65 0 101 40.5
t36 119.5q0 74 -46 113t-110 39q-26 0 -61 -5z" />
    <glyph glyph-name="germandbls" unicode="&#xdf;" horiz-adv-x="592" 
d="M314 407q0 -28 23 -54t56 -48t65.5 -46t55.5 -58t23 -75q0 -60 -42.5 -97.5t-113.5 -37.5q-83 0 -141 26q0 20 0.5 64t1.5 63h24q19 -52 34 -76q25 -49 88 -49q41 0 61 20.5t20 54.5q0 32 -22.5 60.5t-54.5 50.5l-63.5 44.5t-54 54.5t-22.5 70q0 29 14 54t33.5 43
l39 35.5t33.5 41.5t14 51q0 36 -23 59t-66 23q-63 0 -95.5 -53.5t-32.5 -143.5q-1 -196 0 -484h-146v22l44 8q21 4 21 26v376q-12 0 -35.5 2t-35.5 2v24h71q-1 125 63.5 189t158.5 64q67 0 110.5 -29.5t43.5 -75.5q0 -30 -23.5 -57.5t-51.5 -45.5t-51.5 -44t-23.5 -54z" />
    <glyph glyph-name="agrave" unicode="&#xe0;" horiz-adv-x="486" 
d="M286 532l-16 -19q-115 56 -183 120l2 25l63 21zM428 43l42 -4v-22q-53 -9 -125 -24h-12l-11 66q-53 -38 -89.5 -53t-77.5 -15q-49 0 -82 29.5t-33 79.5q0 48 30.5 80t94.5 54q39 13 152 46v31q-2 133 -90 133q-65 0 -91 -75q-11 -26 -24 -73h-22l-30 111q100 63 191 63
q153 0 153 -147v-79.5v-97v-75.5q1 -25 24 -28zM132 114q0 -39 17 -61t51 -22q52 0 117 56v169q-39 -11 -106 -35q-79 -30 -79 -107z" />
    <glyph glyph-name="aacute" unicode="&#xe1;" horiz-adv-x="486" 
d="M386 633q-68 -64 -183 -120l-16 19l134 147l63 -21zM428 43l42 -4v-22q-53 -9 -125 -24h-12l-11 66q-53 -38 -89.5 -53t-77.5 -15q-49 0 -82 29.5t-33 79.5q0 48 30.5 80t94.5 54q39 13 152 46v31q-2 133 -90 133q-65 0 -91 -75q-11 -26 -24 -73h-22l-30 111
q100 63 191 63q153 0 153 -147v-79.5v-97v-75.5q1 -25 24 -28zM132 114q0 -39 17 -61t51 -22q52 0 117 56v169q-39 -11 -106 -35q-79 -30 -79 -107z" />
    <glyph glyph-name="acircumflex" unicode="&#xe2;" horiz-adv-x="486" 
d="M237 603l-116 -94l-19 18q55 87 122 155h25q68 -68 122 -155l-19 -18zM428 43l42 -4v-22q-53 -9 -125 -24h-12l-11 66q-53 -38 -89.5 -53t-77.5 -15q-49 0 -82 29.5t-33 79.5q0 48 30.5 80t94.5 54q39 13 152 46v31q-2 133 -90 133q-65 0 -91 -75q-11 -26 -24 -73h-22
l-30 111q100 63 191 63q153 0 153 -147v-79.5v-97v-75.5q1 -25 24 -28zM132 114q0 -39 17 -61t51 -22q52 0 117 56v169q-39 -11 -106 -35q-79 -30 -79 -107z" />
    <glyph glyph-name="atilde" unicode="&#xe3;" horiz-adv-x="486" 
d="M146 583l-24 -44l-22 1q0 40 13.5 69.5t42.5 29.5q25 0 86 -20t85 -24l23 44l23 -1q-1 -41 -14.5 -70t-42.5 -29q-26 0 -88.5 20t-81.5 24zM428 43l42 -4v-22q-53 -9 -125 -24h-12l-11 66q-53 -38 -89.5 -53t-77.5 -15q-49 0 -82 29.5t-33 79.5q0 48 30.5 80t94.5 54
q39 13 152 46v31q-2 133 -90 133q-65 0 -91 -75q-11 -26 -24 -73h-22l-30 111q100 63 191 63q153 0 153 -147v-79.5v-97v-75.5q1 -25 24 -28zM132 114q0 -39 17 -61t51 -22q52 0 117 56v169q-39 -11 -106 -35q-79 -30 -79 -107z" />
    <glyph glyph-name="adieresis" unicode="&#xe4;" horiz-adv-x="486" 
d="M157 545q-23 0 -35.5 15t-12.5 34q0 18 12.5 34t35.5 16q21 0 35 -13.5t14 -35.5t-12.5 -36t-36.5 -14zM317 545q-23 0 -35.5 15t-12.5 34q0 18 13 34t36 16q21 0 34.5 -13.5t13.5 -35.5t-12.5 -36t-36.5 -14zM428 43l42 -4v-22q-53 -9 -125 -24h-12l-11 66
q-53 -38 -89.5 -53t-77.5 -15q-49 0 -82 29.5t-33 79.5q0 48 30.5 80t94.5 54q39 13 152 46v31q-2 133 -90 133q-65 0 -91 -75q-11 -26 -24 -73h-22l-30 111q100 63 191 63q153 0 153 -147v-79.5v-97v-75.5q1 -25 24 -28zM132 114q0 -39 17 -61t51 -22q52 0 117 56v169
q-39 -11 -106 -35q-79 -30 -79 -107z" />
    <glyph glyph-name="aring" unicode="&#xe5;" horiz-adv-x="486" 
d="M237 524q-50 0 -80 31.5t-30 74.5t30 73t80 30t80 -30t30 -73t-30 -74.5t-80 -31.5zM237 707q-34 0 -53 -22.5t-19 -54.5q0 -33 19 -56.5t53 -23.5t53 23.5t19 56.5q0 31 -19.5 54t-52.5 23zM428 43l42 -4v-22q-53 -9 -125 -24h-12l-11 66q-53 -38 -89.5 -53t-77.5 -15
q-49 0 -82 29.5t-33 79.5q0 48 30.5 80t94.5 54q39 13 152 46v31q-2 133 -90 133q-65 0 -91 -75q-11 -26 -24 -73h-22l-30 111q100 63 191 63q153 0 153 -147v-79.5v-97v-75.5q1 -25 24 -28zM132 114q0 -39 17 -61t51 -22q52 0 117 56v169q-39 -11 -106 -35
q-79 -30 -79 -107z" />
    <glyph glyph-name="ae" unicode="&#xe6;" horiz-adv-x="738" 
d="M674 256q-135 -2 -276 0v-2q0 -94 47.5 -151t127.5 -57q64 0 97 27l12 -17q-48 -66 -151 -66q-117 0 -176 91q-52 -44 -96.5 -67.5t-97.5 -23.5t-86.5 29.5t-33.5 79.5q0 90 125 133l150 47v35q0 60 -21.5 93.5t-64.5 33.5q-33 0 -60.5 -19t-34.5 -49q-3 -12 -12.5 -40
t-13.5 -42h-23l-24 101q97 78 190 78q96 0 125 -69q62 68 157 68q81 0 123.5 -52t37.5 -133zM528 442q-50 0 -86.5 -41.5t-42.5 -119.5q110 0 215 3q3 71 -18 114.5t-68 43.5zM197 29q40 0 75.5 33t48.5 114q-4 21 -4 47v31q-52 -15 -105 -35q-86 -31 -86 -107
q0 -38 18 -60.5t53 -22.5z" />
    <glyph glyph-name="ccedilla" unicode="&#xe7;" horiz-adv-x="475" 
d="M303 54q69 0 102 28l12 -16q-48 -75 -154 -75h-9l-23 -44q88 -13 88 -74q0 -43 -37.5 -66.5t-103.5 -23.5l2 25q74 6 74 45q0 32 -70 37l-12 19l55 84q-89 12 -136 77.5t-47 153.5q0 107 65 177t168 70q72 0 142 -27l-31 -153h-22q-4 13 -14.5 50.5t-16.5 54.5
q-14 47 -67 47q-62 0 -99.5 -49.5t-37.5 -133.5q0 -94 45.5 -150t126.5 -56z" />
    <glyph glyph-name="egrave" unicode="&#xe8;" horiz-adv-x="477" 
d="M300 532l-16 -19q-115 56 -183 120l2 25l63 21zM262 471q87 0 134.5 -58.5t39.5 -157.5l-19 -25q-123 -3 -284 -1q8 -81 52.5 -128t116.5 -47q69 0 103 29l12 -16q-44 -76 -155 -76q-104 0 -161 68.5t-57 165.5q0 109 61 177.5t157 68.5zM131 254q75 0 219 2
q7 83 -20.5 135t-76.5 52q-54 0 -88 -50t-34 -131v-8z" />
    <glyph glyph-name="eacute" unicode="&#xe9;" horiz-adv-x="477" 
d="M400 633q-68 -64 -183 -120l-16 19l134 147l63 -21zM262 471q87 0 134.5 -58.5t39.5 -157.5l-19 -25q-123 -3 -284 -1q8 -81 52.5 -128t116.5 -47q69 0 103 29l12 -16q-44 -76 -155 -76q-104 0 -161 68.5t-57 165.5q0 109 61 177.5t157 68.5zM131 254q75 0 219 2
q7 83 -20.5 135t-76.5 52q-54 0 -88 -50t-34 -131v-8z" />
    <glyph glyph-name="ecircumflex" unicode="&#xea;" horiz-adv-x="477" 
d="M251 603l-116 -94l-19 18q55 87 122 155h25q68 -68 122 -155l-19 -18zM262 471q87 0 134.5 -58.5t39.5 -157.5l-19 -25q-123 -3 -284 -1q8 -81 52.5 -128t116.5 -47q69 0 103 29l12 -16q-44 -76 -155 -76q-104 0 -161 68.5t-57 165.5q0 109 61 177.5t157 68.5zM131 254
q75 0 219 2q7 83 -20.5 135t-76.5 52q-54 0 -88 -50t-34 -131v-8z" />
    <glyph glyph-name="edieresis" unicode="&#xeb;" horiz-adv-x="477" 
d="M172 545q-23 0 -35.5 15t-12.5 34q0 18 12.5 34t35.5 16q21 0 35 -13.5t14 -35.5t-12.5 -36t-36.5 -14zM332 545q-23 0 -35.5 15t-12.5 34q0 18 13 34t36 16q21 0 34.5 -13.5t13.5 -35.5t-12.5 -36t-36.5 -14zM262 471q87 0 134.5 -58.5t39.5 -157.5l-19 -25
q-123 -3 -284 -1q8 -81 52.5 -128t116.5 -47q69 0 103 29l12 -16q-44 -76 -155 -76q-104 0 -161 68.5t-57 165.5q0 109 61 177.5t157 68.5zM131 254q75 0 219 2q7 83 -20.5 135t-76.5 52q-54 0 -88 -50t-34 -131v-8z" />
    <glyph glyph-name="igrave" unicode="&#xec;" horiz-adv-x="258" 
d="M154 509q-84 62 -143 144l10 24l67 7l86 -161zM24 22l43 8q22 4 23 28v329q-1 26 -22 29l-52 3l-1 23q76 13 138 27l18 -1q-2 -196 0 -410q0 -24 22 -28l43 -8v-22h-212v22z" />
    <glyph glyph-name="iacute" unicode="&#xed;" horiz-adv-x="258" 
d="M102 508l-20 14l84 162l67 -6l10 -24q-58 -84 -141 -146zM24 22l43 8q22 4 23 28v329q-1 26 -22 29l-52 3l-1 23q76 13 138 27l18 -1q-2 -196 0 -410q0 -24 22 -28l43 -8v-22h-212v22z" />
    <glyph glyph-name="icircumflex" unicode="&#xee;" horiz-adv-x="258" 
d="M128 595l-95 -87l-19 18q45 93 101 155h25q59 -65 101 -155l-19 -18zM171 58q0 -24 22 -28l43 -8v-22h-212v22l43 8q22 4 23 28v329q-1 26 -22 29l-52 3l-1 23q76 13 138 27l18 -1q-2 -196 0 -410z" />
    <glyph glyph-name="idieresis" unicode="&#xef;" horiz-adv-x="258" 
d="M58 547q-24 0 -36 14.5t-12 34.5q0 18 12.5 34t35.5 16q21 0 35 -13.5t14 -35.5t-13 -36t-36 -14zM197 547q-23 0 -35 15t-12 34q0 18 12.5 34t35.5 16q21 0 34.5 -13.5t13.5 -35.5t-12.5 -36t-36.5 -14zM24 22l43 8q22 4 23 28v329q-1 26 -22 29l-52 3l-1 23
q76 13 138 27l18 -1q-2 -196 0 -410q0 -24 22 -28l43 -8v-22h-212v22z" />
    <glyph glyph-name="eth" unicode="&#xf0;" horiz-adv-x="527" 
d="M481 278q1 -148 -60 -217.5t-164 -69.5q-98 0 -154.5 64t-56.5 166q0 108 64 173.5t166 65.5q52 0 91 -23q-35 101 -107 167l-123 -63l-13 26l112 57q-50 38 -111 54l7 27q82 -12 153 -56l83 43l14 -25l-70 -36q79 -60 124 -153t45 -200zM267 20q130 0 130 237
q0 63 -14 124q-38 52 -105 50q-69 -1 -107.5 -55.5t-38.5 -145.5q0 -95 36.5 -152.5t98.5 -57.5z" />
    <glyph glyph-name="ntilde" unicode="&#xf1;" horiz-adv-x="547" 
d="M184 582l-24 -44l-22 1q0 40 13.5 69.5t42.5 29.5q25 0 86 -20t85 -24l23 44l23 -1q-1 -41 -14.5 -70t-42.5 -29q-26 0 -88.5 20t-81.5 24zM487 30l42 -8v-22h-221v22l51 9q23 3 23 27q1 136 0 262q-1 53 -18.5 76.5t-55.5 23.5q-50 0 -136 -59q-1 -102 -1 -303
q2 -24 23 -27l51 -9v-22h-221v22l43 8q22 4 22 28q1 158 0 330q0 26 -24 27l-49 3l-1 23q23 4 135 26h15l4 -74l47 27q86 49 138 49q51 0 81 -34.5t29 -93.5v-88v-104v-91q0 -24 23 -28z" />
    <glyph glyph-name="ograve" unicode="&#xf2;" horiz-adv-x="532" 
d="M300 513q-115 56 -183 120l2 25l63 21l134 -147zM264 -9q-103 0 -161.5 65t-58.5 172t61.5 175t162.5 68q102 0 161 -65t59 -172t-61.5 -175t-162.5 -68zM270 18q57 0 91 56t34 148q0 100 -36 161t-97 61q-58 0 -91.5 -56t-33.5 -149q0 -100 36 -160.5t97 -60.5z" />
    <glyph glyph-name="oacute" unicode="&#xf3;" horiz-adv-x="532" 
d="M232 513l-16 19l134 147l63 -21l2 -25q-68 -64 -183 -120zM264 -9q-103 0 -161.5 65t-58.5 172t61.5 175t162.5 68q102 0 161 -65t59 -172t-61.5 -175t-162.5 -68zM270 18q57 0 91 56t34 148q0 100 -36 161t-97 61q-58 0 -91.5 -56t-33.5 -149q0 -100 36 -160.5t97 -60.5
z" />
    <glyph glyph-name="ocircumflex" unicode="&#xf4;" horiz-adv-x="532" 
d="M266 603l-116 -94l-19 18q55 87 122 155h25q68 -68 122 -155l-19 -18zM268 471q102 0 161 -65t59 -172t-61.5 -175t-162.5 -68q-103 0 -161.5 65t-58.5 172t61.5 175t162.5 68zM270 18q57 0 91 56t34 148q0 100 -36 161t-97 61q-58 0 -91.5 -56t-33.5 -149
q0 -100 36 -160.5t97 -60.5z" />
    <glyph glyph-name="otilde" unicode="&#xf5;" horiz-adv-x="532" 
d="M152 539l-22 1q0 40 13.5 69.5t42.5 29.5q25 0 86 -20t85 -24l23 44l23 -1q-1 -41 -14.5 -70t-42.5 -29q-26 0 -88.5 20t-81.5 24zM264 -9q-103 0 -161.5 65t-58.5 172t61.5 175t162.5 68q102 0 161 -65t59 -172t-61.5 -175t-162.5 -68zM270 18q57 0 91 56t34 148
q0 100 -36 161t-97 61q-58 0 -91.5 -56t-33.5 -149q0 -100 36 -160.5t97 -60.5z" />
    <glyph glyph-name="odieresis" unicode="&#xf6;" horiz-adv-x="532" 
d="M187 545q-23 0 -35.5 15t-12.5 34q0 18 12.5 34t35.5 16q21 0 35 -13.5t14 -35.5t-12.5 -36t-36.5 -14zM347 545q-23 0 -35.5 15t-12.5 34q0 18 13 34t36 16q21 0 34.5 -13.5t13.5 -35.5t-12.5 -36t-36.5 -14zM264 -9q-103 0 -161.5 65t-58.5 172t61.5 175t162.5 68
q102 0 161 -65t59 -172t-61.5 -175t-162.5 -68zM270 18q57 0 91 56t34 148q0 100 -36 161t-97 61q-58 0 -91.5 -56t-33.5 -149q0 -100 36 -160.5t97 -60.5z" />
    <glyph glyph-name="divide" unicode="&#xf7;" horiz-adv-x="527" 
d="M282 422q-24 0 -36 14.5t-12 33.5q0 18 13 33t36 15q21 0 35.5 -13t14.5 -34t-13.5 -35t-37.5 -14zM83 287v57h361v-57h-361zM282 116q-24 0 -36 14.5t-12 33.5q0 18 13 33t36 15q22 0 36 -13t14 -34t-13.5 -35t-37.5 -14z" />
    <glyph glyph-name="oslash" unicode="&#xf8;" horiz-adv-x="525" 
d="M418 417q70 -65 70 -183q0 -107 -61.5 -175t-162.5 -68q-75 0 -129 37l-40 -56h-41l56 77q-66 64 -66 179q0 107 61.5 175t162.5 68q71 0 124 -34l39 54h41zM137 239q0 -72 20 -126l199 275q-36 56 -94 56t-91.5 -56t-33.5 -149zM270 18q57 0 91 56t34 148q0 77 -22 132
l-200 -275q36 -61 97 -61z" />
    <glyph glyph-name="ugrave" unicode="&#xf9;" horiz-adv-x="541" 
d="M320 530l-16 -19q-115 56 -183 120l2 25l63 21zM481 44l43 -3v-23q-39 -7 -117 -23l-14 1l-13 75l-42 -25q-80 -55 -144 -55q-52 0 -81 34.5t-29 94.5q2 132 0 276q0 22 -23 26l-45 9v23l131 13l18 -1v-323q1 -102 75 -102q56 0 135 66q2 140 0 289q0 23 -22 26l-50 9v23
l135 13l18 -1q-1 -140 1 -394q0 -25 24 -28z" />
    <glyph glyph-name="uacute" unicode="&#xfa;" horiz-adv-x="541" 
d="M419 631q-68 -64 -183 -120l-16 19l134 147l63 -21zM481 44l43 -3v-23q-39 -7 -117 -23l-14 1l-13 75l-42 -25q-80 -55 -144 -55q-52 0 -81 34.5t-29 94.5q2 132 0 276q0 22 -23 26l-45 9v23l131 13l18 -1v-323q1 -102 75 -102q56 0 135 66q2 140 0 289q0 23 -22 26
l-50 9v23l135 13l18 -1q-1 -140 1 -394q0 -25 24 -28z" />
    <glyph glyph-name="ucircumflex" unicode="&#xfb;" horiz-adv-x="541" 
d="M271 601l-116 -94l-19 18q55 87 122 155h25q68 -68 122 -155l-19 -18zM481 44l43 -3v-23q-39 -7 -117 -23l-14 1l-13 75l-42 -25q-80 -55 -144 -55q-52 0 -81 34.5t-29 94.5q2 132 0 276q0 22 -23 26l-45 9v23l131 13l18 -1v-323q1 -102 75 -102q56 0 135 66q2 140 0 289
q0 23 -22 26l-50 9v23l135 13l18 -1q-1 -140 1 -394q0 -25 24 -28z" />
    <glyph glyph-name="udieresis" unicode="&#xfc;" horiz-adv-x="541" 
d="M191 543q-23 0 -35.5 15t-12.5 34q0 18 12.5 34t35.5 16q21 0 35 -13.5t14 -35.5t-12.5 -36t-36.5 -14zM351 543q-23 0 -35.5 15t-12.5 34q0 18 13 34t36 16q21 0 34.5 -13.5t13.5 -35.5t-12.5 -36t-36.5 -14zM481 44l43 -3v-23q-39 -7 -117 -23l-14 1l-13 75l-42 -25
q-80 -55 -144 -55q-52 0 -81 34.5t-29 94.5q2 132 0 276q0 22 -23 26l-45 9v23l131 13l18 -1v-323q1 -102 75 -102q56 0 135 66q2 140 0 289q0 23 -22 26l-50 9v23l135 13l18 -1q-1 -140 1 -394q0 -25 24 -28z" />
    <glyph glyph-name="yacute" unicode="&#xfd;" horiz-adv-x="475" 
d="M386 632q-68 -64 -183 -120l-16 19l134 147l63 -21zM303 461h170v-23q-22 -12 -47 -33q-19 -17 -27 -41l-229 -604q-26 2 -88 4v17l136 175l6 18l-168 427q-10 27 -33 32l-29 5v23h215v-24l-42 -4q-33 -5 -19 -38l117 -313l104 280q9 24 -6 36q-6 4 -27 19.5t-33 20.5v23
z" />
    <glyph glyph-name="thorn" unicode="&#xfe;" horiz-adv-x="533" 
d="M305 469q83 0 133 -63t50 -161q0 -117 -64 -185.5t-161 -68.5q-61 0 -103 29q1 -79 1 -204q0 -23 23 -27l56 -9v-22h-227v22l44 7q23 5 23 27q1 159 0.5 436t-1.5 382q0 25 -22 28q-39 4 -55 5v23q28 5 80.5 15.5t59.5 11.5h18v-309q71 63 145 63zM272 22q58 0 94.5 49.5
t36.5 140.5q0 102 -39 157t-99 55q-56 0 -105 -54v-231q3 -52 35 -84.5t77 -32.5z" />
    <glyph glyph-name="ydieresis" unicode="&#xff;" horiz-adv-x="475" 
d="M157 544q-23 0 -35.5 15t-12.5 34q0 18 12.5 34t35.5 16q21 0 35 -13.5t14 -35.5t-12.5 -36t-36.5 -14zM317 544q-23 0 -35.5 15t-12.5 34q0 18 13 34t36 16q21 0 34.5 -13.5t13.5 -35.5t-12.5 -36t-36.5 -14zM303 461h170v-23q-22 -12 -47 -33q-19 -17 -27 -41
l-229 -604q-26 2 -88 4v17l136 175l6 18l-168 427q-10 27 -33 32l-29 5v23h215v-24l-42 -4q-33 -5 -19 -38l117 -313l104 280q9 24 -6 36q-6 4 -27 19.5t-33 20.5v23z" />
    <glyph glyph-name="Amacron" unicode="&#x100;" horiz-adv-x="577" 
d="M416 769v-61h-251v61h251zM573 27l24 -3v-24h-234v24l48 5q30 5 19 32l-62 175q-115 -1 -230 0l-43 -122q-10 -26 13 -44q18 -18 59 -46v-24h-190v24q19 13 38 32q39 30 52 68l185 507l63 23l213 -590q13 -33 45 -37zM148 263q105 -1 211 0l-106 294z" />
    <glyph glyph-name="amacron" unicode="&#x101;" horiz-adv-x="486" 
d="M356 618v-57h-239v57h239zM428 43l42 -4v-22q-53 -9 -125 -24h-12l-11 66q-53 -38 -89.5 -53t-77.5 -15q-49 0 -82 29.5t-33 79.5q0 48 30.5 80t94.5 54q39 13 152 46v31q-2 133 -90 133q-65 0 -91 -75q-11 -26 -24 -73h-22l-30 111q100 63 191 63q153 0 153 -147v-79.5
v-97v-75.5q1 -25 24 -28zM132 114q0 -39 17 -61t51 -22q52 0 117 56v169q-39 -11 -106 -35q-79 -30 -79 -107z" />
    <glyph glyph-name="Abreve" unicode="&#x102;" horiz-adv-x="577" 
d="M291 684q-57 0 -89.5 35.5t-38.5 99.5l32 2q7 -36 32.5 -57t63.5 -21q36 0 61.5 21t33.5 57l32 -2q-6 -63 -39 -99t-88 -36zM573 27l24 -3v-24h-234v24l48 5q30 5 19 32l-62 175q-115 -1 -230 0l-43 -122q-10 -26 13 -44q18 -18 59 -46v-24h-190v24q19 13 38 32
q39 30 52 68l185 507l63 23l213 -590q13 -33 45 -37zM148 263q105 -1 211 0l-106 294z" />
    <glyph glyph-name="abreve" unicode="&#x103;" horiz-adv-x="486" 
d="M237 525q-116 0 -128 150l32 2q7 -44 32 -67t64 -23q37 0 62.5 23t32.5 67l32 -2q-6 -73 -38.5 -111.5t-88.5 -38.5zM428 43l42 -4v-22q-53 -9 -125 -24h-12l-11 66q-53 -38 -89.5 -53t-77.5 -15q-49 0 -82 29.5t-33 79.5q0 48 30.5 80t94.5 54q39 13 152 46v31
q-2 133 -90 133q-65 0 -91 -75q-11 -26 -24 -73h-22l-30 111q100 63 191 63q153 0 153 -147v-79.5v-97v-75.5q1 -25 24 -28zM132 114q0 -39 17 -61t51 -22q52 0 117 56v169q-39 -11 -106 -35q-79 -30 -79 -107z" />
    <glyph glyph-name="Aogonek" unicode="&#x104;" horiz-adv-x="576" 
d="M571 28l25 -3v-25h-81q-79 0 -116.5 -29.5t-37.5 -73.5q0 -32 19 -51.5t49 -19.5q32 0 58 24l15 -17q-41 -50 -106 -50q-44 0 -73 27t-29 69q0 88 113 133q25 10 31.5 22t-1.5 31l-60 169q-118 -2 -235 0l-45 -129q-10 -30 12 -43q20 -15 58 -37v-25h-185v25q4 2 35 23
q36 24 50 62l187 521l63 21l210 -587q12 -31 44 -37zM152 262q95 -3 215 -1l-108 304z" />
    <glyph glyph-name="aogonek" unicode="&#x105;" horiz-adv-x="479" 
d="M464 18q-142 -29 -142 -119q0 -32 19 -51t48 -19q35 0 59 24l16 -18q-42 -49 -108 -49q-44 0 -73 26t-29 67q0 37 24 70.5t62 53.5l-17 59q-54 -39 -91 -55t-77 -16q-49 0 -81.5 29.5t-32.5 79.5q0 90 125 133l150 47v34q0 127 -87 127q-75 0 -98 -71q-6 -17 -13 -41.5
t-10 -32.5h-22l-26 107q101 66 192 66q145 0 145 -143v-253q1 -26 25 -29l42 -3v-23zM126 113q0 -83 72 -83q50 0 118 56v48v63v57q-44 -12 -105 -34q-85 -31 -85 -107z" />
    <glyph glyph-name="Cacute" unicode="&#x106;" horiz-adv-x="650" 
d="M298 688l-10 22l171 107l56 -38l-5 -25q-84 -44 -212 -66zM358 -9q-148 0 -230.5 91.5t-82.5 234.5q0 141 86 235.5t239 94.5q112 0 215 -35q-5 -101 -13 -179h-24q-28 92 -37 118q-15 36 -58 52.5t-93 16.5q-106 0 -165 -79.5t-59 -214.5q0 -134 63.5 -221t167.5 -87
q106 0 147 77q15 26 51 103h24q-12 -98 -26 -170q-77 -37 -205 -37z" />
    <glyph glyph-name="cacute" unicode="&#x107;" horiz-adv-x="475" 
d="M221 513l-16 19l134 147l63 -21l2 -25q-68 -64 -183 -120zM263 -9q-105 0 -162 68t-57 165q0 107 65 177t168 70q72 0 142 -27l-31 -153h-22q-4 13 -14.5 50.5t-16.5 54.5q-14 47 -67 47q-62 0 -99.5 -49.5t-37.5 -133.5q0 -94 45.5 -150t126.5 -56q69 0 102 28l12 -16
q-48 -75 -154 -75z" />
    <glyph glyph-name="Ccircumflex" unicode="&#x108;" horiz-adv-x="650" 
d="M348 742l-130 -61l-19 17q69 74 136 113h26q65 -37 136 -113l-19 -17zM565 198h24q-12 -98 -26 -170q-77 -37 -205 -37q-148 0 -230.5 91.5t-82.5 234.5q0 141 86 235.5t239 94.5q112 0 215 -35q-5 -101 -13 -179h-24q-28 92 -37 118q-15 36 -58 52.5t-93 16.5
q-106 0 -165 -79.5t-59 -214.5q0 -134 63.5 -221t167.5 -87q106 0 147 77q15 26 51 103z" />
    <glyph glyph-name="ccircumflex" unicode="&#x109;" horiz-adv-x="475" 
d="M255 603l-116 -94l-19 18q55 87 122 155h25q68 -68 122 -155l-19 -18zM303 54q69 0 102 28l12 -16q-48 -75 -154 -75q-105 0 -162 68t-57 165q0 107 65 177t168 70q72 0 142 -27l-31 -153h-22q-4 13 -14.5 50.5t-16.5 54.5q-14 47 -67 47q-62 0 -99.5 -49.5t-37.5 -133.5
q0 -94 45.5 -150t126.5 -56z" />
    <glyph glyph-name="Cdotaccent" unicode="&#x10a;" horiz-adv-x="650" 
d="M347 704q-26 0 -40 16.5t-14 37.5q0 19 14.5 36.5t40.5 17.5q24 0 40 -14.5t16 -38.5t-15 -39.5t-42 -15.5zM358 -9q-148 0 -230.5 91.5t-82.5 234.5q0 141 86 235.5t239 94.5q112 0 215 -35q-5 -101 -13 -179h-24q-28 92 -37 118q-15 36 -58 52.5t-93 16.5
q-106 0 -165 -79.5t-59 -214.5q0 -134 63.5 -221t167.5 -87q106 0 147 77q15 26 51 103h24q-12 -98 -26 -170q-77 -37 -205 -37z" />
    <glyph glyph-name="cdotaccent" unicode="&#x10b;" horiz-adv-x="475" 
d="M253 555q-26 0 -40 16.5t-14 37.5q0 19 14.5 36t40.5 17q24 0 40 -14t16 -38t-15 -39.5t-42 -15.5zM263 -9q-105 0 -162 68t-57 165q0 107 65 177t168 70q72 0 142 -27l-31 -153h-22q-4 13 -14.5 50.5t-16.5 54.5q-14 47 -67 47q-62 0 -99.5 -49.5t-37.5 -133.5
q0 -94 45.5 -150t126.5 -56q69 0 102 28l12 -16q-48 -75 -154 -75z" />
    <glyph glyph-name="Ccaron" unicode="&#x10c;" horiz-adv-x="650" 
d="M335 685q-63 35 -136 112l19 18l130 -61l130 61l19 -18q-75 -78 -136 -112h-26zM565 198h24q-12 -98 -26 -170q-77 -37 -205 -37q-148 0 -230.5 91.5t-82.5 234.5q0 141 86 235.5t239 94.5q112 0 215 -35q-5 -101 -13 -179h-24q-28 92 -37 118q-15 36 -58 52.5t-93 16.5
q-106 0 -165 -79.5t-59 -214.5q0 -134 63.5 -221t167.5 -87q106 0 147 77q15 26 51 103z" />
    <glyph glyph-name="ccaron" unicode="&#x10d;" horiz-adv-x="475" 
d="M267 517h-25q-68 71 -122 156l19 18l116 -94l115 94l19 -18q-53 -86 -122 -156zM303 54q69 0 102 28l12 -16q-48 -75 -154 -75q-105 0 -162 68t-57 165q0 107 65 177t168 70q72 0 142 -27l-31 -153h-22q-4 13 -14.5 50.5t-16.5 54.5q-14 47 -67 47q-62 0 -99.5 -49.5
t-37.5 -133.5q0 -94 45.5 -150t126.5 -56z" />
    <glyph glyph-name="Dcaron" unicode="&#x10e;" horiz-adv-x="674" 
d="M315 687q-63 35 -136 112l19 18l130 -61l130 61l19 -18q-75 -78 -136 -112h-26zM306 640q145 0 234.5 -84.5t89.5 -228.5q0 -145 -85 -236t-235 -91h-280v24l49 5q22 3 22 25q3 267 0 531q0 23 -22 26l-49 5v24h276zM310 26q96 0 158 79.5t62 211.5q0 134 -63.5 215.5
t-172.5 81.5q-34 0 -99 -7q-1 -289 0 -573q77 -8 115 -8z" />
    <glyph glyph-name="dcaron" unicode="&#x10f;" horiz-adv-x="610" 
d="M642 666q1 -40 -30.5 -83.5t-80.5 -74.5l-14 18q64 45 81 95l-22 13q-36 21 -36 48q1 21 15 33.5t35 11.5q23 -1 37.5 -17t14.5 -44zM456 71q0 -25 24 -28l42 -4v-22q-12 -3 -53 -11t-63 -13l-13 1l-13 64q-69 -67 -147 -67q-83 0 -135.5 64.5t-52.5 165.5
q0 112 61.5 180t159.5 68q61 0 109 -33q0 35 -0.5 100.5t-0.5 95.5q0 24 -22 27q-11 1 -32 2.5t-32 2.5v23l149 27h19q-2 -294 0 -643zM267 33q57 0 108 58v238q-6 49 -39.5 79.5t-74.5 30.5q-59 0 -94.5 -50t-35.5 -135q0 -98 37 -159.5t99 -61.5z" />
    <glyph glyph-name="Dcroat" unicode="&#x110;" horiz-adv-x="675" 
d="M309 640q145 0 234 -84.5t89 -228.5q0 -145 -84.5 -236t-234.5 -91h-280v24l48 5q23 3 23 25q0 44 0.5 130t0.5 129h-74v27h74q0 41 -0.5 123t-0.5 122q0 23 -23 26l-48 5v24h276zM313 26q96 0 157.5 79.5t61.5 211.5q0 134 -63 215.5t-172 81.5q-34 0 -99 -7
q-1 -90 -1 -267h154v-27h-154q0 -186 1 -279q75 -8 115 -8z" />
    <glyph glyph-name="dcroat" unicode="&#x111;" horiz-adv-x="542" 
d="M480 43l42 -4v-22q-12 -3 -53 -11t-63 -13l-13 1l-13 64q-69 -67 -147 -67q-83 0 -135.5 64.5t-52.5 165.5q0 112 61.5 180t159.5 68q61 0 109 -33q0 74 -1 110h-176v27h176v59q0 24 -22 27q-11 1 -32 2.5t-32 2.5v23l149 27h19q0 -88 -1 -141h58v-27h-58q0 -343 1 -475
q0 -25 24 -28zM267 33q57 0 108 58v238q-6 49 -39.5 79.5t-74.5 30.5q-59 0 -94.5 -50t-35.5 -135q0 -98 37 -159.5t99 -61.5z" />
    <glyph glyph-name="Emacron" unicode="&#x112;" horiz-adv-x="522" 
d="M409 769v-61h-251v61h251zM456 181h24q-7 -90 -18 -181h-432v24l49 5q22 3 22 25q3 266 0 531q0 23 -22 26l-49 5v24h439q-7 -81 -18 -163h-24q-25 71 -47 119q-6 18 -23 18h-83q-36 0 -79 -8q-1 -89 -1 -259h118q16 0 27 17q16 27 32 58h24q3 -102 0 -204h-24
q-19 54 -32 85q-9 19 -26 19h-119q-1 -91 1 -288l164 -8q17 -1 28 17q36 65 69 138z" />
    <glyph glyph-name="emacron" unicode="&#x113;" horiz-adv-x="477" 
d="M370 618v-57h-239v57h239zM262 471q87 0 134.5 -58.5t39.5 -157.5l-19 -25q-123 -3 -284 -1q8 -81 52.5 -128t116.5 -47q69 0 103 29l12 -16q-44 -76 -155 -76q-104 0 -161 68.5t-57 165.5q0 109 61 177.5t157 68.5zM131 254q75 0 219 2q7 83 -20.5 135t-76.5 52
q-54 0 -88 -50t-34 -131v-8z" />
    <glyph glyph-name="Ebreve" unicode="&#x114;" horiz-adv-x="522" 
d="M284 684q-57 0 -89.5 35.5t-38.5 99.5l32 2q7 -36 32.5 -57t63.5 -21q36 0 61.5 21t33.5 57l32 -2q-6 -63 -39 -99t-88 -36zM456 181h24q-7 -90 -18 -181h-432v24l49 5q22 3 22 25q3 266 0 531q0 23 -22 26l-49 5v24h439q-7 -81 -18 -163h-24q-25 71 -47 119
q-6 18 -23 18h-83q-36 0 -79 -8q-1 -89 -1 -259h118q16 0 27 17q16 27 32 58h24q3 -102 0 -204h-24q-19 54 -32 85q-9 19 -26 19h-119q-1 -91 1 -288l164 -8q17 -1 28 17q36 65 69 138z" />
    <glyph glyph-name="ebreve" unicode="&#x115;" horiz-adv-x="477" 
d="M251 525q-116 0 -128 150l32 2q7 -44 32 -67t64 -23q37 0 62.5 23t32.5 67l32 -2q-6 -73 -38.5 -111.5t-88.5 -38.5zM262 471q87 0 134.5 -58.5t39.5 -157.5l-19 -25q-123 -3 -284 -1q8 -81 52.5 -128t116.5 -47q69 0 103 29l12 -16q-44 -76 -155 -76q-104 0 -161 68.5
t-57 165.5q0 109 61 177.5t157 68.5zM131 254q75 0 219 2q7 83 -20.5 135t-76.5 52q-54 0 -88 -50t-34 -131v-8z" />
    <glyph glyph-name="Edotaccent" unicode="&#x116;" horiz-adv-x="522" 
d="M282 706q-26 0 -40 16.5t-14 37.5q0 19 14.5 36.5t40.5 17.5q24 0 40 -14.5t16 -38.5t-15 -39.5t-42 -15.5zM456 181h24q-7 -90 -18 -181h-432v24l49 5q22 3 22 25q3 266 0 531q0 23 -22 26l-49 5v24h439q-7 -81 -18 -163h-24q-25 71 -47 119q-6 18 -23 18h-83
q-36 0 -79 -8q-1 -89 -1 -259h118q16 0 27 17q16 27 32 58h24q3 -102 0 -204h-24q-19 54 -32 85q-9 19 -26 19h-119q-1 -91 1 -288l164 -8q17 -1 28 17q36 65 69 138z" />
    <glyph glyph-name="edotaccent" unicode="&#x117;" horiz-adv-x="477" 
d="M250 555q-26 0 -40 16.5t-14 37.5q0 19 14.5 36t40.5 17q24 0 40 -14t16 -38t-15 -39.5t-42 -15.5zM262 471q87 0 134.5 -58.5t39.5 -157.5l-19 -25q-123 -3 -284 -1q8 -81 52.5 -128t116.5 -47q69 0 103 29l12 -16q-44 -76 -155 -76q-104 0 -161 68.5t-57 165.5
q0 109 61 177.5t157 68.5zM131 254q75 0 219 2q7 83 -20.5 135t-76.5 52q-54 0 -88 -50t-34 -131v-8z" />
    <glyph glyph-name="Eogonek" unicode="&#x118;" horiz-adv-x="519" 
d="M411 0q-39 -5 -67 -35t-28 -70q0 -32 18.5 -50.5t48.5 -18.5q32 0 58 24l15 -17q-41 -50 -105 -50q-45 0 -74.5 26t-29.5 68q0 40 26 72t68 47v4h-311v24l49 5q22 3 22 25q3 266 0 531q0 23 -22 26l-49 5v24h439q-7 -81 -18 -163h-24q-25 71 -47 119q-6 18 -23 18h-83
q-36 0 -79 -8q-1 -89 -1 -259h118q16 0 27 17q16 27 32 58h24q3 -102 0 -204h-24q-19 54 -32 85q-9 19 -26 19h-119q-1 -91 1 -288l164 -8q17 -1 28 17q36 65 69 138h24q-7 -90 -18 -181h-51z" />
    <glyph glyph-name="eogonek" unicode="&#x119;" horiz-adv-x="470" 
d="M407 231q-45 -1 -280 -1q6 -85 51.5 -134.5t118.5 -49.5q68 0 102 28l12 -17q-13 -17 -40.5 -37l-49.5 -35t-39.5 -40t-17.5 -55t16.5 -50t48.5 -20q36 0 61 25l15 -16q-40 -52 -108 -52q-49 0 -75.5 28t-26.5 66q0 67 91 120v3q-15 -3 -26 -3q-102 0 -158 67.5
t-56 167.5q0 106 60.5 174.5t155.5 68.5q83 0 128 -57t37 -153zM253 440q-57 0 -92 -50.5t-35 -133.5q114 0 223 3q7 83 -20 132t-76 49z" />
    <glyph glyph-name="Ecaron" unicode="&#x11a;" horiz-adv-x="522" 
d="M271 687q-63 35 -136 112l19 18l130 -61l130 61l19 -18q-75 -78 -136 -112h-26zM456 181h24q-7 -90 -18 -181h-432v24l49 5q22 3 22 25q3 266 0 531q0 23 -22 26l-49 5v24h439q-7 -81 -18 -163h-24q-25 71 -47 119q-6 18 -23 18h-83q-36 0 -79 -8q-1 -89 -1 -259h118
q16 0 27 17q16 27 32 58h24q3 -102 0 -204h-24q-19 54 -32 85q-9 19 -26 19h-119q-1 -91 1 -288l164 -8q17 -1 28 17q36 65 69 138z" />
    <glyph glyph-name="ecaron" unicode="&#x11b;" horiz-adv-x="477" 
d="M263 517h-25q-68 71 -122 156l19 18l116 -94l115 94l19 -18q-53 -86 -122 -156zM262 471q87 0 134.5 -58.5t39.5 -157.5l-19 -25q-123 -3 -284 -1q8 -81 52.5 -128t116.5 -47q69 0 103 29l12 -16q-44 -76 -155 -76q-104 0 -161 68.5t-57 165.5q0 109 61 177.5t157 68.5z
M131 254q75 0 219 2q7 83 -20.5 135t-76.5 52q-54 0 -88 -50t-34 -131v-8z" />
    <glyph glyph-name="Gcircumflex" unicode="&#x11c;" horiz-adv-x="668" 
d="M342 742l-130 -61l-19 17q69 74 136 113h26q65 -37 136 -113l-19 -17zM405 301h238v-25l-37 -5q-21 -4 -21 -28v-204q-82 -48 -224 -48q-151 0 -233.5 91.5t-82.5 233.5t86 236.5t236 94.5q119 0 222 -35q-8 -119 -15 -177h-25q-30 106 -34 115q-15 33 -58.5 50.5
t-94.5 17.5q-105 0 -165 -80.5t-60 -208.5q0 -139 63.5 -225t168.5 -86q84 0 134 51q1 57 -1 174q0 24 -25 27l-72 6v25z" />
    <glyph glyph-name="gcircumflex" unicode="&#x11d;" horiz-adv-x="507" 
d="M244 606l-116 -94l-19 18q55 87 122 155h25q68 -68 122 -155l-19 -18zM481 421h-32h-35.5h-29.5q45 -43 45 -114q0 -72 -53 -117.5t-140 -45.5q-38 0 -70 9l-64 -86q62 2 172 2q199 0 199 -122q0 -84 -65.5 -137.5t-174.5 -53.5q-145 0 -222 60l128 170q-9 0 -29 -0.5
t-31 -0.5q-19 63 -27 82q49 48 91 94q-47 19 -72.5 58t-24.5 90q0 72 52.5 117.5t139.5 45.5q72 0 122 -31q40 14 109 48h12q-1 -43 0 -68zM242 169q46 0 73 37t27 102q0 67 -30 103t-79 36q-47 0 -74 -36.5t-27 -102.5t30.5 -102.5t79.5 -36.5zM432 -92q0 42 -40.5 60
t-138.5 18h-85l-82 -122q38 -20 99 -34.5t110 -14.5q69 0 103 24.5t34 68.5z" />
    <glyph glyph-name="Gbreve" unicode="&#x11e;" horiz-adv-x="668" 
d="M342 682q-57 0 -89.5 35.5t-38.5 99.5l32 2q7 -36 32.5 -57t63.5 -21q36 0 61.5 21t33.5 57l32 -2q-6 -63 -39 -99t-88 -36zM405 301h238v-25l-37 -5q-21 -4 -21 -28v-204q-82 -48 -224 -48q-151 0 -233.5 91.5t-82.5 233.5t86 236.5t236 94.5q119 0 222 -35
q-8 -119 -15 -177h-25q-30 106 -34 115q-15 33 -58.5 50.5t-94.5 17.5q-105 0 -165 -80.5t-60 -208.5q0 -139 63.5 -225t168.5 -86q84 0 134 51q1 57 -1 174q0 24 -25 27l-72 6v25z" />
    <glyph glyph-name="gbreve" unicode="&#x11f;" horiz-adv-x="507" 
d="M244 528q-116 0 -128 150l32 2q7 -44 32 -67t64 -23q37 0 62.5 23t32.5 67l32 -2q-6 -73 -38.5 -111.5t-88.5 -38.5zM481 421h-32h-35.5h-29.5q45 -43 45 -114q0 -72 -53 -117.5t-140 -45.5q-38 0 -70 9l-64 -86q62 2 172 2q199 0 199 -122q0 -84 -65.5 -137.5
t-174.5 -53.5q-145 0 -222 60l128 170q-9 0 -29 -0.5t-31 -0.5q-19 63 -27 82q49 48 91 94q-47 19 -72.5 58t-24.5 90q0 72 52.5 117.5t139.5 45.5q72 0 122 -31q40 14 109 48h12q-1 -43 0 -68zM242 169q46 0 73 37t27 102q0 67 -30 103t-79 36q-47 0 -74 -36.5t-27 -102.5
t30.5 -102.5t79.5 -36.5zM432 -92q0 42 -40.5 60t-138.5 18h-85l-82 -122q38 -20 99 -34.5t110 -14.5q69 0 103 24.5t34 68.5z" />
    <glyph glyph-name="Gdotaccent" unicode="&#x120;" horiz-adv-x="668" 
d="M341 704q-26 0 -40 16.5t-14 37.5q0 19 14.5 36.5t40.5 17.5q24 0 40 -14.5t16 -38.5t-15 -39.5t-42 -15.5zM405 301h238v-25l-37 -5q-21 -4 -21 -28v-204q-82 -48 -224 -48q-151 0 -233.5 91.5t-82.5 233.5t86 236.5t236 94.5q119 0 222 -35q-8 -119 -15 -177h-25
q-30 106 -34 115q-15 33 -58.5 50.5t-94.5 17.5q-105 0 -165 -80.5t-60 -208.5q0 -139 63.5 -225t168.5 -86q84 0 134 51q1 57 -1 174q0 24 -25 27l-72 6v25z" />
    <glyph glyph-name="gdotaccent" unicode="&#x121;" horiz-adv-x="507" 
d="M242 558q-26 0 -40 16.5t-14 37.5q0 19 14.5 36t40.5 17q24 0 40 -14t16 -38t-15 -39.5t-42 -15.5zM481 421h-32h-35.5h-29.5q45 -43 45 -114q0 -72 -53 -117.5t-140 -45.5q-38 0 -70 9l-64 -86q62 2 172 2q199 0 199 -122q0 -84 -65.5 -137.5t-174.5 -53.5
q-145 0 -222 60l128 170q-9 0 -29 -0.5t-31 -0.5q-19 63 -27 82q49 48 91 94q-47 19 -72.5 58t-24.5 90q0 72 52.5 117.5t139.5 45.5q72 0 122 -31q40 14 109 48h12q-1 -43 0 -68zM242 169q46 0 73 37t27 102q0 67 -30 103t-79 36q-47 0 -74 -36.5t-27 -102.5t30.5 -102.5
t79.5 -36.5zM432 -92q0 42 -40.5 60t-138.5 18h-85l-82 -122q38 -20 99 -34.5t110 -14.5q69 0 103 24.5t34 68.5z" />
    <glyph glyph-name="uni0122" unicode="&#x122;" horiz-adv-x="668" 
d="M405 301h238v-25l-37 -5q-21 -4 -21 -28v-204q-82 -48 -224 -48q-151 0 -233.5 91.5t-82.5 233.5t86 236.5t236 94.5q119 0 222 -35q-8 -119 -15 -177h-25q-30 106 -34 115q-15 33 -58.5 50.5t-94.5 17.5q-105 0 -165 -80.5t-60 -208.5q0 -139 63.5 -225t168.5 -86
q84 0 134 51q1 57 -1 174q0 24 -25 27l-72 6v25zM341 -61q24 -1 39.5 -17.5t16.5 -46.5q0 -43 -33.5 -90t-85.5 -79l-15 19q70 49 86 101l-23 14q-39 24 -38 51q1 22 16 35.5t37 12.5z" />
    <glyph glyph-name="uni0123" unicode="&#x123;" horiz-adv-x="507" 
d="M232 523q-24 1 -39.5 17.5t-15.5 46.5q-1 43 32.5 90t86.5 79l15 -19q-71 -50 -87 -101l23 -14q40 -23 39 -51q-1 -22 -16 -35.5t-38 -12.5zM481 421h-32h-35.5h-29.5q45 -43 45 -114q0 -72 -53 -117.5t-140 -45.5q-38 0 -70 9l-64 -86q62 2 172 2q199 0 199 -122
q0 -84 -65.5 -137.5t-174.5 -53.5q-145 0 -222 60l128 170q-9 0 -29 -0.5t-31 -0.5q-19 63 -27 82q49 48 91 94q-47 19 -72.5 58t-24.5 90q0 72 52.5 117.5t139.5 45.5q72 0 122 -31q40 14 109 48h12q-1 -43 0 -68zM242 169q46 0 73 37t27 102q0 67 -30 103t-79 36
q-47 0 -74 -36.5t-27 -102.5t30.5 -102.5t79.5 -36.5zM432 -92q0 42 -40.5 60t-138.5 18h-85l-82 -122q38 -20 99 -34.5t110 -14.5q69 0 103 24.5t34 68.5z" />
    <glyph glyph-name="Hcircumflex" unicode="&#x124;" horiz-adv-x="716" 
d="M357 743l-130 -61l-19 17q69 74 136 113h26q65 -37 136 -113l-19 -17zM635 608q-23 -3 -23 -25q-1 -264 0 -527q0 -22 23 -25l50 -6v-25h-240v25l55 6q24 3 24 25q0 44 0.5 132t0.5 131q-167 -1 -335 0q0 -43 0.5 -131t0.5 -132q0 -22 25 -25l55 -6v-25h-240v25l49 6
q23 3 23 25q3 263 0 527q0 22 -23 25l-49 6v25h240v-25l-55 -6q-25 -3 -25 -26q0 -39 -0.5 -117t-0.5 -116q167 -3 335 0q0 38 -0.5 116t-0.5 118q0 22 -24 25l-55 6v25h240v-25z" />
    <glyph glyph-name="hcircumflex" unicode="&#x125;" horiz-adv-x="541" 
d="M269 816l-130 -61l-19 17q69 74 136 113h26q65 -37 136 -113l-19 -17zM481 28l42 -6v-22h-220v22l52 7q22 5 22 29q1 135 0 263q0 52 -18 76t-57 24q-44 0 -138 -62q0 -198 1 -300q0 -23 23 -29l51 -8v-22h-220v22l43 8q22 4 22 28q1 192 -1 576q0 24 -22 27q-35 4 -55 5
v23q28 5 80.5 15.5t59.5 11.5h18v-322l47 27q86 49 137 49t81 -34.5t29 -94.5v-283q0 -24 23 -30z" />
    <glyph glyph-name="Hbar" unicode="&#x126;" horiz-adv-x="716" 
d="M636 608q-24 -3 -24 -25v-93q23 1 71 1v-32q-48 0 -72 -1q0 -267 1 -402q0 -22 24 -25l49 -6v-25h-240v25l55 6q24 3 25 25q0 44 0.5 132t0.5 131q-168 -1 -335 0q0 -175 1 -263q0 -22 24 -25l55 -6v-25h-240v25l49 6q23 3 23 25q3 180 1 402q-24 1 -73 1v32q49 0 73 -1
q0 16 -0.5 47t-0.5 46q0 22 -23 25l-49 6v25h240v-25l-55 -6q-24 -3 -24 -26q0 -16 -0.5 -46.5t-0.5 -45.5q168 -1 334 0v93q-2 22 -25 25l-55 6v25h240v-25zM526 349v109q-167 -1 -335 0v-109q167 -3 335 0z" />
    <glyph glyph-name="hbar" unicode="&#x127;" horiz-adv-x="542" 
d="M482 28l42 -6v-22h-220v22l52 7q22 5 22 29q1 135 0 263q0 52 -18 76t-57 24q-44 0 -138 -62q0 -198 1 -300q0 -23 23 -29l51 -8v-22h-220v22l43 8q22 4 22 28v147.5v178v151.5q-26 1 -76 1v28h75v70q0 24 -22 27q-35 4 -55 5v23q28 5 80.5 15.5t59.5 11.5h18v-152h177
v-28q-59 -1 -177 -1v-141l47 27q86 49 137 49t80.5 -34.5t29.5 -94.5v-88v-104.5v-90.5q0 -24 23 -30z" />
    <glyph glyph-name="Itilde" unicode="&#x128;" horiz-adv-x="294" 
d="M31 691l-23 1q0 40 13.5 69.5t42.5 29.5q27 0 93 -22t92 -22l12 44l24 -1q0 -40 -13.5 -69t-43.5 -29q-26 0 -92 21t-92 21zM31 0v24l49 6q24 3 24 27q2 261 0 524q0 24 -24 27l-49 6v24h232v-24l-50 -6q-23 -3 -23 -27q-1 -262 0 -524q0 -24 23 -27l50 -6v-24h-232z" />
    <glyph glyph-name="itilde" unicode="&#x129;" horiz-adv-x="258" 
d="M13 537l-22 1q0 40 13.5 69.5t42.5 29.5q25 0 86 -20t85 -24l23 44l23 -1q-1 -41 -14.5 -70t-42.5 -29q-26 0 -88.5 20t-81.5 24zM24 22l43 8q22 4 23 28v329q-1 26 -22 29l-52 3l-1 23q76 13 138 27l18 -1q-2 -196 0 -410q0 -24 22 -28l43 -8v-22h-212v22z" />
    <glyph glyph-name="Imacron" unicode="&#x12a;" horiz-adv-x="294" 
d="M21 767h251v-61h-251v61zM31 0v24l49 6q24 3 24 27q2 261 0 524q0 24 -24 27l-49 6v24h232v-24l-50 -6q-23 -3 -23 -27q-1 -262 0 -524q0 -24 23 -27l50 -6v-24h-232z" />
    <glyph glyph-name="imacron" unicode="&#x12b;" horiz-adv-x="258" 
d="M27 619h200v-57h-200v57zM24 22l43 8q22 4 23 28v329q-1 26 -22 29l-52 3l-1 23q76 13 138 27l18 -1q-2 -196 0 -410q0 -24 22 -28l43 -8v-22h-212v22z" />
    <glyph glyph-name="Ibreve" unicode="&#x12c;" horiz-adv-x="294" 
d="M147 682q-57 0 -89.5 35.5t-38.5 99.5l32 2q7 -36 32.5 -57t63.5 -21q36 0 61.5 21t33.5 57l32 -2q-6 -63 -39 -99t-88 -36zM31 0v24l49 6q24 3 24 27q2 261 0 524q0 24 -24 27l-49 6v24h232v-24l-50 -6q-23 -3 -23 -27q-1 -262 0 -524q0 -24 23 -27l50 -6v-24h-232z" />
    <glyph glyph-name="ibreve" unicode="&#x12d;" horiz-adv-x="258" 
d="M128 523q-51 0 -79.5 39t-29.5 111l32 1q1 -43 22.5 -66.5t54.5 -23.5q32 0 53.5 24t22.5 66l32 -1q0 -72 -29 -111t-79 -39zM24 22l43 8q22 4 23 28v329q-1 26 -22 29l-52 3l-1 23q76 13 138 27l18 -1q-2 -196 0 -410q0 -24 22 -28l43 -8v-22h-212v22z" />
    <glyph glyph-name="Iogonek" unicode="&#x12e;" horiz-adv-x="294" 
d="M213 608q-23 -3 -23 -27q-1 -262 0 -524q0 -24 23 -27l50 -6v-24h-45q-39 -5 -67 -35t-28 -70q0 -32 18.5 -50.5t48.5 -18.5q32 0 58 24l15 -17q-41 -50 -105 -50q-45 0 -74.5 26t-29.5 68q0 40 25.5 71.5t67.5 46.5v5h-116v24l49 6q24 3 24 27q2 261 0 524q0 24 -24 27
l-49 6v24h232v-24z" />
    <glyph glyph-name="iogonek" unicode="&#x12f;" horiz-adv-x="256" 
d="M124 553q-26 0 -40 16.5t-14 37.5q0 19 14.5 36t40.5 17q24 0 40 -14t16 -38t-15 -39.5t-42 -15.5zM223 -150l15 -17q-40 -50 -105 -50q-45 0 -74.5 26t-29.5 68q0 38 24.5 69.5t64.5 46.5v7h-94v22l43 8q22 4 23 28v329q-1 26 -22 29l-52 3l-1 23q76 13 138 27l18 -1
q-2 -196 0 -410q0 -24 22 -28l43 -8v-22h-43q-39 -5 -67 -35t-28 -70q0 -32 18.5 -50.5t48.5 -18.5q32 0 58 24z" />
    <glyph glyph-name="Idotaccent" unicode="&#x130;" horiz-adv-x="294" 
d="M146 704q-26 0 -40 16.5t-14 37.5q0 19 14.5 36.5t40.5 17.5q24 0 40 -14.5t16 -38.5t-15 -39.5t-42 -15.5zM31 0v24l49 6q24 3 24 27q2 261 0 524q0 24 -24 27l-49 6v24h232v-24l-50 -6q-23 -3 -23 -27q-1 -262 0 -524q0 -24 23 -27l50 -6v-24h-232z" />
    <glyph glyph-name="dotlessi" unicode="&#x131;" horiz-adv-x="258" 
d="M24 22l43 8q22 4 23 28v329q-1 26 -22 29l-52 3l-1 23q76 13 138 27l18 -1q-2 -196 0 -410q0 -24 22 -28l43 -8v-22h-212v22z" />
    <glyph glyph-name="IJ" unicode="&#x132;" horiz-adv-x="596" 
d="M31 209v25l49 6q24 3 24 26q2 158 0 315q0 24 -24 27l-49 6v24h232v-24l-50 -6q-23 -3 -23 -27q-1 -157 0 -315q0 -23 23 -26l50 -6v-25h-232zM296 -27q-100 0 -164 14l3 172h25q23 -59 43 -103q24 -56 96 -56q110 0 110 175q1 195 0 404q0 26 -23 28l-65 7v24h248v-24
l-50 -6q-23 -3 -23 -28q-1 -194 0 -374q0 -116 -51.5 -174.5t-148.5 -58.5z" />
    <glyph glyph-name="ij" unicode="&#x133;" horiz-adv-x="526" 
d="M126 553q-26 0 -40 16.5t-14 37.5q0 19 14.5 36t40.5 17q24 0 40 -14t16 -38t-15 -39.5t-42 -15.5zM395 553q-26 0 -40 16.5t-14 37.5q0 19 14.5 36t40.5 17q24 0 40 -14t16 -38t-15 -39.5t-42 -15.5zM24 22l43 8q22 4 23 28v329q-1 26 -22 29l-52 3l-1 23q76 13 138 27
l18 -1q-2 -196 0 -410q0 -24 22 -28l43 -8v-22h-212v22zM277 -221q47 14 64 63.5t17 145.5q2 207 0 397q0 29 -21 32q-9 1 -31.5 1.5t-33.5 0.5v23q84 14 149 27l18 -1v-435q1 -137 -37 -197t-121 -77z" />
    <glyph glyph-name="Jcircumflex" unicode="&#x134;" horiz-adv-x="447" 
d="M315 811q65 -37 136 -113l-19 -17l-130 61l-130 -61l-19 17q69 74 136 113h26zM173 614v24h247v-24l-49 -6q-24 -3 -24 -28q-1 -186 0 -359q1 -230 -178 -230q-73 0 -148 32l3 172h25q13 -47 47 -130q13 -49 72 -49q92 0 93 175v388q-2 25 -24 28z" />
    <glyph glyph-name="jcircumflex" unicode="&#x135;" horiz-adv-x="268" 
d="M151 681q59 -65 101 -155l-19 -18l-94 87l-95 -87l-19 18q45 93 101 155h25zM181 468v-435q1 -137 -37 -197t-121 -77l-4 20q47 14 64 63.5t17 145.5q2 207 0 397q0 29 -21 32q-9 1 -31.5 1.5t-33.5 0.5v23q84 14 149 27z" />
    <glyph glyph-name="uni0136" unicode="&#x136;" horiz-adv-x="615" 
d="M576 30l40 -6v-24h-139l-238 334l188 208q19 19 -2 35l-36 39v24h197v-24l-61 -27q-19 -9 -37 -27l-167 -182l229 -333q9 -13 26 -17zM263 24v-24h-232v24l49 6q24 3 24 27q2 261 0 524q0 24 -24 27l-49 6v24h232v-24l-50 -6q-23 -3 -23 -27q-1 -262 0 -524q0 -24 23 -27
zM319 -61q24 -1 39.5 -17.5t16.5 -46.5q0 -43 -33.5 -90t-85.5 -79l-15 19q70 49 86 101l-23 14q-39 24 -38 51q1 22 16 35.5t37 12.5z" />
    <glyph glyph-name="uni0137" unicode="&#x137;" horiz-adv-x="527" 
d="M62 30q22 4 22 29q2 289 0 573q0 24 -23 28l-55 6v22l138 27l19 -1q-1 -228 1 -655q0 -25 23 -29l53 -7v-23h-220v23zM487 29l32 -6v-23h-125l-198 267l177 132q-64 32 -82 40v20h183l2 -24l-201 -144l185 -244q10 -14 27 -18zM274 -61q24 -1 39.5 -17.5t16.5 -46.5
q0 -43 -33.5 -90t-85.5 -79l-15 19q70 49 86 101l-23 14q-39 24 -38 51q1 22 16 35.5t37 12.5z" />
    <glyph glyph-name="Lacute" unicode="&#x139;" horiz-adv-x="493" 
d="M118 690l-10 22l171 107l56 -38l-5 -25q-84 -44 -212 -66zM34 0v24l43 6q23 4 24 29q2 266 0 527q-2 22 -23 25l-48 5v24h241v-24l-54 -5q-23 -3 -23 -25q-2 -357 0 -551l157 -8q17 -1 26 16q38 81 72 165h24q-14 -140 -22 -208h-417z" />
    <glyph glyph-name="lacute" unicode="&#x13a;" horiz-adv-x="249" 
d="M73 756l-10 22l171 107l56 -38l-5 -25q-84 -44 -212 -66zM21 0v22l42 8q22 4 22 28q2 293 0 575q0 24 -23 28q-35 4 -56 5v23q23 4 141 27h19q-1 -17 -0.5 -336.5t0.5 -320.5q0 -25 22 -29l43 -8v-22h-210z" />
    <glyph glyph-name="uni013B" unicode="&#x13b;" horiz-adv-x="493" 
d="M34 0v24l43 6q23 4 24 29q2 266 0 527q-2 22 -23 25l-48 5v24h241v-24l-54 -5q-23 -3 -23 -25q-2 -357 0 -551l157 -8q17 -1 26 16q38 81 72 165h24q-14 -140 -22 -208h-417zM192 -294l-15 19q70 49 86 101l-23 14q-39 24 -38 51q1 22 16 35.5t37 12.5q24 -1 39.5 -17.5
t16.5 -46.5q0 -43 -33.5 -90t-85.5 -79z" />
    <glyph glyph-name="uni013C" unicode="&#x13c;" horiz-adv-x="249" 
d="M21 0v22l42 8q22 4 22 28q2 293 0 575q0 24 -23 28q-35 4 -56 5v23q23 4 141 27h19q-1 -17 -0.5 -336.5t0.5 -320.5q0 -25 22 -29l43 -8v-22h-210zM73 -294l-14 19q70 50 86 101l-23 14q-40 23 -39 51q1 22 16 35.5t38 12.5q24 -1 39.5 -17.5t15.5 -46.5q1 -43 -32.5 -90
t-86.5 -79z" />
    <glyph glyph-name="Lcaron" unicode="&#x13d;" horiz-adv-x="493" 
d="M358 500l-14 18q64 45 81 95l-22 13q-36 22 -36 48q1 21 15 33.5t35 11.5q23 -1 37.5 -17t14.5 -44q1 -40 -30.5 -83.5t-80.5 -74.5zM34 0v24l43 6q23 4 24 29q2 266 0 527q-2 22 -23 25l-48 5v24h241v-24l-54 -5q-23 -3 -23 -25q-2 -357 0 -551l157 -8q17 -1 26 16
q38 81 72 165h24q-14 -140 -22 -208h-417z" />
    <glyph glyph-name="lcaron" unicode="&#x13e;" horiz-adv-x="320" 
d="M241 508l-14 18q67 47 81 95l-21 13q-37 22 -36 48q0 21 14 33.5t35 11.5q23 -1 37.5 -17t14.5 -44q1 -40 -30.5 -83.5t-80.5 -74.5zM21 0v22l42 8q22 4 22 28q2 293 0 575q0 24 -23 28q-35 4 -56 5v23q23 4 141 27h19q-1 -17 -0.5 -336.5t0.5 -320.5q0 -25 22 -29l43 -8
v-22h-210z" />
    <glyph glyph-name="Ldot" unicode="&#x13f;" horiz-adv-x="489" 
d="M34 0v24l43 6q23 4 24 29q2 266 0 527q-2 22 -23 25l-48 5v24h241v-24l-54 -5q-23 -3 -23 -25q-2 -357 0 -551l157 -8q17 -1 26 16q38 81 72 165h24q-14 -140 -22 -208h-417zM378 340q-27 0 -41 15.5t-14 37.5q0 19 15 36t41 17q23 0 39 -15t16 -38t-14.5 -38t-41.5 -15z
" />
    <glyph glyph-name="ldot" unicode="&#x140;" horiz-adv-x="297" 
d="M21 0v22l42 8q22 4 22 28q2 293 0 575q0 24 -23 28q-35 4 -56 5v23q23 4 141 27h19q-1 -17 -0.5 -336.5t0.5 -320.5q0 -25 22 -29l43 -8v-22h-210zM274 299q-26 0 -40 16t-14 37q0 19 14.5 36t40.5 17q23 0 39 -14.5t16 -37.5q0 -24 -14.5 -39t-41.5 -15z" />
    <glyph glyph-name="Lslash" unicode="&#x141;" horiz-adv-x="489" 
d="M449 208h24q-14 -140 -22 -208h-417v24l44 6q23 4 23 29q0 36 0.5 109t0.5 110l-71 -44v34l71 44q0 185 -1 274q0 22 -23 25l-48 5v24h242v-24l-55 -5q-22 -3 -22 -25q-1 -70 -1 -217l161 101v-33l-161 -101q-1 -99 1 -301l156 -8q19 -1 26 16q38 81 72 165z" />
    <glyph glyph-name="lslash" unicode="&#x142;" horiz-adv-x="248" 
d="M240 459v-34l-74 -46v-320q0 -25 22 -29l43 -8v-22h-210v22l42 8q22 4 22 28q0 46 0.5 136t0.5 135l-77 -48v34l77 48q0 46 -0.5 136t-0.5 134q0 24 -23 28q-35 4 -56 5v23q23 4 141 27h19v-303z" />
    <glyph glyph-name="Nacute" unicode="&#x143;" horiz-adv-x="676" 
d="M501 755q-84 -44 -212 -66l-10 22l171 107l56 -38zM444 639h201v-25l-56 -52q-15 -15 -15 -38v-531h-68l-375 580v-453q0 -25 22 -40l87 -56v-24h-204v24l53 53q15 15 15 41v485l-14 3l-56 8v25h160l353 -552v434q0 24 -21 40l-82 53v25z" />
    <glyph glyph-name="nacute" unicode="&#x144;" horiz-adv-x="547" 
d="M424 632q-68 -64 -183 -120l-16 19l134 147l63 -21zM487 30l42 -8v-22h-221v22l51 9q23 3 23 27q1 136 0 262q-1 53 -18.5 76.5t-55.5 23.5q-50 0 -136 -59q-1 -102 -1 -303q2 -24 23 -27l51 -9v-22h-221v22l43 8q22 4 22 28q1 158 0 330q0 26 -24 27l-49 3l-1 23
q23 4 135 26h15l4 -74l47 27q86 49 138 49q51 0 81 -34.5t29 -93.5v-88v-104v-91q0 -24 23 -28z" />
    <glyph glyph-name="uni0145" unicode="&#x145;" horiz-adv-x="676" 
d="M444 639h201v-25l-56 -52q-15 -15 -15 -38v-531h-68l-375 580v-453q0 -25 22 -40l87 -56v-24h-204v24l53 53q15 15 15 41v485l-14 3l-56 8v25h160l353 -552v434q0 24 -21 40l-82 53v25zM350 -61q24 -1 39.5 -17.5t16.5 -46.5q0 -43 -33.5 -90t-85.5 -79l-15 19
q70 49 86 101l-23 14q-39 24 -38 51q1 22 16 35.5t37 12.5z" />
    <glyph glyph-name="uni0146" unicode="&#x146;" horiz-adv-x="547" 
d="M487 30l42 -8v-22h-221v22l51 9q23 3 23 27q1 136 0 262q-1 53 -18.5 76.5t-55.5 23.5q-50 0 -136 -59q-1 -102 -1 -303q2 -24 23 -27l51 -9v-22h-221v22l43 8q22 4 22 28q1 158 0 330q0 26 -24 27l-49 3l-1 23q23 4 135 26h15l4 -74l47 27q86 49 138 49q51 0 81 -34.5
t29 -93.5v-88v-104v-91q0 -24 23 -28zM285 -61q24 -1 39.5 -17.5t16.5 -46.5q0 -43 -33.5 -90t-85.5 -79l-15 19q70 49 86 101l-23 14q-39 24 -38 51q1 22 16 35.5t37 12.5z" />
    <glyph glyph-name="Ncaron" unicode="&#x147;" horiz-adv-x="676" 
d="M326 686q-63 35 -136 112l19 18l130 -61l130 61l19 -18q-75 -78 -136 -112h-26zM444 639h201v-25l-56 -52q-15 -15 -15 -38v-531h-68l-375 580v-453q0 -25 22 -40l87 -56v-24h-204v24l53 53q15 15 15 41v485l-14 3l-56 8v25h160l353 -552v434q0 24 -21 40l-82 53v25z" />
    <glyph glyph-name="ncaron" unicode="&#x148;" horiz-adv-x="547" 
d="M287 516h-25q-68 71 -122 156l19 18l116 -94l115 94l19 -18q-53 -86 -122 -156zM487 30l42 -8v-22h-221v22l51 9q23 3 23 27q1 136 0 262q-1 53 -18.5 76.5t-55.5 23.5q-50 0 -136 -59q-1 -102 -1 -303q2 -24 23 -27l51 -9v-22h-221v22l43 8q22 4 22 28q1 158 0 330
q0 26 -24 27l-49 3l-1 23q23 4 135 26h15l4 -74l47 27q86 49 138 49q51 0 81 -34.5t29 -93.5v-88v-104v-91q0 -24 23 -28z" />
    <glyph glyph-name="Eng" unicode="&#x14a;" horiz-adv-x="676" 
d="M444 639h201v-25l-56 -52q-15 -15 -15 -38v-564q0 -213 -152 -213q-65 0 -139 36l2 152h24l42 -108q16 -54 71 -54q125 0 125 179v41h-41l-375 580v-453q0 -25 22 -40l87 -56v-24h-204v24l53 53q15 15 15 41v485l-14 3l-56 8v25h160l353 -552v434q0 24 -21 40l-82 53v25z
" />
    <glyph glyph-name="eng" unicode="&#x14b;" horiz-adv-x="551" 
d="M353 470q51 0 80.5 -34.5t29.5 -93.5v-319q0 -94 -18.5 -151.5t-52.5 -84.5t-90 -38l-4 20q49 13 66.5 64t17.5 148q2 169 0 341q0 99 -75 99q-47 0 -137 -60v-303q0 -23 23 -28l51 -8v-22h-220v22l43 8q22 4 22 28q1 157 0 330q0 27 -23 28l-50 3l-1 23q65 12 133 27h15
l5 -75l48 28q84 48 137 48z" />
    <glyph glyph-name="Omacron" unicode="&#x14c;" horiz-adv-x="715" 
d="M232 769h251v-61h-251v61zM355 -9q-145 0 -227.5 90.5t-82.5 235.5t85 237.5t230 92.5t227.5 -90.5t82.5 -235.5t-85 -237.5t-230 -92.5zM364 20q100 0 156.5 83t57.5 207q1 141 -62.5 224.5t-164.5 83.5q-100 0 -157 -83.5t-57 -208.5q-1 -140 62.5 -223t164.5 -83z" />
    <glyph glyph-name="omacron" unicode="&#x14d;" horiz-adv-x="532" 
d="M146 618h239v-57h-239v57zM264 -9q-103 0 -161.5 65t-58.5 172t61.5 175t162.5 68q102 0 161 -65t59 -172t-61.5 -175t-162.5 -68zM270 18q57 0 91 56t34 148q0 100 -36 161t-97 61q-58 0 -91.5 -56t-33.5 -149q0 -100 36 -160.5t97 -60.5z" />
    <glyph glyph-name="Obreve" unicode="&#x14e;" horiz-adv-x="715" 
d="M358 684q-57 0 -89.5 35.5t-38.5 99.5l32 2q7 -36 32.5 -57t63.5 -21q36 0 61.5 21t33.5 57l32 -2q-6 -63 -39 -99t-88 -36zM355 -9q-145 0 -227.5 90.5t-82.5 235.5t85 237.5t230 92.5t227.5 -90.5t82.5 -235.5t-85 -237.5t-230 -92.5zM364 20q100 0 156.5 83t57.5 207
q1 141 -62.5 224.5t-164.5 83.5q-100 0 -157 -83.5t-57 -208.5q-1 -140 62.5 -223t164.5 -83z" />
    <glyph glyph-name="obreve" unicode="&#x14f;" horiz-adv-x="532" 
d="M267 525q-116 0 -128 150l32 2q7 -44 32 -67t64 -23q37 0 62.5 23t32.5 67l32 -2q-6 -73 -38.5 -111.5t-88.5 -38.5zM264 -9q-103 0 -161.5 65t-58.5 172t61.5 175t162.5 68q102 0 161 -65t59 -172t-61.5 -175t-162.5 -68zM270 18q57 0 91 56t34 148q0 100 -36 161
t-97 61q-58 0 -91.5 -56t-33.5 -149q0 -100 36 -160.5t97 -60.5z" />
    <glyph glyph-name="Ohungarumlaut" unicode="&#x150;" horiz-adv-x="715" 
d="M297 680l-14 19l141 133l60 -26l-1 -24q-74 -60 -186 -102zM420 680l-14 19l141 132l60 -25v-25q-73 -58 -187 -101zM355 -9q-145 0 -227.5 90.5t-82.5 235.5t85 237.5t230 92.5t227.5 -90.5t82.5 -235.5t-85 -237.5t-230 -92.5zM364 20q100 0 156.5 83t57.5 207
q1 141 -62.5 224.5t-164.5 83.5q-100 0 -157 -83.5t-57 -208.5q-1 -140 62.5 -223t164.5 -83z" />
    <glyph glyph-name="ohungarumlaut" unicode="&#x151;" horiz-adv-x="532" 
d="M208 513l-18 16l116 159l64 -14l4 -25q-64 -74 -166 -136zM320 513l-17 16l115 159l64 -14l5 -24q-62 -73 -167 -137zM264 -9q-103 0 -161.5 65t-58.5 172t61.5 175t162.5 68q102 0 161 -65t59 -172t-61.5 -175t-162.5 -68zM270 18q57 0 91 56t34 148q0 100 -36 161
t-97 61q-58 0 -91.5 -56t-33.5 -149q0 -100 36 -160.5t97 -60.5z" />
    <glyph glyph-name="OE" unicode="&#x152;" horiz-adv-x="993" 
d="M925 175h25q-8 -97 -19 -175h-405v25l28 5q24 4 24 27v25q-85 -91 -223 -91q-145 0 -227.5 90.5t-82.5 235.5t85 237.5t230 92.5q137 0 218 -87v22q0 22 -24 26l-28 6v24h411q-12 -132 -16 -161h-24q-24 78 -39 115q-7 20 -26 20h-85q-31 0 -83 -9q0 -46 -0.5 -132
t-0.5 -127h126q18 0 28 18q14 26 26 55h25q3 -99 0 -200h-25q-3 8 -8 24.5l-9.5 30.5t-9.5 26q-7 19 -27 19h-126q0 -45 0.5 -138t0.5 -144l172 -8q20 -1 29 17q28 53 60 131zM578 310q1 141 -62.5 224.5t-164.5 83.5q-100 0 -157 -83.5t-57 -208.5q-1 -140 62.5 -223
t164.5 -83q100 0 156.5 83t57.5 207z" />
    <glyph glyph-name="oe" unicode="&#x153;" horiz-adv-x="823" 
d="M759 231q-45 -1 -280 -1q7 -85 52.5 -134.5t118.5 -49.5q67 0 101 28l12 -17q-48 -66 -151 -66q-117 0 -175 90q-61 -90 -177 -90q-102 0 -158.5 65.5t-56.5 171.5q0 105 60 173t161 68q119 0 175 -90q62 90 172 90q84 0 129 -57t37 -153zM267 19q59 0 93.5 54.5
t34.5 146.5q0 100 -37 160t-99 60q-60 0 -94.5 -54.5t-34.5 -146.5q0 -100 37.5 -160t99.5 -60zM604 440q-56 0 -90.5 -49.5t-35.5 -130.5v-4q114 0 223 3q7 83 -20 132t-77 49z" />
    <glyph glyph-name="Racute" unicode="&#x154;" horiz-adv-x="577" 
d="M447 756q-84 -44 -212 -66l-10 22l171 107l56 -38zM553 27l34 -3v-24h-140l-179 297h-74q0 -163 1 -239q0 -23 23 -27l56 -7v-24h-243v24l47 6q23 4 23 25q3 270 0 530q0 23 -23 26l-48 5v24h248q111 0 169.5 -42t58.5 -119q0 -64 -43 -110.5t-112 -63.5h12l165 -261
q10 -15 25 -17zM195 608q-1 -90 -1 -279q48 -6 85 -6q59 0 94 37.5t35 108.5q0 70 -38.5 108t-108.5 38q-22 0 -66 -7z" />
    <glyph glyph-name="racute" unicode="&#x155;" horiz-adv-x="398" 
d="M343 633q-68 -64 -183 -120l-16 19l134 147l63 -21zM323 471q32 0 44 -27l-31 -146h-23q-10 49 -25 103q-3 11 -11.5 15t-19.5 -2q-27 -14 -81 -63q-2 -189 0 -292q0 -24 21 -28l66 -9v-22h-239v22l43 7q21 4 21 28q1 168 0 334q0 25 -23 28l-50 4v21q92 16 141 27h14
l4 -88l37 31q38 32 62 44.5t50 12.5z" />
    <glyph glyph-name="uni0156" unicode="&#x156;" horiz-adv-x="577" 
d="M553 27l34 -3v-24h-140l-179 297h-74q0 -163 1 -239q0 -23 23 -27l56 -7v-24h-243v24l47 6q23 4 23 25q3 270 0 530q0 23 -23 26l-48 5v24h248q111 0 169.5 -42t58.5 -119q0 -64 -43 -110.5t-112 -63.5h12l165 -261q10 -15 25 -17zM195 608q-1 -90 -1 -279q48 -6 85 -6
q59 0 94 37.5t35 108.5q0 70 -38.5 108t-108.5 38q-22 0 -66 -7zM296 -61q24 -1 39.5 -17.5t16.5 -46.5q0 -43 -33.5 -90t-85.5 -79l-15 19q70 49 86 101l-23 14q-39 24 -38 51q1 22 16 35.5t37 12.5z" />
    <glyph glyph-name="uni0157" unicode="&#x157;" horiz-adv-x="398" 
d="M323 471q32 0 44 -27l-31 -146h-23q-10 49 -25 103q-3 11 -11.5 15t-19.5 -2q-27 -14 -81 -63q-2 -189 0 -292q0 -24 21 -28l66 -9v-22h-239v22l43 7q21 4 21 28q1 168 0 334q0 25 -23 28l-50 4v21q92 16 141 27h14l4 -88l37 31q38 32 62 44.5t50 12.5zM138 -61
q24 -1 39.5 -17.5t16.5 -46.5q0 -43 -33.5 -90t-85.5 -79l-15 19q70 49 86 101l-23 14q-39 24 -38 51q1 22 16 35.5t37 12.5z" />
    <glyph glyph-name="Rcaron" unicode="&#x158;" horiz-adv-x="577" 
d="M272 687q-63 35 -136 112l19 18l130 -61l130 61l19 -18q-75 -78 -136 -112h-26zM553 27l34 -3v-24h-140l-179 297h-74q0 -163 1 -239q0 -23 23 -27l56 -7v-24h-243v24l47 6q23 4 23 25q3 270 0 530q0 23 -23 26l-48 5v24h248q111 0 169.5 -42t58.5 -119q0 -64 -43 -110.5
t-112 -63.5h12l165 -261q10 -15 25 -17zM195 608q-1 -90 -1 -279q48 -6 85 -6q59 0 94 37.5t35 108.5q0 70 -38.5 108t-108.5 38q-22 0 -66 -7z" />
    <glyph glyph-name="rcaron" unicode="&#x159;" horiz-adv-x="398" 
d="M206 517h-25q-68 71 -122 156l19 18l116 -94l115 94l19 -18q-53 -86 -122 -156zM323 471q32 0 44 -27l-31 -146h-23q-10 49 -25 103q-3 11 -11.5 15t-19.5 -2q-27 -14 -81 -63q-2 -189 0 -292q0 -24 21 -28l66 -9v-22h-239v22l43 7q21 4 21 28q1 168 0 334q0 25 -23 28
l-50 4v21q92 16 141 27h14l4 -88l37 31q38 32 62 44.5t50 12.5z" />
    <glyph glyph-name="Sacute" unicode="&#x15a;" horiz-adv-x="490" 
d="M192 689l-10 22l171 107l56 -38l-5 -25q-84 -44 -212 -66zM230 -9q-114 0 -173 32q2 51 2 163h24q3 -7 19.5 -48.5t27.5 -65.5q18 -53 109 -53q124 0 124 105q0 44 -31.5 81.5t-76.5 66l-90.5 58.5t-77 72t-31.5 93q0 65 50 108.5t148 43.5q86 0 165 -29q-7 -54 -16 -145
h-23l-18.5 51l-15.5 43q-6 24 -33 38.5t-64 14.5q-114 0 -114 -93q0 -39 31.5 -74.5t76.5 -64.5l90 -60t76.5 -73t31.5 -91q0 -82 -58 -127.5t-153 -45.5z" />
    <glyph glyph-name="sacute" unicode="&#x15b;" horiz-adv-x="419" 
d="M174 511l-16 19l134 147l63 -21l2 -25q-68 -64 -183 -120zM195 -9q-85 0 -143 26q0 20 0.5 64t1.5 63h24q28 -63 40 -83q19 -42 87 -42q46 0 68.5 21t22.5 55q0 32 -25 55t-60 38.5l-70.5 32.5t-60.5 47t-25 72q0 57 43 93t115 36q79 0 131 -26q-1 -13 -3.5 -52t-3.5 -57
h-23q-22 54 -26 61q-26 47 -87 47q-36 0 -58 -18t-22 -50t25 -55t60.5 -38.5t71.5 -33t61 -48t25 -72.5q0 -61 -46 -98.5t-123 -37.5z" />
    <glyph glyph-name="Scircumflex" unicode="&#x15c;" horiz-adv-x="490" 
d="M242 743l-130 -61l-19 17q69 74 136 113h26q65 -37 136 -113l-19 -17zM135 527q0 -39 31.5 -74.5t76.5 -64.5l90 -60t76.5 -73t31.5 -91q0 -82 -58 -127.5t-153 -45.5q-114 0 -173 32q2 51 2 163h24q3 -7 19.5 -48.5t27.5 -65.5q18 -53 109 -53q124 0 124 105
q0 44 -31.5 81.5t-76.5 66l-90.5 58.5t-77 72t-31.5 93q0 65 50 108.5t148 43.5q86 0 165 -29q-7 -54 -16 -145h-23l-18.5 51l-15.5 43q-6 24 -33 38.5t-64 14.5q-114 0 -114 -93z" />
    <glyph glyph-name="scircumflex" unicode="&#x15d;" horiz-adv-x="419" 
d="M208 601l-116 -94l-19 18q55 87 122 155h25q68 -68 122 -155l-19 -18zM121 374q0 -32 25 -55t60.5 -38.5t71.5 -33t61 -48t25 -72.5q0 -61 -46 -98.5t-123 -37.5q-85 0 -143 26q0 20 0.5 64t1.5 63h24q28 -63 40 -83q19 -42 87 -42q46 0 68.5 21t22.5 55q0 32 -25 55
t-60 38.5l-70.5 32.5t-60.5 47t-25 72q0 57 43 93t115 36q79 0 131 -26q-1 -13 -3.5 -52t-3.5 -57h-23q-22 54 -26 61q-26 47 -87 47q-36 0 -58 -18t-22 -50z" />
    <glyph glyph-name="Scedilla" unicode="&#x15e;" horiz-adv-x="490" 
d="M135 527q0 -39 31.5 -74.5t76.5 -64.5l90 -60t76.5 -73t31.5 -91q0 -76 -50 -121t-135 -51l-24 -46q88 -13 88 -74q0 -43 -37.5 -66.5t-103.5 -23.5l2 25q74 6 74 45q0 32 -70 37l-12 19l54 83q-112 0 -170 32q2 51 2 163h24q3 -7 19.5 -48.5t27.5 -65.5q18 -53 109 -53
q124 0 124 105q0 44 -31.5 81.5t-76.5 66l-90.5 58.5t-77 72t-31.5 93q0 65 50 108.5t148 43.5q86 0 165 -29q-7 -54 -16 -145h-23l-18.5 51l-15.5 43q-6 24 -33 38.5t-64 14.5q-114 0 -114 -93z" />
    <glyph glyph-name="scedilla" unicode="&#x15f;" horiz-adv-x="419" 
d="M364 127q0 -56 -38 -92t-104 -43l-24 -45q88 -13 88 -74q0 -43 -37.5 -66.5t-103.5 -23.5l2 25q74 6 74 45q0 32 -70 37l-12 19l53 82q-83 0 -140 26q0 20 0.5 64t1.5 63h24q28 -63 40 -83q19 -42 87 -42q46 0 68.5 21t22.5 55q0 32 -25 55t-60 38.5l-70.5 32.5t-60.5 47
t-25 72q0 57 43 93t115 36q79 0 131 -26q-1 -13 -3.5 -52t-3.5 -57h-23q-22 54 -26 61q-26 47 -87 47q-36 0 -58 -18t-22 -50t25 -55t60.5 -38.5t71.5 -33t61 -48t25 -72.5z" />
    <glyph glyph-name="Scaron" unicode="&#x160;" horiz-adv-x="490" 
d="M229 686q-63 35 -136 112l19 18l130 -61l130 61l19 -18q-75 -78 -136 -112h-26zM135 527q0 -39 31.5 -74.5t76.5 -64.5l90 -60t76.5 -73t31.5 -91q0 -82 -58 -127.5t-153 -45.5q-114 0 -173 32q2 51 2 163h24q3 -7 19.5 -48.5t27.5 -65.5q18 -53 109 -53q124 0 124 105
q0 44 -31.5 81.5t-76.5 66l-90.5 58.5t-77 72t-31.5 93q0 65 50 108.5t148 43.5q86 0 165 -29q-7 -54 -16 -145h-23l-18.5 51l-15.5 43q-6 24 -33 38.5t-64 14.5q-114 0 -114 -93z" />
    <glyph glyph-name="scaron" unicode="&#x161;" horiz-adv-x="419" 
d="M220 515h-25q-68 71 -122 156l19 18l116 -94l115 94l19 -18q-53 -86 -122 -156zM121 374q0 -32 25 -55t60.5 -38.5t71.5 -33t61 -48t25 -72.5q0 -61 -46 -98.5t-123 -37.5q-85 0 -143 26q0 20 0.5 64t1.5 63h24q28 -63 40 -83q19 -42 87 -42q46 0 68.5 21t22.5 55
q0 32 -25 55t-60 38.5l-70.5 32.5t-60.5 47t-25 72q0 57 43 93t115 36q79 0 131 -26q-1 -13 -3.5 -52t-3.5 -57h-23q-22 54 -26 61q-26 47 -87 47q-36 0 -58 -18t-22 -50z" />
    <glyph glyph-name="uni0162" unicode="&#x162;" horiz-adv-x="597" 
d="M559 638q-1 -56 -1 -166h-27q-18 49 -44 113q-9 19 -28 21l-120 6q-2 -363 0 -554q0 -25 24 -28l63 -6v-24h-112l-28 -53q88 -13 88 -74q0 -43 -37.5 -66.5t-103.5 -23.5l2 25q74 6 74 45q0 32 -70 37l-12 19l59 91h-116v24l60 6q24 3 24 27q1 276 0 555l-120 -5
q-17 -2 -27 -20l-56 -115h-27q10 132 13 166h522z" />
    <glyph glyph-name="uni0163" unicode="&#x163;" horiz-adv-x="345" 
d="M164 -53q88 -13 88 -74q0 -43 -37.5 -66.5t-103.5 -23.5l2 25q74 6 74 45q0 32 -70 37l-12 19l57 88q-77 21 -76 122v313l-73 3v25h76q30 72 53 137h24v-137h151v-17l-58 -19l-93 4v-301q1 -91 74 -91q40 0 75 21l7 -21q-46 -44 -120 -44q-9 0 -14 1z" />
    <glyph glyph-name="Tcaron" unicode="&#x164;" horiz-adv-x="597" 
d="M282 685q-63 35 -136 112l19 18l130 -61l130 61l19 -18q-75 -78 -136 -112h-26zM559 638q-1 -56 -1 -166h-27q-18 49 -44 113q-9 19 -28 21l-120 6q-2 -363 0 -554q0 -25 24 -28l63 -6v-24h-256v24l60 6q24 3 24 27q1 276 0 555l-120 -5q-17 -2 -27 -20l-56 -115h-27
q10 132 13 166h522z" />
    <glyph glyph-name="tcaron" unicode="&#x165;" horiz-adv-x="355" 
d="M215 541q65 45 81 94l-22 13q-37 22 -36 48q1 21 15 33.5t35 11.5q22 -1 36.5 -16.5t15.5 -43.5q1 -40 -31 -84t-81 -74zM240 36q40 0 75 21l7 -21q-46 -44 -120 -44q-117 0 -116 127v313l-73 3v25h76q30 72 53 137h24v-137h151v-17l-58 -19l-93 4v-301q1 -91 74 -91z
" />
    <glyph glyph-name="Tbar" unicode="&#x166;" horiz-adv-x="600" 
d="M559 638q-1 -56 -1 -166h-27q-18 49 -44 113q-9 19 -28 21l-120 6q-1 -90 -1 -272h128v-27h-128q0 -168 1 -255q0 -25 24 -28l63 -6v-24h-256v24l60 6q24 3 24 27q0 43 0.5 128.5t0.5 127.5h-118v27h118q0 180 -1 272l-120 -5q-17 -2 -27 -20l-56 -115h-27q10 132 13 166
h522z" />
    <glyph glyph-name="tbar" unicode="&#x167;" horiz-adv-x="363" 
d="M324 57l8 -21q-48 -44 -121 -44q-116 0 -116 127q0 20 0.5 60.5t0.5 60.5l-83 3l70 20h13q0 112 -1 169l-73 3v25h76q27 64 54 137h24q0 -92 -1 -137h152v-17l-58 -19l-94 4v-169l144 -5l-70 -19l-74 2q1 -37 1 -110q0 -91 73 -91q41 0 75 21z" />
    <glyph glyph-name="Utilde" unicode="&#x168;" horiz-adv-x="673" 
d="M231 693l-23 1q0 40 13.5 69.5t42.5 29.5q27 0 93 -22t92 -22l12 44l24 -1q0 -40 -13.5 -69t-43.5 -29q-26 0 -92 21t-92 21zM334 -10q-235 0 -235 253q1 116 -1 339q0 24 -21 28l-50 6v24h249v-24l-64 -7q-22 -2 -22 -27q-1 -174 0 -350q1 -102 47 -153t127 -51
q95 0 137 62t42 190v230q0 26 -17 37q-61 58 -75 69v24h199v-24q-21 -22 -57 -66q-15 -12 -15 -37v-234q0 -140 -61 -214.5t-183 -74.5z" />
    <glyph glyph-name="utilde" unicode="&#x169;" horiz-adv-x="541" 
d="M180 581l-24 -44l-22 1q0 40 13.5 69.5t42.5 29.5q25 0 86 -20t85 -24l23 44l23 -1q-1 -41 -14.5 -70t-42.5 -29q-26 0 -88.5 20t-81.5 24zM481 44l43 -3v-23q-39 -7 -117 -23l-14 1l-13 75l-42 -25q-80 -55 -144 -55q-52 0 -81 34.5t-29 94.5q2 132 0 276q0 22 -23 26
l-45 9v23l131 13l18 -1v-323q1 -102 75 -102q56 0 135 66q2 140 0 289q0 23 -22 26l-50 9v23l135 13l18 -1q-1 -140 1 -394q0 -25 24 -28z" />
    <glyph glyph-name="Umacron" unicode="&#x16a;" horiz-adv-x="673" 
d="M221 769h251v-61h-251v61zM334 -10q-235 0 -235 253q1 116 -1 339q0 24 -21 28l-50 6v24h249v-24l-64 -7q-22 -2 -22 -27q-1 -174 0 -350q1 -102 47 -153t127 -51q95 0 137 62t42 190v230q0 26 -17 37q-61 58 -75 69v24h199v-24q-21 -22 -57 -66q-15 -12 -15 -37v-234
q0 -140 -61 -214.5t-183 -74.5z" />
    <glyph glyph-name="umacron" unicode="&#x16b;" horiz-adv-x="541" 
d="M389 616v-57h-239v57h239zM481 44l43 -3v-23q-39 -7 -117 -23l-14 1l-13 75l-42 -25q-80 -55 -144 -55q-52 0 -81 34.5t-29 94.5q2 132 0 276q0 22 -23 26l-45 9v23l131 13l18 -1v-323q1 -102 75 -102q56 0 135 66q2 140 0 289q0 23 -22 26l-50 9v23l135 13l18 -1
q-1 -140 1 -394q0 -25 24 -28z" />
    <glyph glyph-name="Ubreve" unicode="&#x16c;" horiz-adv-x="673" 
d="M347 684q-57 0 -89.5 35.5t-38.5 99.5l32 2q7 -36 32.5 -57t63.5 -21q36 0 61.5 21t33.5 57l32 -2q-6 -63 -39 -99t-88 -36zM334 -10q-235 0 -235 253q1 116 -1 339q0 24 -21 28l-50 6v24h249v-24l-64 -7q-22 -2 -22 -27q-1 -174 0 -350q1 -102 47 -153t127 -51
q95 0 137 62t42 190v230q0 26 -17 37q-61 58 -75 69v24h199v-24q-21 -22 -57 -66q-15 -12 -15 -37v-234q0 -140 -61 -214.5t-183 -74.5z" />
    <glyph glyph-name="ubreve" unicode="&#x16d;" horiz-adv-x="541" 
d="M271 523q-116 0 -128 150l32 2q7 -44 32 -67t64 -23q37 0 62.5 23t32.5 67l32 -2q-6 -73 -38.5 -111.5t-88.5 -38.5zM481 44l43 -3v-23q-39 -7 -117 -23l-14 1l-13 75l-42 -25q-80 -55 -144 -55q-52 0 -81 34.5t-29 94.5q2 132 0 276q0 22 -23 26l-45 9v23l131 13l18 -1
v-323q1 -102 75 -102q56 0 135 66q2 140 0 289q0 23 -22 26l-50 9v23l135 13l18 -1q-1 -140 1 -394q0 -25 24 -28z" />
    <glyph glyph-name="Uring" unicode="&#x16e;" horiz-adv-x="673" 
d="M347 690q-50 0 -80 31.5t-30 73.5q0 43 30 73.5t80 30.5t80 -30t30 -73t-30 -74.5t-80 -31.5zM347 716q34 0 53 23t19 56q0 32 -19 55t-53 23t-53 -22.5t-19 -54.5q0 -33 19 -56.5t53 -23.5zM334 -10q-235 0 -235 253q1 116 -1 339q0 24 -21 28l-50 6v24h249v-24l-64 -7
q-22 -2 -22 -27q-1 -174 0 -350q1 -102 47 -153t127 -51q95 0 137 62t42 190v230q0 26 -17 37q-61 58 -75 69v24h199v-24q-21 -22 -57 -66q-15 -12 -15 -37v-234q0 -140 -61 -214.5t-183 -74.5z" />
    <glyph glyph-name="uring" unicode="&#x16f;" horiz-adv-x="541" 
d="M271 522q-50 0 -80 31.5t-30 74.5t30 73t80 30t80 -30t30 -73t-30 -74.5t-80 -31.5zM271 705q-34 0 -53 -22.5t-19 -54.5q0 -33 19 -56.5t53 -23.5t53 23.5t19 56.5q0 31 -19.5 54t-52.5 23zM481 44l43 -3v-23q-39 -7 -117 -23l-14 1l-13 75l-42 -25q-80 -55 -144 -55
q-52 0 -81 34.5t-29 94.5q2 132 0 276q0 22 -23 26l-45 9v23l131 13l18 -1v-323q1 -102 75 -102q56 0 135 66q2 140 0 289q0 23 -22 26l-50 9v23l135 13l18 -1q-1 -140 1 -394q0 -25 24 -28z" />
    <glyph glyph-name="Uhungarumlaut" unicode="&#x170;" horiz-adv-x="673" 
d="M286 680l-14 19l141 133l60 -26l-1 -24q-74 -60 -186 -102zM409 680l-14 19l141 132l60 -25v-25q-73 -58 -187 -101zM334 -10q-235 0 -235 253q1 116 -1 339q0 24 -21 28l-50 6v24h249v-24l-64 -7q-22 -2 -22 -27q-1 -174 0 -350q1 -102 47 -153t127 -51q95 0 137 62
t42 190v230q0 26 -17 37q-61 58 -75 69v24h199v-24q-21 -22 -57 -66q-15 -12 -15 -37v-234q0 -140 -61 -214.5t-183 -74.5z" />
    <glyph glyph-name="uhungarumlaut" unicode="&#x171;" horiz-adv-x="541" 
d="M378 647q-64 -74 -166 -136l-18 16l116 159l64 -14zM324 511l-17 16l115 159l64 -14l5 -24q-62 -73 -167 -137zM481 44l43 -3v-23q-39 -7 -117 -23l-14 1l-13 75l-42 -25q-80 -55 -144 -55q-52 0 -81 34.5t-29 94.5q2 132 0 276q0 22 -23 26l-45 9v23l131 13l18 -1v-323
q1 -102 75 -102q56 0 135 66q2 140 0 289q0 23 -22 26l-50 9v23l135 13l18 -1q-1 -140 1 -394q0 -25 24 -28z" />
    <glyph glyph-name="Uogonek" unicode="&#x172;" horiz-adv-x="674" 
d="M451 640h199v-24q-21 -22 -57 -66q-15 -12 -15 -37v-234q0 -250 -186 -284q-34 -13 -55.5 -39.5t-21.5 -60.5q0 -32 18.5 -50t49.5 -18q33 0 57 24l16 -18q-42 -49 -106 -49q-45 0 -74 26t-29 68q0 34 22 63t59 46l-3 3q-226 5 -226 253q1 116 -1 339q0 24 -21 28l-50 6
v24h249v-24l-64 -7q-22 -2 -22 -27q-1 -174 0 -350q1 -102 47 -153t127 -51q95 0 137 62t42 190v230q0 26 -17 37q-61 58 -75 69v24z" />
    <glyph glyph-name="uogonek" unicode="&#x173;" horiz-adv-x="541" 
d="M524 18q-141 -29 -141 -119q0 -33 18.5 -51.5t48.5 -18.5q33 0 59 24l15 -18q-42 -49 -107 -49q-45 0 -74 25.5t-29 67.5q0 37 23.5 70t61.5 53l-18 70l-43 -26q-80 -55 -144 -55q-52 0 -81 34.5t-29 94.5q2 132 0 276q0 22 -23 26l-45 9v23l131 13l18 -1v-323
q1 -102 75 -102q56 0 135 66q2 140 0 289q0 23 -22 26l-50 9v23l135 13l18 -1q-1 -140 1 -394q0 -25 25 -28l42 -4v-22z" />
    <glyph glyph-name="Wcircumflex" unicode="&#x174;" horiz-adv-x="938" 
d="M471 744l-130 -61l-19 17q69 74 136 113h26q65 -37 136 -113l-19 -17zM724 640h204v-24q-49 -54 -59 -66q-17 -19 -22 -37l-179 -522h-44l-153 456l-159 -456h-44l-203 598q-7 20 -26 23l-33 4v24h242v-24l-63 -4q-28 -3 -18 -31l156 -480l127 374q5 18 -1 36l-28 78
q-6 20 -26 23l-45 4v24h253v-24l-62 -4q-27 -3 -19 -31l157 -481l136 412q8 23 -8 38q-22 19 -83 66v24z" />
    <glyph glyph-name="wcircumflex" unicode="&#x175;" horiz-adv-x="753" 
d="M377 603l-116 -94l-19 18q55 87 122 155h25q68 -68 122 -155l-19 -18zM579 462h171v-22q-18 -9 -48 -37q-18 -18 -29 -45l-130 -364h-41l-117 311l-123 -311h-41l-168 418q-7 18 -25 21l-34 7v22h215v-22l-46 -7q-22 -5 -13 -29l121 -317l89 229q11 25 2 46v1l-21 49
q-8 18 -24 21l-34 7v22h213v-22l-44 -7q-24 -5 -15 -29l115 -315l92 267q9 27 -9 39q-3 3 -24 21t-32 24v22z" />
    <glyph glyph-name="Ycircumflex" unicode="&#x176;" horiz-adv-x="556" 
d="M285 744l-130 -61l-19 17q69 74 136 113h26q65 -37 136 -113l-19 -17zM352 640h195v-23l-57 -44q-15 -10 -23 -28l-140 -258q-2 -112 0 -230q0 -26 23 -28l56 -6v-23h-251v23l55 6q23 2 23 28q3 118 0 224l-173 311q-10 16 -28 19l-30 5v24h241v-24l-64 -5
q-27 -3 -13 -29l149 -266l118 222q12 24 -10 38q-38 25 -71 42v22z" />
    <glyph glyph-name="ycircumflex" unicode="&#x177;" horiz-adv-x="475" 
d="M237 602l-116 -94l-19 18q55 87 122 155h25q68 -68 122 -155l-19 -18zM303 461h170v-23q-22 -12 -47 -33q-19 -17 -27 -41l-229 -604q-26 2 -88 4v17l136 175l6 18l-168 427q-10 27 -33 32l-29 5v23h215v-24l-42 -4q-33 -5 -19 -38l117 -313l104 280q9 24 -6 36
q-6 4 -27 19.5t-33 20.5v23z" />
    <glyph glyph-name="Ydieresis" unicode="&#x178;" horiz-adv-x="556" 
d="M206 688q-23 0 -35.5 15t-12.5 34q0 18 12.5 34t35.5 16q21 0 35 -13.5t14 -35.5t-12.5 -36t-36.5 -14zM366 688q-23 0 -35.5 15t-12.5 34q0 18 13 34t36 16q21 0 34.5 -13.5t13.5 -35.5t-12.5 -36t-36.5 -14zM352 640h195v-23l-57 -44q-15 -10 -23 -28l-140 -258
q-2 -112 0 -230q0 -26 23 -28l56 -6v-23h-251v23l55 6q23 2 23 28q3 118 0 224l-173 311q-10 16 -28 19l-30 5v24h241v-24l-64 -5q-27 -3 -13 -29l149 -266l118 222q12 24 -10 38q-38 25 -71 42v22z" />
    <glyph glyph-name="Zacute" unicode="&#x179;" horiz-adv-x="537" 
d="M431 754q-84 -44 -212 -66l-10 22l171 107l56 -38zM408 53q15 32 68 154h24q-8 -84 -23 -207h-450l-1 20l374 592l-243 -6q-21 0 -28 -22q-19 -43 -53 -135h-25q1 31 3.5 94t4.5 95h442l1 -20l-374 -592l251 8q20 0 29 19z" />
    <glyph glyph-name="zacute" unicode="&#x17a;" horiz-adv-x="460" 
d="M385 633q-68 -64 -183 -120l-16 19l134 147l63 -21zM411 462v-17l-270 -419l158 5q31 0 43 31q21 41 45 109h23l-7 -171h-366v18l270 420l-153 -3q-13 0 -19.5 -6.5t-14.5 -26.5l-42 -93h-23l5 153h351z" />
    <glyph glyph-name="Zdotaccent" unicode="&#x17b;" horiz-adv-x="537" 
d="M268 704q-26 0 -40 16.5t-14 37.5q0 19 14.5 36.5t40.5 17.5q24 0 40 -14.5t16 -38.5t-15 -39.5t-42 -15.5zM408 53q15 32 68 154h24q-8 -84 -23 -207h-450l-1 20l374 592l-243 -6q-21 0 -28 -22q-19 -43 -53 -135h-25q1 31 3.5 94t4.5 95h442l1 -20l-374 -592l251 8
q20 0 29 19z" />
    <glyph glyph-name="zdotaccent" unicode="&#x17c;" horiz-adv-x="460" 
d="M235 555q-26 0 -40 16.5t-14 37.5q0 19 14.5 36t40.5 17q24 0 40 -14t16 -38t-15 -39.5t-42 -15.5zM411 462v-17l-270 -419l158 5q31 0 43 31q21 41 45 109h23l-7 -171h-366v18l270 420l-153 -3q-13 0 -19.5 -6.5t-14.5 -26.5l-42 -93h-23l5 153h351z" />
    <glyph glyph-name="Zcaron" unicode="&#x17d;" horiz-adv-x="537" 
d="M256 685q-63 35 -136 112l19 18l130 -61l130 61l19 -18q-75 -78 -136 -112h-26zM408 53q15 32 68 154h24q-8 -84 -23 -207h-450l-1 20l374 592l-243 -6q-21 0 -28 -22q-19 -43 -53 -135h-25q1 31 3.5 94t4.5 95h442l1 -20l-374 -592l251 8q20 0 29 19z" />
    <glyph glyph-name="zcaron" unicode="&#x17e;" horiz-adv-x="460" 
d="M248 517h-25q-68 71 -122 156l19 18l116 -94l115 94l19 -18q-53 -86 -122 -156zM411 462v-17l-270 -419l158 5q31 0 43 31q21 41 45 109h23l-7 -171h-366v18l270 420l-153 -3q-13 0 -19.5 -6.5t-14.5 -26.5l-42 -93h-23l5 153h351z" />
    <glyph glyph-name="uni018F" unicode="&#x18f;" horiz-adv-x="598" 
d="M268 646q136 0 210.5 -94t74.5 -227q0 -148 -80 -241t-205 -93q-112 0 -172.5 78t-48.5 214l25 32q123 2 395 0q-5 124 -67.5 197.5t-166.5 73.5q-100 0 -146 -41l-16 21q62 80 197 80zM275 28q83 0 136 70t56 185q-59 1 -335 -4q-12 -114 28 -182.5t115 -68.5z" />
    <glyph glyph-name="florin" unicode="&#x192;" horiz-adv-x="377" 
d="M356 706q-84 -19 -125 -211l-7 -32h114l-1 -10q-25 -19 -91 -19q-18 0 -28 1l-88 -415q-28 -130 -86.5 -199.5t-144.5 -70.5q-35 0 -63.5 18.5t-41.5 42.5l49 39l80 -77q84 19 125 211l97 456q-15 1 -41.5 3.5t-35.5 3.5l3 16h79q58 264 229 266q35 0 64 -18.5t42 -42.5
l-49 -39z" />
    <glyph glyph-name="Gcaron" unicode="&#x1e6;" horiz-adv-x="668" 
d="M329 685q-63 35 -136 112l19 18l130 -61l130 61l19 -18q-75 -78 -136 -112h-26zM405 301h238v-25l-37 -5q-21 -4 -21 -28v-204q-82 -48 -224 -48q-151 0 -233.5 91.5t-82.5 233.5t86 236.5t236 94.5q119 0 222 -35q-8 -119 -15 -177h-25q-30 106 -34 115
q-15 33 -58.5 50.5t-94.5 17.5q-105 0 -165 -80.5t-60 -208.5q0 -139 63.5 -225t168.5 -86q84 0 134 51q1 57 -1 174q0 24 -25 27l-72 6v25z" />
    <glyph glyph-name="gcaron" unicode="&#x1e7;" horiz-adv-x="507" 
d="M256 520h-25q-68 71 -122 156l19 18l116 -94l115 94l19 -18q-53 -86 -122 -156zM481 421h-32h-35.5h-29.5q45 -43 45 -114q0 -72 -53 -117.5t-140 -45.5q-38 0 -70 9l-64 -86q62 2 172 2q199 0 199 -122q0 -84 -65.5 -137.5t-174.5 -53.5q-145 0 -222 60l128 170
q-9 0 -29 -0.5t-31 -0.5q-19 63 -27 82q49 48 91 94q-47 19 -72.5 58t-24.5 90q0 72 52.5 117.5t139.5 45.5q72 0 122 -31q40 14 109 48h12q-1 -43 0 -68zM242 169q46 0 73 37t27 102q0 67 -30 103t-79 36q-47 0 -74 -36.5t-27 -102.5t30.5 -102.5t79.5 -36.5zM432 -92
q0 42 -40.5 60t-138.5 18h-85l-82 -122q38 -20 99 -34.5t110 -14.5q69 0 103 24.5t34 68.5z" />
    <glyph glyph-name="uni01EA" unicode="&#x1ea;" horiz-adv-x="715" 
d="M670 321q0 -144 -84.5 -236.5t-228.5 -93.5l1 -5l-15 -1l-1 5q-29 -13 -47 -39t-18 -58t18.5 -50t48.5 -18q36 0 58 24l15 -18q-40 -50 -105 -50q-45 0 -74.5 26t-29.5 68q0 40 27 72t69 47q-122 16 -190.5 104t-68.5 219q0 145 85 237.5t230 92.5t227.5 -90.5
t82.5 -235.5zM578 310q1 141 -62.5 224.5t-164.5 83.5q-100 0 -157 -83.5t-57 -208.5q-1 -140 62.5 -223t164.5 -83q100 0 156.5 83t57.5 207z" />
    <glyph glyph-name="uni01EB" unicode="&#x1eb;" horiz-adv-x="528" 
d="M245 -14h-14v7h-3q-33 -10 -55.5 -37.5t-22.5 -63.5q0 -32 18 -50.5t49 -18.5q32 0 58 24l15 -18q-42 -49 -105 -49q-46 0 -75 26t-29 68q0 44 31.5 78t80.5 46h11q-76 18 -118 79.5t-42 150.5q0 107 61.5 175t162.5 68q102 0 161 -65t59 -172t-61.5 -175t-162.5 -68
q-13 0 -19 1v-6zM137 239q0 -100 36 -160.5t97 -60.5q57 0 91 56t34 148q0 100 -36 161t-97 61q-58 0 -91.5 -56t-33.5 -149z" />
    <glyph glyph-name="Aringacute" unicode="&#x1fa;" horiz-adv-x="577" 
d="M453 999q-84 -44 -212 -66l-10 22l171 107l56 -38zM291 690q-50 0 -80 31.5t-30 73.5q0 43 30 73.5t80 30.5t80 -30t30 -73t-30 -74.5t-80 -31.5zM291 873q-34 0 -53 -22.5t-19 -54.5q0 -33 19 -56.5t53 -23.5t53 23t19 56q0 32 -19 55t-53 23zM573 27l24 -3v-24h-234v24
l48 5q30 5 19 32l-62 175q-115 -1 -230 0l-43 -122q-10 -26 13 -44q18 -18 59 -46v-24h-190v24q19 13 38 32q39 30 52 68l185 507l63 23l213 -590q13 -33 45 -37zM148 263q105 -1 211 0l-106 294z" />
    <glyph glyph-name="aringacute" unicode="&#x1fb;" horiz-adv-x="486" 
d="M385 889q-68 -64 -183 -120l-16 19l134 147l63 -21zM237 524q-50 0 -80 31.5t-30 74.5t30 73t80 30t80 -30t30 -73t-30 -74.5t-80 -31.5zM237 707q-34 0 -53 -22.5t-19 -54.5q0 -33 19 -56.5t53 -23.5t53 23.5t19 56.5q0 31 -19.5 54t-52.5 23zM428 43l42 -4v-22
q-53 -9 -125 -24h-12l-11 66q-53 -38 -89.5 -53t-77.5 -15q-49 0 -82 29.5t-33 79.5q0 48 30.5 80t94.5 54q39 13 152 46v31q-2 133 -90 133q-65 0 -91 -75q-11 -26 -24 -73h-22l-30 111q100 63 191 63q153 0 153 -147v-79.5v-97v-75.5q1 -25 24 -28zM132 114q0 -39 17 -61
t51 -22q52 0 117 56v169q-39 -11 -106 -35q-79 -30 -79 -107z" />
    <glyph glyph-name="AEacute" unicode="&#x1fc;" horiz-adv-x="834" 
d="M618 751q-84 -44 -212 -66l-10 22l171 107l56 -38zM765 175h26l-19 -175h-421v25l49 5q22 4 22 26q1 57 1 177q-117 -2 -232 0l-81 -124q-18 -30 8 -49l56 -35v-25h-195v25l35 23q14 7 26 18t18.5 20t18.5 27l345 522h355l-15 -161h-25l-39 115q-7 19 -25 19h-82
q-24 0 -82 -8q0 -44 -0.5 -129.5t-0.5 -128.5h123q18 0 27 18q4 7 13 27t14 29h25v-201h-25l-27 82q-6 19 -27 19h-123q0 -46 0.5 -140t0.5 -141l168 -8q20 -2 28 17zM209 260q107 -2 214 0q1 100 -1 325z" />
    <glyph glyph-name="aeacute" unicode="&#x1fd;" horiz-adv-x="738" 
d="M525 631q-68 -64 -183 -120l-16 19l134 147l63 -21zM674 256q-135 -2 -276 0v-2q0 -94 47.5 -151t127.5 -57q64 0 97 27l12 -17q-48 -66 -151 -66q-117 0 -176 91q-52 -44 -96.5 -67.5t-97.5 -23.5t-86.5 29.5t-33.5 79.5q0 90 125 133l150 47v35q0 60 -21.5 93.5
t-64.5 33.5q-33 0 -60.5 -19t-34.5 -49q-3 -12 -12.5 -40t-13.5 -42h-23l-24 101q97 78 190 78q96 0 125 -69q62 68 157 68q81 0 123.5 -52t37.5 -133zM528 442q-50 0 -86.5 -41.5t-42.5 -119.5q110 0 215 3q3 71 -18 114.5t-68 43.5zM197 29q40 0 75.5 33t48.5 114
q-4 21 -4 47v31q-52 -15 -105 -35q-86 -31 -86 -107q0 -38 18 -60.5t53 -22.5z" />
    <glyph glyph-name="Oslashacute" unicode="&#x1fe;" horiz-adv-x="715" 
d="M519 756q-84 -44 -212 -66l-10 22l171 107l56 -38zM568 575q102 -90 102 -254q0 -145 -85 -237.5t-230 -92.5q-102 0 -178 49l-50 -68h-47l67 91q-102 91 -102 254q0 145 85 237.5t230 92.5q102 0 178 -49l50 69h47zM137 326q0 -127 51 -206l315 430q-62 68 -152 68
q-100 0 -157 -83.5t-57 -208.5zM578 310q0 126 -52 208l-314 -430q60 -68 152 -68q100 0 156.5 83t57.5 207z" />
    <glyph glyph-name="oslashacute" unicode="&#x1ff;" horiz-adv-x="525" 
d="M415 633q-68 -64 -183 -120l-16 19l134 147l63 -21zM418 417q70 -65 70 -183q0 -107 -61.5 -175t-162.5 -68q-75 0 -129 37l-40 -56h-41l56 77q-66 64 -66 179q0 107 61.5 175t162.5 68q71 0 124 -34l39 54h41zM137 239q0 -72 20 -126l199 275q-36 56 -94 56t-91.5 -56
t-33.5 -149zM270 18q57 0 91 56t34 148q0 77 -22 132l-200 -275q36 -61 97 -61z" />
    <glyph glyph-name="uni0218" unicode="&#x218;" horiz-adv-x="490" 
d="M230 -9q-114 0 -173 32q2 51 2 163h24q3 -7 19.5 -48.5t27.5 -65.5q18 -53 109 -53q124 0 124 105q0 44 -31.5 81.5t-76.5 66l-90.5 58.5t-77 72t-31.5 93q0 65 50 108.5t148 43.5q86 0 165 -29q-7 -54 -16 -145h-23l-18.5 51l-15.5 43q-6 24 -33 38.5t-64 14.5
q-114 0 -114 -93q0 -39 31.5 -74.5t76.5 -64.5l90 -60t76.5 -73t31.5 -91q0 -82 -58 -127.5t-153 -45.5zM190 -295l-15 19q70 49 86 101l-23 14q-39 24 -38 51q1 22 16 35.5t37 12.5q24 -1 39.5 -17.5t16.5 -46.5q0 -43 -33.5 -90t-85.5 -79z" />
    <glyph glyph-name="uni0219" unicode="&#x219;" horiz-adv-x="419" 
d="M195 -9q-85 0 -143 26q0 20 0.5 64t1.5 63h24q28 -63 40 -83q19 -42 87 -42q46 0 68.5 21t22.5 55q0 32 -25 55t-60 38.5l-70.5 32.5t-60.5 47t-25 72q0 57 43 93t115 36q79 0 131 -26q-1 -13 -3.5 -52t-3.5 -57h-23q-22 54 -26 61q-26 47 -87 47q-36 0 -58 -18t-22 -50
t25 -55t60.5 -38.5t71.5 -33t61 -48t25 -72.5q0 -61 -46 -98.5t-123 -37.5zM156 -294l-15 19q70 49 86 101l-23 14q-39 24 -38 51q1 22 16 35.5t37 12.5q24 -1 39.5 -17.5t16.5 -46.5q0 -43 -33.5 -90t-85.5 -79z" />
    <glyph glyph-name="uni021A" unicode="&#x21a;" horiz-adv-x="597" 
d="M559 638q-1 -56 -1 -166h-27q-18 49 -44 113q-9 19 -28 21l-120 6q-2 -363 0 -554q0 -25 24 -28l63 -6v-24h-256v24l60 6q24 3 24 27q1 276 0 555l-120 -5q-17 -2 -27 -20l-56 -115h-27q10 132 13 166h522zM306 -61q24 -1 39.5 -17.5t16.5 -46.5q0 -43 -33.5 -90
t-85.5 -79l-15 19q70 49 86 101l-23 14q-39 24 -38 51q1 22 16 35.5t37 12.5z" />
    <glyph glyph-name="uni021B" unicode="&#x21b;" horiz-adv-x="345" 
d="M202 -8q-117 0 -116 127v313l-73 3v25h76q30 72 53 137h24v-137h151v-17l-58 -19l-93 4v-301q1 -91 74 -91q40 0 75 21l7 -21q-46 -44 -120 -44zM185 -61q24 -1 39.5 -17.5t16.5 -46.5q0 -43 -33.5 -90t-85.5 -79l-15 19q70 49 86 101l-23 14q-39 24 -38 51q1 22 16 35.5
t37 12.5z" />
    <glyph glyph-name="uni0232" unicode="&#x232;" horiz-adv-x="556" 
d="M410 769v-61h-251v61h251zM352 640h195v-23l-57 -44q-15 -10 -23 -28l-140 -258q-2 -112 0 -230q0 -26 23 -28l56 -6v-23h-251v23l55 6q23 2 23 28q3 118 0 224l-173 311q-10 16 -28 19l-30 5v24h241v-24l-64 -5q-27 -3 -13 -29l149 -266l118 222q12 24 -10 38
q-38 25 -71 42v22z" />
    <glyph glyph-name="uni0233" unicode="&#x233;" horiz-adv-x="475" 
d="M356 617v-57h-239v57h239zM303 461h170v-23q-22 -12 -47 -33q-19 -17 -27 -41l-229 -604q-26 2 -88 4v17l136 175l6 18l-168 427q-10 27 -33 32l-29 5v23h215v-24l-42 -4q-33 -5 -19 -38l117 -313l104 280q9 24 -6 36q-6 4 -27 19.5t-33 20.5v23z" />
    <glyph glyph-name="uni0237" unicode="&#x237;" horiz-adv-x="268" 
d="M19 -221q47 14 64 63.5t17 145.5q2 207 0 397q0 29 -21 32q-9 1 -31.5 1.5t-33.5 0.5v23q84 14 149 27l18 -1v-435q1 -137 -37 -197t-121 -77z" />
    <glyph glyph-name="uni0259" unicode="&#x259;" horiz-adv-x="477" 
d="M215 469q104 0 161 -68.5t57 -165.5q0 -109 -61 -177.5t-157 -68.5q-87 0 -134.5 58.5t-39.5 157.5l19 25q123 3 284 1q-8 81 -52.5 128t-116.5 47q-69 0 -103 -29l-12 16q44 76 155 76zM224 17q54 0 88 50t34 131v8q-75 0 -219 -2q-7 -83 20.5 -135t76.5 -52z" />
    <glyph glyph-name="circumflex" unicode="&#x2c6;" horiz-adv-x="369" 
d="M319 525l-19 -18l-115 94l-116 -94l-19 18q55 87 122 155h25q68 -68 122 -155z" />
    <glyph glyph-name="caron" unicode="&#x2c7;" horiz-adv-x="369" 
d="M300 689l19 -18q-53 -86 -122 -156h-25q-68 71 -122 156l19 18l116 -94z" />
    <glyph glyph-name="breve" unicode="&#x2d8;" horiz-adv-x="355" 
d="M178 523q-116 0 -128 150l32 2q7 -44 32 -67t64 -23q37 0 62.5 23t32.5 67l32 -2q-6 -73 -38.5 -111.5t-88.5 -38.5z" />
    <glyph glyph-name="dotaccent" unicode="&#x2d9;" horiz-adv-x="211" 
d="M104 553q-26 0 -40 16.5t-14 37.5q0 19 14.5 36t40.5 17q24 0 40 -14t16 -38t-15 -39.5t-42 -15.5z" />
    <glyph glyph-name="ring" unicode="&#x2da;" horiz-adv-x="320" 
d="M160 522q-50 0 -80 31.5t-30 74.5t30 73t80 30t80 -30t30 -73t-30 -74.5t-80 -31.5zM160 548q34 0 53 23.5t19 56.5q0 31 -19.5 54t-52.5 23q-34 0 -53 -22.5t-19 -54.5q0 -33 19 -56.5t53 -23.5z" />
    <glyph glyph-name="ogonek" unicode="&#x2db;" horiz-adv-x="309" 
d="M154 -217q-45 0 -74.5 26t-29.5 68q0 44 31.5 78t80.5 46l51 -1q-38 -5 -66 -35t-28 -70q0 -33 18.5 -51t48.5 -18q32 0 58 24l15 -17q-41 -50 -105 -50z" />
    <glyph glyph-name="tilde" unicode="&#x2dc;" horiz-adv-x="373" 
d="M72 537l-22 1q0 40 13.5 69.5t42.5 29.5q25 0 86 -20t85 -24l23 44l23 -1q-1 -41 -14.5 -70t-42.5 -29q-26 0 -88.5 20t-81.5 24z" />
    <glyph glyph-name="hungarumlaut" unicode="&#x2dd;" horiz-adv-x="449" 
d="M95 511l-17 16l115 159l64 -14l5 -25q-63 -72 -167 -136zM208 511l-17 16l115 159l64 -14l4 -24q-60 -73 -166 -137z" />
    <glyph glyph-name="gravecomb" unicode="&#x300;" 
d="M-64 511q-115 56 -183 120l2 25l63 21l134 -147z" />
    <glyph glyph-name="acutecomb" unicode="&#x301;" 
d="M-234 511l-16 19l134 147l63 -21l2 -25q-68 -64 -183 -120z" />
    <glyph glyph-name="uni0302" unicode="&#x302;" 
d="M-50 525l-19 -18l-115 94l-116 -94l-19 18q55 87 122 155h25q68 -68 122 -155z" />
    <glyph glyph-name="tildecomb" unicode="&#x303;" 
d="M-301 537l-22 1q0 40 13.5 69.5t42.5 29.5q25 0 86 -20t85 -24l23 44l23 -1q-1 -41 -14.5 -70t-42.5 -29q-26 0 -88.5 20t-81.5 24z" />
    <glyph glyph-name="uni0304" unicode="&#x304;" 
d="M-262 616h239v-57h-239v57z" />
    <glyph glyph-name="uni0306" unicode="&#x306;" 
d="M-177 523q-116 0 -128 150l32 2q7 -44 32 -67t64 -23q37 0 62.5 23t32.5 67l32 -2q-6 -73 -38.5 -111.5t-88.5 -38.5z" />
    <glyph glyph-name="uni0307" unicode="&#x307;" 
d="M-107 553q-26 0 -40 16.5t-14 37.5q0 19 14.5 36t40.5 17q24 0 40 -14t16 -38t-15 -39.5t-42 -15.5z" />
    <glyph glyph-name="uni0308" unicode="&#x308;" 
d="M-257 543q-23 0 -35.5 15t-12.5 34q0 18 12.5 34t35.5 16q21 0 35 -13.5t14 -35.5t-12.5 -36t-36.5 -14zM-97 543q-23 0 -35.5 15t-12.5 34q0 18 13 34t36 16q21 0 34.5 -13.5t13.5 -35.5t-12.5 -36t-36.5 -14z" />
    <glyph glyph-name="uni030A" unicode="&#x30a;" 
d="M-160 522q-50 0 -80 31.5t-30 74.5t30 73t80 30t80 -30t30 -73t-30 -74.5t-80 -31.5zM-160 548q34 0 53 23.5t19 56.5q0 31 -19.5 54t-52.5 23q-34 0 -53 -22.5t-19 -54.5q0 -33 19 -56.5t53 -23.5z" />
    <glyph glyph-name="uni030B" unicode="&#x30b;" 
d="M-328 511l-18 16l116 159l64 -14l4 -25q-64 -74 -166 -136zM-216 511l-17 16l115 159l64 -14l5 -24q-62 -73 -167 -137z" />
    <glyph glyph-name="uni030C" unicode="&#x30c;" 
d="M-69 689l19 -18q-53 -86 -122 -156h-25q-68 71 -122 156l19 18l116 -94z" />
    <glyph glyph-name="uni0312" unicode="&#x312;" 
d="M-65 751l15 -19q-71 -50 -87 -101l23 -14q40 -23 39 -51q-1 -22 -16 -35.5t-38 -12.5q-24 1 -39.5 17.5t-15.5 46.5q-1 43 32.5 90t86.5 79z" />
    <glyph glyph-name="dotbelowcomb" unicode="&#x323;" 
d="M-107 -190q-26 0 -40 16t-14 37q0 19 14.5 36.5t40.5 17.5q24 0 40 -14.5t16 -38.5t-15 -39t-42 -15z" />
    <glyph glyph-name="uni0326" unicode="&#x326;" 
d="M-169 -294l-15 19q70 49 86 101l-23 14q-39 24 -38 51q1 22 16 35.5t37 12.5q24 -1 39.5 -17.5t16.5 -46.5q0 -43 -33.5 -90t-85.5 -79z" />
    <glyph glyph-name="uni0327" unicode="&#x327;" 
d="M-138 -53q88 -13 88 -74q0 -43 -37.5 -66.5t-103.5 -23.5l2 25q74 6 74 45q0 32 -70 37l-12 19l59 91h28z" />
    <glyph glyph-name="uni0328" unicode="&#x328;" 
d="M-155 -217q-45 0 -74.5 26t-29.5 68q0 44 31.5 78t80.5 46l51 -1q-38 -5 -66 -35t-28 -70q0 -33 18 -51t49 -18q32 0 58 24l15 -17q-41 -50 -105 -50z" />
    <glyph glyph-name="uni0394" unicode="&#x394;" horiz-adv-x="638" 
d="M515 0h-393l-39 39l203 595h65l204 -595zM156 61h326l-163 488z" />
    <glyph glyph-name="uni03A9" unicode="&#x3a9;" horiz-adv-x="709" 
d="M106 1v47h141q-64 52 -100 129t-36 170q0 54 13 103.5t40.5 92.5t76 69t113.5 26t114 -26t76.5 -69t40.5 -92.5t13 -103.5q0 -186 -136 -299h141v-47h-197v42q70 58 105 137t35 166q0 46 -10 87t-31 77.5t-60 58.5t-91 22q-51 0 -90 -22t-60 -58.5t-31.5 -78t-10.5 -86.5
q0 -86 36 -165.5t105 -137.5v-42h-197z" />
    <glyph glyph-name="uni03BC" unicode="&#x3bc;" horiz-adv-x="545" 
d="M527 44l1 -23q-14 -3 -119 -23l-11 1l-15 71l-40 -26q-78 -55 -144 -55q-15 0 -29 3v-240l-81 -10v410v76.5v91.5v76q0 23 -23 26l-49 9l-1 23l136 13l18 -8q-2 -151 0 -307v-11q0 -53 18 -77t57 -24q57 0 135 63q2 145 0 293q0 23 -23 26l-49 9l-1 23l136 13l18 -8
q-2 -184 0 -383q0 -27 25 -30z" />
    <glyph glyph-name="pi" unicode="&#x3c0;" horiz-adv-x="620" 
d="M553 425h-83v-399h83v-26h-161v425h-164v-425h-78v425h-86v26h489v-26z" />
    <glyph glyph-name="Wgrave" unicode="&#x1e80;" horiz-adv-x="938" 
d="M524 690q-128 22 -213 66l-5 25l56 38l172 -107zM724 640h204v-24q-49 -54 -59 -66q-17 -19 -22 -37l-179 -522h-44l-153 456l-159 -456h-44l-203 598q-7 20 -26 23l-33 4v24h242v-24l-63 -4q-28 -3 -18 -31l156 -480l127 374q5 18 -1 36l-28 78q-6 20 -26 23l-45 4v24
h253v-24l-62 -4q-27 -3 -19 -31l157 -481l136 412q8 23 -8 38q-22 19 -83 66v24z" />
    <glyph glyph-name="wgrave" unicode="&#x1e81;" horiz-adv-x="753" 
d="M426 532l-16 -19q-115 56 -183 120l2 25l63 21zM579 462h171v-22q-18 -9 -48 -37q-18 -18 -29 -45l-130 -364h-41l-117 311l-123 -311h-41l-168 418q-7 18 -25 21l-34 7v22h215v-22l-46 -7q-22 -5 -13 -29l121 -317l89 229q11 25 2 46v1l-21 49q-8 18 -24 21l-34 7v22
h213v-22l-44 -7q-24 -5 -15 -29l115 -315l92 267q9 27 -9 39q-3 3 -24 21t-32 24v22z" />
    <glyph glyph-name="Wacute" unicode="&#x1e82;" horiz-adv-x="938" 
d="M633 756q-84 -44 -212 -66l-10 22l171 107l56 -38zM724 640h204v-24q-49 -54 -59 -66q-17 -19 -22 -37l-179 -522h-44l-153 456l-159 -456h-44l-203 598q-7 20 -26 23l-33 4v24h242v-24l-63 -4q-28 -3 -18 -31l156 -480l127 374q5 18 -1 36l-28 78q-6 20 -26 23l-45 4v24
h253v-24l-62 -4q-27 -3 -19 -31l157 -481l136 412q8 23 -8 38q-22 19 -83 66v24z" />
    <glyph glyph-name="wacute" unicode="&#x1e83;" horiz-adv-x="753" 
d="M526 633q-68 -64 -183 -120l-16 19l134 147l63 -21zM579 462h171v-22q-18 -9 -48 -37q-18 -18 -29 -45l-130 -364h-41l-117 311l-123 -311h-41l-168 418q-7 18 -25 21l-34 7v22h215v-22l-46 -7q-22 -5 -13 -29l121 -317l89 229q11 25 2 46v1l-21 49q-8 18 -24 21l-34 7
v22h213v-22l-44 -7q-24 -5 -15 -29l115 -315l92 267q9 27 -9 39q-3 3 -24 21t-32 24v22z" />
    <glyph glyph-name="Wdieresis" unicode="&#x1e84;" horiz-adv-x="938" 
d="M392 688q-23 0 -35.5 15t-12.5 34q0 18 12.5 34t35.5 16q21 0 35 -13.5t14 -35.5t-12.5 -36t-36.5 -14zM552 688q-23 0 -35.5 15t-12.5 34q0 18 13 34t36 16q21 0 34.5 -13.5t13.5 -35.5t-12.5 -36t-36.5 -14zM724 640h204v-24q-49 -54 -59 -66q-17 -19 -22 -37
l-179 -522h-44l-153 456l-159 -456h-44l-203 598q-7 20 -26 23l-33 4v24h242v-24l-63 -4q-28 -3 -18 -31l156 -480l127 374q5 18 -1 36l-28 78q-6 20 -26 23l-45 4v24h253v-24l-62 -4q-27 -3 -19 -31l157 -481l136 412q8 23 -8 38q-22 19 -83 66v24z" />
    <glyph glyph-name="wdieresis" unicode="&#x1e85;" horiz-adv-x="753" 
d="M298 545q-23 0 -35.5 15t-12.5 34q0 18 12.5 34t35.5 16q21 0 35 -13.5t14 -35.5t-12.5 -36t-36.5 -14zM458 545q-23 0 -35.5 15t-12.5 34q0 18 13 34t36 16q21 0 34.5 -13.5t13.5 -35.5t-12.5 -36t-36.5 -14zM579 462h171v-22q-18 -9 -48 -37q-18 -18 -29 -45l-130 -364
h-41l-117 311l-123 -311h-41l-168 418q-7 18 -25 21l-34 7v22h215v-22l-46 -7q-22 -5 -13 -29l121 -317l89 229q11 25 2 46v1l-21 49q-8 18 -24 21l-34 7v22h213v-22l-44 -7q-24 -5 -15 -29l115 -315l92 267q9 27 -9 39q-3 3 -24 21t-32 24v22z" />
    <glyph glyph-name="uni1E9E" unicode="&#x1e9e;" horiz-adv-x="980" 
d="M230 -9q-114 0 -173 32q2 51 2 163h24q3 -7 19.5 -48.5t27.5 -65.5q18 -53 109 -53q124 0 124 105q0 44 -31.5 81.5t-76.5 66l-90.5 58.5t-77 72t-31.5 93q0 65 50 108.5t148 43.5q86 0 165 -29q-7 -54 -16 -145h-23l-18.5 51l-15.5 43q-6 24 -33 38.5t-64 14.5
q-114 0 -114 -93q0 -39 31.5 -74.5t76.5 -64.5l90 -60t76.5 -73t31.5 -91q0 -82 -58 -127.5t-153 -45.5zM720 -9q-114 0 -173 32q2 51 2 163h24q3 -7 19.5 -48.5t27.5 -65.5q18 -53 109 -53q124 0 124 105q0 44 -31.5 81.5t-76.5 66l-90.5 58.5t-77 72t-31.5 93
q0 65 50 108.5t148 43.5q86 0 165 -29q-7 -54 -16 -145h-23l-18.5 51l-15.5 43q-6 24 -33 38.5t-64 14.5q-114 0 -114 -93q0 -39 31.5 -74.5t76.5 -64.5l90 -60t76.5 -73t31.5 -91q0 -82 -58 -127.5t-153 -45.5z" />
    <glyph glyph-name="uni1EA0" unicode="&#x1ea0;" horiz-adv-x="577" 
d="M573 27l24 -3v-24h-234v24l48 5q30 5 19 32l-62 175q-115 -1 -230 0l-43 -122q-10 -26 13 -44q18 -18 59 -46v-24h-190v24q19 13 38 32q39 30 52 68l185 507l63 23l213 -590q13 -33 45 -37zM148 263q105 -1 211 0l-106 294zM288 -83q24 0 40 -14.5t16 -38.5t-15 -39
t-42 -15q-26 0 -40 16t-14 37q0 19 14.5 36.5t40.5 17.5z" />
    <glyph glyph-name="uni1EA1" unicode="&#x1ea1;" horiz-adv-x="486" 
d="M428 43l42 -4v-22q-53 -9 -125 -24h-12l-11 66q-53 -38 -89.5 -53t-77.5 -15q-49 0 -82 29.5t-33 79.5q0 48 30.5 80t94.5 54q39 13 152 46v31q-2 133 -90 133q-65 0 -91 -75q-11 -26 -24 -73h-22l-30 111q100 63 191 63q153 0 153 -147v-79.5v-97v-75.5q1 -25 24 -28z
M132 114q0 -39 17 -61t51 -22q52 0 117 56v169q-39 -11 -106 -35q-79 -30 -79 -107zM246 -83q24 0 40 -14.5t16 -38.5t-15 -39t-42 -15q-26 0 -40 16t-14 37q0 19 14.5 36.5t40.5 17.5z" />
    <glyph glyph-name="uni1EB8" unicode="&#x1eb8;" horiz-adv-x="522" 
d="M456 181h24q-7 -90 -18 -181h-432v24l49 5q22 3 22 25q3 266 0 531q0 23 -22 26l-49 5v24h439q-7 -81 -18 -163h-24q-25 71 -47 119q-6 18 -23 18h-83q-36 0 -79 -8q-1 -89 -1 -259h118q16 0 27 17q16 27 32 58h24q3 -102 0 -204h-24q-19 54 -32 85q-9 19 -26 19h-119
q-1 -91 1 -288l164 -8q17 -1 28 17q36 65 69 138zM261 -83q24 0 40 -14.5t16 -38.5t-15 -39t-42 -15q-26 0 -40 16t-14 37q0 19 14.5 36.5t40.5 17.5z" />
    <glyph glyph-name="uni1EB9" unicode="&#x1eb9;" horiz-adv-x="477" 
d="M262 471q87 0 134.5 -58.5t39.5 -157.5l-19 -25q-123 -3 -284 -1q8 -81 52.5 -128t116.5 -47q69 0 103 29l12 -16q-44 -76 -155 -76q-104 0 -161 68.5t-57 165.5q0 109 61 177.5t157 68.5zM131 254q75 0 219 2q7 83 -20.5 135t-76.5 52q-54 0 -88 -50t-34 -131v-8z
M237 -83q24 0 40 -14.5t16 -38.5t-15 -39t-42 -15q-26 0 -40 16t-14 37q0 19 14.5 36.5t40.5 17.5z" />
    <glyph glyph-name="uni1EBC" unicode="&#x1ebc;" horiz-adv-x="522" 
d="M181 736l-13 -43l-23 1q0 40 13.5 69.5t42.5 29.5q27 0 93 -22t92 -22l12 44l24 -1q0 -40 -13.5 -69t-43.5 -29q-26 0 -92 21t-92 21zM456 181h24q-7 -90 -18 -181h-432v24l49 5q22 3 22 25q3 266 0 531q0 23 -22 26l-49 5v24h439q-7 -81 -18 -163h-24q-25 71 -47 119
q-6 18 -23 18h-83q-36 0 -79 -8q-1 -89 -1 -259h118q16 0 27 17q16 27 32 58h24q3 -102 0 -204h-24q-19 54 -32 85q-9 19 -26 19h-119q-1 -91 1 -288l164 -8q17 -1 28 17q36 65 69 138z" />
    <glyph glyph-name="uni1EBD" unicode="&#x1ebd;" horiz-adv-x="477" 
d="M161 583l-24 -44l-22 1q0 40 13.5 69.5t42.5 29.5q25 0 86 -20t85 -24l23 44l23 -1q-1 -41 -14.5 -70t-42.5 -29q-26 0 -88.5 20t-81.5 24zM262 471q87 0 134.5 -58.5t39.5 -157.5l-19 -25q-123 -3 -284 -1q8 -81 52.5 -128t116.5 -47q69 0 103 29l12 -16
q-44 -76 -155 -76q-104 0 -161 68.5t-57 165.5q0 109 61 177.5t157 68.5zM131 254q75 0 219 2q7 83 -20.5 135t-76.5 52q-54 0 -88 -50t-34 -131v-8z" />
    <glyph glyph-name="uni1ECA" unicode="&#x1eca;" horiz-adv-x="294" 
d="M31 0v24l49 6q24 3 24 27q2 261 0 524q0 24 -24 27l-49 6v24h232v-24l-50 -6q-23 -3 -23 -27q-1 -262 0 -524q0 -24 23 -27l50 -6v-24h-232zM145 -190q-26 0 -40 16t-14 37q0 19 14.5 36.5t40.5 17.5q24 0 40 -14.5t16 -38.5t-15 -39t-42 -15z" />
    <glyph glyph-name="uni1ECB" unicode="&#x1ecb;" horiz-adv-x="258" 
d="M126 553q-26 0 -40 16.5t-14 37.5q0 19 14.5 36t40.5 17q24 0 40 -14t16 -38t-15 -39.5t-42 -15.5zM24 22l43 8q22 4 23 28v329q-1 26 -22 29l-52 3l-1 23q76 13 138 27l18 -1q-2 -196 0 -410q0 -24 22 -28l43 -8v-22h-212v22zM127 -190q-26 0 -40 16t-14 37
q0 19 14.5 36.5t40.5 17.5q24 0 40 -14.5t16 -38.5t-15 -39t-42 -15z" />
    <glyph glyph-name="uni1ECC" unicode="&#x1ecc;" horiz-adv-x="715" 
d="M355 -9q-145 0 -227.5 90.5t-82.5 235.5t85 237.5t230 92.5t227.5 -90.5t82.5 -235.5t-85 -237.5t-230 -92.5zM364 20q100 0 156.5 83t57.5 207q1 141 -62.5 224.5t-164.5 83.5q-100 0 -157 -83.5t-57 -208.5q-1 -140 62.5 -223t164.5 -83zM356 -190q-26 0 -40 16t-14 37
q0 19 14.5 36.5t40.5 17.5q24 0 40 -14.5t16 -38.5t-15 -39t-42 -15z" />
    <glyph glyph-name="uni1ECD" unicode="&#x1ecd;" horiz-adv-x="532" 
d="M264 -9q-103 0 -161.5 65t-58.5 172t61.5 175t162.5 68q102 0 161 -65t59 -172t-61.5 -175t-162.5 -68zM270 18q57 0 91 56t34 148q0 100 -36 161t-97 61q-58 0 -91.5 -56t-33.5 -149q0 -100 36 -160.5t97 -60.5zM265 -190q-26 0 -40 16t-14 37q0 19 14.5 36.5t40.5 17.5
q24 0 40 -14.5t16 -38.5t-15 -39t-42 -15z" />
    <glyph glyph-name="uni1EE4" unicode="&#x1ee4;" horiz-adv-x="673" 
d="M334 -10q-235 0 -235 253q1 116 -1 339q0 24 -21 28l-50 6v24h249v-24l-64 -7q-22 -2 -22 -27q-1 -174 0 -350q1 -102 47 -153t127 -51q95 0 137 62t42 190v230q0 26 -17 37q-61 58 -75 69v24h199v-24q-21 -22 -57 -66q-15 -12 -15 -37v-234q0 -140 -61 -214.5
t-183 -74.5zM342 -190q-26 0 -40 16t-14 37q0 19 14.5 36.5t40.5 17.5q24 0 40 -14.5t16 -38.5t-15 -39t-42 -15z" />
    <glyph glyph-name="uni1EE5" unicode="&#x1ee5;" horiz-adv-x="541" 
d="M481 44l43 -3v-23q-39 -7 -117 -23l-14 1l-13 75l-42 -25q-80 -55 -144 -55q-52 0 -81 34.5t-29 94.5q2 132 0 276q0 22 -23 26l-45 9v23l131 13l18 -1v-323q1 -102 75 -102q56 0 135 66q2 140 0 289q0 23 -22 26l-50 9v23l135 13l18 -1q-1 -140 1 -394q0 -25 24 -28z
M270 -83q24 0 40 -14.5t16 -38.5t-15 -39t-42 -15q-26 0 -40 16t-14 37q0 19 14.5 36.5t40.5 17.5z" />
    <glyph glyph-name="Ygrave" unicode="&#x1ef2;" horiz-adv-x="556" 
d="M338 690q-128 22 -213 66l-5 25l56 38l172 -107zM352 640h195v-23l-57 -44q-15 -10 -23 -28l-140 -258q-2 -112 0 -230q0 -26 23 -28l56 -6v-23h-251v23l55 6q23 2 23 28q3 118 0 224l-173 311q-10 16 -28 19l-30 5v24h241v-24l-64 -5q-27 -3 -13 -29l149 -266l118 222
q12 24 -10 38q-38 25 -71 42v22z" />
    <glyph glyph-name="ygrave" unicode="&#x1ef3;" horiz-adv-x="475" 
d="M286 531l-16 -19q-115 56 -183 120l2 25l63 21zM303 461h170v-23q-22 -12 -47 -33q-19 -17 -27 -41l-229 -604q-26 2 -88 4v17l136 175l6 18l-168 427q-10 27 -33 32l-29 5v23h215v-24l-42 -4q-33 -5 -19 -38l117 -313l104 280q9 24 -6 36q-6 4 -27 19.5t-33 20.5v23z
" />
    <glyph glyph-name="uni1EF8" unicode="&#x1ef8;" horiz-adv-x="556" 
d="M183 736l-13 -43l-23 1q0 40 13.5 69.5t42.5 29.5q27 0 93 -22t92 -22l12 44l24 -1q0 -40 -13.5 -69t-43.5 -29q-26 0 -92 21t-92 21zM352 640h195v-23l-57 -44q-15 -10 -23 -28l-140 -258q-2 -112 0 -230q0 -26 23 -28l56 -6v-23h-251v23l55 6q23 2 23 28q3 118 0 224
l-173 311q-10 16 -28 19l-30 5v24h241v-24l-64 -5q-27 -3 -13 -29l149 -266l118 222q12 24 -10 38q-38 25 -71 42v22z" />
    <glyph glyph-name="uni1EF9" unicode="&#x1ef9;" horiz-adv-x="475" 
d="M147 582l-24 -44l-22 1q0 40 13.5 69.5t42.5 29.5q25 0 86 -20t85 -24l23 44l23 -1q-1 -41 -14.5 -70t-42.5 -29q-26 0 -88.5 20t-81.5 24zM303 461h170v-23q-22 -12 -47 -33q-19 -17 -27 -41l-229 -604q-26 2 -88 4v17l136 175l6 18l-168 427q-10 27 -33 32l-29 5v23
h215v-24l-42 -4q-33 -5 -19 -38l117 -313l104 280q9 24 -6 36q-6 4 -27 19.5t-33 20.5v23z" />
    <glyph glyph-name="uni2000" unicode="&#x2000;" horiz-adv-x="409" 
 />
    <glyph glyph-name="uni2001" unicode="&#x2001;" horiz-adv-x="818" 
 />
    <glyph glyph-name="uni2002" unicode="&#x2002;" horiz-adv-x="622" 
 />
    <glyph glyph-name="uni2003" unicode="&#x2003;" horiz-adv-x="818" 
 />
    <glyph glyph-name="uni2008" unicode="&#x2008;" horiz-adv-x="178" 
 />
    <glyph glyph-name="uni2009" unicode="&#x2009;" horiz-adv-x="152" 
 />
    <glyph glyph-name="uni200A" unicode="&#x200a;" horiz-adv-x="45" 
 />
    <glyph glyph-name="uni2011" unicode="&#x2011;" horiz-adv-x="442" 
d="M66 287h310v-47h-310v47z" />
    <glyph glyph-name="endash" unicode="&#x2013;" horiz-adv-x="598" 
d="M66 287h466v-47h-466v47z" />
    <glyph glyph-name="emdash" unicode="&#x2014;" horiz-adv-x="858" 
d="M66 240v47h726v-47h-726z" />
    <glyph glyph-name="quoteleft" unicode="&#x2018;" horiz-adv-x="180" 
d="M89 490q-24 1 -39.5 18t-15.5 47q0 43 34.5 90.5t86.5 79.5l15 -19q-70 -49 -88 -103l23 -14q39 -24 38 -51q-1 -22 -16.5 -35.5t-37.5 -12.5z" />
    <glyph glyph-name="quoteright" unicode="&#x2019;" horiz-adv-x="180" 
d="M91 724q24 -1 39.5 -18t15.5 -47q1 -43 -33.5 -90.5t-87.5 -79.5l-15 19q71 50 89 103l-24 14q-39 24 -37 51q1 22 16 35.5t37 12.5z" />
    <glyph glyph-name="quotesinglbase" unicode="&#x201a;" horiz-adv-x="178" 
d="M25 -123l-15 19q71 50 87 101l-23 14q-40 23 -39 52q1 21 16 34.5t37 12.5q24 0 40 -17t16 -47q1 -43 -32.5 -90t-86.5 -79z" />
    <glyph glyph-name="quotedblleft" unicode="&#x201c;" horiz-adv-x="335" 
d="M89 491q-24 1 -39.5 18t-15.5 47q0 43 34 90t87 80l15 -20q-70 -49 -88 -102l23 -14q39 -24 38 -52q-1 -22 -16.5 -35.5t-37.5 -11.5zM244 491q-24 1 -39.5 18t-15.5 47q-1 43 33.5 90t87.5 80l14 -20q-70 -49 -88 -102l23 -14q39 -24 38 -52q-1 -22 -16 -35.5t-37 -11.5
z" />
    <glyph glyph-name="quotedblright" unicode="&#x201d;" horiz-adv-x="335" 
d="M91 723q24 -2 39.5 -19t15.5 -47q1 -43 -33.5 -90t-87.5 -80l-15 20q71 50 89 102l-24 15q-39 22 -37 51q1 22 16 35.5t37 12.5zM246 723q23 -2 38.5 -19t16.5 -47q0 -43 -34.5 -90t-87.5 -80l-14 20q70 49 88 102l-23 15q-39 22 -38 51q1 22 16 35.5t38 12.5z" />
    <glyph glyph-name="quotedblbase" unicode="&#x201e;" horiz-adv-x="335" 
d="M91 71q24 -1 39.5 -18t15.5 -47q1 -43 -33.5 -90.5t-87.5 -79.5l-15 20q70 48 89 102l-24 14q-39 24 -37 52q1 22 16 35t37 12zM246 71q23 -1 38.5 -18t16.5 -47q0 -43 -34.5 -90.5t-87.5 -79.5l-14 20q69 47 88 102l-23 14q-39 24 -38 52q1 22 16 35t38 12z" />
    <glyph glyph-name="dagger" unicode="&#x2020;" horiz-adv-x="555" 
d="M102 434l127 -7q17 -1 23.5 -7t6.5 -24l2 -537h33l2 537q1 18 7 24t23 7l127 7l-1 27h-156v162h-37v-162h-156z" />
    <glyph glyph-name="daggerdbl" unicode="&#x2021;" horiz-adv-x="555" 
d="M296 65q1 -18 7 -23.5t23 -7.5l127 -7l-1 -27h-156v-162h-37v162h-156l-1 27l127 7q17 2 23.5 8t6.5 23l1 166l-1 166q0 18 -6.5 24t-23.5 7l-127 7l1 27h156v162h37v-162h156l1 -27l-127 -7q-17 -1 -23 -7t-7 -24l-1 -166z" />
    <glyph glyph-name="bullet" unicode="&#x2022;" horiz-adv-x="290" 
d="M146 247q-38 0 -58 23.5t-20 54.5q0 28 21 52.5t59 24.5q34 0 56.5 -21t22.5 -55q0 -35 -20.5 -57t-60.5 -22z" />
    <glyph glyph-name="ellipsis" unicode="&#x2026;" horiz-adv-x="741" 
d="M122 -9q-26 0 -40 16t-14 37q0 20 14.5 36.5t40.5 16.5q24 0 40 -14.5t16 -37.5q0 -24 -15 -39t-42 -15zM370 -9q-26 0 -40 16t-14 37q0 20 14.5 36.5t40.5 16.5q23 0 39 -14.5t16 -37.5q0 -24 -14.5 -39t-41.5 -15zM617 -9q-26 0 -40 16t-14 37q0 20 14.5 36.5
t40.5 16.5q23 0 39 -14.5t16 -37.5q0 -24 -14.5 -39t-41.5 -15z" />
    <glyph glyph-name="perthousand" unicode="&#x2030;" horiz-adv-x="1239" 
d="M207 -9h-27l464 656h26zM194 266q-71 0 -112.5 50t-41.5 135t41.5 135t112.5 50q69 0 111 -50t42 -135t-42 -135t-111 -50zM194 282q41 0 66 45t25 123t-25 124t-66 46q-43 0 -67.5 -45t-24.5 -122q0 -80 24.5 -125.5t67.5 -45.5zM661 -5q-71 0 -112.5 50t-41.5 135
t41.5 134.5t112.5 49.5q69 0 111 -50t42 -134q0 -85 -42 -135t-111 -50zM1047 -5q-71 0 -112.5 50t-41.5 135t41.5 134.5t112.5 49.5q69 0 111 -50t42 -134q0 -85 -42 -135t-111 -50zM661 10q42 0 66.5 45.5t24.5 123.5t-25 124t-66 46q-43 0 -67.5 -45t-24.5 -123
q0 -80 24.5 -125.5t67.5 -45.5zM1047 10q42 0 66.5 45.5t24.5 123.5t-25 124t-66 46q-43 0 -67.5 -45t-24.5 -123q0 -80 24.5 -125.5t67.5 -45.5z" />
    <glyph glyph-name="guilsinglleft" unicode="&#x2039;" horiz-adv-x="278" 
d="M237 392l-125 -160l125 -160l-23 -20l-182 159v42l182 159z" />
    <glyph glyph-name="guilsinglright" unicode="&#x203a;" horiz-adv-x="278" 
d="M64 412l182 -159v-42l-182 -159l-23 20l125 160l-125 160z" />
    <glyph glyph-name="fraction" unicode="&#x2044;" horiz-adv-x="84" 
d="M-177 -9h-27l464 656h26z" />
    <glyph glyph-name="uni2070" unicode="&#x2070;" horiz-adv-x="386" 
d="M194 368q-71 0 -112.5 50t-41.5 135t41.5 134.5t112.5 49.5q69 0 111 -50t42 -134q0 -85 -42 -135t-111 -50zM194 383q42 0 66.5 45.5t24.5 123.5t-25 124t-66 46q-43 0 -67.5 -45t-24.5 -123q0 -80 24.5 -125.5t67.5 -45.5z" />
    <glyph glyph-name="uni2074" unicode="&#x2074;" horiz-adv-x="336" 
d="M256 508h56v-11l-14 -33h-42q1 -19 1 -57q0 -15 14 -16l27 -4v-14h-172v14l55 5q16 2 16 16v56h-175l-8 41l193 229h50q-1 -80 -1 -226zM36 508h162q0 133 -1 187z" />
    <glyph glyph-name="uni2075" unicode="&#x2075;" horiz-adv-x="340" 
d="M144 598q149 0 149 -109q0 -57 -39 -89.5t-110 -32.5q-47 0 -99 8l10 87h15l36 -61q4 -9 13 -12q10 -4 38 -4q38 2 62.5 24.5t24.5 57.5q0 78 -114 78h-70l-8 6l19 181h212v-36l-11 -12h-188l-12 -86h72z" />
    <glyph glyph-name="uni2076" unicode="&#x2076;" horiz-adv-x="363" 
d="M200 603q57 0 91 -30.5t34 -80.5q0 -57 -39 -90.5t-100 -33.5q-68 0 -107 40.5t-39 108.5q0 90 70.5 152t185.5 73l4 -13q-73 -10 -124 -52t-67 -106q33 32 91 32zM186 384q36 0 57 25t21 69q0 48 -23 75.5t-61 27.5q-48 0 -77 -41q-2 -20 -2 -30q0 -59 22.5 -92.5
t62.5 -33.5z" />
    <glyph glyph-name="uni2077" unicode="&#x2077;" horiz-adv-x="322" 
d="M279 732l12 -8l-138 -353h-65l-11 9l185 305h-185q-11 0 -16 -8l-16 -40h-15v95h249z" />
    <glyph glyph-name="uni2078" unicode="&#x2078;" horiz-adv-x="355" 
d="M214 569q33 -17 51.5 -28t35 -31t16.5 -43q0 -49 -39 -74.5t-99 -25.5q-64 0 -102.5 23t-38.5 63q0 64 98 92q-40 20 -62 42.5t-22 53.5q0 43 35 69.5t90 26.5q59 0 92.5 -21.5t33.5 -59.5q0 -61 -89 -87zM106 664q0 -19 15.5 -36t31.5 -27t48 -26q47 27 47 77
q0 32 -19 51t-52 19q-31 0 -51 -16.5t-20 -41.5zM179 383q37 0 59 17t22 45q0 9 -3 17.5t-10.5 16.5l-13 13.5t-19 13l-20 11t-23.5 11.5l-23 11q-53 -29 -53 -82q0 -33 23 -53.5t61 -20.5z" />
    <glyph glyph-name="uni2079" unicode="&#x2079;" horiz-adv-x="359" 
d="M174 737q65 0 105 -39t40 -103q0 -90 -66 -152.5t-172 -75.5l-4 13q63 11 109.5 53.5t63.5 102.5q-34 -28 -90 -28q-55 0 -89.5 30.5t-34.5 80.5q0 52 38.5 85t99.5 33zM183 529q46 0 73 37q2 18 2 29q0 60 -22.5 93.5t-61.5 33.5q-35 0 -56 -25t-21 -67q0 -46 24 -73.5
t62 -27.5z" />
    <glyph glyph-name="uni2080" unicode="&#x2080;" horiz-adv-x="386" 
d="M194 -153q-71 0 -112.5 50t-41.5 135t41.5 134.5t112.5 49.5q69 0 111 -50t42 -134q0 -85 -42 -135t-111 -50zM194 -138q42 0 66.5 45.5t24.5 123.5t-25 124t-66 46q-43 0 -67.5 -45t-24.5 -123q0 -80 24.5 -125.5t67.5 -45.5z" />
    <glyph glyph-name="uni2081" unicode="&#x2081;" horiz-adv-x="218" 
d="M29 -134l38 4q14 3 14 16q2 169 0 274q0 13 -13 13h-38l-5 13l102 27h13q-2 -165 0 -327q0 -14 14 -16l38 -4v-14h-163v14z" />
    <glyph glyph-name="uni2082" unicode="&#x2082;" horiz-adv-x="332" 
d="M270 -54h16l-19 -94h-242v12l61.5 60.5t57 62.5t54.5 77.5t17 63.5q0 30 -16.5 49t-43.5 22q-26 3 -51 -7q-9 -3 -12 -13l-28 -72h-15l-12 83q66 26 124 26q54 0 85 -22t31 -63q0 -51 -50 -105.5t-137 -118.5v-4h150q11 0 17 10z" />
    <glyph glyph-name="uni2083" unicode="&#x2083;" horiz-adv-x="331" 
d="M151 38q61 -2 97.5 -25t36.5 -64q0 -46 -40.5 -74.5t-108.5 -28.5q-57 0 -103 11l11 86h15l28 -61q2 -6 11 -12q13 -7 37 -7q38 0 63 22t25 55q0 41 -32.5 63.5t-90.5 23.5v14q48 7 79 35t31 63q0 55 -60 61q-29 0 -43 -6q-11 -3 -14 -13l-25 -62h-16l-13 69
q57 28 122 28q54 0 82 -20t28 -54q0 -36 -32 -63t-88 -38v-3z" />
    <glyph glyph-name="uni2084" unicode="&#x2084;" horiz-adv-x="336" 
d="M256 -13h56v-11l-14 -33h-42q1 -19 1 -57q0 -15 14 -16l27 -4v-14h-172v14l55 5q16 2 16 16v56h-175l-8 41l193 229h50q-1 -80 -1 -226zM36 -13h162q0 133 -1 187z" />
    <glyph glyph-name="uni2085" unicode="&#x2085;" horiz-adv-x="340" 
d="M144 77q149 0 149 -109q0 -57 -39 -89.5t-110 -32.5q-47 0 -99 8l10 87h15l36 -61q4 -9 13 -12q10 -4 38 -4q38 2 62.5 24.5t24.5 57.5q0 78 -114 78h-70l-8 6l19 181h212v-36l-11 -12h-188l-12 -86h72z" />
    <glyph glyph-name="uni2086" unicode="&#x2086;" horiz-adv-x="363" 
d="M200 82q57 0 91 -30.5t34 -80.5q0 -57 -39 -90.5t-100 -33.5q-68 0 -107 40.5t-39 108.5q0 90 70.5 152t185.5 73l4 -13q-73 -10 -124 -52t-67 -106q33 32 91 32zM186 -137q36 0 57 25t21 69q0 48 -23 75.5t-61 27.5q-48 0 -77 -41q-2 -20 -2 -30q0 -59 22.5 -92.5
t62.5 -33.5z" />
    <glyph glyph-name="uni2087" unicode="&#x2087;" horiz-adv-x="322" 
d="M279 211l12 -8l-138 -353h-65l-11 9l185 305h-185q-11 0 -16 -8l-16 -40h-15v95h249z" />
    <glyph glyph-name="uni2088" unicode="&#x2088;" horiz-adv-x="355" 
d="M214 48q33 -17 51.5 -28t35 -31t16.5 -43q0 -49 -39 -74.5t-99 -25.5q-64 0 -102.5 23t-38.5 63q0 64 98 92q-40 20 -62 42t-22 54q0 43 35 69.5t90 26.5q59 0 92.5 -21.5t33.5 -59.5q0 -61 -89 -87zM106 143q0 -19 15.5 -36t31.5 -27t48 -26q47 27 47 77q0 32 -19 51
t-52 19q-31 0 -51 -16.5t-20 -41.5zM179 -138q37 0 59 17t22 45q0 9 -3 17.5t-10.5 16.5l-13 13.5t-19 13l-20 11t-23.5 11.5l-23 11q-53 -29 -53 -82q0 -33 23 -53.5t61 -20.5z" />
    <glyph glyph-name="uni2089" unicode="&#x2089;" horiz-adv-x="359" 
d="M174 216q65 0 105 -39t40 -103q0 -90 -66 -152.5t-172 -75.5l-4 13q63 11 109.5 53.5t63.5 102.5q-34 -28 -90 -28q-55 0 -89.5 30.5t-34.5 80.5q0 52 38.5 85t99.5 33zM183 8q46 0 73 37q2 18 2 29q0 60 -22.5 93.5t-61.5 33.5q-35 0 -56 -25t-21 -67q0 -46 24 -73.5
t62 -27.5z" />
    <glyph glyph-name="Euro" unicode="&#x20ac;" horiz-adv-x="606" 
d="M493 189h22q-8 -71 -23 -161q-74 -37 -157 -37q-106 0 -171 73t-78 192h-78v22h76q-1 12 -1 37q0 26 1 38h-76v22h79q15 117 83.5 191.5t176.5 74.5q64 0 164 -34q-4 -77 -14 -173h-21l-16.5 55.5t-18.5 59.5q-14 32 -42.5 48.5t-58.5 16.5q-71 0 -115 -64t-52 -175h185
v-22h-186q-1 -9 -1 -27q0 -16 2 -48h185v-22h-183q11 -107 55.5 -172.5t110.5 -65.5q70 0 107 75q11 19 26.5 54z" />
    <glyph glyph-name="uni2113" unicode="&#x2113;" horiz-adv-x="512" 
d="M221 43q65 0 117 80l40 -25q-67 -102 -157 -102q-45 0 -75 30t-41 84q-46 -14 -70 -20l-9 46q41 9 73 22v13q0 119 32 226.5t86 173.5t114 66q43 0 70 -32.5t27 -83.5q0 -136 -71 -236.5t-207 -157.5q12 -84 71 -84zM331 589q-44 0 -86.5 -59t-69.5 -155t-28 -198
q234 106 234 344q0 32 -13.5 50t-36.5 18z" />
    <glyph glyph-name="trademark" unicode="&#x2122;" horiz-adv-x="714" 
d="M289 639q1 -16 1 -49t1 -50h-17l-29 67q-5 11 -18 12l-41 1q-1 -88 -1 -255q0 -15 15 -18l24 -4v-17h-134v17l22 3q13 3 13 17q0 4 0.5 129.5t-0.5 127.5l-43 -2q-12 0 -17 -11l-34 -68l-17 1q4 47 8 99h267zM671 344l19 -3v-15h-131l3 15l24 3q11 4 10 19
q-20 166 -26 222l-81 -263h-14l-93 271l-23 -190q-2 -13 7 -26q23 -26 37 -36v-15h-99v15q25 29 29 37q9 14 10 24l25 199q1 15 -13 19l-26 4v15h100l74 -220l68 220h97v-15l-26 -4q-16 -5 -13 -19q1 -7 11.5 -99t17.5 -141q2 -15 13 -17z" />
    <glyph glyph-name="uni2126" unicode="&#x2126;" horiz-adv-x="709" 
d="M106 1v47h141q-64 52 -100 129t-36 170q0 54 13 103.5t40.5 92.5t76 69t113.5 26t114 -26t76.5 -69t40.5 -92.5t13 -103.5q0 -186 -136 -299h141v-47h-197v42q70 58 105 137t35 166q0 46 -10 87t-31 77.5t-60 58.5t-91 22q-51 0 -90 -22t-60 -58.5t-31.5 -78t-10.5 -86.5
q0 -86 36 -165.5t105 -137.5v-42h-197z" />
    <glyph glyph-name="estimated" unicode="&#x212e;" horiz-adv-x="720" 
d="M367 21q136 0 218 135l25 -16q-46 -75 -103 -112.5t-142 -37.5q-123 0 -206 89t-83 232q0 152 84.5 238t206.5 86q113 0 192.5 -86t85.5 -244h-477v-173q31 -51 82.5 -81t116.5 -30zM366 604q-130 0 -198 -106v-162h387v156q-30 55 -81.5 83.5t-107.5 28.5z" />
    <glyph glyph-name="uni2153" unicode="&#x2153;" horiz-adv-x="723" 
d="M534 647h26l-463 -656h-27zM67 288q14 3 14 16q2 170 0 274q0 13 -13 13h-38l-5 13l102 27h13q-2 -165 0 -327q0 -12 14 -16l38 -4v-14h-163v14zM543 186q61 -2 97.5 -25t36.5 -64q0 -46 -40.5 -74.5t-108.5 -28.5q-57 0 -103 11l11 86h15l28 -61q2 -6 11 -12
q13 -7 37 -7q38 0 63 22t25 55q0 41 -32.5 63.5t-90.5 23.5v14q48 7 79 35t31 63q0 55 -60 61q-29 0 -43 -6q-11 -3 -14 -13l-25 -62h-16l-13 69q57 28 122 28q54 0 82 -20t28 -54q0 -36 -32 -63t-88 -38v-3z" />
    <glyph glyph-name="uni2154" unicode="&#x2154;" horiz-adv-x="803" 
d="M614 647h26l-463 -656h-27zM286 364l-19 -94h-242v12q102 101 137 147q53 70 53 118q0 29 -16.5 48t-43.5 22q-26 3 -51 -7q-9 -3 -12 -12l-28 -72h-15l-12 82q68 27 124 27q54 0 85 -22.5t31 -63.5q0 -51 -50 -105.5t-137 -118.5v-4h150q11 0 17 10l13 33h16zM623 186
q61 -2 97.5 -25t36.5 -64q0 -46 -40.5 -74.5t-108.5 -28.5q-57 0 -103 11l11 86h15l28 -61q2 -6 11 -12q13 -7 37 -7q38 0 63 22t25 55q0 41 -32.5 63.5t-90.5 23.5v14q48 7 79 35t31 63q0 55 -60 61q-29 0 -43 -6q-11 -3 -14 -13l-25 -62h-16l-13 69q57 28 122 28
q54 0 82 -20t28 -54q0 -36 -32 -63t-88 -38v-3z" />
    <glyph glyph-name="uni2155" unicode="&#x2155;" horiz-adv-x="705" 
d="M534 647h26l-463 -656h-27zM67 288q14 3 14 16q2 170 0 274q0 13 -13 13h-38l-5 13l102 27h13q-2 -165 0 -327q0 -12 14 -16l38 -4v-14h-163v14zM509 225q149 0 149 -109q0 -57 -39 -89.5t-110 -32.5q-47 0 -99 8l10 87h15l36 -61q4 -9 13 -12q10 -4 38 -4
q38 2 62.5 24.5t24.5 57.5q0 78 -114 78h-70l-8 6l19 181h212v-36l-11 -12h-188l-12 -86h72z" />
    <glyph glyph-name="uni2156" unicode="&#x2156;" horiz-adv-x="785" 
d="M614 647h26l-463 -656h-27zM286 364l-19 -94h-242v12q102 101 137 147q53 70 53 118q0 29 -16.5 48t-43.5 22q-26 3 -51 -7q-9 -3 -12 -12l-28 -72h-15l-12 82q68 27 124 27q54 0 85 -22.5t31 -63.5q0 -51 -50 -105.5t-137 -118.5v-4h150q11 0 17 10l13 33h16zM589 225
q149 0 149 -109q0 -57 -39 -89.5t-110 -32.5q-47 0 -99 8l10 87h15l36 -61q4 -9 13 -12q10 -4 38 -4q38 2 62.5 24.5t24.5 57.5q0 78 -114 78h-70l-8 6l19 181h212v-36l-11 -12h-188l-12 -86h72z" />
    <glyph glyph-name="uni2157" unicode="&#x2157;" horiz-adv-x="769" 
d="M598 647h26l-463 -656h-27zM135 281q38 0 63 22t25 55q0 41 -32 63.5t-91 23.5v14q48 8 79 35.5t31 62.5q0 55 -60 61q-24 2 -43 -6q-11 -3 -14 -13l-25 -62h-16l-13 69q60 29 122 29q54 0 82 -20.5t28 -54.5q0 -36 -32 -63t-88 -38v-3q61 -2 97.5 -25t36.5 -64
q0 -46 -40.5 -74.5t-108.5 -28.5q-57 0 -103 11l11 86h15l28 -61q2 -6 11 -12q15 -7 37 -7zM573 225q149 0 149 -109q0 -57 -39 -89.5t-110 -32.5q-47 0 -99 8l10 87h15l36 -61q4 -9 13 -12q10 -4 38 -4q38 2 62.5 24.5t24.5 57.5q0 78 -114 78h-70l-8 6l19 181h212v-36
l-11 -12h-188l-12 -86h72z" />
    <glyph glyph-name="uni2158" unicode="&#x2158;" horiz-adv-x="797" 
d="M626 647h26l-463 -656h-27zM181 289q16 2 16 16v56h-175l-8 41l193 229h50q-1 -79 -1 -225h56v-12l-14 -33h-42q1 -19 1 -57q0 -13 14 -16l27 -3v-15h-172v14zM37 406q51 -1 161 -1q0 133 -1 187zM601 225q149 0 149 -109q0 -57 -39 -89.5t-110 -32.5q-47 0 -99 8l10 87
h15l36 -61q4 -9 13 -12q10 -4 38 -4q38 2 62.5 24.5t24.5 57.5q0 78 -114 78h-70l-8 6l19 181h212v-36l-11 -12h-188l-12 -86h72z" />
    <glyph glyph-name="uni2159" unicode="&#x2159;" horiz-adv-x="687" 
d="M534 647h26l-463 -656h-27zM67 288q14 3 14 16q2 170 0 274q0 13 -13 13h-38l-5 13l102 27h13q-2 -165 0 -327q0 -12 14 -16l38 -4v-14h-163v14zM523 230q57 0 91 -30.5t34 -80.5q0 -57 -39 -90.5t-100 -33.5q-68 0 -107 40.5t-39 108.5q0 90 70.5 152t185.5 73l4 -13
q-73 -10 -124 -52t-67 -106q33 32 91 32zM509 11q36 0 57 25t21 69q0 48 -23 75.5t-61 27.5q-48 0 -77 -41q-2 -20 -2 -30q0 -59 22.5 -92.5t62.5 -33.5z" />
    <glyph glyph-name="uni215A" unicode="&#x215a;" horiz-adv-x="757" 
d="M605 647h26l-463 -656h-27zM157 282q38 2 62.5 24.5t24.5 57.5q0 78 -114 78h-70l-8 7l19 181q105 -1 212 0v-37l-11 -12h-188l-12 -86h72q149 0 149 -109q0 -57 -39 -89.5t-110 -32.5q-47 0 -99 8l10 87h15l36 -61q4 -9 13 -12q12 -4 38 -4zM594 230q57 0 91 -30.5
t34 -80.5q0 -57 -39 -90.5t-100 -33.5q-68 0 -107 40.5t-39 108.5q0 90 70.5 152t185.5 73l4 -13q-73 -10 -124 -52t-67 -106q33 32 91 32zM580 11q36 0 57 25t21 69q0 48 -23 75.5t-61 27.5q-48 0 -77 -41q-2 -20 -2 -30q0 -59 22.5 -92.5t62.5 -33.5z" />
    <glyph glyph-name="oneeighth" unicode="&#x215b;" horiz-adv-x="713" 
d="M534 647h26l-463 -656h-27zM67 288q14 3 14 16q2 170 0 274q0 13 -13 13h-38l-5 13l102 27h13q-2 -165 0 -327q0 -12 14 -16l38 -4v-14h-163v14zM571 196q33 -17 51.5 -28t35 -31t16.5 -43q0 -49 -39 -74.5t-99 -25.5q-64 0 -102.5 23t-38.5 63q0 64 98 92q-40 20 -62 42
t-22 54q0 43 35 69.5t90 26.5q59 0 92.5 -21.5t33.5 -59.5q0 -61 -89 -87zM463 291q0 -19 15.5 -36t31.5 -27t48 -26q47 27 47 77q0 32 -19 51t-52 19q-31 0 -51 -16.5t-20 -41.5zM536 10q37 0 59 17t22 45q0 9 -3 17.5t-10.5 16.5l-13 13.5t-19 13l-20 11t-23.5 11.5
l-23 11q-53 -29 -53 -82q0 -33 23 -53.5t61 -20.5z" />
    <glyph glyph-name="threeeighths" unicode="&#x215c;" horiz-adv-x="776" 
d="M598 647h26l-463 -656h-27zM135 281q38 0 63 22t25 55q0 41 -32 63.5t-91 23.5v14q48 8 79 35.5t31 62.5q0 55 -60 61q-24 2 -43 -6q-11 -3 -14 -13l-25 -62h-16l-13 69q60 29 122 29q54 0 82 -20.5t28 -54.5q0 -36 -32 -63t-88 -38v-3q61 -2 97.5 -25t36.5 -64
q0 -46 -40.5 -74.5t-108.5 -28.5q-57 0 -103 11l11 86h15l28 -61q2 -6 11 -12q15 -7 37 -7zM635 196q33 -17 51.5 -28t35 -31t16.5 -43q0 -49 -39 -74.5t-99 -25.5q-64 0 -102.5 23t-38.5 63q0 64 98 92q-40 20 -62 42t-22 54q0 43 35 69.5t90 26.5q59 0 92.5 -21.5
t33.5 -59.5q0 -61 -89 -87zM527 291q0 -19 15.5 -36t31.5 -27t48 -26q47 27 47 77q0 32 -19 51t-52 19q-31 0 -51 -16.5t-20 -41.5zM600 10q37 0 59 17t22 45q0 9 -3 17.5t-10.5 16.5l-13 13.5t-19 13l-20 11t-23.5 11.5l-23 11q-53 -29 -53 -82q0 -33 23 -53.5t61 -20.5z
" />
    <glyph glyph-name="fiveeighths" unicode="&#x215d;" horiz-adv-x="783" 
d="M605 647h26l-463 -656h-27zM157 282q38 2 62.5 24.5t24.5 57.5q0 78 -114 78h-70l-8 7l19 181q105 -1 212 0v-37l-11 -12h-188l-12 -86h72q149 0 149 -109q0 -57 -39 -89.5t-110 -32.5q-47 0 -99 8l10 87h15l36 -61q4 -9 13 -12q12 -4 38 -4zM642 196q33 -17 51.5 -28
t35 -31t16.5 -43q0 -49 -39 -74.5t-99 -25.5q-64 0 -102.5 23t-38.5 63q0 64 98 92q-40 20 -62 42t-22 54q0 43 35 69.5t90 26.5q59 0 92.5 -21.5t33.5 -59.5q0 -61 -89 -87zM534 291q0 -19 15.5 -36t31.5 -27t48 -26q47 27 47 77q0 32 -19 51t-52 19q-31 0 -51 -16.5
t-20 -41.5zM607 10q37 0 59 17t22 45q0 9 -3 17.5t-10.5 16.5l-13 13.5t-19 13l-20 11t-23.5 11.5l-23 11q-53 -29 -53 -82q0 -33 23 -53.5t61 -20.5z" />
    <glyph glyph-name="seveneighths" unicode="&#x215e;" horiz-adv-x="718" 
d="M540 647h26l-463 -656h-27zM262 582h-185q-12 0 -16 -8l-16 -40h-15v96h249l12 -9l-138 -353h-65l-11 9zM577 196q33 -17 51.5 -28t35 -31t16.5 -43q0 -49 -39 -74.5t-99 -25.5q-64 0 -102.5 23t-38.5 63q0 64 98 92q-40 20 -62 42t-22 54q0 43 35 69.5t90 26.5
q59 0 92.5 -21.5t33.5 -59.5q0 -61 -89 -87zM469 291q0 -19 15.5 -36t31.5 -27t48 -26q47 27 47 77q0 32 -19 51t-52 19q-31 0 -51 -16.5t-20 -41.5zM542 10q37 0 59 17t22 45q0 9 -3 17.5t-10.5 16.5l-13 13.5t-19 13l-20 11t-23.5 11.5l-23 11q-53 -29 -53 -82
q0 -33 23 -53.5t61 -20.5z" />
    <glyph glyph-name="partialdiff" unicode="&#x2202;" horiz-adv-x="527" 
d="M481 278q1 -148 -60 -217.5t-164 -69.5q-98 0 -154.5 64t-56.5 166q0 108 64 173.5t166 65.5q52 0 91 -23q-32 91 -95 155t-147 86l7 27q155 -23 252 -144t97 -283zM267 20q130 0 130 237q0 63 -14 124q-38 52 -105 50q-69 -1 -107.5 -55.5t-38.5 -145.5
q0 -95 36.5 -152.5t98.5 -57.5z" />
    <glyph glyph-name="uni2206" unicode="&#x2206;" horiz-adv-x="638" 
d="M515 0h-393l-39 39l203 595h65l204 -595zM156 61h326l-163 488z" />
    <glyph glyph-name="product" unicode="&#x220f;" horiz-adv-x="600" 
d="M516 635v-60h-81v-690h-63v690h-140v-690h-62v690h-86v60h432z" />
    <glyph glyph-name="summation" unicode="&#x2211;" horiz-adv-x="600" 
d="M482 -59v-60h-390l173 391l-175 361h392v-59h-297l146 -302l-148 -331h299z" />
    <glyph glyph-name="minus" unicode="&#x2212;" horiz-adv-x="527" 
d="M83 287v57h361v-57h-361z" />
    <glyph glyph-name="uni2215" unicode="&#x2215;" horiz-adv-x="84" 
d="M-177 -9h-27l464 656h26z" />
    <glyph glyph-name="uni2219" unicode="&#x2219;" horiz-adv-x="290" 
d="M146 247q-38 0 -58 23.5t-20 54.5q0 28 21 52.5t59 24.5q34 0 56.5 -21t22.5 -55q0 -35 -20.5 -57t-60.5 -22z" />
    <glyph glyph-name="radical" unicode="&#x221a;" horiz-adv-x="617" 
d="M408 635h152v-62h-106l-204 -662h-65l-130 313l68 1l94 -236z" />
    <glyph glyph-name="infinity" unicode="&#x221e;" horiz-adv-x="717" 
d="M497 180q-91 0 -139 95q-50 -95 -138 -95q-59 0 -98 36.5t-39 99.5q0 65 39 101.5t98 36.5q86 0 138 -96q49 96 137 96q61 0 100 -36.5t39 -101.5q0 -63 -39 -99.5t-98 -36.5zM223 226q65 0 114 90q-49 92 -114 92q-39 0 -64.5 -25t-25.5 -67t25 -66t65 -24zM493 226
q40 0 65 24t25 66t-25.5 67t-64.5 25q-66 0 -115 -92q50 -90 115 -90z" />
    <glyph glyph-name="integral" unicode="&#x222b;" horiz-adv-x="436" 
d="M143 -150q-38 0 -77 18v53q40 -16 65 -16q56 0 56 69v549q0 114 107 114q38 0 76 -18v-53q-38 16 -65 16q-30 0 -43 -16.5t-13 -52.5v-549q0 -114 -106 -114z" />
    <glyph glyph-name="approxequal" unicode="&#x2248;" horiz-adv-x="533" 
d="M113 356l-30 2q0 46 18.5 80.5t58.5 34.5q35 0 118.5 -23.5t115.5 -28.5l32 51l31 -1q-1 -47 -19.5 -80.5t-58.5 -33.5q-35 0 -120 23t-113 27zM113 181l-30 2q0 46 18.5 80.5t58.5 34.5q35 0 118.5 -23.5t115.5 -28.5l32 51l31 -1q-1 -47 -19.5 -80.5t-58.5 -33.5
q-35 0 -120 23t-113 27z" />
    <glyph glyph-name="notequal" unicode="&#x2260;" horiz-adv-x="527" 
d="M444 373h-144l-44 -113h188v-57h-209l-52 -135h-29l52 135h-123v57h144l44 113h-188v57h210l52 137h29l-52 -137h122v-57z" />
    <glyph glyph-name="lessequal" unicode="&#x2264;" horiz-adv-x="527" 
d="M444 205l-361 149v48l361 148v-58l-282 -114l282 -115v-58zM83 90v56h361v-56h-361z" />
    <glyph glyph-name="greaterequal" unicode="&#x2265;" horiz-adv-x="527" 
d="M83 205v58l282 115l-282 114v58l361 -148v-48zM444 90h-361v56h361v-56z" />
    <glyph glyph-name="lozenge" unicode="&#x25ca;" horiz-adv-x="600" 
d="M295 -16l-192 342l192 342l192 -342zM295 86l134 240l-134 240l-134 -240z" />
    <glyph glyph-name="uni00ED006A0301" unicode="&#xe132;" horiz-adv-x="526" 
d="M102 508l-20 14l84 162l67 -6l10 -24q-58 -84 -141 -146zM371 508l-20 14l84 162l67 -6l10 -24q-58 -84 -141 -146zM24 22l43 8q22 4 23 28v329q-1 26 -22 29l-52 3l-1 23q76 13 138 27l18 -1q-2 -196 0 -410q0 -24 22 -28l43 -8v-22h-212v22zM277 -221q47 14 64 63.5
t17 145.5q2 207 0 397q0 29 -21 32q-9 1 -31.5 1.5t-33.5 0.5v23q84 14 149 27l18 -1v-435q1 -137 -37 -197t-121 -77z" />
    <glyph glyph-name="uni00CD00A40301" unicode="&#xe133;" horiz-adv-x="596" 
d="M108 688l-11 22l172 107l56 -38l-5 -25q-84 -44 -212 -66zM409 688l-10 22l172 107l56 -38l-5 -25q-85 -44 -213 -66zM31 209v25l49 6q24 3 24 26q2 158 0 315q0 24 -24 27l-49 6v24h232v-24l-50 -6q-23 -3 -23 -27q-1 -157 0 -315q0 -23 23 -26l50 -6v-25h-232zM296 -27
q-100 0 -164 14l3 172h25q23 -59 43 -103q24 -56 96 -56q110 0 110 175q1 195 0 404q0 26 -23 28l-65 7v24h248v-24l-50 -6q-23 -3 -23 -28q-1 -194 0 -374q0 -116 -51.5 -174.5t-148.5 -58.5z" />
    <glyph glyph-name="uniF8FF" unicode="&#xf8ff;" horiz-adv-x="1000" 
d="M500 -32l-241 32l-89 220q-19 45 -36 59.5t-42 14.5v369h137q43 0 72 -28.5t29 -72.5v-116h67v217h206v-217h67v116q0 44 29 72.5t72 28.5h137v-369q-24 0 -41.5 -14.5t-36.5 -59.5l-89 -220zM327 214h70q25 0 41.5 13t16.5 35v32h-185v-32q0 -23 16 -35.5t41 -12.5z
M603 214h70q25 0 41 12.5t16 35.5v32h-185v-32q0 -22 16.5 -35t41.5 -13z" />
    <glyph glyph-name="fi" unicode="&#xfb01;" horiz-adv-x="535" 
d="M473 30l45 -8v-22h-220v22l45 7q21 6 21 28q2 167 0 338q0 18 -6.5 26.5t-26.5 9.5q-52 2 -157 4q0 -254 1 -377q0 -23 19 -27l60 -9v-22h-231v22l45 8q19 5 19 25q2 193 0 382q-48 2 -71 2v23h71v1q0 66 20 117t54.5 80t74.5 43.5t84 14.5q84 0 125 -22l-24 -133h-23
q-2 6 -8.5 24t-13.5 35t-14 31q-12 33 -60 33q-61 0 -94 -52t-34 -146v-26h278q-3 -178 -1 -404q0 -24 22 -28z" />
    <glyph glyph-name="fl" unicode="&#xfb02;" horiz-adv-x="522" 
d="M462 30l42 -8v-22h-210v22l43 7q22 4 22 29q1 173 -1 591q-22 36 -66 36q-122 0 -124 -201v-24h117v-16l-52 -21q-10 0 -32 1.5t-33 2.5q0 -247 1 -367q0 -24 20 -29l54 -9v-22h-220v22l45 8q20 5 20 26v376q-13 1 -37 2.5t-35 1.5v24h72q-1 127 62 191.5t155 64.5
q70 0 135 -17q-1 -324 0 -641q0 -24 22 -28z" />
    <glyph glyph-name="f_b" horiz-adv-x="811" 
d="M583 470q85 0 134.5 -60.5t49.5 -157.5q0 -122 -63 -191.5t-165 -69.5q-85 0 -139 47q-17 -25 -27 -46h-15q2 316 0 657q-22 36 -66 36q-122 0 -124 -201v-24h117v-21q-31 -9 -52 -16q-10 0 -32 1.5t-33 2.5q0 -247 1 -367q0 -22 20 -27l66 -11v-22h-232v22l45 8
q20 5 20 26v376q-13 1 -37 2.5t-35 1.5v24h72q-1 127 61.5 191.5t155.5 64.5q70 0 135 -17q0 -43 -0.5 -136.5t-0.5 -141.5q79 49 144 49zM547 18q135 0 135 204q0 93 -36.5 149t-99.5 56q-53 0 -107 -41v-261q0 -42 31.5 -74.5t76.5 -32.5z" />
    <glyph glyph-name="f_h" horiz-adv-x="816" 
d="M756 28l43 -6v-22h-221v22l52 7q22 4 22 29q1 135 0 264q0 52 -18 75.5t-56 23.5q-49 0 -138 -61v-94v-111v-96q0 -25 23 -29l51 -8v-22h-219v22l42 8q22 4 22 28q2 325 -1 591q-22 36 -66 36q-122 0 -124 -201v-24h117v-21q-31 -9 -52 -16q-10 0 -32 1.5t-33 2.5
q0 -307 1 -367q0 -23 20 -28l57 -10v-22h-223v22l45 8q20 5 20 26v376q-13 1 -37 2.5t-35 1.5v24h72q-1 127 62 191.5t155 64.5q70 0 135 -17v-304l46 27q84 48 138 48q51 0 80.5 -34t28.5 -94v-284q2 -26 23 -30z" />
    <glyph glyph-name="f_j" horiz-adv-x="514" 
d="M440 460q-1 -60 -1 -427q1 -137 -37.5 -197.5t-122.5 -77.5l-4 20q48 13 65 63.5t18 148.5q2 142 0 405q0 18 -7 25.5t-24 8.5q-52 2 -158 4q-2 -183 0 -375q0 -23 20 -27l58 -9v-22h-224v22l44 8q19 4 21 26q1 142 -1 379q-12 0 -35.5 0.5t-35.5 0.5v24h71v4
q0 64 20 114.5t53.5 79.5t73.5 44t84 15q75 0 119 -21l-26 -127h-25q-13 46 -23 77q-15 38 -62 38q-63 0 -97.5 -53t-34.5 -143v-28h271z" />
    <glyph glyph-name="f_k" horiz-adv-x="805" 
d="M440 59q0 -25 23 -29l53 -8v-22h-221v22l42 8q22 4 22 28q1 290 0 591q-22 36 -67 36q-122 0 -124 -201v-24h117v-21q-31 -9 -52 -16q-10 0 -32 1.5t-33 2.5q0 -307 1 -367q0 -23 20 -28l57 -10v-22h-223v22l45 8q20 5 20 26v376q-13 1 -37 2.5t-35 1.5v24h72
q-1 127 61.5 191.5t155.5 64.5q70 0 135 -17q-1 -14 -0.5 -324.5t0.5 -315.5zM763 28l33 -6v-22h-125l-199 266l179 135l-86 38v21h185l1 -24l-199 -144l186 -245q8 -13 25 -19z" />
    <glyph glyph-name="f_ij" horiz-adv-x="803" 
d="M451 58q0 -24 22 -28l45 -8v-22h-220v22l45 7q21 6 21 28q2 167 0 338q0 18 -6.5 26.5t-26.5 9.5q-52 2 -157 4q0 -254 1 -377q0 -23 19 -27l60 -9v-22h-231v22l45 8q19 5 19 25q2 193 0 382q-48 2 -71 2v23h71v1q0 66 20 117t54.5 80t74.5 43.5t84 14.5q84 0 125 -22
l-24 -133h-23q-2 6 -8.5 24t-13.5 35t-14 31q-12 33 -60 33q-61 0 -94 -52t-34 -146v-26h278q-3 -178 -1 -404zM672 553q-26 0 -40 16.5t-14 37.5q0 19 14.5 36t40.5 17q24 0 40 -14t16 -38t-15 -39.5t-42 -15.5zM716 468v-435q1 -137 -37 -197t-121 -77l-4 20
q47 14 64 63.5t17 145.5q2 207 0 397q0 29 -21 32q-9 1 -31.5 1.5t-33.5 0.5v23q84 14 149 27z" />
    <glyph glyph-name="f_f_b" horiz-adv-x="1086" 
d="M858 470q85 0 134.5 -60.5t49.5 -157.5q0 -122 -63 -191.5t-165 -69.5q-86 0 -140 47q-17 -25 -26 -45h-15q2 315 0 656q-22 36 -67 36q-121 0 -123 -201v-24h117v-16l-53 -21q-11 1 -32 1.5t-32 0.5q0 -245 1 -365q0 -22 20 -27l66 -11v-22h-232v22l45 8q20 5 20 26
q1 138 -1 371q-123 4 -194 5q-2 -184 0 -375q0 -21 21 -26l58 -9v-22h-224v22l44 8q20 5 20 26q2 201 0 378q-12 0 -35.5 1t-35.5 1v24h71q-1 116 58.5 181t152.5 65q79 0 128 -52q59 62 153 62q71 0 136 -17q0 -43 -0.5 -136.5t-0.5 -141.5q79 49 144 49zM168 460h194
q0 86 29 142q-38 75 -100 75q-56 0 -89 -50t-34 -141v-26zM821 18q136 0 136 204q0 93 -36.5 149t-99.5 56q-53 0 -107 -41v-261q0 -42 31 -74.5t76 -32.5z" />
    <glyph glyph-name="f_f_h" horiz-adv-x="1091" 
d="M1031 28l42 -6v-22h-220v22l52 7q22 4 22 29q1 135 0 264q0 52 -18 75.5t-56 23.5q-49 0 -138 -61v-94v-111v-96q0 -25 23 -29l51 -8v-22h-219v22l42 8q22 4 22 28q1 195 -1 591q-22 36 -66 36q-122 0 -124 -201v-24h117v-16l-53 -21q-11 1 -32 1.5t-32 0.5
q0 -305 1 -365q0 -23 20 -28l57 -10v-22h-223v22l45 8q20 5 20 26q1 138 -1 371q-123 4 -194 5q-2 -184 0 -375q0 -21 21 -26l58 -9v-22h-224v22l44 8q20 5 20 26q2 201 0 378q-12 0 -35.5 1t-35.5 1v24h71q-1 116 58.5 181t152.5 65q80 0 128 -53q59 63 154 63
q70 0 135 -17q-1 -1 -0.5 -152t0.5 -152l46 27q84 48 138 48q51 0 80.5 -34t28.5 -94v-284q0 -25 23 -30zM168 460h194q0 85 29 141q-38 76 -100 76q-56 0 -89 -50t-34 -141v-26z" />
    <glyph glyph-name="f_f_j" horiz-adv-x="791" 
d="M716 460v-427q0 -94 -18.5 -151.5t-52.5 -85t-90 -38.5l-4 20q49 13 66 63.5t18 148.5v405q0 18 -7 25.5t-24 8.5q-26 1 -79 1.5t-80 0.5v-373q2 -23 21 -27l58 -9v-22h-224v22l44 8q20 5 20 26q2 200 0 376q-130 2 -196 2q-2 -184 0 -377q0 -21 21 -26l58 -9v-22h-224
v22l44 8q20 5 20 26q2 203 0 379q-24 1 -71 1v24h71q-1 116 58.5 181t152.5 65q81 0 133 -54q65 65 164 65q76 0 118 -21l-25 -127h-25q-2 9 -11 37t-12 40q-15 38 -62 38q-63 0 -97.5 -53t-35.5 -143v-28h271zM168 460h196v4q0 78 28 134q-38 79 -101 79q-56 0 -89 -50
t-34 -141v-26z" />
    <glyph glyph-name="f_f_k" horiz-adv-x="1079" 
d="M715 59q0 -25 23 -29l53 -8v-22h-221v22l42 8q22 4 22 28q1 290 0 591q-22 36 -68 36q-121 0 -123 -201v-24h117v-16l-53 -21q-11 1 -32 1.5t-32 0.5q0 -305 1 -365q0 -23 20 -28l57 -10v-22h-223v22l45 8q20 5 20 26q1 138 -1 371q-123 4 -194 5q-2 -184 0 -375
q0 -21 21 -26l58 -9v-22h-224v22l44 8q20 5 20 26q2 201 0 378q-12 0 -35.5 1t-35.5 1v24h71q-1 116 58.5 181t152.5 65q80 0 128 -53q59 63 153 63q71 0 136 -17q-1 -14 -0.5 -324.5t0.5 -315.5zM168 460h194q0 86 29 142q-38 75 -100 75q-56 0 -89 -50t-34 -141v-26z
M1038 28l33 -6v-22h-125l-199 266l179 135l-86 38v21h184l2 -24l-199 -144l186 -245q8 -13 25 -19z" />
    <glyph glyph-name="f_f_ij" horiz-adv-x="1069" 
d="M716 58q0 -24 22 -28l45 -8v-22h-215v22l44 8q22 4 22 28q2 164 0 332q0 20 -7 29t-27 9q-110 2 -156 2v-372q2 -23 21 -27l58 -9v-22h-224v22l44 8q20 5 20 26q2 199 0 376q-33 0 -98.5 0.5t-96.5 1.5q-2 -184 0 -379q0 -19 21 -24l57 -9v-22h-223v22l44 8q20 5 20 26
v124v144v111q-12 0 -36 0.5t-35 0.5v24h71q-1 116 58.5 181t152.5 65q77 0 132 -55q63 66 164 66q76 0 118 -21l-25 -127h-25q-2 9 -11 37t-12 40q-15 38 -62 38q-63 0 -97.5 -53t-35.5 -143v-28h272q-2 -193 0 -402zM168 460h195v4q0 77 29 135q-38 78 -101 78
q-56 0 -89 -49.5t-34 -141.5v-26zM937 553q-26 0 -40 16.5t-14 37.5q0 19 14.5 36t40.5 17q24 0 40 -14t16 -38t-15 -39.5t-42 -15.5zM981 468v-435q1 -137 -37 -197t-121 -77l-4 20q47 14 64 63.5t17 145.5q2 207 0 397q0 29 -21 32q-9 1 -31.5 1.5t-33.5 0.5v23
q84 14 149 27z" />
    <glyph glyph-name="a.sc" horiz-adv-x="493" 
d="M474 27l19 -4v-23h-190v23l36 4q24 3 15 29l-42 115q-122 -2 -184 0l-30 -78q-10 -25 10 -40q32 -22 42 -30v-23h-150v23l29 23q27 16 38 41l150 381l59 17q161 -420 166 -432q8 -23 32 -26zM138 196q82 -1 164 0l-81 212z" />
    <glyph glyph-name="b.sc" horiz-adv-x="471" 
d="M296 263q62 -9 102 -43t40 -86q0 -65 -53.5 -99.5t-140.5 -34.5h-211v23l36 5q20 3 20 21q2 126 0 377q0 18 -20 21l-36 5v23h200q84 0 127 -27t43 -75q0 -43 -30 -71t-77 -36v-3zM230 451q-20 0 -57 -5q0 -30 -0.5 -88t-0.5 -88h83q21 0 42 24t21 64q0 46 -24 69.5
t-64 23.5zM245 24q45 0 75 24.5t30 77.5q0 54 -30.5 87.5t-89.5 33.5l-58 -1q0 -142 1 -217q48 -5 72 -5z" />
    <glyph glyph-name="c.sc" horiz-adv-x="519" 
d="M281 -7q-113 0 -180 66t-67 176q0 111 68.5 179t184.5 68q95 0 176 -27l-12 -136h-23q-4 13 -16 43.5t-17 44.5q-12 25 -45.5 37.5t-72.5 12.5q-71 0 -112.5 -54.5t-42.5 -155.5q-1 -106 44.5 -168t121.5 -62q81 0 118 64q29 45 41 71h23l-23 -132q-66 -27 -166 -27z" />
    <glyph glyph-name="d.sc" horiz-adv-x="552" 
d="M33 0v23l36 5q20 3 20 21q1 186 0 377q0 19 -20 21l-36 5v23h228q121 0 189.5 -65.5t68.5 -166.5q0 -110 -71.5 -176.5t-187.5 -66.5h-227zM259 25q75 0 123 56.5t48 152.5q0 98 -47 157.5t-129 59.5q-13 0 -81 -5q-1 -211 0 -416q73 -5 86 -5z" />
    <glyph glyph-name="e.sc" horiz-adv-x="434" 
d="M377 134h22l-15 -134h-351v23l36 5q20 3 20 21q2 201 0 377q0 18 -20 21l-36 5v23h356q-8 -80 -14 -122h-22q-11 26 -38 83q-7 15 -22 15h-61q-22 0 -59 -7q0 -32 -0.5 -94t-0.5 -92h88q16 0 25 14l24 40h23q-2 -76 0 -150h-23l-25 59q-8 14 -23 14h-89q0 -32 0.5 -100
t0.5 -105l123 -5q17 -2 25 13q3 6 24 40.5t32 55.5z" />
    <glyph glyph-name="f.sc" horiz-adv-x="421" 
d="M33 475h357l-13 -122h-23l-38 84q-7 14 -22 14h-62q-22 0 -59 -7q0 -35 -0.5 -100t-0.5 -96h81q18 0 26 14l24 35h23v-153h-23l-25 62q-6 19 -25 19h-81q0 -28 0.5 -86t0.5 -89q0 -19 19 -22l59 -7v-21h-218v23l36 5q20 3 20 21q1 194 0 377q0 18 -20 21l-36 5v23z" />
    <glyph glyph-name="g.sc" horiz-adv-x="523" 
d="M312 226h201v-23l-30 -4q-18 -5 -18 -23q-1 -75 0 -149q-68 -34 -184 -34q-113 0 -180 66t-67 177t69.5 178.5t181.5 67.5q89 0 178 -27l-12 -137h-23q-6 18 -17.5 46t-16.5 44q-26 48 -117 48q-71 0 -112.5 -54t-42.5 -154q0 -107 43.5 -168.5t122.5 -61.5q62 0 97 34
q0 84 -1 123q0 20 -21 23l-51 5v23z" />
    <glyph glyph-name="h.sc" horiz-adv-x="596" 
d="M527 447q-19 -3 -19 -21q-3 -187 0 -377q0 -18 19 -21l36 -5v-23h-198v23l39 5q18 3 20 21q0 30 0.5 92t0.5 94q-126 -1 -253 0q0 -31 0.5 -92.5t0.5 -93.5q0 -18 20 -21l39 -5v-23h-199v23l37 5q19 3 19 21q1 186 0 377q0 18 -19 21l-37 5v23h199v-23l-39 -5
q-20 -3 -20 -21q0 -29 -0.5 -83.5t-0.5 -81.5q166 -2 253 0q0 28 -0.5 83t-0.5 82q-2 18 -20 21l-39 5v23h198v-23z" />
    <glyph glyph-name="i.sc" horiz-adv-x="262" 
d="M33 0v23l36 5q20 3 20 21q2 188 0 377q0 18 -20 21l-36 5v23h196v-23l-36 -5q-20 -3 -20 -21q-2 -188 0 -377q0 -18 20 -21l36 -5v-23h-196z" />
    <glyph glyph-name="j.sc" horiz-adv-x="379" 
d="M141 -9q-63 0 -122 26l3 129h21q20 -49 45 -98q11 -33 52 -33q73 0 73 128q0 179 -1 280q0 21 -20 24l-45 5v23h207v-23l-38 -5q-20 -3 -20 -24q0 -1 -0.5 -122t0.5 -132q0 -89 -40 -133.5t-115 -44.5z" />
    <glyph glyph-name="k.sc" horiz-adv-x="520" 
d="M173 50q0 -19 20 -22l41 -5v-23h-201v23l36 5q20 3 20 22q1 184 0 376q0 19 -20 21l-36 5v23h201v-23l-41 -5q-20 -1 -20 -21q-1 -190 0 -376zM483 28l33 -5v-23h-124l-182 248l137 147q17 17 4 31l-25 27v22h171v-23l-63 -23q-17 -6 -36 -23l-117 -123l179 -241
q8 -11 23 -14z" />
    <glyph glyph-name="l.sc" horiz-adv-x="415" 
d="M33 0v23l36 5q20 3 20 22q2 194 0 376q0 18 -20 21l-36 5v23h201v-23l-42 -5q-19 -3 -19 -21q-1 -194 0 -395l117 -6q17 -2 24 13q21 42 55 118h23q-8 -88 -18 -156h-341z" />
    <glyph glyph-name="m.sc" horiz-adv-x="629" 
d="M587 28l31 -5v-23h-199v23l48 5q19 3 18 24q-20 178 -42 353l-136 -409h-21l-149 410l-41 -301q-3 -23 13 -36q20 -17 62 -46v-23h-161v23q9 8 42 46q14 14 17 34l45 316q3 24 -19 27l-44 6v23h148l124 -350l117 350h146v-23l-44 -7q-21 -2 -18 -26l43 -370q3 -18 20 -21
z" />
    <glyph glyph-name="n.sc" horiz-adv-x="558" 
d="M356 475h168v-23q-9 -10 -24 -29l-19 -24q-13 -14 -13 -31v-373h-69l-283 423v-306q0 -17 15 -29l76 -61v-22h-172v22l21.5 28.5l20.5 27.5q13 16 13 34v332q-8 2 -13 2l-43 6v23h142l266 -403v294q0 21 -15 31q-10 7 -34 27t-37 28v23z" />
    <glyph glyph-name="o.sc" horiz-adv-x="563" 
d="M280 -7q-115 0 -180.5 68t-65.5 175t67 176.5t181 69.5q116 0 181.5 -67.5t65.5 -176.5q0 -107 -67 -176t-182 -69zM287 17q70 0 111 56.5t42 155.5q1 105 -44.5 167t-119.5 62q-70 0 -111.5 -56t-42.5 -156q-1 -107 45 -168t120 -61z" />
    <glyph glyph-name="p.sc" horiz-adv-x="452" 
d="M425 346q0 -70 -51.5 -110.5t-141.5 -40.5q-35 0 -60 4q0 -28 0.5 -77.5t0.5 -69.5t20 -23l56 -6v-23h-216v23l36 5q20 3 20 22q2 186 0 375q0 19 -20 22l-36 5v23h207q88 0 136.5 -34.5t48.5 -94.5zM173 447q-1 -49 -1 -215q28 -12 61 -12q103 0 103 119
q0 53 -34.5 82.5t-83.5 29.5q-15 0 -45 -4z" />
    <glyph glyph-name="q.sc" horiz-adv-x="563" 
d="M380 10l314 -121v-18l-102 -20l-136.5 76l-126.5 70q-21 -4 -49 -4q-115 0 -180.5 68t-65.5 175t67 176.5t181 69.5q116 0 181.5 -67.5t65.5 -176.5q0 -80 -39 -141t-110 -87zM122 246q-1 -101 40.5 -161.5t109.5 -66.5l18 27q8 -3 24 -9.5t24 -9.5q100 40 102 203
q1 105 -44.5 167t-119.5 62q-70 0 -111.5 -56t-42.5 -156z" />
    <glyph glyph-name="r.sc" horiz-adv-x="480" 
d="M456 28l26 -5v-23h-119l-139 216h-55v-165q2 -20 21 -23l47 -5v-23h-208v23l37 5q18 3 20 21q2 186 0 377q-1 18 -20 21l-37 5v23h208q89 0 136.5 -31.5t47.5 -89.5q0 -46 -31 -80t-82 -49l125 -184q7 -10 23 -13zM170 447q-1 -64 -1 -199q30 -8 67 -8q40 0 68.5 28.5
t28.5 77.5q0 53 -33.5 79t-83.5 26q-10 0 -46 -4z" />
    <glyph glyph-name="s.sc" horiz-adv-x="409" 
d="M195 -8q-93 0 -145 27l3 124h23l48 -90q15 -36 84 -36q89 0 89 71q0 31 -25.5 58.5t-61.5 49l-72 44t-61.5 54t-25.5 68.5q0 53 40.5 87t122.5 34q72 0 137 -24q-13 -91 -15 -110h-23l-34 74q-12 36 -74 36q-41 0 -62.5 -17t-21.5 -46q0 -28 25.5 -54.5t61.5 -48
l72.5 -44.5t62 -55t25.5 -68q0 -65 -47 -99.5t-126 -34.5z" />
    <glyph glyph-name="t.sc" horiz-adv-x="501" 
d="M464 476q2 -98 2 -140h-23l-44 97q-8 18 -26 18l-79 3q-3 -143 -1 -404q2 -19 20 -22l47 -5v-23h-214v23l44 5q19 3 19 22q2 131 0 404l-79 -3q-17 0 -25 -17q-14 -25 -52 -98h-24q1 15 5 63.5t7 76.5h423z" />
    <glyph glyph-name="u.sc" horiz-adv-x="553" 
d="M276 -8q-97 0 -146 47t-48 141q0 42 -0.5 124t-0.5 120q0 20 -19 23l-37 5v23h210v-23l-51 -5q-19 -3 -19 -24q-2 -101 0 -255q1 -73 37.5 -109.5t97.5 -36.5q74 0 106.5 45.5t32.5 135.5v163q0 22 -14 35q-8 8 -28.5 24t-33.5 28v22h164v-22q-27 -28 -45 -50
q-13 -13 -13 -36v-160q0 -104 -48.5 -159.5t-144.5 -55.5z" />
    <glyph glyph-name="v.sc" horiz-adv-x="502" 
d="M322 475h167v-23l-48 -57q-15 -15 -23 -37l-143 -365h-49l-168 436q-6 15 -21 18l-25 5v23h208v-23l-56 -5q-24 -3 -15 -26l129 -351l114 299q8 21 -5 31q-29 21 -65 52v23z" />
    <glyph glyph-name="w.sc" horiz-adv-x="774" 
d="M594 475h168v-23q-36 -38 -49 -57q-14 -13 -23 -36l-135 -366h-50l-113 329l-124 -329h-49l-160 436q-5 14 -22 19l-25 4v23h203v-23l-50 -5q-22 -2 -14 -25l122 -348l97 273q7 17 0 35l-20 50q-6 14 -20 17l-37 3v23h208v-23l-45 -4q-22 -2 -13 -27l115 -347l106 295
q8 21 -5 31q-16 12 -65 52v23z" />
    <glyph glyph-name="x.sc" horiz-adv-x="535" 
d="M489 29l33 -6v-23h-226v23l44 6q26 8 6 35l-109 156l-97 -121q-19 -24 2 -38l33.5 -20.5l29.5 -17.5v-23h-193v23q62 39 107 90l103 128l-126 182q-13 18 -33 23l-34 6v23h223v-23l-42 -6q-23 -8 -4 -36l95 -136l88 107q19 25 -4 37q-3 2 -58 34v23h178v-23
q-51 -32 -96 -84l-94 -115l139 -199q15 -21 35 -25z" />
    <glyph glyph-name="y.sc" horiz-adv-x="469" 
d="M299 476h155v-24q-11 -7 -46 -33q-11 -5 -21 -22l-109 -192q-2 -77 0 -156q0 -19 17 -21l45 -5v-23h-208v23l43 5q18 2 18 21q1 58 1 153l-134 231q-7 12 -23 15l-24 4v24h203v-24l-49 -4q-22 -3 -11 -23l111 -196l94 166q9 18 -10 30l-52 27v24z" />
    <glyph glyph-name="z.sc" horiz-adv-x="461" 
d="M335 43l61 122h24q-3 -24 -16 -165h-372l-1 16l291 437l-171 -3q-19 0 -26 -17l-16.5 -34l-18.5 -40t-16 -34h-24l6 151h366l1 -17l-291 -435l177 3q18 0 26 16z" />
    <glyph glyph-name="exclam.sc" horiz-adv-x="183" 
d="M79 137l-38 328l87 33l13 -7l-40 -354h-22zM90 -9q-27 0 -41 16t-14 37q0 20 14.5 36.5t40.5 16.5q24 0 40 -14.5t16 -37.5q0 -24 -14.5 -39t-41.5 -15z" />
    <glyph glyph-name="exclamdown.sc" horiz-adv-x="183" 
d="M93 484q27 0 41 -16t14 -37q0 -20 -14.5 -36.5t-40.5 -16.5q-24 0 -40 14.5t-16 37.5q0 24 14.5 39t41.5 15zM104 338l38 -328l-87 -33l-13 7l40 354h22z" />
    <glyph glyph-name="question.sc" horiz-adv-x="327" 
d="M168 494q62 0 97 -31.5t35 -84.5q0 -87 -99 -162l-41 -32l-8 -47h-22l-21 105l43 30q43 29 68.5 58t25.5 67q0 33 -23.5 54t-59.5 21t-64 -22l-31 -96h-22l-18 105q64 35 140 35zM141 97q24 0 40 -14.5t16 -37.5q0 -24 -14.5 -39t-41.5 -15t-41 16t-14 37q0 20 14.5 36.5
t40.5 16.5z" />
    <glyph glyph-name="questiondown.sc" horiz-adv-x="327" 
d="M186 378q-24 0 -40 14.5t-16 37.5q0 24 14.5 39t41.5 15t41 -16t14 -37q0 -20 -14.5 -36.5t-40.5 -16.5zM281 121l18 -105q-64 -35 -140 -35q-62 0 -97 31.5t-35 84.5q0 87 99 162l41 32l8 47h22l21 -105l-43 -30q-43 -29 -68.5 -58t-25.5 -67q0 -33 23.5 -54t59.5 -21
t64 22l31 96h22z" />
    <glyph glyph-name="zero.zero" horiz-adv-x="576" 
d="M288 638q108 0 172 -87t64 -236t-64.5 -236.5t-171.5 -87.5t-171 87.5t-64 236.5t64 236t171 87zM140 317q0 -197 74 -269l134 544q-28 20 -60 20q-68 0 -108 -79t-40 -216zM288 17q68 0 108 79t40 217q0 181 -64 256l-133 -539q22 -13 49 -13z" />
    <glyph glyph-name="zero.osf" horiz-adv-x="589" 
d="M294 -8q-113 0 -176.5 64.5t-63.5 178.5q0 112 65 178.5t176 66.5q113 0 176.5 -65.5t63.5 -178.5t-64.5 -178.5t-176.5 -65.5zM296 19q71 0 111.5 55.5t40.5 157.5q0 105 -41 162.5t-114 57.5q-71 0 -111.5 -56t-40.5 -158q0 -104 41 -161.5t114 -57.5z" />
    <glyph glyph-name="one.osf" horiz-adv-x="300" 
d="M31 24l57 7q22 3 22 25q2 177 0 347q0 21 -19 21h-59l-7 23l144 33h24q-2 -215 0 -424q0 -22 22 -25l58 -7v-24h-242v24z" />
    <glyph glyph-name="two.osf" horiz-adv-x="513" 
d="M151 57l294 19v-20l-45 -56h-350v23q284 167 284 319q0 49 -28 79.5t-70 30.5q-45 0 -78 -22q-11 -8 -15 -24l-31 -109h-22l-24 139q88 44 181 44q81 0 128 -35.5t47 -101.5q0 -46 -25 -90t-67 -80t-85.5 -63t-93.5 -50v-3z" />
    <glyph glyph-name="three.osf" horiz-adv-x="499" 
d="M223 169q95 -4 152 -45.5t57 -113.5q0 -80 -61.5 -128.5t-166.5 -48.5q-92 0 -158 21l15 143h23l38 -100q4 -16 20 -25q26 -13 61 -13q61 0 101.5 39t40.5 98q0 73 -51.5 113t-146.5 43v20q77 17 127 65t50 109q0 46 -25 74.5t-75 32.5q-38 2 -72 -13q-15 -5 -20 -22
l-35 -102h-23l-19 115q86 49 187 49q82 0 125 -34.5t43 -94.5q0 -63 -50 -110t-137 -68v-4z" />
    <glyph glyph-name="four.osf" horiz-adv-x="503" 
d="M392 63h84v-19q-3 -6 -26 -44h-58q1 -50 1 -149h-83q0 99 1 149q-185 0 -277 -1l-11 53l304 426h66q-1 -137 -1 -415zM61 63q83 -1 250 -1q0 233 -1 348z" />
    <glyph glyph-name="five.osf" horiz-adv-x="508" 
d="M204 238q229 0 229 -187q0 -98 -59.5 -154.5t-166.5 -56.5q-77 0 -151 13l13 147h24l47 -101q4 -16 20 -22q25 -11 63 -9q61 4 101 44t40 104q1 71 -43.5 107.5t-136.5 36.5q-67 0 -106 -1l-12 12l29 301q162 -1 322 0v-53l-15 -21h-288l-18 -160h108z" />
    <glyph glyph-name="six.osf" horiz-adv-x="553" 
d="M303 398q87 0 139.5 -52.5t52.5 -141.5q0 -96 -60 -154.5t-154 -58.5q-104 0 -164 69.5t-60 188.5q0 157 109.5 266.5t284.5 130.5l7 -21q-118 -19 -199 -97t-105 -194q55 64 149 64zM282 17q59 0 93 44.5t34 123.5q0 82 -37 129.5t-98 47.5q-38 0 -72 -21.5t-56 -55.5
q-2 -30 -2 -44q0 -104 37 -164t101 -60z" />
    <glyph glyph-name="seven.osf" horiz-adv-x="502" 
d="M428 471l16 -14l-222 -619h-87l-18 14l285 548h-291q-16 0 -22 -15l-23 -68h-23l-1 154h386z" />
    <glyph glyph-name="eight.osf" horiz-adv-x="530" 
d="M321 337q36 -19 58.5 -33.5t48 -36t37.5 -47.5t12 -56q0 -83 -59.5 -128.5t-150.5 -45.5q-97 0 -155.5 40.5t-58.5 111.5q0 110 150 164q-61 34 -95 72t-34 93q0 74 53.5 120.5t136.5 46.5q89 0 140.5 -38.5t51.5 -104.5q0 -106 -135 -158zM150 503q0 -26 11.5 -48.5
t36.5 -42.5t46 -33t58 -32q77 50 77 141q0 57 -31 91t-84 34q-51 0 -82.5 -31t-31.5 -79zM267 16q59 0 94.5 31.5t35.5 84.5q0 15 -4.5 29t-10 24.5t-19 22.5l-21.5 19t-27.5 19t-28 16.5l-32.5 17t-31 16.5q-91 -55 -91 -148q0 -60 36.5 -96t98.5 -36z" />
    <glyph glyph-name="nine.osf" horiz-adv-x="551" 
d="M257 480q100 0 161 -67t61 -181q0 -157 -101.5 -266.5t-263.5 -133.5l-6 21q101 22 174.5 98t98.5 185q-51 -52 -143 -52q-85 0 -139 52.5t-54 139.5q0 89 59 146.5t153 57.5zM269 118q37 0 69 18t52 50q2 30 2 46q0 106 -36.5 164.5t-99.5 58.5q-56 0 -90.5 -44.5
t-34.5 -117.5q0 -80 38.5 -127.5t99.5 -47.5z" />
    <glyph glyph-name="zero.numr" horiz-adv-x="386" 
d="M194 266q-71 0 -112.5 50t-41.5 135t41.5 134.5t112.5 49.5q69 0 111 -50t42 -134q0 -85 -42 -135t-111 -50zM194 281q42 0 66.5 45.5t24.5 123.5t-25 124t-66 46q-43 0 -67.5 -45t-24.5 -123q0 -80 24.5 -125.5t67.5 -45.5z" />
    <glyph glyph-name="one.numr" horiz-adv-x="218" 
d="M29 284l38 4q14 3 14 16q2 169 0 274q0 13 -13 13h-38l-5 13l102 27h13q-2 -165 0 -327q0 -14 14 -16l38 -4v-14h-163v14z" />
    <glyph glyph-name="two.numr" horiz-adv-x="332" 
d="M270 364h16l-19 -94h-242v12l61.5 60.5t57 62.5t54.5 77.5t17 63.5q0 30 -16.5 49t-43.5 22q-26 3 -51 -7q-9 -3 -12 -13l-28 -72h-15l-12 83q66 26 124 26q54 0 85 -22t31 -63q0 -51 -50 -105.5t-137 -118.5v-4h150q11 0 17 10z" />
    <glyph glyph-name="three.numr" horiz-adv-x="331" 
d="M151 456q61 -2 97.5 -25t36.5 -64q0 -46 -40.5 -74.5t-108.5 -28.5q-57 0 -103 11l11 86h15l28 -61q2 -6 11 -12q13 -7 37 -7q38 0 63 22t25 55q0 41 -32.5 63.5t-90.5 23.5v14q48 7 79 35t31 63q0 55 -60 61q-29 0 -43 -6q-11 -3 -14 -13l-25 -62h-16l-13 69
q57 28 122 28q54 0 82 -20t28 -54q0 -36 -32 -63t-88 -38v-3z" />
    <glyph glyph-name="four.numr" horiz-adv-x="336" 
d="M256 405h56v-11l-14 -33h-42q1 -19 1 -57q0 -15 14 -16l27 -4v-14h-172v14l55 5q16 2 16 16v56h-175l-8 41l193 229h50q-1 -80 -1 -226zM36 405h162q0 133 -1 187z" />
    <glyph glyph-name="five.numr" horiz-adv-x="340" 
d="M144 495q149 0 149 -109q0 -57 -39 -89.5t-110 -32.5q-47 0 -99 8l10 87h15l36 -61q4 -9 13 -12q10 -4 38 -4q38 2 62.5 24.5t24.5 57.5q0 78 -114 78h-70l-8 6l19 181h212v-36l-11 -12h-188l-12 -86h72z" />
    <glyph glyph-name="six.numr" horiz-adv-x="363" 
d="M200 500q57 0 91 -30.5t34 -80.5q0 -57 -39 -90.5t-100 -33.5q-68 0 -107 40.5t-39 108.5q0 90 70.5 152t185.5 73l4 -13q-73 -10 -124 -52t-67 -106q33 32 91 32zM186 281q36 0 57 25t21 69q0 48 -23 75.5t-61 27.5q-48 0 -77 -41q-2 -20 -2 -30q0 -59 22.5 -92.5
t62.5 -33.5z" />
    <glyph glyph-name="seven.numr" horiz-adv-x="322" 
d="M279 629l12 -8l-138 -353h-65l-11 9l185 305h-185q-11 0 -16 -8l-16 -40h-15v95h249z" />
    <glyph glyph-name="eight.numr" horiz-adv-x="355" 
d="M214 466q33 -17 51.5 -28t35 -31t16.5 -43q0 -49 -39 -74.5t-99 -25.5q-64 0 -102.5 23t-38.5 63q0 64 98 92q-40 20 -62 42t-22 54q0 43 35 69.5t90 26.5q59 0 92.5 -21.5t33.5 -59.5q0 -61 -89 -87zM106 561q0 -19 15.5 -36t31.5 -27t48 -26q47 27 47 77q0 32 -19 51
t-52 19q-31 0 -51 -16.5t-20 -41.5zM179 280q37 0 59 17t22 45q0 9 -3 17.5t-10.5 16.5l-13 13.5t-19 13l-20 11t-23.5 11.5l-23 11q-53 -29 -53 -82q0 -33 23 -53.5t61 -20.5z" />
    <glyph glyph-name="nine.numr" horiz-adv-x="359" 
d="M174 634q65 0 105 -39t40 -103q0 -90 -66 -152.5t-172 -75.5l-4 13q63 11 109.5 53.5t63.5 102.5q-34 -28 -90 -28q-55 0 -89.5 30.5t-34.5 80.5q0 52 38.5 85t99.5 33zM183 426q46 0 73 37q2 18 2 29q0 60 -22.5 93.5t-61.5 33.5q-35 0 -56 -25t-21 -67q0 -46 24 -73.5
t62 -27.5z" />
    <glyph glyph-name="zero.dnom" horiz-adv-x="386" 
d="M194 -5q-71 0 -112.5 50t-41.5 135t41.5 134.5t112.5 49.5q69 0 111 -50t42 -134q0 -85 -42 -135t-111 -50zM194 10q42 0 66.5 45.5t24.5 123.5t-25 124t-66 46q-43 0 -67.5 -45t-24.5 -123q0 -80 24.5 -125.5t67.5 -45.5z" />
    <glyph glyph-name="one.dnom" horiz-adv-x="218" 
d="M29 14l38 4q14 3 14 16q2 169 0 274q0 13 -13 13h-38l-5 13l102 27h13q-2 -165 0 -327q0 -14 14 -16l38 -4v-14h-163v14z" />
    <glyph glyph-name="two.dnom" horiz-adv-x="332" 
d="M270 94h16l-19 -94h-242v12l61.5 60.5t57 62.5t54.5 77.5t17 63.5q0 30 -16.5 49t-43.5 22q-26 3 -51 -7q-9 -3 -12 -13l-28 -72h-15l-12 83q66 26 124 26q54 0 85 -22t31 -63q0 -51 -50 -105.5t-137 -118.5v-4h150q11 0 17 10z" />
    <glyph glyph-name="three.dnom" horiz-adv-x="331" 
d="M151 186q61 -2 97.5 -25t36.5 -64q0 -46 -40.5 -74.5t-108.5 -28.5q-57 0 -103 11l11 86h15l28 -61q2 -6 11 -12q13 -7 37 -7q38 0 63 22t25 55q0 41 -32.5 63.5t-90.5 23.5v14q48 7 79 35t31 63q0 55 -60 61q-29 0 -43 -6q-11 -3 -14 -13l-25 -62h-16l-13 69
q57 28 122 28q54 0 82 -20t28 -54q0 -36 -32 -63t-88 -38v-3z" />
    <glyph glyph-name="four.dnom" horiz-adv-x="336" 
d="M256 135h56v-11l-14 -33h-42q1 -19 1 -57q0 -15 14 -16l27 -4v-14h-172v14l55 5q16 2 16 16v56h-175l-8 41l193 229h50q-1 -80 -1 -226zM36 135h162q0 133 -1 187z" />
    <glyph glyph-name="five.dnom" horiz-adv-x="340" 
d="M144 225q149 0 149 -109q0 -57 -39 -89.5t-110 -32.5q-47 0 -99 8l10 87h15l36 -61q4 -9 13 -12q10 -4 38 -4q38 2 62.5 24.5t24.5 57.5q0 78 -114 78h-70l-8 6l19 181h212v-36l-11 -12h-188l-12 -86h72z" />
    <glyph glyph-name="six.dnom" horiz-adv-x="363" 
d="M200 230q57 0 91 -30.5t34 -80.5q0 -57 -39 -90.5t-100 -33.5q-68 0 -107 40.5t-39 108.5q0 90 70.5 152t185.5 73l4 -13q-73 -10 -124 -52t-67 -106q33 32 91 32zM186 11q36 0 57 25t21 69q0 48 -23 75.5t-61 27.5q-48 0 -77 -41q-2 -20 -2 -30q0 -59 22.5 -92.5
t62.5 -33.5z" />
    <glyph glyph-name="seven.dnom" horiz-adv-x="322" 
d="M279 359l12 -8l-138 -353h-65l-11 9l185 305h-185q-11 0 -16 -8l-16 -40h-15v95h249z" />
    <glyph glyph-name="eight.dnom" horiz-adv-x="355" 
d="M214 196q33 -17 51.5 -28t35 -31t16.5 -43q0 -49 -39 -74.5t-99 -25.5q-64 0 -102.5 23t-38.5 63q0 64 98 92q-40 20 -62 42t-22 54q0 43 35 69.5t90 26.5q59 0 92.5 -21.5t33.5 -59.5q0 -61 -89 -87zM106 291q0 -19 15.5 -36t31.5 -27t48 -26q47 27 47 77q0 32 -19 51
t-52 19q-31 0 -51 -16.5t-20 -41.5zM179 10q37 0 59 17t22 45q0 9 -3 17.5t-10.5 16.5l-13 13.5t-19 13l-20 11t-23.5 11.5l-23 11q-53 -29 -53 -82q0 -33 23 -53.5t61 -20.5z" />
    <glyph glyph-name="nine.dnom" horiz-adv-x="359" 
d="M174 364q65 0 105 -39t40 -103q0 -90 -66 -152.5t-172 -75.5l-4 13q63 11 109.5 53.5t63.5 102.5q-34 -28 -90 -28q-55 0 -89.5 30.5t-34.5 80.5q0 52 38.5 85t99.5 33zM183 156q46 0 73 37q2 18 2 29q0 60 -22.5 93.5t-61.5 33.5q-35 0 -56 -25t-21 -67q0 -46 24 -73.5
t62 -27.5z" />
    <glyph glyph-name="aacute.sc" horiz-adv-x="493" 
d="M399 646q-68 -64 -183 -120l-16 19l134 147l63 -21zM474 27l19 -4v-23h-190v23l36 4q24 3 15 29l-42 115q-122 -2 -184 0l-30 -78q-10 -25 10 -40q32 -22 42 -30v-23h-150v23l29 23q27 16 38 41l150 381l59 17q161 -420 166 -432q8 -23 32 -26zM138 196q82 -1 164 0
l-81 212z" />
    <glyph glyph-name="abreve.sc" horiz-adv-x="493" 
d="M250 538q-116 0 -128 150l32 2q7 -44 32 -67t64 -23q37 0 62.5 23t32.5 67l32 -2q-6 -73 -38.5 -111.5t-88.5 -38.5zM474 27l19 -4v-23h-190v23l36 4q24 3 15 29l-42 115q-122 -2 -184 0l-30 -78q-10 -25 10 -40q32 -22 42 -30v-23h-150v23l29 23q27 16 38 41l150 381
l59 17q161 -420 166 -432q8 -23 32 -26zM138 196q82 -1 164 0l-81 212z" />
    <glyph glyph-name="acircumflex.sc" horiz-adv-x="493" 
d="M250 616l-116 -94l-19 18q55 87 122 155h25q68 -68 122 -155l-19 -18zM474 27l19 -4v-23h-190v23l36 4q24 3 15 29l-42 115q-122 -2 -184 0l-30 -78q-10 -25 10 -40q32 -22 42 -30v-23h-150v23l29 23q27 16 38 41l150 381l59 17q161 -420 166 -432q8 -23 32 -26zM138 196
q82 -1 164 0l-81 212z" />
    <glyph glyph-name="adieresis.sc" horiz-adv-x="493" 
d="M170 558q-23 0 -35.5 15t-12.5 34q0 18 12.5 34t35.5 16q21 0 35 -13.5t14 -35.5t-12.5 -36t-36.5 -14zM330 558q-23 0 -35.5 15t-12.5 34q0 18 13 34t36 16q21 0 34.5 -13.5t13.5 -35.5t-12.5 -36t-36.5 -14zM474 27l19 -4v-23h-190v23l36 4q24 3 15 29l-42 115
q-122 -2 -184 0l-30 -78q-10 -25 10 -40q32 -22 42 -30v-23h-150v23l29 23q27 16 38 41l150 381l59 17q161 -420 166 -432q8 -23 32 -26zM138 196q82 -1 164 0l-81 212z" />
    <glyph glyph-name="uni1EA1.sc" horiz-adv-x="493" 
d="M474 27l19 -4v-23h-190v23l36 4q24 3 15 29l-42 115q-122 -2 -184 0l-30 -78q-10 -25 10 -40q32 -22 42 -30v-23h-150v23l29 23q27 16 38 41l150 381l59 17q161 -420 166 -432q8 -23 32 -26zM138 196q82 -1 164 0l-81 212zM248 -83q24 0 40 -14.5t16 -38.5t-15 -39
t-42 -15q-26 0 -40 16t-14 37q0 19 14.5 36.5t40.5 17.5z" />
    <glyph glyph-name="ae.sc" horiz-adv-x="685" 
d="M629 134h21l-15 -134h-343v20l37 4q19 3 19 22q0 20 0.5 62t0.5 64h-187l-54 -77q-15 -22 5 -41l42 -34v-20h-155v20l29 22q24 15 52 54l267 379h291l-13 -123h-20q-2 4 -15.5 33t-21.5 54q-8 15 -22 15h-59q-18 0 -60 -7q0 -32 -0.5 -95t-0.5 -94h90q15 0 24 13
l5.5 11.5t7.5 14.5t11 15h20v-151h-20l-11.5 29.5t-12.5 30.5q-7 15 -24 15h-90q0 -34 0.5 -103.5t0.5 -104.5l123 -7q16 -1 25 14l21.5 42t31.5 57zM177 193h52h64.5h55.5q0 161 -1 245z" />
    <glyph glyph-name="aeacute.sc" horiz-adv-x="685" 
d="M531 646q-68 -64 -183 -120l-16 19l134 147l63 -21zM629 134h21l-15 -134h-343v20l37 4q19 3 19 22q0 20 0.5 62t0.5 64h-187l-54 -77q-15 -22 5 -41l42 -34v-20h-155v20l29 22q24 15 52 54l267 379h291l-13 -123h-20q-2 4 -15.5 33t-21.5 54q-8 15 -22 15h-59
q-18 0 -60 -7q0 -32 -0.5 -95t-0.5 -94h90q15 0 24 13l5.5 11.5t7.5 14.5t11 15h20v-151h-20l-11.5 29.5t-12.5 30.5q-7 15 -24 15h-90q0 -34 0.5 -103.5t0.5 -104.5l123 -7q16 -1 25 14l21.5 42t31.5 57zM177 193h52h64.5h55.5q0 161 -1 245z" />
    <glyph glyph-name="agrave.sc" horiz-adv-x="493" 
d="M299 545l-16 -19q-115 56 -183 120l2 25l63 21zM474 27l19 -4v-23h-190v23l36 4q24 3 15 29l-42 115q-122 -2 -184 0l-30 -78q-10 -25 10 -40q32 -22 42 -30v-23h-150v23l29 23q27 16 38 41l150 381l59 17q161 -420 166 -432q8 -23 32 -26zM138 196q82 -1 164 0l-81 212z
" />
    <glyph glyph-name="amacron.sc" horiz-adv-x="493" 
d="M369 631v-57h-239v57h239zM474 27l19 -4v-23h-190v23l36 4q24 3 15 29l-42 115q-122 -2 -184 0l-30 -78q-10 -25 10 -40q32 -22 42 -30v-23h-150v23l29 23q27 16 38 41l150 381l59 17q161 -420 166 -432q8 -23 32 -26zM138 196q82 -1 164 0l-81 212z" />
    <glyph glyph-name="aogonek.sc" horiz-adv-x="493" 
d="M373 0q-32 -10 -54 -38t-22 -63q0 -33 18.5 -51t48.5 -18q32 0 58 24l15 -17q-41 -50 -105 -50q-45 0 -74.5 26t-29.5 68q0 40 26 72t69 47h-20v23l36 4q24 3 15 29l-42 115q-122 -2 -184 0l-30 -78q-10 -25 10 -40q32 -22 42 -30v-23h-150v23l29 23q27 16 38 41l150 381
l59 17q161 -420 166 -432q8 -23 32 -26l19 -4v-23h-120zM138 196q82 -1 164 0l-81 212z" />
    <glyph glyph-name="aring.sc" horiz-adv-x="493" 
d="M250 537q-50 0 -80 31.5t-30 74.5t30 73t80 30t80 -30t30 -73t-30 -74.5t-80 -31.5zM250 720q-34 0 -53 -22.5t-19 -54.5q0 -33 19 -56.5t53 -23.5t53 23.5t19 56.5q0 31 -19.5 54t-52.5 23zM474 27l19 -4v-23h-190v23l36 4q24 3 15 29l-42 115q-122 -2 -184 0l-30 -78
q-10 -25 10 -40q32 -22 42 -30v-23h-150v23l29 23q27 16 38 41l150 381l59 17q161 -420 166 -432q8 -23 32 -26zM138 196q82 -1 164 0l-81 212z" />
    <glyph glyph-name="aringacute.sc" horiz-adv-x="493" 
d="M398 902q-68 -64 -183 -120l-16 19l134 147l63 -21zM250 537q-50 0 -80 31.5t-30 74.5t30 73t80 30t80 -30t30 -73t-30 -74.5t-80 -31.5zM250 720q-34 0 -53 -22.5t-19 -54.5q0 -33 19 -56.5t53 -23.5t53 23.5t19 56.5q0 31 -19.5 54t-52.5 23zM474 27l19 -4v-23h-190v23
l36 4q24 3 15 29l-42 115q-122 -2 -184 0l-30 -78q-10 -25 10 -40q32 -22 42 -30v-23h-150v23l29 23q27 16 38 41l150 381l59 17q161 -420 166 -432q8 -23 32 -26zM138 196q82 -1 164 0l-81 212z" />
    <glyph glyph-name="atilde.sc" horiz-adv-x="493" 
d="M159 596l-24 -44l-22 1q0 40 13.5 69.5t42.5 29.5q25 0 86 -20t85 -24l23 44l23 -1q-1 -41 -14.5 -70t-42.5 -29q-26 0 -88.5 20t-81.5 24zM474 27l19 -4v-23h-190v23l36 4q24 3 15 29l-42 115q-122 -2 -184 0l-30 -78q-10 -25 10 -40q32 -22 42 -30v-23h-150v23l29 23
q27 16 38 41l150 381l59 17q161 -420 166 -432q8 -23 32 -26zM138 196q82 -1 164 0l-81 212z" />
    <glyph glyph-name="cacute.sc" horiz-adv-x="519" 
d="M235 526l-16 19l134 147l63 -21l2 -25q-68 -64 -183 -120zM281 -7q-113 0 -180 66t-67 176q0 111 68.5 179t184.5 68q95 0 176 -27l-12 -136h-23q-4 13 -16 43.5t-17 44.5q-12 25 -45.5 37.5t-72.5 12.5q-71 0 -112.5 -54.5t-42.5 -155.5q-1 -106 44.5 -168t121.5 -62
q81 0 118 64q29 45 41 71h23l-23 -132q-66 -27 -166 -27z" />
    <glyph glyph-name="ccaron.sc" horiz-adv-x="519" 
d="M281 530h-25q-68 71 -122 156l19 18l116 -94l115 94l19 -18q-53 -86 -122 -156zM447 152h23l-23 -132q-66 -27 -166 -27q-113 0 -180 66t-67 176q0 111 68.5 179t184.5 68q95 0 176 -27l-12 -136h-23q-4 13 -16 43.5t-17 44.5q-12 25 -45.5 37.5t-72.5 12.5
q-71 0 -112.5 -54.5t-42.5 -155.5q-1 -106 44.5 -168t121.5 -62q81 0 118 64q29 45 41 71z" />
    <glyph glyph-name="ccedilla.sc" horiz-adv-x="519" 
d="M447 20q-66 -27 -166 -27l-24 -46q88 -13 88 -74q0 -43 -37.5 -66.5t-103.5 -23.5l2 25q74 6 74 45q0 32 -70 37l-12 19l55 85q-101 8 -160 73t-59 168q0 111 68.5 179t184.5 68q95 0 176 -27l-12 -136h-23q-4 13 -16 43.5t-17 44.5q-12 25 -45.5 37.5t-72.5 12.5
q-71 0 -112.5 -54.5t-42.5 -155.5q-1 -106 44.5 -168t121.5 -62q81 0 118 64q29 45 41 71h23z" />
    <glyph glyph-name="ccircumflex.sc" horiz-adv-x="519" 
d="M269 616l-116 -94l-19 18q55 87 122 155h25q68 -68 122 -155l-19 -18zM447 152h23l-23 -132q-66 -27 -166 -27q-113 0 -180 66t-67 176q0 111 68.5 179t184.5 68q95 0 176 -27l-12 -136h-23q-4 13 -16 43.5t-17 44.5q-12 25 -45.5 37.5t-72.5 12.5q-71 0 -112.5 -54.5
t-42.5 -155.5q-1 -106 44.5 -168t121.5 -62q81 0 118 64q29 45 41 71z" />
    <glyph glyph-name="cdotaccent.sc" horiz-adv-x="519" 
d="M267 568q-26 0 -40 16.5t-14 37.5q0 19 14.5 36t40.5 17q24 0 40 -14t16 -38t-15 -39.5t-42 -15.5zM281 -7q-113 0 -180 66t-67 176q0 111 68.5 179t184.5 68q95 0 176 -27l-12 -136h-23q-4 13 -16 43.5t-17 44.5q-12 25 -45.5 37.5t-72.5 12.5q-71 0 -112.5 -54.5
t-42.5 -155.5q-1 -106 44.5 -168t121.5 -62q81 0 118 64q29 45 41 71h23l-23 -132q-66 -27 -166 -27z" />
    <glyph glyph-name="dcaron.sc" horiz-adv-x="552" 
d="M291 530h-25q-68 71 -122 156l19 18l116 -94l115 94l19 -18q-53 -86 -122 -156zM261 475q121 0 189.5 -65.5t68.5 -166.5q0 -110 -71.5 -176.5t-187.5 -66.5h-227v23l36 5q20 3 20 21q1 186 0 377q0 19 -20 21l-36 5v23h228zM259 25q75 0 123 56.5t48 152.5
q0 98 -47 157.5t-129 59.5q-13 0 -81 -5q-1 -211 0 -416q73 -5 86 -5z" />
    <glyph glyph-name="dcroat.sc" horiz-adv-x="551" 
d="M261 475q121 0 189.5 -65.5t68.5 -166.5q0 -110 -71.5 -176.5t-187.5 -66.5h-227v23l36 5q20 3 20 21q0 32 0.5 93.5t0.5 91.5h-56v25h56q0 26 -0.5 81.5t-0.5 85.5q0 19 -20 21l-36 5v23h228zM259 25q75 0 123 56.5t48 152.5q0 98 -47 157.5t-129 59.5q-13 0 -81 -5
q0 -32 -0.5 -94.5t-0.5 -92.5h113v-25h-113q0 -34 0.5 -101.5t0.5 -102.5q73 -5 86 -5z" />
    <glyph glyph-name="eacute.sc" horiz-adv-x="434" 
d="M378 646q-68 -64 -183 -120l-16 19l134 147l63 -21zM377 134h22l-15 -134h-351v23l36 5q20 3 20 21q2 201 0 377q0 18 -20 21l-36 5v23h356q-8 -80 -14 -122h-22q-11 26 -38 83q-7 15 -22 15h-61q-22 0 -59 -7q0 -32 -0.5 -94t-0.5 -92h88q16 0 25 14l24 40h23
q-2 -76 0 -150h-23l-25 59q-8 14 -23 14h-89q0 -32 0.5 -100t0.5 -105l123 -5q17 -2 25 13q3 6 24 40.5t32 55.5z" />
    <glyph glyph-name="ebreve.sc" horiz-adv-x="434" 
d="M230 538q-116 0 -128 150l32 2q7 -44 32 -67t64 -23q37 0 62.5 23t32.5 67l32 -2q-6 -73 -38.5 -111.5t-88.5 -38.5zM377 134h22l-15 -134h-351v23l36 5q20 3 20 21q2 201 0 377q0 18 -20 21l-36 5v23h356q-8 -80 -14 -122h-22q-11 26 -38 83q-7 15 -22 15h-61
q-22 0 -59 -7q0 -32 -0.5 -94t-0.5 -92h88q16 0 25 14l24 40h23q-2 -76 0 -150h-23l-25 59q-8 14 -23 14h-89q0 -32 0.5 -100t0.5 -105l123 -5q17 -2 25 13q3 6 24 40.5t32 55.5z" />
    <glyph glyph-name="ecaron.sc" horiz-adv-x="434" 
d="M242 530h-25q-68 71 -122 156l19 18l116 -94l115 94l19 -18q-53 -86 -122 -156zM377 134h22l-15 -134h-351v23l36 5q20 3 20 21q2 201 0 377q0 18 -20 21l-36 5v23h356q-8 -80 -14 -122h-22q-11 26 -38 83q-7 15 -22 15h-61q-22 0 -59 -7q0 -32 -0.5 -94t-0.5 -92h88
q16 0 25 14l24 40h23q-2 -76 0 -150h-23l-25 59q-8 14 -23 14h-89q0 -32 0.5 -100t0.5 -105l123 -5q17 -2 25 13q3 6 24 40.5t32 55.5z" />
    <glyph glyph-name="ecircumflex.sc" horiz-adv-x="434" 
d="M230 616l-116 -94l-19 18q55 87 122 155h25q68 -68 122 -155l-19 -18zM377 134h22l-15 -134h-351v23l36 5q20 3 20 21q2 201 0 377q0 18 -20 21l-36 5v23h356q-8 -80 -14 -122h-22q-11 26 -38 83q-7 15 -22 15h-61q-22 0 -59 -7q0 -32 -0.5 -94t-0.5 -92h88q16 0 25 14
l24 40h23q-2 -76 0 -150h-23l-25 59q-8 14 -23 14h-89q0 -32 0.5 -100t0.5 -105l123 -5q17 -2 25 13q3 6 24 40.5t32 55.5z" />
    <glyph glyph-name="edieresis.sc" horiz-adv-x="434" 
d="M150 558q-23 0 -35.5 15t-12.5 34q0 18 12.5 34t35.5 16q21 0 35 -13.5t14 -35.5t-12.5 -36t-36.5 -14zM310 558q-23 0 -35.5 15t-12.5 34q0 18 13 34t36 16q21 0 34.5 -13.5t13.5 -35.5t-12.5 -36t-36.5 -14zM377 134h22l-15 -134h-351v23l36 5q20 3 20 21q2 201 0 377
q0 18 -20 21l-36 5v23h356q-8 -80 -14 -122h-22q-11 26 -38 83q-7 15 -22 15h-61q-22 0 -59 -7q0 -32 -0.5 -94t-0.5 -92h88q16 0 25 14l24 40h23q-2 -76 0 -150h-23l-25 59q-8 14 -23 14h-89q0 -32 0.5 -100t0.5 -105l123 -5q17 -2 25 13q3 6 24 40.5t32 55.5z" />
    <glyph glyph-name="edotaccent.sc" horiz-adv-x="434" 
d="M228 568q-26 0 -40 16.5t-14 37.5q0 19 14.5 36t40.5 17q24 0 40 -14t16 -38t-15 -39.5t-42 -15.5zM377 134h22l-15 -134h-351v23l36 5q20 3 20 21q2 201 0 377q0 18 -20 21l-36 5v23h356q-8 -80 -14 -122h-22q-11 26 -38 83q-7 15 -22 15h-61q-22 0 -59 -7
q0 -32 -0.5 -94t-0.5 -92h88q16 0 25 14l24 40h23q-2 -76 0 -150h-23l-25 59q-8 14 -23 14h-89q0 -32 0.5 -100t0.5 -105l123 -5q17 -2 25 13q3 6 24 40.5t32 55.5z" />
    <glyph glyph-name="uni1EB9.sc" horiz-adv-x="434" 
d="M377 134h22l-15 -134h-351v23l36 5q20 3 20 21q2 201 0 377q0 18 -20 21l-36 5v23h356q-8 -80 -14 -122h-22q-11 26 -38 83q-7 15 -22 15h-61q-22 0 -59 -7q0 -32 -0.5 -94t-0.5 -92h88q16 0 25 14l24 40h23q-2 -76 0 -150h-23l-25 59q-8 14 -23 14h-89q0 -32 0.5 -100
t0.5 -105l123 -5q17 -2 25 13q3 6 24 40.5t32 55.5zM229 -83q24 0 40 -14.5t16 -38.5t-15 -39t-42 -15q-26 0 -40 16t-14 37q0 19 14.5 36.5t40.5 17.5z" />
    <glyph glyph-name="egrave.sc" horiz-adv-x="434" 
d="M279 545l-16 -19q-115 56 -183 120l2 25l63 21zM377 134h22l-15 -134h-351v23l36 5q20 3 20 21q2 201 0 377q0 18 -20 21l-36 5v23h356q-8 -80 -14 -122h-22q-11 26 -38 83q-7 15 -22 15h-61q-22 0 -59 -7q0 -32 -0.5 -94t-0.5 -92h88q16 0 25 14l24 40h23q-2 -76 0 -150
h-23l-25 59q-8 14 -23 14h-89q0 -32 0.5 -100t0.5 -105l123 -5q17 -2 25 13q3 6 24 40.5t32 55.5z" />
    </font>
</defs>
</svg>
