<?xml version="1.0" standalone="no"?>
<!DOCTYPE svg PUBLIC "-//W3C//DTD SVG 1.1//EN" "http://www.w3.org/Graphics/SVG/1.1/DTD/svg11.dtd" >
<svg>
<metadata>
Created by FontForge 20090622 at Wed Mar 20 19:35:13 2019
 By deploy user
Copyright &#194;&#169; 2018 by Dave Bailey. All rights reserved.
</metadata>
<defs>
<font id="ProspectusM-Bld" horiz-adv-x="0" >
  <font-face 
    font-family="ProspectusM"
    font-weight="700"
    font-stretch="normal"
    units-per-em="1000"
    panose-1="0 0 8 0 0 0 0 0 0 0"
    ascent="750"
    descent="-250"
    x-height="464"
    cap-height="644"
    bbox="-464 -361 1263 1091"
    underline-thickness="61"
    underline-position="-18"
    unicode-range="U+000D-U+FB02"
  />
<missing-glyph horiz-adv-x="1000" 
d="M500 -32l-241 32l-89 220q-19 45 -35.5 59.5t-42.5 14.5v369h137q52 0 76.5 -24.5t24.5 -76.5v-116h67v217h206v-217h67v116q0 52 24.5 76.5t76.5 24.5h137v-369q-26 0 -42.5 -14.5t-35.5 -59.5l-89 -220zM327 214h70q58 0 58 48v32h-185v-32q0 -48 57 -48zM603 214h70
q57 0 57 48v32h-185v-32q0 -48 58 -48z" />
    <glyph glyph-name="f_f" unicode="ff" horiz-adv-x="626" 
d="M599 720q66 0 109 -31l-48 -113h-26q-5 12 -14 35.5t-12 32.5q-13 43 -31 43q-34 0 -51.5 -54t-17.5 -142v-26h106v-23l-28 -11.5t-22 -9.5q-9 0 -28 0.5t-28 1.5q-2 -179 0 -354q0 -28 27 -33l50 -10v-26h-262v26l26 5q24 7 25 35q1 127 -1 361q-113 4 -166 5
q-1 -181 0 -364q1 -29 27 -36l34 -6v-26h-247v26l26 6q25 7 26 34q1 182 0 370q-10 0 -29.5 1t-28.5 1v27h58q3 114 71 179.5t171 65.5q77 0 137 -47q62 57 147 57zM207 465h166q1 61 20 109q-25 58 -45 81t-43 23q-44 0 -70.5 -51t-27.5 -144v-18z" />
    <glyph glyph-name="f_i" unicode="fi" horiz-adv-x="565" 
d="M521 32l25 -6v-26h-236v26l26 6q26 9 26 37q2 146 0 308q0 27 -10 38.5t-39 12.5q-19 1 -55.5 2.5t-53.5 1.5q0 -243 1 -362q0 -31 25 -37l34 -7v-26h-243v26l25 6q26 9 27 37q1 124 -1 366q-10 1 -29 1t-28 1v27h57q3 81 41 140t94.5 85.5t122.5 26.5q102 0 160 -28
l-44 -143h-32q-24 59 -42 91q-11 26 -24.5 36.5t-36.5 10.5q-55 0 -80.5 -54t-26.5 -143v-22h291q-2 -259 -1 -395q0 -29 27 -37z" />
    <glyph glyph-name="f_l" unicode="fl" horiz-adv-x="570" 
d="M528 31l24 -6v-25h-237v25l24 5q26 7 26 38q3 263 0 562q-6 25 -23 41t-40 16q-93 0 -95 -198v-24h100v-23l-49 -20l-51 3q0 -239 1 -352q0 -33 25 -41l33 -6v-26h-245v26l26 6q26 8 26 34q1 180 0 368q-11 1 -30.5 2.5t-27.5 1.5v27h58q4 124 74.5 189.5t176.5 65.5
q94 0 178 -20q-3 -359 -1 -632q0 -31 27 -37z" />
    <glyph glyph-name="f_f_i" unicode="ffi" horiz-adv-x="871" 
d="M827 31l25 -5v-26h-239v26l26 6q26 7 26 37q2 147 0 310q0 27 -10 38t-39 12q-18 0 -54 0.5t-54 1.5q-2 -183 0 -361q0 -31 25 -37l35 -7v-26h-246v26l25 5q25 9 26 37q1 179 0 365q-28 0 -83.5 0.5t-82.5 1.5v-371q0 -23 27 -32l32 -6v-26h-245v26l26 6q25 8 26 34
v118.5v139v113.5q-9 0 -28.5 0.5t-29.5 0.5v27h58q4 115 71.5 180t170.5 65q71 0 143 -50q71 61 173 61q103 0 163 -29l-42 -146h-32q-21 49 -37 83q-18 34 -33 46t-37 12q-54 0 -79.5 -53.5t-25.5 -143.5v-25h293q-2 -265 -1 -396q1 -29 27 -38zM207 483v-18h166
q1 60 21 107q-26 59 -46 82.5t-43 23.5q-44 0 -70.5 -51t-27.5 -144z" />
    <glyph glyph-name="f_f_l" unicode="ffl" horiz-adv-x="870" 
d="M826 31l25 -6v-25h-237v25l24 5q26 7 26 38q2 275 0 536q-4 39 -21.5 61.5t-41.5 22.5q-93 0 -95 -199v-24h100v-23l-49 -20q-8 1 -25 1.5t-26 0.5v-351q1 -34 26 -41l33 -6v-26h-245v26l26 6q25 7 26 34q1 177 0 362q-26 0 -82 1.5t-83 2.5q-1 -181 0 -364q1 -29 27 -36
l34 -6v-26h-247v26l26 6q25 7 26 34q1 182 0 370q-10 0 -29.5 0.5t-28.5 1.5v27h58q3 114 71 179.5t171 65.5q77 0 137 -47q64 57 158 57q98 0 190 -19q-2 -413 0 -633q0 -31 26 -37zM207 465h165q1 64 21 112q-25 56 -45 78.5t-43 22.5q-44 0 -70.5 -51t-27.5 -144v-18z
" />
    <glyph glyph-name=".notdef" horiz-adv-x="1000" 
d="M500 -32l-241 32l-89 220q-19 45 -35.5 59.5t-42.5 14.5v369h137q52 0 76.5 -24.5t24.5 -76.5v-116h67v217h206v-217h67v116q0 52 24.5 76.5t76.5 24.5h137v-369q-26 0 -42.5 -14.5t-35.5 -59.5l-89 -220zM327 214h70q58 0 58 48v32h-185v-32q0 -48 57 -48zM603 214h70
q57 0 57 48v32h-185v-32q0 -48 58 -48z" />
    <glyph glyph-name=".null" horiz-adv-x="600" 
 />
    <glyph glyph-name="nonmarkingreturn" horiz-adv-x="333" 
 />
    <glyph glyph-name="CR" unicode="&#xd;" horiz-adv-x="600" 
 />
    <glyph glyph-name="space" unicode=" " horiz-adv-x="232" 
 />
    <glyph glyph-name="exclam" unicode="!" horiz-adv-x="221" 
d="M29 647l153 50l16 -13l-73 -510h-29zM109 -11q-36 0 -55.5 21.5t-19.5 51.5q0 28 20 50.5t56 22.5q33 0 55 -20t22 -52t-20.5 -53t-57.5 -21z" />
    <glyph glyph-name="quotedbl" unicode="&#x22;" horiz-adv-x="315" 
d="M21 700l13 17h81l14 -17l-40 -227h-29zM168 700l13 17h81l14 -17l-40 -227h-29z" />
    <glyph glyph-name="numbersign" unicode="#" horiz-adv-x="676" 
d="M635 387h-140l-42 -147h182v-31h-190l-62 -217h-58l62 217h-162l-62 -217h-58l62 217h-125v31h133l42 147h-175v31h184l64 225h58l-64 -225h162l64 225h58l-64 -225h131v-31zM395 240l42 147h-162l-42 -147h162z" />
    <glyph glyph-name="dollar" unicode="$" horiz-adv-x="532" 
d="M470 179q0 -77 -52.5 -122.5t-138.5 -52.5v-83h-24v82h-5q-48 0 -101 9.5t-82 27.5q3 56 5 175h24q47 -80 86 -138q24 -42 73 -48v218q-5 4 -41 30t-46 34.5t-36.5 33t-36 41t-19 42t-9.5 51.5q0 66 47.5 110.5t140.5 49.5v77h24v-76q94 0 170 -30q-14 -73 -25 -157h-23
l-30 54l-34 61q-18 37 -58 43v-203l36 -26l39 -29t34.5 -28t33 -32.5t24.5 -33t18.5 -38.5t5.5 -42zM184 537q0 -51 71 -110v186q-32 -2 -51.5 -22.5t-19.5 -53.5zM279 30q35 3 55 24.5t20 58.5q0 57 -75 116v-199z" />
    <glyph glyph-name="percent" unicode="%" horiz-adv-x="888" 
d="M223 -12h-31l467 666h30zM207 270q-77 0 -122.5 50t-45.5 137q0 86 45.5 136t122.5 50t122.5 -50t45.5 -136q0 -87 -46 -137t-122 -50zM207 288q34 0 52.5 44t18.5 123q0 81 -18.5 125.5t-52.5 44.5t-52.5 -43t-18.5 -122q0 -82 18.5 -127t52.5 -45zM681 -6
q-77 0 -122.5 50t-45.5 137t45.5 137t122.5 50t122.5 -50t45.5 -137t-46 -137t-122 -50zM681 13q34 0 52.5 43.5t18.5 122.5q0 81 -18.5 125.5t-52.5 44.5t-52.5 -43t-18.5 -122q0 -82 18.5 -126.5t52.5 -44.5z" />
    <glyph glyph-name="ampersand" unicode="&#x26;" horiz-adv-x="668" 
d="M630 34l34 -7v-27h-191l-51 74q-31 -39 -79.5 -62.5t-108.5 -23.5q-97 0 -155.5 54.5t-58.5 141.5q0 77 50 134.5t127 78.5q-36 57 -36 107q0 64 49 106t138 42q73 0 140 -21l-42 -120h-26l-42 68q-26 45 -54 45q-22 0 -36 -14.5t-14 -37.5q0 -24 13 -53t52 -85l159 -232
v150q0 19 -6 26t-21 9l-19 2v27h164v-17q0 -53 -22.5 -102.5t-74.5 -125.5l80 -117q12 -16 31 -20zM309 74q50 0 95 25l-182 261l-12 17q-31 -17 -50 -54t-19 -83q0 -74 46 -120t122 -46z" />
    <glyph glyph-name="quotesingle" unicode="'" horiz-adv-x="168" 
d="M21 700l13 17h81l14 -17l-40 -227h-29z" />
    <glyph glyph-name="parenleft" unicode="(" horiz-adv-x="416" 
d="M384 -207q-143 61 -225 186t-82 286q0 159 82.5 285t225.5 189l18 -31q-85 -67 -134 -184t-49 -256t49.5 -257t133.5 -187z" />
    <glyph glyph-name="parenright" unicode=")" horiz-adv-x="416" 
d="M32 -207l-19 31q84 69 133.5 187t49.5 257t-49 256t-134 184l18 31q143 -63 225.5 -189t82.5 -285q0 -161 -82 -286t-225 -186z" />
    <glyph glyph-name="asterisk" unicode="*" horiz-adv-x="366" 
d="M205 553l123 -33l6 -14l-33 -57l-15 -2l-91 91q-2 -2 -3 -2l33 -124l-9 -12h-66l-9 12l33 124q-1 0 -3 2l-91 -91l-14 2l-33 57l6 14l122 33v2v2l-123 33l-5 14l33 57l14 2l90 -90q2 2 4 3l-33 122l9 12h66l9 -12l-33 -122q2 -1 4 -3l90 90l15 -2l33 -57l-6 -14l-123 -33
v-2v-2z" />
    <glyph glyph-name="plus" unicode="+" horiz-adv-x="531" 
d="M307 277v-140h-84v140h-139v83h139v140h84v-140h140v-83h-140z" />
    <glyph glyph-name="comma" unicode="," horiz-adv-x="212" 
d="M29 -168l-18 27q88 57 108 116l-32 19q-57 35 -55 74q1 31 23 50t52 17q32 -2 53 -25.5t21 -64.5q0 -58 -40.5 -115t-111.5 -98z" />
    <glyph glyph-name="hyphen" unicode="-" horiz-adv-x="445" 
d="M62 294h322v-59h-322v59z" />
    <glyph glyph-name="period" unicode="." horiz-adv-x="215" 
d="M107 -11q-36 0 -56 22t-20 51q0 28 20.5 50.5t55.5 22.5q33 0 55 -20t22 -52t-20.5 -53t-56.5 -21z" />
    <glyph glyph-name="slash" unicode="/" horiz-adv-x="342" 
d="M325 769l45 -19l-397 -986l-45 19z" />
    <glyph glyph-name="zero" unicode="0" horiz-adv-x="612" 
d="M306 -9q-119 0 -189.5 87.5t-70.5 238.5t70.5 239t189.5 88q118 0 189 -87.5t71 -238.5q0 -152 -71 -239.5t-189 -87.5zM306 20q54 0 84 77t30 216q0 143 -30.5 222t-83.5 79q-54 0 -84 -77t-30 -216q-1 -143 29.5 -222t84.5 -79z" />
    <glyph glyph-name="one" unicode="1" horiz-adv-x="341" 
d="M33 28l44 6q25 4 25 30q3 232 0 464q0 26 -26 26h-40l-10 25l191 59h25q-3 -286 0 -574q0 -26 25 -30l44 -6v-28h-278v28z" />
    <glyph glyph-name="two" unicode="2" horiz-adv-x="521" 
d="M445 191h27l-37 -191h-405v23q59 66 97.5 113t87 114.5t73.5 127t25 109.5q0 48 -18.5 81.5t-48.5 42.5q-24 7 -51 -3q-16 -1 -22 -19l-74 -161h-26l-24 168q116 48 206 48q95 0 149 -40t54 -115q0 -47 -25.5 -96.5t-72.5 -97t-92 -84.5t-105 -80v-7h231q23 0 32 21z" />
    <glyph glyph-name="three" unicode="3" horiz-adv-x="511" 
d="M242 327q105 0 163 -40.5t58 -113.5q0 -83 -70 -132.5t-188 -49.5q-107 0 -170 14l23 169h26l73 -128q4 -10 11 -13q15 -12 36 -12q47 0 80 38t33 95q0 70 -44.5 110t-125.5 41v25q69 12 110.5 61t41.5 111q0 40 -19.5 70.5t-53.5 38.5q-20 5 -41 -2q-15 -3 -23 -20
l-63 -138h-27l-28 143q106 50 209 50q92 0 140.5 -38.5t48.5 -99.5q0 -65 -50 -110.5t-150 -66.5v-2z" />
    <glyph glyph-name="four" unicode="4" horiz-adv-x="532" 
d="M427 260h86v-24l-24 -85h-61v-87q0 -25 26 -30l33 -7v-27h-300v27l75 9q27 3 27 30q0 14 0.5 42.5t0.5 43.5q-178 0 -263 -1l-16 106l296 380h121q-1 -126 -1 -377zM48 260q78 -1 242 -1q1 104 -1 308z" />
    <glyph glyph-name="five" unicode="5" horiz-adv-x="521" 
d="M235 399q120 0 176.5 -48t56.5 -146q0 -100 -64.5 -158.5t-184.5 -58.5q-87 0 -169 14l21 162h27l93 -122q11 -16 25 -17q12 -5 35 -3q46 8 75.5 43.5t29.5 84.5q0 120 -152 120h-127l-13 12l28 352h357v-93l-18 -20q-159 2 -320 0l-11 -122h135z" />
    <glyph glyph-name="six" unicode="6" horiz-adv-x="580" 
d="M328 418q96 0 152.5 -54.5t56.5 -146.5q0 -103 -69.5 -165t-172.5 -62q-117 0 -183 73t-66 196q0 163 116 269t314 122l6 -25q-101 -11 -172 -73.5t-100 -164.5q47 31 118 31zM295 20q46 0 72.5 42t26.5 122q0 89 -30.5 139.5t-83.5 50.5q-45 0 -81 -36q-8 -46 -8 -93
q0 -106 27.5 -165.5t76.5 -59.5z" />
    <glyph glyph-name="seven" unicode="7" horiz-adv-x="501" 
d="M450 634l18 -16l-188 -620h-164l-18 17l314 508h-291q-19 0 -28 -16l-37 -69h-25l-1 196h420z" />
    <glyph glyph-name="eight" unicode="8" horiz-adv-x="564" 
d="M349 364q42 -25 66 -41.5t54 -42.5t44 -54t14 -59q0 -91 -70.5 -135t-170.5 -44q-111 0 -180 39.5t-69 111.5q0 57 43.5 96t118.5 56q-63 39 -99 80.5t-36 97.5q0 80 60.5 127.5t156.5 47.5q102 0 160.5 -37.5t58.5 -102.5q0 -58 -43.5 -93t-107.5 -47zM281 614
q-42 0 -68 -24.5t-26 -61.5q0 -42 36 -75.5t106 -75.5q47 39 47 116q0 55 -25.5 88t-69.5 33zM286 18q50 0 79.5 25t29.5 67q0 12 -2.5 23t-10 21.5t-13 19t-19 19.5l-21 17t-25.5 17l-25.5 15.5l-29 17t-27.5 16.5q-56 -48 -56 -130q0 -56 32.5 -92t87.5 -36z" />
    <glyph glyph-name="nine" unicode="9" horiz-adv-x="574" 
d="M281 644q112 0 179.5 -71t67.5 -186q0 -162 -111 -270.5t-300 -128.5l-6 25q90 15 158 80t97 163q-48 -29 -122 -29q-92 0 -147.5 54.5t-55.5 145.5q0 96 67.5 156.5t172.5 60.5zM298 267q44 0 78 34q8 45 8 86q0 110 -26.5 169t-76.5 59q-43 0 -70.5 -42.5t-27.5 -119.5
q0 -85 31.5 -135.5t83.5 -50.5z" />
    <glyph glyph-name="colon" unicode=":" horiz-adv-x="235" 
d="M117 270q-36 0 -56 22t-20 52q0 27 20.5 50t55.5 23q33 0 55 -20t22 -52t-20.5 -53.5t-56.5 -21.5zM117 6q-36 0 -56 22t-20 52q0 28 20.5 50.5t55.5 22.5q33 0 55 -20t22 -52t-20.5 -53.5t-56.5 -21.5z" />
    <glyph glyph-name="semicolon" unicode=";" horiz-adv-x="235" 
d="M116 270q-36 0 -56 22t-20 52q0 27 21 50t56 23q33 0 55 -20t22 -52t-21 -53.5t-57 -21.5zM40 -149l-18 26q88 56 108 117l-32 19q-57 35 -55 73q1 32 22.5 50.5t52.5 16.5q32 -2 53 -25t21 -64q1 -58 -39.5 -115t-112.5 -98z" />
    <glyph glyph-name="less" unicode="&#x3c;" horiz-adv-x="531" 
d="M447 139l-363 144v74l363 144v-86l-246 -95l246 -96v-85z" />
    <glyph glyph-name="equal" unicode="=" horiz-adv-x="531" 
d="M84 370v83h363v-83h-363zM84 187v82h363v-82h-363z" />
    <glyph glyph-name="greater" unicode="&#x3e;" horiz-adv-x="531" 
d="M84 139v85l246 96l-246 95v86l363 -144v-74z" />
    <glyph glyph-name="question" unicode="?" horiz-adv-x="433" 
d="M224 703q86 0 135 -43.5t49 -105.5q0 -55 -32.5 -108t-114.5 -129l-42 -37l-22 -101h-27l-46 192l53 48q115 99 115 178q0 37 -21.5 58.5t-55.5 21.5q-23 0 -44 -9l-98 -162h-25l-31 148q98 49 207 49zM184 135q33 0 55 -20t22 -52t-21 -53t-57 -21t-56 22t-20 51
q0 28 20.5 50.5t56.5 22.5z" />
    <glyph glyph-name="at" unicode="@" horiz-adv-x="896" 
d="M857 353q1 -151 -101.5 -242.5t-277.5 -91.5l-15 18l113 321h-12q-115 -226 -182 -321q-17 -24 -55 -11q-99 32 -99 85q0 91 36.5 179.5t99 145.5t131.5 57q74 0 184 -51l-81 -380q106 22 166.5 99.5t60.5 190.5q0 128 -92 207t-241 79q-188 0 -304.5 -120.5
t-116.5 -314.5q0 -154 108 -250t282 -96l-9 -28q-184 0 -298.5 103.5t-114.5 270.5q0 207 125.5 335.5t327.5 128.5q163 0 264 -87t101 -227zM399 129q11 -4 48 59.5t110 201.5q-57 31 -123 36q-30 -32 -54.5 -112.5t-24.5 -151.5q0 -19 44 -33z" />
    <glyph glyph-name="A" unicode="A" horiz-adv-x="586" 
d="M583 33l17 -4v-29h-260v29l31 5q38 5 25 41l-55 154q-105 -1 -212 0l-24 -67q-10 -30 9 -59q21 -39 50 -74v-29h-179v29q13 14 37 46q38 53 51 91l168 464l90 29l215 -592q9 -27 37 -34zM139 258q86 -3 192 -1l-97 268z" />
    <glyph glyph-name="B" unicode="B" horiz-adv-x="600" 
d="M375 356q82 -10 135.5 -54.5t53.5 -118.5q0 -90 -71 -136.5t-186 -46.5h-277v29l35 5q28 6 28 34q2 248 0 506q0 28 -29 34l-36 6v29h272q110 0 165.5 -37t55.5 -102q0 -58 -40 -96t-106 -48v-4zM286 615q-18 0 -51 -5q-1 -83 -1 -247h84q23 0 45 33t22 86q0 64 -28 98.5
t-71 34.5zM307 28q49 0 82 34.5t33 105.5q0 74 -35 120.5t-101 45.5l-52 -1q-1 -99 1 -298q49 -7 72 -7z" />
    <glyph glyph-name="C" unicode="C" horiz-adv-x="664" 
d="M366 -11q-152 0 -239.5 91t-87.5 240q0 143 91.5 239t245.5 96q127 0 233 -38q-6 -104 -19 -195h-25q-39 72 -70 123q-31 50 -61.5 66.5t-66.5 16.5q-84 0 -130 -78.5t-46 -212.5q0 -131 53 -225.5t131 -94.5q62 0 128 89q45 55 84 111h26q-15 -109 -35 -191
q-80 -37 -212 -37z" />
    <glyph glyph-name="D" unicode="D" horiz-adv-x="701" 
d="M28 0v29l36 5q29 6 29 34q3 254 0 506q0 29 -29 34l-36 6v29h294q154 0 247 -85t93 -228q0 -147 -93 -238.5t-246 -91.5h-295zM322 30q83 0 136 76t53 204q0 135 -58.5 218.5t-149.5 83.5q-25 0 -68 -5q-3 -287 0 -570q56 -7 87 -7z" />
    <glyph glyph-name="E" unicode="E" horiz-adv-x="543" 
d="M477 189h29q-8 -95 -18 -189h-459v29l35 5q28 6 28 34q4 254 0 507q0 29 -28 33l-36 6v29h467q-20 -166 -21 -173h-28q-35 66 -69 122q-13 20 -32 20h-56q-25 0 -55 -9q-1 -87 -1 -252h82q20 0 36 19q26 30 42 53h29q3 -101 0 -204h-29q-34 66 -43 81q-13 22 -35 22h-82
q0 -184 1 -282l115 -9q22 -3 37 18q47 67 91 140z" />
    <glyph glyph-name="F" unicode="F" horiz-adv-x="519" 
d="M28 643h468q-8 -93 -21 -182h-29q-48 88 -78 133q-13 20 -32 20h-48q-4 0 -54 -5q-2 -186 -1 -271h65q24 0 40 20l41 48h29q2 -108 0 -218h-29q-20 50 -43 95q-13 26 -38 26h-65q0 -155 1 -235q0 -17 6 -25t21 -10l65 -10v-29h-296v29l35 6q28 6 28 33q3 254 0 507
q0 29 -28 33l-37 6v29z" />
    <glyph glyph-name="G" unicode="G" horiz-adv-x="688" 
d="M401 313h266v-29l-23 -4q-25 -5 -25 -36q-2 -103 0 -207q-94 -48 -247 -48q-155 0 -244 90.5t-89 240.5q0 142 91.5 238t244.5 96q137 0 245 -37q-9 -111 -20 -194h-28q-3 6 -27.5 52t-37.5 67q-56 83 -137 83q-86 0 -132.5 -82t-46.5 -205q0 -142 56.5 -231.5
t138.5 -89.5q62 0 97 58q1 59 -1 167q0 32 -32 37l-49 5v29z" />
    <glyph glyph-name="H" unicode="H" horiz-adv-x="739" 
d="M675 608q-29 -6 -29 -33q-3 -254 0 -508q0 -27 29 -33l36 -5v-29h-275v29l39 5q29 6 29 33q2 170 1 255q-136 -1 -271 0q0 -170 1 -255q1 -27 30 -33l38 -5v-29h-275v29l37 5q28 6 28 33q3 253 0 508q0 27 -28 33l-37 6v29h275v-29l-39 -6q-27 -4 -29 -33
q0 -37 -0.5 -110t-0.5 -109q136 -1 271 0q0 146 -1 219q0 28 -29 33l-39 6v29h275v-29z" />
    <glyph glyph-name="I" unicode="I" horiz-adv-x="329" 
d="M28 0v28l36 5q28 5 28 34q3 254 0 509q0 29 -28 34l-36 6v28h272v-28l-35 -6q-28 -5 -28 -34q-3 -255 0 -509q0 -29 28 -34l35 -5v-28h-272z" />
    <glyph glyph-name="J" unicode="J" horiz-adv-x="478" 
d="M183 -12q-77 0 -171 28q5 160 7 207h27q34 -74 89 -175q13 -32 46 -32q62 0 64 172q2 189 0 386q0 30 -28 36l-43 6v28h281v-28l-37 -6q-27 -6 -28 -36q-1 -179 0 -354q1 -113 -53.5 -172.5t-153.5 -59.5z" />
    <glyph glyph-name="K" unicode="K" horiz-adv-x="660" 
d="M237 67q0 -29 28 -34l35 -5v-28h-272v28l36 5q28 5 28 34q3 254 0 509q0 29 -28 34l-36 6v28h272v-28l-35 -6q-28 -5 -28 -34q-3 -255 0 -509zM634 35l27 -6v-29h-182l-206 343l150 156q22 22 13 50l-24 66v28h217v-29l-68 -48q-27 -20 -50 -41l-118 -114l209 -353
q11 -18 32 -23z" />
    <glyph glyph-name="L" unicode="L" horiz-adv-x="517" 
d="M31 0v29l32 6q29 6 29 37q3 255 0 502q0 30 -28 34l-36 6v29h273v-29l-39 -6q-28 -6 -28 -34q-3 -254 0 -532l105 -8q23 -2 35 19q47 77 96 168h29q-8 -81 -23 -221h-445z" />
    <glyph glyph-name="M" unicode="M" horiz-adv-x="783" 
d="M747 35l35 -6v-29h-273v29l43 6q30 6 27 37l-48 474l-166 -554h-26l-189 558l-42 -368q-4 -37 15 -62q35 -54 68 -91v-29h-190v29q26 33 55 91q16 27 21 61l47 383q4 35 -30 41l-47 9v29h214l143 -426l127 426h213v-29l-48 -9q-33 -6 -29 -40q22 -229 51 -497
q5 -29 29 -33z" />
    <glyph glyph-name="N" unicode="N" horiz-adv-x="673" 
d="M447 644h200v-28l-23.5 -57.5t-26.5 -62.5q-12 -24 -12 -55v-445h-130l-333 571v-351q0 -28 20 -55q10 -13 29 -41.5l35.5 -51.5l29.5 -40v-28h-204v28q8 18 24 61.5t24 61.5q12 27 12 64v386q-9 5 -19 6l-45 9v28h217l310 -541v333q0 33 -19 57l-42 58.5t-48 64.5z" />
    <glyph glyph-name="O" unicode="O" horiz-adv-x="729" 
d="M363 -11q-156 0 -240 94t-84 237q0 141 87 238t240 97q156 0 240 -94t84 -238q0 -141 -86.5 -237.5t-240.5 -96.5zM377 20q56 0 93.5 44t52.5 106t15 135q0 148 -53.5 233.5t-132.5 85.5q-56 0 -93.5 -44.5t-52 -106t-15.5 -135.5q0 -148 53.5 -233t132.5 -85z" />
    <glyph glyph-name="P" unicode="P" horiz-adv-x="574" 
d="M550 467q0 -95 -66 -152t-183 -57q-38 0 -67 4q0 -130 1 -190q0 -30 30 -36l52 -7v-29h-289v29l37 6q28 6 28 33q3 253 0 507q0 28 -28 34l-37 5v29h291q110 0 170.5 -47t60.5 -129zM234 307q34 -17 66 -17q50 0 77 42t27 124q0 68 -36 111t-88 43q-20 0 -45 -3
q-2 -197 -1 -300z" />
    <glyph glyph-name="Q" unicode="Q" horiz-adv-x="729" 
d="M495 12l421 -161v-22l-187 -36l-306 200q-25 -4 -60 -4q-156 0 -240 94t-84 237q0 141 87 238t240 97q156 0 240 -94t84 -238q0 -106 -50.5 -190t-144.5 -121zM191 338q0 -131 43 -214t110 -100l28 37l65 -26q51 30 76 104.5t25 165.5q0 148 -53.5 233.5t-132.5 85.5
q-56 0 -93.5 -44.5t-52 -106t-15.5 -135.5z" />
    <glyph glyph-name="R" unicode="R" horiz-adv-x="625" 
d="M619 33l19 -4v-29h-183l-166 293h-55q0 -151 1 -222q0 -30 29 -35l44 -7v-29h-276v29l32 5q29 6 29 34q2 173 0 506q0 28 -29 34l-36 6v29h299q110 0 170 -42t60 -117q0 -57 -35 -102t-95 -69l160 -258q12 -18 32 -22zM235 608q-2 -184 -1 -282q31 -3 67 -3
q50 0 79.5 38.5t29.5 109.5q0 63 -32.5 103t-87.5 40q-19 0 -55 -6z" />
    <glyph glyph-name="S" unicode="S" horiz-adv-x="524" 
d="M245 -11q-125 0 -193 39q3 59 5 183h26q48 -80 91 -144q11 -21 34 -35t52 -14q94 0 94 83q0 30 -16.5 57.5t-43.5 50t-59 45.5l-64 47t-59 50.5t-43.5 61t-16.5 72.5q0 74 55.5 121.5t164.5 47.5q99 0 185 -31q-9 -46 -27 -164h-26q-47 87 -67 120q-22 46 -75 46
q-41 0 -62 -20t-21 -56q0 -32 22.5 -63.5t56 -56l72.5 -54l72.5 -57t56 -65.5t22.5 -79q-1 -89 -66 -137t-170 -48z" />
    <glyph glyph-name="T" unicode="T" horiz-adv-x="613" 
d="M582 644q-1 -65 -1 -187h-34q-33 58 -81 130q-18 25 -35 25l-54 3q-3 -243 -1 -547q1 -31 30 -37l48 -6v-25h-289v25l41 6q29 4 29 36q3 270 0 548l-53 -2q-17 -1 -35 -24l-93 -132h-33l10 187h551z" />
    <glyph glyph-name="U" unicode="U" horiz-adv-x="687" 
d="M349 -12q-129 0 -195 63t-65 191q0 219 -1 330q0 29 -27 36l-37 6v29h283v-29l-50 -7q-28 -6 -28 -37q-1 -173 0 -348q1 -95 44 -143.5t115 -48.5q167 0 167 238v191q0 30 -15 49q-49 69 -80 106v29h209v-29q-26 -39 -62 -103q-13 -20 -13 -49v-185q0 -140 -61.5 -214.5
t-183.5 -74.5z" />
    <glyph glyph-name="V" unicode="V" horiz-adv-x="637" 
d="M427 643h197v-29q-17 -24 -71 -107q-17 -27 -27 -56l-164 -458h-81l-218 586q-11 26 -33 30l-23 5v29h275v-29l-43 -5q-37 -6 -24 -41l161 -437l115 328q10 29 -5 55l-59 100v29z" />
    <glyph glyph-name="W" unicode="W" horiz-adv-x="979" 
d="M771 643h195v-29q-46 -67 -72 -108q-17 -27 -26 -56l-159 -459h-80l-139 423l-147 -423h-79l-201 589q-10 24 -33 30l-23 4v29h274v-29l-44 -5q-35 -5 -23 -40l143 -451l107 323q9 23 0 48l-32 91q-9 25 -32 30l-31 4v29h278v-29l-41 -5q-16 -2 -22 -13t-1 -27l140 -450
l112 336q10 26 -2 49q-28 57 -62 110v29z" />
    <glyph glyph-name="X" unicode="X" horiz-adv-x="664" 
d="M630 36l32 -7v-29h-301v29l34 7q17 5 19.5 19.5t-10.5 34.5l-125 197l-96 -120q-24 -30 0 -61q23 -32 63 -77v-29h-241v29q81 71 154 161l100 128l-161 254q-19 28 -47 35l-31 7v29h299v-29l-34 -8q-33 -12 -7 -53l112 -176l82 105q27 31 2 62q-24 32 -57 70v29h226v-29
q-72 -66 -144 -154l-90 -113l174 -274q18 -28 47 -37z" />
    <glyph glyph-name="Y" unicode="Y" horiz-adv-x="597" 
d="M393 643h191v-30q-51 -47 -74 -71q-16 -13 -28 -39l-109 -214q0 -146 1 -218q0 -33 29 -37l40 -5v-29h-278v29l38 5q29 3 29 37q2 111 0 211l-165 301q-12 20 -35 26l-26 5v29h273v-29l-39 -6q-32 -6 -16 -37l136 -249l90 183q13 25 -6 50q-42 50 -51 59v29z" />
    <glyph glyph-name="Z" unicode="Z" horiz-adv-x="559" 
d="M387 58q44 70 108 185h28q-8 -162 -14 -243h-489l-2 18l344 596l-154 -4q-24 0 -38 -23q-60 -97 -98 -167h-29q4 151 7 224h481l2 -19l-344 -595l160 5q24 1 38 23z" />
    <glyph glyph-name="bracketleft" unicode="[" horiz-adv-x="368" 
d="M71 739h294v-36l-155 -7v-859l155 -8v-36h-294v946z" />
    <glyph glyph-name="backslash" unicode="\" horiz-adv-x="342" 
d="M17 769l397 -986l-45 -19l-397 986z" />
    <glyph glyph-name="bracketright" unicode="]" horiz-adv-x="368" 
d="M297 739v-946h-294v36l155 8v859l-155 7v36h294z" />
    <glyph glyph-name="asciicircum" unicode="^" horiz-adv-x="600" 
d="M485 290l-26 -17l-160 175l-160 -175l-25 17l159 261h52z" />
    <glyph glyph-name="underscore" unicode="_" horiz-adv-x="600" 
d="M-10 -78h620v-61h-620v61z" />
    <glyph glyph-name="grave" unicode="`" horiz-adv-x="339" 
d="M272 518q-142 40 -221 115l6 27l100 25l132 -143z" />
    <glyph glyph-name="a" unicode="a" horiz-adv-x="504" 
d="M466 47l25 -4v-26q-99 -17 -142 -26l-17 1l-21 64q-97 -67 -164 -67q-54 0 -87 30.5t-33 79.5q0 93 126 137q38 14 150 46v32q0 65 -19.5 97t-52.5 32q-45 0 -77 -68q-12 -24 -38 -88h-26l-46 108q117 80 219 80q77 0 125 -35.5t47 -112.5q0 -175 1 -243q0 -31 30 -37z
M163 121q0 -78 60 -78q34 0 81 39v173q-20 -5 -62 -21q-79 -32 -79 -113z" />
    <glyph glyph-name="b" unicode="b" horiz-adv-x="559" 
d="M341 476q83 0 131.5 -58.5t48.5 -157.5q0 -124 -68.5 -197.5t-178.5 -73.5q-94 0 -154 50q-16 -19 -32 -45h-23q5 259 1 628q0 28 -26 33q-17 4 -45 8v26q60 10 183 35h24q0 -38 -0.5 -137t-0.5 -155q78 44 140 44zM285 17q95 0 95 190q0 99 -30 155.5t-82 56.5
q-30 0 -67 -23q0 -172 1 -237v-21q0 -51 23.5 -86t59.5 -35z" />
    <glyph glyph-name="c" unicode="c" horiz-adv-x="484" 
d="M271 -11q-110 0 -171.5 66t-61.5 166q0 110 69.5 182t176.5 72q88 0 155 -36l-37 -166h-28q-10 19 -31 66l-30 66q-15 35 -50 35q-44 0 -71 -45.5t-27 -116.5q0 -93 46.5 -150t126.5 -57q54 0 87 25l14 -20q-53 -87 -168 -87z" />
    <glyph glyph-name="d" unicode="d" horiz-adv-x="564" 
d="M523 47l25 -4v-26q-93 -15 -145 -26l-16 1l-20 57q-69 -61 -141 -61q-85 0 -136.5 64t-51.5 164q0 118 67 189t173 71q43 0 80 -16q0 104 -1 155q0 29 -26 34q-9 2 -26 4.5t-25 3.5v26q59 10 189 36h24v-168v-259.5v-208.5q0 -30 30 -36zM180 273q0 -99 29 -161.5
t83 -62.5q32 0 66 29q1 73 1 244q-3 57 -27.5 89.5t-57.5 32.5q-42 0 -68 -45t-26 -126z" />
    <glyph glyph-name="e" unicode="e" horiz-adv-x="489" 
d="M429 229q-170 -2 -260 -1q12 -74 57 -115.5t111 -41.5q53 0 89 25l14 -20q-52 -87 -170 -87q-109 0 -170.5 66t-61.5 168q0 111 66 181.5t166 70.5q88 0 138 -56.5t45 -150.5zM165 280q0 -15 1 -22l162 3q6 82 -15.5 132t-57.5 50q-39 0 -64.5 -45.5t-25.5 -117.5z" />
    <glyph glyph-name="f" unicode="f" horiz-adv-x="322" 
d="M295 722q69 0 107 -29l-45 -116h-27q-4 13 -13 37l-13 34q-14 40 -30 40q-34 0 -51.5 -54.5t-18.5 -141.5v-28h111v-25l-50 -19q-7 0 -28 1.5t-33 2.5v-354q1 -27 27 -33l52 -11v-26h-262v26l25 6q26 9 26 37q2 123 0 364q-11 1 -30.5 2.5t-26.5 1.5v27h57
q2 123 67.5 190.5t155.5 67.5z" />
    <glyph glyph-name="g" unicode="g" horiz-adv-x="524" 
d="M507 412h-30.5h-34.5h-28q36 -42 36 -104q0 -69 -57.5 -115.5t-151.5 -46.5q-33 0 -71 7l-49 -70q57 1 168 1q114 0 161 -30t47 -92q0 -87 -71.5 -146t-183.5 -59q-76 0 -143 20.5t-104 56.5l101 137h-14l-34 101l57 51t40 37q-55 19 -83 59t-27 93q0 69 57.5 116
t151.5 47q91 0 144 -39q57 33 100 61h19q-1 -49 0 -85zM248 176q38 0 60 33.5t22 94.5q0 68 -25.5 104t-66.5 36q-38 0 -60 -32.5t-22 -93.5q0 -67 25 -104.5t67 -37.5zM444 -93q0 35 -43.5 50t-144.5 15h-128l-43 -72q42 -29 113 -47.5t137 -18.5q109 0 109 73z" />
    <glyph glyph-name="h" unicode="h" horiz-adv-x="573" 
d="M531 31l24 -5v-26h-243v26l29 5q27 6 28 38q1 89 -1 253q0 88 -67 88q-39 0 -96 -41q0 -201 2 -300q0 -30 27 -38l30 -5v-26h-243v26l24 5q26 7 26 38q3 231 -1 552q0 29 -26 34q-30 4 -45 7v26q65 11 183 36h24q-1 -106 -1 -315l29 17q82 50 142 50q58 0 93 -36.5
t35 -97.5q-1 -133 0 -273q0 -30 27 -38z" />
    <glyph glyph-name="i" unicode="i" horiz-adv-x="282" 
d="M139 541q-39 0 -59.5 23.5t-20.5 54.5q0 28 21.5 52.5t59.5 24.5q35 0 58 -20.5t23 -54.5q0 -35 -21 -57.5t-61 -22.5zM23 26l24 5q26 7 27 38q2 150 0 308q-1 32 -27 38q-6 1 -17.5 2.5t-16.5 2.5v25q169 30 173 31l24 -1q-2 -272 -1 -406q0 -29 27 -38l24 -5v-26h-237
v26z" />
    <glyph glyph-name="j" unicode="j" horiz-adv-x="293" 
d="M149 541q-39 0 -59.5 23.5t-20.5 54.5q0 28 21.5 52.5t59.5 24.5q35 0 58 -20.5t23 -54.5q0 -35 -21 -57.5t-61 -22.5zM4 -215q46 11 62.5 55.5t17.5 135.5q2 204 0 398q0 37 -25 41q-15 2 -47 4v26q22 4 85.5 14t98.5 17l24 -1q-1 -136 -1 -428q1 -139 -53.5 -204.5
t-157.5 -79.5z" />
    <glyph glyph-name="k" unicode="k" horiz-adv-x="576" 
d="M207 69q0 -33 26 -38l32 -5v-26h-244v26l24 5q26 7 26 38q3 245 -1 550q0 30 -26 36q-7 1 -22 3.5t-23 3.5v26q132 24 183 34h24q-1 -223 1 -653zM546 31l22 -5v-26h-176l-161 278l141 96l-58 70v21h215v-27l-169 -113l159 -271q9 -18 27 -23z" />
    <glyph glyph-name="l" unicode="l" horiz-adv-x="277" 
d="M21 0v26l24 5q27 7 27 38q3 244 -1 550q0 30 -27 36q-35 5 -45 7v26q100 18 183 36h24q-1 -226 1 -655q0 -31 26 -38l25 -5v-26h-237z" />
    <glyph glyph-name="m" unicode="m" horiz-adv-x="866" 
d="M823 31l25 -5v-26h-243v26l30 5q26 7 27 38q2 144 -1 252q0 89 -67 89q-40 0 -93 -38q2 -20 2 -31v-84v-100.5v-87.5q1 -31 27 -38l28 -5v-26h-246v26l30 5q26 7 26 38q2 88 0 252q0 89 -68 89q-38 0 -91 -38q-2 -203 0 -303q0 -31 26 -38l30 -5v-26h-242v26l24 5
q26 8 26 38q3 151 0 309q0 31 -29 37l-31 4v26q48 8 164 30h19l9 -67l29 17q84 51 141 51q87 0 117 -72l35 21q28 17 44.5 25.5t44 17t53.5 8.5q58 0 93 -37t35 -98q-1 -132 0 -272q0 -29 26 -38z" />
    <glyph glyph-name="n" unicode="n" horiz-adv-x="576" 
d="M533 31l24 -5v-26h-243v26l29 5q27 7 27 38q2 88 0 252q0 89 -67 89q-38 0 -93 -39q-2 -202 -1 -302q0 -31 28 -38l29 -5v-26h-243v26l24 5q26 8 26 38q3 151 0 310q0 30 -29 36l-31 4v26q48 8 164 30h20l9 -68l30 18q86 51 142 51q59 0 94 -36.5t34 -97.5v-85v-100.5
v-87.5q0 -29 27 -38z" />
    <glyph glyph-name="o" unicode="o" horiz-adv-x="551" 
d="M275 -11q-117 0 -177 67.5t-60 173.5q0 104 61.5 174.5t177.5 70.5q115 0 175.5 -66t60.5 -173q0 -106 -61 -176.5t-177 -70.5zM282 19q44 0 68.5 52t24.5 148q0 102 -29 164t-78 62q-44 0 -68.5 -52t-24.5 -148q0 -102 29 -164t78 -62z" />
    <glyph glyph-name="p" unicode="p" horiz-adv-x="561" 
d="M343 476q83 0 131.5 -59.5t48.5 -159.5q0 -122 -68 -195t-174 -73q-42 0 -76 14q0 -116 1 -172q0 -26 26 -32l46 -9v-26h-260v26l25 5q26 7 26 33q3 271 0 544q0 33 -29 39l-27 4l-1 28q118 22 154 30l21 -1l10 -57q75 61 146 61zM288 22q41 0 67 44.5t26 127.5
q0 101 -29 161t-82 60q-32 0 -66 -30v-247q4 -55 27 -85.5t57 -30.5z" />
    <glyph glyph-name="q" unicode="q" horiz-adv-x="560" 
d="M519 -205l39 -9v-26h-253v26l26 5q26 9 26 35v207q-73 -44 -133 -44q-85 0 -135.5 56.5t-50.5 158.5q0 123 68.5 197.5t178.5 74.5q93 0 154 -51q21 26 33 47h21q-5 -230 0 -645q0 -26 26 -32zM290 43q31 0 67 25v213v45q0 50 -23.5 84t-60.5 34q-94 0 -94 -186
q0 -101 30 -158t81 -57z" />
    <glyph glyph-name="r" unicode="r" horiz-adv-x="421" 
d="M346 476q36 0 52 -24l-37 -176h-34q-17 63 -29 100q-5 16 -17.5 20.5t-25.5 -3.5q-14 -8 -49 -37q-2 -136 0 -284q0 -32 28 -37l53 -9v-26h-264v26l24 5q27 9 27 38q1 154 0 308q0 31 -29 37l-31 3l-1 27q82 14 159 31h21l10 -82q16 14 32 26q67 57 111 57z" />
    <glyph glyph-name="s" unicode="s" horiz-adv-x="443" 
d="M204 -11q-93 0 -158 28q3 114 3 136h29q45 -70 71 -100q22 -34 72 -34q33 0 49 16t16 41q0 30 -24.5 53t-60 40.5t-70.5 37t-59.5 51.5t-24.5 75q0 63 48.5 103t135.5 40q84 0 143 -27q-5 -41 -11 -119h-27q-27 46 -47 71q-33 45 -77 45q-26 0 -41.5 -13.5t-15.5 -37.5
q0 -29 25 -52.5t60.5 -41.5l71 -37.5t60.5 -52t25 -75.5q0 -67 -51 -107t-142 -40z" />
    <glyph glyph-name="t" unicode="t" horiz-adv-x="356" 
d="M328 63l11 -28q-54 -46 -137 -46q-61 0 -95.5 32t-34.5 100q2 156 0 312l-61 3v29h69q42 58 99 144h28q0 -98 -1 -144h127v-22l-46 -21l-81 4q0 -208 1 -299q0 -80 62 -80q30 0 59 16z" />
    <glyph glyph-name="u" unicode="u" horiz-adv-x="569" 
d="M529 49l24 -3v-26q-68 -10 -145 -25l-18 1l-20 67l-15 -10q-73 -65 -156 -65q-58 0 -93 37t-35 98v80.5v98.5v83q0 26 -26 32l-33 7v28l171 21l24 -1q-3 -154 -1 -322q2 -92 68 -92q45 0 89 44q2 158 -1 283q0 26 -25 32l-34 7v28l171 21l24 -1q-2 -199 0 -386
q0 -30 31 -37z" />
    <glyph glyph-name="v" unicode="v" horiz-adv-x="499" 
d="M324 465h166v-26q-19 -22 -46 -60q-19 -27 -37 -65l-131 -319h-56l-178 411q-9 20 -28 26l-22 7v26h248v-26l-31 -6q-29 -8 -17 -38l106 -270q46 114 75 192q11 26 -4 51q-36 60 -45 71v26z" />
    <glyph glyph-name="w" unicode="w" horiz-adv-x="802" 
d="M625 464h169v-26q-25 -26 -48 -59q-21 -31 -34 -63l-129 -321h-57l-122 295l-123 -295h-58q-80 197 -176 408q-8 20 -31 28l-24 7v26h246v-26l-33 -9q-23 -8 -12 -37l108 -269l75 185q9 23 -1 48q-1 1 -1 2l-20 45q-10 22 -28 28l-24 7v26h246v-26l-31 -9q-29 -9 -18 -37
l103 -269q33 81 75 197q11 29 -5 50q-26 43 -47 68v26z" />
    <glyph glyph-name="x" unicode="x" horiz-adv-x="506" 
d="M479 33l22 -7v-26h-242v26l21 4q30 8 10 42l-89 137l-65 -77q-21 -27 0 -49q30 -38 47 -57v-26h-176v26q76 84 110 126q46 54 68 82l-113 172q-15 20 -36 26l-19 6v26h240v-26l-21 -3q-30 -7 -9 -42l79 -122l56 66q22 27 1 49q-13 18 -43 52v26h162v-26l-102 -118
l-60 -71l125 -191q13 -19 34 -25z" />
    <glyph glyph-name="y" unicode="y" horiz-adv-x="503" 
d="M320 465h174v-26q-19 -19 -50 -62q-23 -33 -35 -65l-221 -551q-87 6 -136 7v23q43 34 175 147q1 5 4.5 13t5.5 13l-192 439q-11 23 -33 30l-19 6v26h250v-26l-27 -4q-34 -7 -21 -40q30 -79 108 -267l74 188q11 28 -2 48q-6 8 -17.5 25.5t-20.5 30t-17 19.5v26z" />
    <glyph glyph-name="z" unicode="z" horiz-adv-x="492" 
d="M447 464v-25l-257 -409l114 2q27 1 40 25q31 52 72 134h25l-6 -191h-399v25l255 411l-106 -2q-22 0 -36 -25l-68 -121h-29l4 176h391z" />
    <glyph glyph-name="braceleft" unicode="{" horiz-adv-x="381" 
d="M346 -210q-115 2 -185 38t-70 110q0 30 24.5 109.5t24.5 101.5q0 34 -28.5 57.5t-75.5 31.5v38q48 8 76 31.5t28 57.5q0 22 -24.5 103t-24.5 111q0 74 69.5 109.5t185.5 38.5v-36q-120 -6 -120 -87q0 -31 24.5 -109.5t24.5 -108.5q0 -53 -47.5 -86.5t-124.5 -39.5v-6
q77 -6 124.5 -39.5t47.5 -86.5q0 -30 -24.5 -107t-24.5 -108q0 -80 120 -88v-35z" />
    <glyph glyph-name="bar" unicode="|" horiz-adv-x="220" 
d="M73 -348v1212h74v-1212h-74z" />
    <glyph glyph-name="braceright" unicode="}" horiz-adv-x="381" 
d="M36 727q115 -3 184.5 -38.5t69.5 -109.5q0 -30 -24.5 -109.5t-24.5 -102.5q0 -33 28.5 -56.5t75.5 -31.5v-39q-47 -8 -75.5 -31t-28.5 -57q0 -23 24.5 -103.5t24.5 -110.5q0 -74 -70 -110t-184 -38v35q119 8 119 88q0 31 -24 109.5t-24 107.5q0 54 47 87.5t124 39.5v5
q-77 6 -124 39.5t-47 87.5q0 29 24 106.5t24 108.5q0 81 -119 87v36z" />
    <glyph glyph-name="asciitilde" unicode="~" horiz-adv-x="548" 
d="M117 251l-33 2q0 51 25 95t73 44q32 0 112 -23.5t114 -29.5l29 51l34 -1q-1 -52 -26 -95t-73 -43q-33 0 -116 23.5t-109 28.5z" />
    <glyph glyph-name="uni00A0" unicode="&#xa0;" horiz-adv-x="232" 
 />
    <glyph glyph-name="exclamdown" unicode="&#xa1;" horiz-adv-x="221" 
d="M112 551q36 0 56 -22t20 -52q0 -27 -21 -50t-56 -23q-33 0 -55 20.5t-22 52.5t21 53t57 21zM192 -107l-152 -51l-16 13l72 510h30z" />
    <glyph glyph-name="cent" unicode="&#xa2;" horiz-adv-x="487" 
d="M338 174q54 0 87 22l14 -18q-51 -75 -159 -78v-92h-24v92q-103 4 -160.5 63t-57.5 146q0 91 61 154.5t157 72.5v92h24v-91h4q89 0 155 -32l-37 -150h-28q-10 17 -30.5 59.5t-30.5 59.5q-11 22 -33 29v-321q29 -8 58 -8zM165 360q0 -59 24 -103t67 -65v314
q-41 -4 -66 -44.5t-25 -101.5z" />
    <glyph glyph-name="sterling" unicode="&#xa3;" horiz-adv-x="561" 
d="M452 191h25q1 -52 -1 -191h-182q-153 0 -241 -10l-3 28q52 14 74.5 38.5t22.5 68.5q0 14 -2 29.5t-4 26t-7.5 29.5l-7.5 25.5t-10 30t-9 27.5h-79v24h72q-23 73 -23 130q0 89 58.5 139t163.5 50q97 0 179 -30l-26 -159h-26q-33 61 -65 112q-27 48 -78 48q-38 0 -59.5 -23
t-21.5 -68q0 -27 7.5 -57.5t23 -75.5t21.5 -66h161v-24h-154q13 -50 13 -98q0 -61 -25.5 -97.5t-81.5 -62.5l2 -5q98 14 186 55q42 17 64.5 42t32.5 64z" />
    <glyph glyph-name="currency" unicode="&#xa4;" horiz-adv-x="543" 
d="M498 115l-42 -39l-57 56q-51 -40 -126 -40q-76 0 -128 41l-59 -59l-40 38l62 63q-33 53 -33 124q0 73 33 125l-61 61l41 39l57 -58q51 42 128 42q76 0 126 -41l55 55l42 -40l-58 -58q33 -53 33 -125t-33 -124zM273 179q51 0 81.5 33.5t30.5 86.5q0 54 -30.5 88t-81.5 34
q-50 0 -81 -34t-31 -88q0 -53 31 -86.5t81 -33.5z" />
    <glyph glyph-name="yen" unicode="&#xa5;" horiz-adv-x="596" 
d="M391 635h188v-29q-51 -47 -73 -70q-11 -9 -28 -39l-100 -198h128v-24h-134q-1 -24 -1 -73h135v-24h-135q0 -18 0.5 -54.5t0.5 -53.5q0 -32 29 -36l39 -6v-28h-274v28l39 5q26 4 28 37q1 35 1 108h-143v24h143q0 13 -0.5 37.5t-0.5 35.5h-142v24h131l-152 277
q-11 20 -34 26l-25 4v29h268v-29l-39 -5q-32 -7 -15 -36l134 -246l88 180q13 25 -6 50q-26 33 -50 58v28z" />
    <glyph glyph-name="brokenbar" unicode="&#xa6;" horiz-adv-x="220" 
d="M73 294v504h74v-504h-74zM73 -310v502h74v-502h-74z" />
    <glyph glyph-name="section" unicode="&#xa7;" horiz-adv-x="439" 
d="M286 134q50 -30 78.5 -63t28.5 -82q0 -66 -46 -108.5t-128 -42.5q-84 0 -140 29l10 124h27q26 -49 44 -73q33 -47 76 -47q26 0 41.5 14t15.5 39q0 31 -24.5 56.5t-60 45.5t-70.5 42t-59.5 56.5t-24.5 78.5q0 54 28.5 94.5t77.5 61.5q-50 31 -78 64t-28 82q0 66 46 108.5
t128 42.5q83 0 139 -29q-1 -17 -4.5 -60.5t-4.5 -64.5h-27q-28 50 -45 74q-33 47 -76 47q-25 0 -41 -14.5t-16 -39.5q0 -31 24.5 -56.5t60 -45.5l71 -42t60 -56.5t24.5 -78.5q0 -54 -29 -94.5t-78 -61.5zM154 262q0 -32 24.5 -55.5t72.5 -51.5q41 25 41 76q0 33 -24 56
t-73 51q-41 -25 -41 -76z" />
    <glyph glyph-name="dieresis" unicode="&#xa8;" horiz-adv-x="423" 
d="M117 525q-32 0 -49.5 21.5t-17.5 48.5q0 25 18 47t50 22q30 0 49 -18.5t19 -49.5t-17.5 -51t-51.5 -20zM306 525q-33 0 -50.5 21.5t-17.5 48.5q0 25 18.5 47t50.5 22q29 0 48.5 -18.5t19.5 -49.5t-18 -51t-51 -20z" />
    <glyph glyph-name="copyright" unicode="&#xa9;" horiz-adv-x="737" 
d="M367 -12q-158 0 -243 94.5t-85 238.5q0 91 36.5 165.5t113 121.5t181.5 47q158 0 243 -94.5t85 -238.5q0 -91 -36.5 -165.5t-113 -121.5t-181.5 -47zM367 17q141 0 220.5 88.5t79.5 216.5q0 132 -77 218t-220 86q-141 0 -220.5 -88.5t-79.5 -216.5q0 -132 77.5 -218
t219.5 -86zM372 131q-88 0 -139.5 53t-51.5 139q0 82 54 138.5t142 56.5q72 0 136 -23l-11 -124h-21l-29 59q-35 61 -80 61q-46 0 -72.5 -44t-26.5 -114q0 -71 30 -123t72 -52q37 0 78 53q3 5 18.5 25.5t24.5 30.5h21l-19 -113q-48 -23 -126 -23z" />
    <glyph glyph-name="ordfeminine" unicode="&#xaa;" horiz-adv-x="333" 
d="M318 356l6 -17q-80 -12 -102 -16h-12l-16 37q-64 -42 -105 -42q-36 0 -57.5 18.5t-21.5 48.5q0 59 81 84q19 8 96 28v17q0 40 -12 59.5t-26 19.5q-19 0 -34 -24q-23 -43 -39 -76h-19l-37 66q82 55 152 55q53 0 87.5 -22.5t34.5 -69.5v-43v-54v-40q0 -7 3 -12.5t7 -9.5
l5 -4zM119 402q0 -44 33 -44q16 0 36 16v106q-18 -5 -24 -8q-45 -18 -45 -70z" />
    <glyph glyph-name="guillemotleft" unicode="&#xab;" horiz-adv-x="514" 
d="M267 397l-117 -162l117 -163l-28 -23l-213 161v49l213 161zM482 397l-117 -162l117 -163l-28 -23l-213 161v49l213 161z" />
    <glyph glyph-name="logicalnot" unicode="&#xac;" horiz-adv-x="531" 
d="M84 277v83h363v-188h-88v105h-275z" />
    <glyph glyph-name="uni00AD" unicode="&#xad;" horiz-adv-x="445" 
d="M62 294h322v-59h-322v59z" />
    <glyph glyph-name="registered" unicode="&#xae;" horiz-adv-x="444" 
d="M222 722q85 0 138.5 -53.5t53.5 -138.5t-53.5 -138.5t-138.5 -53.5t-138.5 53.5t-53.5 138.5t53.5 138.5t138.5 53.5zM222 359q75 0 122 47.5t47 123.5q0 75 -47 122.5t-122 47.5t-122 -47.5t-47 -122.5q0 -76 47 -123.5t122 -47.5zM313 589q0 -42 -39 -60q28 -48 61 -91
v-14h-59l-55 96h-18v-66q0 -10 10 -12l14 -2v-16h-98v16l12 2q9 0 9 11v161q0 10 -10 11l-12 1v18h106q79 0 79 -55zM203 626v-88q6 -1 21 -1q34 0 34 48q0 42 -37 42q-11 0 -18 -1z" />
    <glyph glyph-name="macron" unicode="&#xaf;" horiz-adv-x="365" 
d="M50 626h265v-82h-265v82z" />
    <glyph glyph-name="degree" unicode="&#xb0;" horiz-adv-x="292" 
d="M146 415q-53 0 -87.5 34t-34.5 86q0 53 35 87.5t87 34.5t87 -34.5t35 -86.5t-35 -86.5t-87 -34.5zM146 465q31 0 51 20.5t20 50.5t-20 50.5t-51 20.5t-51 -20.5t-20 -51.5q0 -30 20 -50t51 -20z" />
    <glyph glyph-name="plusminus" unicode="&#xb1;" horiz-adv-x="531" 
d="M307 369v-140h-84v140h-139v82h139v141h84v-141h140v-82h-140zM84 89v82h363v-82h-363z" />
    <glyph glyph-name="uni00B2" unicode="&#xb2;" horiz-adv-x="354" 
d="M292 488h18l-24 -117h-261v15l62 65.5t54.5 64.5t47 72t15.5 61q0 24 -11 43t-28 25q-17 8 -32 3q-9 0 -15 -12l-49 -98h-17l-15 102q73 27 132 27q62 0 97 -23t35 -66q0 -90 -186 -195v-4h145q14 0 21 13z" />
    <glyph glyph-name="uni00B3" unicode="&#xb3;" horiz-adv-x="348" 
d="M164 556q67 1 104 -21.5t37 -64.5q0 -47 -45.5 -76.5t-119.5 -29.5q-61 0 -112 8l16 101h17l49 -78q0 -1 6 -4q7 -7 21 -7q29 0 50 21.5t21 52.5q0 40 -28.5 62t-78.5 23v17q43 5 69 33.5t26 63.5q0 22 -11.5 39t-31.5 22q-15 4 -25 1q-10 0 -17 -12l-41 -83h-17l-19 86
q72 29 136 29q59 0 90.5 -23t31.5 -57q0 -78 -128 -101v-2z" />
    <glyph glyph-name="acute" unicode="&#xb4;" horiz-adv-x="339" 
d="M67 518l-17 24l132 143l100 -25l7 -27q-80 -75 -222 -115z" />
    <glyph glyph-name="uni00B5" unicode="&#xb5;" horiz-adv-x="569" 
d="M530 50l24 -2v-26q-89 -15 -146 -26l-17 1l-21 65l-13 -10q-74 -61 -150 -64v-225l-135 -21v440v64v76v63q0 28 -25 32l-35 7v28l172 21l24 -9q-3 -128 -1 -282v-33q2 -91 68 -91q46 0 89 43q2 160 -1 284q0 28 -25 32l-34 7l-1 28l172 21l24 -9q-2 -190 0 -376
q0 -32 31 -38z" />
    <glyph glyph-name="paragraph" unicode="&#xb6;" horiz-adv-x="593" 
d="M69 482q0 73 46 117.5t126 44.5h139v-749h-148v28l39 7q31 7 31 38v359q-27 -4 -54 -4q-79 0 -129 44t-50 115zM417 644h148v-29l-39 -7q-31 -6 -31 -37q-3 -338 0 -676h-78v749z" />
    <glyph glyph-name="periodcentered" unicode="&#xb7;" horiz-adv-x="227" 
d="M113 179q-36 0 -56 22t-20 51q0 28 20.5 50.5t55.5 22.5q33 0 55 -20t22 -52t-20.5 -53t-56.5 -21z" />
    <glyph glyph-name="cedilla" unicode="&#xb8;" horiz-adv-x="273" 
d="M126 -46q45 -5 71 -26t26 -54q0 -48 -43.5 -75t-115.5 -27l2 28q70 5 70 40q0 29 -73 32l-12 24l68 104h31z" />
    <glyph glyph-name="uni00B9" unicode="&#xb9;" horiz-adv-x="239" 
d="M31 388l26 3q17 3 17 19q2 137 0 257q0 16 -17 16h-24l-7 15l125 38h16q-2 -166 0 -326q0 -16 17 -19l26 -3v-17h-179v17z" />
    <glyph glyph-name="ordmasculine" unicode="&#xba;" horiz-adv-x="358" 
d="M179 318q-80 0 -120 42t-40 105q0 61 40 105t120 44q79 0 119.5 -40.5t40.5 -103.5q0 -64 -40 -108t-120 -44zM185 336q43 2 43 104q0 60 -13 106.5t-41 46.5q-44 0 -44 -100q0 -60 13 -108t42 -49z" />
    <glyph glyph-name="guillemotright" unicode="&#xbb;" horiz-adv-x="514" 
d="M273 259v-49l-213 -161l-28 23l117 163l-117 162l28 23zM275 420l213 -161v-49l-213 -161l-28 23l117 163l-117 162z" />
    <glyph glyph-name="onequarter" unicode="&#xbc;" horiz-adv-x="677" 
d="M545 654h30l-466 -666h-31zM57 294q17 3 17 18q2 139 0 257q0 17 -17 17h-24l-7 14l125 39h16q-2 -167 0 -327q0 -16 17 -18l26 -4v-17h-179v17zM602 154h54v-15l-15 -56h-38v-45q0 -15 16 -18l20 -3v-17h-193v17l45 5q18 2 18 17q0 8 0.5 22.5t0.5 22.5q-111 0 -167 -1
l-11 69l189 212h82q-1 -74 -1 -210zM356 154h154q1 62 -1 170z" />
    <glyph glyph-name="onehalf" unicode="&#xbd;" horiz-adv-x="753" 
d="M545 654h30l-466 -666h-31zM57 294q17 3 17 18q2 139 0 257q0 17 -17 17h-24l-7 14l125 39h16q-2 -167 0 -327q0 -16 17 -18l26 -4v-17h-179v17zM691 117h18l-24 -117h-261v15l62 65.5t54.5 64.5t47 72t15.5 61q0 24 -11 43t-28 25q-17 8 -32 3q-9 0 -15 -12l-49 -98h-17
l-15 102q73 27 132 27q62 0 97 -23t35 -66q0 -90 -186 -195v-4h145q14 0 21 13z" />
    <glyph glyph-name="threequarters" unicode="&#xbe;" horiz-adv-x="739" 
d="M608 654h30l-466 -666h-31zM305 373q0 -48 -45.5 -77.5t-119.5 -29.5q-54 0 -112 9l16 101h17l49 -78q1 -2 6 -5q8 -7 21 -7q30 0 50.5 21.5t20.5 53.5q0 39 -28.5 61.5t-78.5 22.5v17q43 6 69 34t26 63q0 22 -11.5 39t-31.5 23q-12 3 -25 1q-11 -1 -17 -13l-41 -83h-17
l-19 87q70 28 136 28q59 0 90.5 -22.5t31.5 -57.5q0 -78 -128 -100v-2q67 1 104 -22t37 -64zM664 154h54v-15l-15 -56h-38v-45q0 -15 16 -18l20 -3v-17h-193v17l45 5q18 2 18 17q0 8 0.5 22.5t0.5 22.5q-111 0 -167 -1l-11 69l189 212h82q-1 -74 -1 -210zM418 154h154
q1 62 -1 170z" />
    <glyph glyph-name="questiondown" unicode="&#xbf;" horiz-adv-x="433" 
d="M250 404q-33 0 -55 20.5t-22 51.5q0 32 20.5 53.5t56.5 21.5t56 -22t20 -52q0 -27 -20.5 -50t-55.5 -23zM386 34l30 -149q-96 -48 -207 -48q-86 0 -134.5 43.5t-48.5 105.5q0 54 32 107t114 129l43 39l22 100h26l47 -193l-53 -48q-116 -99 -116 -178q0 -37 22 -58.5
t56 -21.5q22 0 43 9l98 163h26z" />
    <glyph glyph-name="Agrave" unicode="&#xc0;" horiz-adv-x="586" 
d="M374 726l-12 -28q-153 11 -251 71l1 30l98 46zM583 33l17 -4v-29h-260v29l31 5q38 5 25 41l-55 154q-105 -1 -212 0l-24 -67q-10 -30 9 -59q21 -39 50 -74v-29h-179v29q13 14 37 46q38 53 51 91l168 464l90 29l215 -592q9 -27 37 -34zM139 258q86 -3 192 -1l-97 268z" />
    <glyph glyph-name="Aacute" unicode="&#xc1;" horiz-adv-x="586" 
d="M481 769q-97 -60 -250 -71l-13 28l165 119l98 -46v-30zM583 33l17 -4v-29h-260v29l31 5q38 5 25 41l-55 154q-105 -1 -212 0l-24 -67q-10 -30 9 -59q21 -39 50 -74v-29h-179v29q13 14 37 46q38 53 51 91l168 464l90 29l215 -592q9 -27 37 -34zM139 258q86 -3 192 -1
l-97 268z" />
    <glyph glyph-name="Acircumflex" unicode="&#xc2;" horiz-adv-x="586" 
d="M294 745l-133 -57l-25 23q67 84 138 125h40q70 -39 138 -125l-25 -23zM583 33l17 -4v-29h-260v29l31 5q38 5 25 41l-55 154q-105 -1 -212 0l-24 -67q-10 -30 9 -59q21 -39 50 -74v-29h-179v29q13 14 37 46q38 53 51 91l168 464l90 29l215 -592q9 -27 37 -34zM139 258
q86 -3 192 -1l-97 268z" />
    <glyph glyph-name="Atilde" unicode="&#xc3;" horiz-adv-x="586" 
d="M180 740l-15 -44l-30 2q0 44 20.5 82.5t59.5 38.5q26 0 94 -21t99 -21l14 43l31 -2q0 -44 -20 -82t-60 -38q-26 0 -94 21t-99 21zM583 33l17 -4v-29h-260v29l31 5q38 5 25 41l-55 154q-105 -1 -212 0l-24 -67q-10 -30 9 -59q21 -39 50 -74v-29h-179v29q13 14 37 46
q38 53 51 91l168 464l90 29l215 -592q9 -27 37 -34zM139 258q86 -3 192 -1l-97 268z" />
    <glyph glyph-name="Adieresis" unicode="&#xc4;" horiz-adv-x="586" 
d="M200 689q-32 0 -49.5 21t-17.5 48q0 25 18 47t50 22q30 0 49 -18.5t19 -49.5t-17.5 -50.5t-51.5 -19.5zM389 689q-33 0 -50.5 21t-17.5 48q0 25 18.5 47t50.5 22q29 0 48.5 -18.5t19.5 -49.5t-18 -50.5t-51 -19.5zM583 33l17 -4v-29h-260v29l31 5q38 5 25 41l-55 154
q-105 -1 -212 0l-24 -67q-10 -30 9 -59q21 -39 50 -74v-29h-179v29q13 14 37 46q38 53 51 91l168 464l90 29l215 -592q9 -27 37 -34zM139 258q86 -3 192 -1l-97 268z" />
    <glyph glyph-name="Aring" unicode="&#xc5;" horiz-adv-x="586" 
d="M294 692q-53 0 -84 31.5t-31 75.5q0 45 31 76.5t84 31.5t84 -30.5t31 -75.5q0 -46 -31 -77.5t-84 -31.5zM293 875q-28 0 -44 -21.5t-16 -52.5q0 -33 16.5 -55t45.5 -22q28 0 44 21.5t16 53.5t-16.5 54t-45.5 22zM583 33l17 -4v-29h-260v29l31 5q38 5 25 41l-55 154
q-105 -1 -212 0l-24 -67q-10 -30 9 -59q21 -39 50 -74v-29h-179v29q13 14 37 46q38 53 51 91l168 464l90 29l215 -592q9 -27 37 -34zM139 258q86 -3 192 -1l-97 268z" />
    <glyph glyph-name="AE" unicode="&#xc6;" horiz-adv-x="849" 
d="M784 192h29l-18 -192h-460v29l35 5q28 6 28 33q1 50 1 160q-119 -2 -229 0l-37 -58q-21 -35 1 -69l47 -71v-29h-198v29l40 46q37 37 71 90l304 472h405l-22 -174h-29l-73 124q-13 20 -30 20h-53q-17 0 -53 -9q-1 -84 -1 -250h77q19 0 35 19l45 54h29v-206h-29l-21.5 39
t-24.5 43q-11 21 -34 21h-77q0 -185 1 -279l109 -8q22 -3 36 18zM188 255q103 -2 211 0v328z" />
    <glyph glyph-name="Ccedilla" unicode="&#xc7;" horiz-adv-x="659" 
d="M366 -11q-16 0 -24 1l-19 -36q46 -5 72 -26t26 -54q0 -48 -43.5 -75t-116.5 -27l2 28q71 5 71 40q0 29 -74 32l-12 24l64 96q-128 16 -200.5 105t-72.5 223q0 143 91.5 239t245.5 96q127 0 233 -38q-6 -104 -19 -195h-25q-39 72 -70 123q-31 50 -61.5 66.5t-66.5 16.5
q-84 0 -130 -78.5t-46 -212.5q0 -131 53 -225.5t131 -94.5q62 0 128 89q45 55 84 111h26q-15 -109 -35 -191q-80 -37 -212 -37z" />
    <glyph glyph-name="Egrave" unicode="&#xc8;" horiz-adv-x="543" 
d="M371 726l-12 -28q-153 11 -251 71l1 30l98 46zM477 189h29q-8 -95 -18 -189h-459v29l35 5q28 6 28 34q4 254 0 507q0 29 -28 33l-36 6v29h467q-20 -166 -21 -173h-28q-35 66 -69 122q-13 20 -32 20h-56q-25 0 -55 -9q-1 -87 -1 -252h82q20 0 36 19q26 30 42 53h29
q3 -101 0 -204h-29q-34 66 -43 81q-13 22 -35 22h-82q0 -184 1 -282l115 -9q22 -3 37 18q47 67 91 140z" />
    <glyph glyph-name="Eacute" unicode="&#xc9;" horiz-adv-x="543" 
d="M477 769q-97 -60 -250 -71l-13 28l165 119l98 -46v-30zM477 189h29q-8 -95 -18 -189h-459v29l35 5q28 6 28 34q4 254 0 507q0 29 -28 33l-36 6v29h467q-20 -166 -21 -173h-28q-35 66 -69 122q-13 20 -32 20h-56q-25 0 -55 -9q-1 -87 -1 -252h82q20 0 36 19q26 30 42 53
h29q3 -101 0 -204h-29q-34 66 -43 81q-13 22 -35 22h-82q0 -184 1 -282l115 -9q22 -3 37 18q47 67 91 140z" />
    <glyph glyph-name="Ecircumflex" unicode="&#xca;" horiz-adv-x="543" 
d="M291 745l-133 -57l-25 23q67 84 138 125h40q70 -39 138 -125l-25 -23zM477 189h29q-8 -95 -18 -189h-459v29l35 5q28 6 28 34q4 254 0 507q0 29 -28 33l-36 6v29h467q-20 -166 -21 -173h-28q-35 66 -69 122q-13 20 -32 20h-56q-25 0 -55 -9q-1 -87 -1 -252h82q20 0 36 19
q26 30 42 53h29q3 -101 0 -204h-29q-34 66 -43 81q-13 22 -35 22h-82q0 -184 1 -282l115 -9q22 -3 37 18q47 67 91 140z" />
    <glyph glyph-name="Edieresis" unicode="&#xcb;" horiz-adv-x="543" 
d="M196 689q-32 0 -49.5 21t-17.5 48q0 25 18 47t50 22q30 0 49 -18.5t19 -49.5t-17.5 -50.5t-51.5 -19.5zM385 689q-33 0 -50.5 21t-17.5 48q0 25 18.5 47t50.5 22q29 0 48.5 -18.5t19.5 -49.5t-18 -50.5t-51 -19.5zM477 189h29q-8 -95 -18 -189h-459v29l35 5q28 6 28 34
q4 254 0 507q0 29 -28 33l-36 6v29h467q-20 -166 -21 -173h-28q-35 66 -69 122q-13 20 -32 20h-56q-25 0 -55 -9q-1 -87 -1 -252h82q20 0 36 19q26 30 42 53h29q3 -101 0 -204h-29q-34 66 -43 81q-13 22 -35 22h-82q0 -184 1 -282l115 -9q22 -3 37 18q47 67 91 140z" />
    <glyph glyph-name="Igrave" unicode="&#xcc;" horiz-adv-x="329" 
d="M233 699q-153 11 -251 71l1 30l98 46l164 -119zM28 0v28l36 5q28 5 28 34q3 254 0 509q0 29 -28 34l-36 6v28h272v-28l-35 -6q-28 -5 -28 -34q-3 -255 0 -509q0 -29 28 -34l35 -5v-28h-272z" />
    <glyph glyph-name="Iacute" unicode="&#xcd;" horiz-adv-x="329" 
d="M101 699l-13 28l165 119l98 -46v-30q-97 -60 -250 -71zM28 0v28l36 5q28 5 28 34q3 254 0 509q0 29 -28 34l-36 6v28h272v-28l-35 -6q-28 -5 -28 -34q-3 -255 0 -509q0 -29 28 -34l35 -5v-28h-272z" />
    <glyph glyph-name="Icircumflex" unicode="&#xce;" horiz-adv-x="329" 
d="M165 746l-133 -57l-25 23q67 84 138 125h40q70 -39 138 -125l-25 -23zM28 616v28h272v-28l-35 -6q-28 -5 -28 -34q-3 -255 0 -509q0 -29 28 -34l35 -5v-28h-272v28l36 5q28 5 28 34q3 254 0 509q0 29 -28 34z" />
    <glyph glyph-name="Idieresis" unicode="&#xcf;" horiz-adv-x="329" 
d="M70 690q-32 0 -49.5 21t-17.5 48q0 25 18 47t50 22q30 0 49 -18.5t19 -49.5t-17.5 -50.5t-51.5 -19.5zM259 690q-33 0 -50.5 21t-17.5 48q0 25 18.5 47t50.5 22q29 0 48.5 -18.5t19.5 -49.5t-18 -50.5t-51 -19.5zM28 0v28l36 5q28 5 28 34q3 254 0 509q0 29 -28 34l-36 6
v28h272v-28l-35 -6q-28 -5 -28 -34q-3 -255 0 -509q0 -29 28 -34l35 -5v-28h-272z" />
    <glyph glyph-name="Eth" unicode="&#xd0;" horiz-adv-x="703" 
d="M324 643q153 0 246 -85t93 -228q0 -147 -92.5 -238.5t-246.5 -91.5h-294v29l36 5q28 6 28 34q1 81 1 244h-67v30h67q0 155 -1 232q0 30 -28 34l-36 6v29h294zM324 30q83 0 135.5 76t52.5 204q0 135 -58.5 218.5t-149.5 83.5q-25 0 -68 -5q0 -45 -0.5 -133t-0.5 -132h130
v-30h-130q0 -46 0.5 -138t0.5 -137q58 -7 88 -7z" />
    <glyph glyph-name="Ntilde" unicode="&#xd1;" horiz-adv-x="673" 
d="M226 741l-15 -44l-30 2q0 44 20.5 82.5t59.5 38.5q26 0 94 -21t99 -21l14 43l31 -2q0 -44 -20 -82t-60 -38q-26 0 -94 21t-99 21zM447 644h200v-28l-23.5 -57.5t-26.5 -62.5q-12 -24 -12 -55v-445h-130l-333 571v-351q0 -28 20 -55q10 -13 29 -41.5l35.5 -51.5l29.5 -40
v-28h-204v28q8 18 24 61.5t24 61.5q12 27 12 64v386q-9 5 -19 6l-45 9v28h217l310 -541v333q0 33 -19 57l-42 58.5t-48 64.5z" />
    <glyph glyph-name="Ograve" unicode="&#xd2;" horiz-adv-x="729" 
d="M433 704q-153 11 -251 71l1 30l98 46l164 -119zM363 -11q-156 0 -240 94t-84 237q0 141 87 238t240 97q156 0 240 -94t84 -238q0 -141 -86.5 -237.5t-240.5 -96.5zM377 20q56 0 93.5 44t52.5 106t15 135q0 148 -53.5 233.5t-132.5 85.5q-56 0 -93.5 -44.5t-52 -106
t-15.5 -135.5q0 -148 53.5 -233t132.5 -85z" />
    <glyph glyph-name="Oacute" unicode="&#xd3;" horiz-adv-x="729" 
d="M301 704l-13 28l165 119l98 -46v-30q-97 -60 -250 -71zM363 -11q-156 0 -240 94t-84 237q0 141 87 238t240 97q156 0 240 -94t84 -238q0 -141 -86.5 -237.5t-240.5 -96.5zM377 20q56 0 93.5 44t52.5 106t15 135q0 148 -53.5 233.5t-132.5 85.5q-56 0 -93.5 -44.5
t-52 -106t-15.5 -135.5q0 -148 53.5 -233t132.5 -85z" />
    <glyph glyph-name="Ocircumflex" unicode="&#xd4;" horiz-adv-x="729" 
d="M365 751l-133 -57l-25 23q67 84 138 125h40q70 -39 138 -125l-25 -23zM366 655q156 0 240 -94t84 -238q0 -141 -86.5 -237.5t-240.5 -96.5q-156 0 -240 94t-84 237q0 141 87 238t240 97zM377 20q56 0 93.5 44t52.5 106t15 135q0 148 -53.5 233.5t-132.5 85.5
q-56 0 -93.5 -44.5t-52 -106t-15.5 -135.5q0 -148 53.5 -233t132.5 -85z" />
    <glyph glyph-name="Otilde" unicode="&#xd5;" horiz-adv-x="729" 
d="M236 702l-30 2q0 44 20.5 82.5t59.5 38.5q26 0 94 -21t99 -21l14 43l31 -2q0 -44 -20 -82t-60 -38q-26 0 -94 21t-99 21zM363 -11q-156 0 -240 94t-84 237q0 141 87 238t240 97q156 0 240 -94t84 -238q0 -141 -86.5 -237.5t-240.5 -96.5zM377 20q56 0 93.5 44t52.5 106
t15 135q0 148 -53.5 233.5t-132.5 85.5q-56 0 -93.5 -44.5t-52 -106t-15.5 -135.5q0 -148 53.5 -233t132.5 -85z" />
    <glyph glyph-name="Odieresis" unicode="&#xd6;" horiz-adv-x="729" 
d="M270 695q-32 0 -49.5 21t-17.5 48q0 25 18 47t50 22q30 0 49 -18.5t19 -49.5t-17.5 -50.5t-51.5 -19.5zM459 695q-33 0 -50.5 21t-17.5 48q0 25 18.5 47t50.5 22q29 0 48.5 -18.5t19.5 -49.5t-18 -50.5t-51 -19.5zM363 -11q-156 0 -240 94t-84 237q0 141 87 238t240 97
q156 0 240 -94t84 -238q0 -141 -86.5 -237.5t-240.5 -96.5zM377 20q56 0 93.5 44t52.5 106t15 135q0 148 -53.5 233.5t-132.5 85.5q-56 0 -93.5 -44.5t-52 -106t-15.5 -135.5q0 -148 53.5 -233t132.5 -85z" />
    <glyph glyph-name="multiply" unicode="&#xd7;" horiz-adv-x="505" 
d="M144 151l-60 60l109 109l-107 108l58 58l107 -108l110 109l59 -60l-108 -109l109 -107l-60 -59l-108 108z" />
    <glyph glyph-name="Oslash" unicode="&#xd8;" horiz-adv-x="729" 
d="M587 580q103 -91 103 -257q0 -141 -86.5 -237.5t-240.5 -96.5q-108 0 -183 47l-49 -65h-59l70 93q-103 91 -103 256q0 141 87 238t240 97q106 0 183 -47l49 66h59zM191 338q0 -101 26 -173l273 364q-54 95 -138 95q-56 0 -93.5 -44.5t-52 -106t-15.5 -135.5zM377 20
q56 0 93.5 44t52.5 106t15 135q0 97 -26 175l-273 -365q52 -95 138 -95z" />
    <glyph glyph-name="Ugrave" unicode="&#xd9;" horiz-adv-x="687" 
d="M428 698q-153 11 -251 71l1 30l98 46l164 -119zM349 -12q-129 0 -195 63t-65 191q0 219 -1 330q0 29 -27 36l-37 6v29h283v-29l-50 -7q-28 -6 -28 -37q-1 -173 0 -348q1 -95 44 -143.5t115 -48.5q167 0 167 238v191q0 30 -15 49q-49 69 -80 106v29h209v-29
q-26 -39 -62 -103q-13 -20 -13 -49v-185q0 -140 -61.5 -214.5t-183.5 -74.5z" />
    <glyph glyph-name="Uacute" unicode="&#xda;" horiz-adv-x="687" 
d="M296 698l-13 28l165 119l98 -46v-30q-97 -60 -250 -71zM349 -12q-129 0 -195 63t-65 191q0 219 -1 330q0 29 -27 36l-37 6v29h283v-29l-50 -7q-28 -6 -28 -37q-1 -173 0 -348q1 -95 44 -143.5t115 -48.5q167 0 167 238v191q0 30 -15 49q-49 69 -80 106v29h209v-29
q-26 -39 -62 -103q-13 -20 -13 -49v-185q0 -140 -61.5 -214.5t-183.5 -74.5z" />
    <glyph glyph-name="Ucircumflex" unicode="&#xdb;" horiz-adv-x="687" 
d="M359 745l-133 -57l-25 23q67 84 138 125h40q70 -39 138 -125l-25 -23zM460 643h209v-29q-26 -39 -62 -103q-13 -20 -13 -49v-185q0 -140 -61.5 -214.5t-183.5 -74.5q-129 0 -195 63t-65 191q0 219 -1 330q0 29 -27 36l-37 6v29h283v-29l-50 -7q-28 -6 -28 -37
q-1 -173 0 -348q1 -95 44 -143.5t115 -48.5q167 0 167 238v191q0 30 -15 49q-49 69 -80 106v29z" />
    <glyph glyph-name="Udieresis" unicode="&#xdc;" horiz-adv-x="687" 
d="M265 689q-32 0 -49.5 21t-17.5 48q0 25 18 47t50 22q30 0 49 -18.5t19 -49.5t-17.5 -50.5t-51.5 -19.5zM454 689q-33 0 -50.5 21t-17.5 48q0 25 18.5 47t50.5 22q29 0 48.5 -18.5t19.5 -49.5t-18 -50.5t-51 -19.5zM349 -12q-129 0 -195 63t-65 191q0 219 -1 330
q0 29 -27 36l-37 6v29h283v-29l-50 -7q-28 -6 -28 -37q-1 -173 0 -348q1 -95 44 -143.5t115 -48.5q167 0 167 238v191q0 30 -15 49q-49 69 -80 106v29h209v-29q-26 -39 -62 -103q-13 -20 -13 -49v-185q0 -140 -61.5 -214.5t-183.5 -74.5z" />
    <glyph glyph-name="Yacute" unicode="&#xdd;" horiz-adv-x="597" 
d="M487 769q-97 -60 -250 -71l-13 28l165 119l98 -46v-30zM393 643h191v-30q-51 -47 -74 -71q-16 -13 -28 -39l-109 -214q0 -146 1 -218q0 -33 29 -37l40 -5v-29h-278v29l38 5q29 3 29 37q2 111 0 211l-165 301q-12 20 -35 26l-26 5v29h273v-29l-39 -6q-32 -6 -16 -37
l136 -249l90 183q13 25 -6 50q-42 50 -51 59v29z" />
    <glyph glyph-name="Thorn" unicode="&#xde;" horiz-adv-x="577" 
d="M553 345q0 -94 -66 -149.5t-187 -55.5q-36 0 -64 4q0 -13 0.5 -37t0.5 -36q0 -31 30 -35l52 -7v-29h-291v29l35 5q29 6 29 33q2 341 0 502q0 29 -29 33l-35 6v29h291v-29l-52 -7q-30 -6 -30 -35v-48h82q112 0 173 -46t61 -127zM237 482q-1 -97 -1 -295q31 -15 64 -15
q104 0 104 161q0 68 -36 110.5t-87 42.5q-23 0 -44 -4z" />
    <glyph glyph-name="germandbls" unicode="&#xdf;" horiz-adv-x="647" 
d="M369 435q0 -27 24 -54.5t58 -52.5l68 -52.5t58 -64.5t24 -79q0 -64 -48 -103.5t-129 -39.5q-87 0 -154 28q2 30 4 136h29q23 -46 56 -85q20 -27 37 -38t40 -11q53 0 53 56q0 31 -22 59.5t-54 52l-64 48.5t-54 59.5t-22 73.5q0 33 14 59.5t33.5 44.5l39.5 36t34 42.5
t14 54.5q0 35 -21 58t-63 23q-116 0 -116 -198q-1 -196 0 -488h-187v26l25 5q27 9 27 37q1 179 0 366q-19 2 -57 4v27h57q4 123 80 188.5t188 65.5q84 0 137 -26t53 -71q0 -31 -25.5 -57t-55.5 -41t-55.5 -38.5t-25.5 -50.5z" />
    <glyph glyph-name="agrave" unicode="&#xe0;" horiz-adv-x="504" 
d="M320 541l-18 -24q-141 40 -221 115l6 27l101 25zM466 47l25 -4v-26q-99 -17 -142 -26l-17 1l-21 64q-97 -67 -164 -67q-54 0 -87 30.5t-33 79.5q0 93 126 137q38 14 150 46v32q0 65 -19.5 97t-52.5 32q-45 0 -77 -68q-12 -24 -38 -88h-26l-46 108q117 80 219 80
q77 0 125 -35.5t47 -112.5q0 -175 1 -243q0 -31 30 -37zM163 121q0 -78 60 -78q34 0 81 39v173q-20 -5 -62 -21q-79 -32 -79 -113z" />
    <glyph glyph-name="aacute" unicode="&#xe1;" horiz-adv-x="504" 
d="M422 632q-80 -75 -222 -115l-17 24l132 143l100 -25zM466 47l25 -4v-26q-99 -17 -142 -26l-17 1l-21 64q-97 -67 -164 -67q-54 0 -87 30.5t-33 79.5q0 93 126 137q38 14 150 46v32q0 65 -19.5 97t-52.5 32q-45 0 -77 -68q-12 -24 -38 -88h-26l-46 108q117 80 219 80
q77 0 125 -35.5t47 -112.5q0 -175 1 -243q0 -31 30 -37zM163 121q0 -78 60 -78q34 0 81 39v173q-20 -5 -62 -21q-79 -32 -79 -113z" />
    <glyph glyph-name="acircumflex" unicode="&#xe2;" horiz-adv-x="504" 
d="M251 583l-121 -72l-25 23q57 86 128 153h37q70 -63 127 -153l-25 -23zM466 47l25 -4v-26q-99 -17 -142 -26l-17 1l-21 64q-97 -67 -164 -67q-54 0 -87 30.5t-33 79.5q0 93 126 137q38 14 150 46v32q0 65 -19.5 97t-52.5 32q-45 0 -77 -68q-12 -24 -38 -88h-26l-46 108
q117 80 219 80q77 0 125 -35.5t47 -112.5q0 -175 1 -243q0 -31 30 -37zM163 121q0 -78 60 -78q34 0 81 39v173q-20 -5 -62 -21q-79 -32 -79 -113z" />
    <glyph glyph-name="atilde" unicode="&#xe3;" horiz-adv-x="504" 
d="M144 577l-24 -45l-27 1q0 45 20 84t60 39q26 0 91 -20.5t94 -26.5l23 46l28 -2q0 -45 -20 -83.5t-60 -38.5q-27 0 -95.5 20.5t-89.5 25.5zM466 47l25 -4v-26q-99 -17 -142 -26l-17 1l-21 64q-97 -67 -164 -67q-54 0 -87 30.5t-33 79.5q0 93 126 137q38 14 150 46v32
q0 65 -19.5 97t-52.5 32q-45 0 -77 -68q-12 -24 -38 -88h-26l-46 108q117 80 219 80q77 0 125 -35.5t47 -112.5q0 -175 1 -243q0 -31 30 -37zM163 121q0 -78 60 -78q34 0 81 39v173q-20 -5 -62 -21q-79 -32 -79 -113z" />
    <glyph glyph-name="adieresis" unicode="&#xe4;" horiz-adv-x="504" 
d="M157 524q-32 0 -49.5 21.5t-17.5 48.5q0 25 18 47t50 22q30 0 49 -18.5t19 -49.5t-17.5 -51t-51.5 -20zM346 524q-33 0 -50.5 21.5t-17.5 48.5q0 25 18.5 47t50.5 22q29 0 48.5 -18.5t19.5 -49.5t-18 -51t-51 -20zM466 47l25 -4v-26q-99 -17 -142 -26l-17 1l-21 64
q-97 -67 -164 -67q-54 0 -87 30.5t-33 79.5q0 93 126 137q38 14 150 46v32q0 65 -19.5 97t-52.5 32q-45 0 -77 -68q-12 -24 -38 -88h-26l-46 108q117 80 219 80q77 0 125 -35.5t47 -112.5q0 -175 1 -243q0 -31 30 -37zM163 121q0 -78 60 -78q34 0 81 39v173q-20 -5 -62 -21
q-79 -32 -79 -113z" />
    <glyph glyph-name="aring" unicode="&#xe5;" horiz-adv-x="504" 
d="M252 522q-53 0 -84.5 31.5t-31.5 76.5t31 76t84 31t84.5 -30.5t31.5 -74.5q0 -46 -31 -78t-84 -32zM251 705q-29 0 -44.5 -21t-15.5 -52q0 -33 16 -55t45 -22q28 0 44 21.5t16 53.5t-16 53.5t-45 21.5zM466 47l25 -4v-26q-99 -17 -142 -26l-17 1l-21 64q-97 -67 -164 -67
q-54 0 -87 30.5t-33 79.5q0 93 126 137q38 14 150 46v32q0 65 -19.5 97t-52.5 32q-45 0 -77 -68q-12 -24 -38 -88h-26l-46 108q117 80 219 80q77 0 125 -35.5t47 -112.5q0 -175 1 -243q0 -31 30 -37zM163 121q0 -78 60 -78q34 0 81 39v173q-20 -5 -62 -21q-79 -32 -79 -113z
" />
    <glyph glyph-name="ae" unicode="&#xe6;" horiz-adv-x="757" 
d="M695 243q-170 -2 -259 -1q10 -77 56 -121.5t115 -44.5q55 0 88 24l14 -19q-50 -92 -172 -92t-186 84q-47 -40 -92.5 -62.5t-105.5 -22.5q-58 0 -92 30.5t-34 80.5q0 94 126 137q77 26 151 46v30q0 66 -19.5 99.5t-51.5 33.5q-46 0 -67 -53q-42 -92 -48 -107h-26l-47 107
q113 84 219 84q92 0 130 -47q62 48 147 48q86 0 135 -56t44 -140zM434 281v-10l157 3q5 75 -13 123t-52 48q-39 0 -65.5 -43.5t-26.5 -120.5zM221 42q72 0 85 148q-2 22 -2 32v33q-32 -10 -62 -21q-76 -32 -76 -112t55 -80z" />
    <glyph glyph-name="ccedilla" unicode="&#xe7;" horiz-adv-x="484" 
d="M338 71q54 0 87 25l14 -20q-53 -87 -168 -87h-11l-18 -35q45 -5 71 -26t26 -54q0 -48 -43.5 -75t-115.5 -27l2 28q70 5 70 40q0 29 -73 32l-12 24l63 96q-92 12 -142 75.5t-50 153.5q0 110 69.5 182t176.5 72q88 0 155 -36l-37 -166h-28q-10 19 -31 66l-30 66
q-15 35 -50 35q-44 0 -71 -45.5t-27 -116.5q0 -93 46.5 -150t126.5 -57z" />
    <glyph glyph-name="egrave" unicode="&#xe8;" horiz-adv-x="489" 
d="M329 541l-18 -24q-141 40 -221 115l6 27l101 25zM429 229q-170 -2 -260 -1q12 -74 57 -115.5t111 -41.5q53 0 89 25l14 -20q-52 -87 -170 -87q-109 0 -170.5 66t-61.5 168q0 111 66 181.5t166 70.5q88 0 138 -56.5t45 -150.5zM165 280q0 -15 1 -22l162 3q6 82 -15.5 132
t-57.5 50q-39 0 -64.5 -45.5t-25.5 -117.5z" />
    <glyph glyph-name="eacute" unicode="&#xe9;" horiz-adv-x="489" 
d="M431 632q-80 -75 -222 -115l-17 24l132 143l100 -25zM429 229q-170 -2 -260 -1q12 -74 57 -115.5t111 -41.5q53 0 89 25l14 -20q-52 -87 -170 -87q-109 0 -170.5 66t-61.5 168q0 111 66 181.5t166 70.5q88 0 138 -56.5t45 -150.5zM165 280q0 -15 1 -22l162 3
q6 82 -15.5 132t-57.5 50q-39 0 -64.5 -45.5t-25.5 -117.5z" />
    <glyph glyph-name="ecircumflex" unicode="&#xea;" horiz-adv-x="489" 
d="M260 583l-121 -72l-25 23q57 86 128 153h37q70 -63 127 -153l-25 -23zM429 229q-170 -2 -260 -1q12 -74 57 -115.5t111 -41.5q53 0 89 25l14 -20q-52 -87 -170 -87q-109 0 -170.5 66t-61.5 168q0 111 66 181.5t166 70.5q88 0 138 -56.5t45 -150.5zM165 280q0 -15 1 -22
l162 3q6 82 -15.5 132t-57.5 50q-39 0 -64.5 -45.5t-25.5 -117.5z" />
    <glyph glyph-name="edieresis" unicode="&#xeb;" horiz-adv-x="489" 
d="M166 524q-32 0 -49.5 21.5t-17.5 48.5q0 25 18 47t50 22q30 0 49 -18.5t19 -49.5t-17.5 -51t-51.5 -20zM355 524q-33 0 -50.5 21.5t-17.5 48.5q0 25 18.5 47t50.5 22q29 0 48.5 -18.5t19.5 -49.5t-18 -51t-51 -20zM429 229q-170 -2 -260 -1q12 -74 57 -115.5t111 -41.5
q53 0 89 25l14 -20q-52 -87 -170 -87q-109 0 -170.5 66t-61.5 168q0 111 66 181.5t166 70.5q88 0 138 -56.5t45 -150.5zM165 280q0 -15 1 -22l162 3q6 82 -15.5 132t-57.5 50q-39 0 -64.5 -45.5t-25.5 -117.5z" />
    <glyph glyph-name="igrave" unicode="&#xec;" horiz-adv-x="282" 
d="M185 512q-110 51 -187 146l15 27l106 3l88 -157zM23 26l24 5q26 7 27 38q2 150 0 308q-1 32 -27 38q-6 1 -17.5 2.5t-16.5 2.5v25q169 30 173 31l24 -1q-2 -272 -1 -406q0 -29 27 -38l24 -5v-26h-237v26z" />
    <glyph glyph-name="iacute" unicode="&#xed;" horiz-adv-x="282" 
d="M101 509l-23 19l82 159h106l16 -26q-73 -97 -181 -152zM23 26l24 5q26 7 27 38q2 150 0 308q-1 32 -27 38q-6 1 -17.5 2.5t-16.5 2.5v25q169 30 173 31l24 -1q-2 -272 -1 -406q0 -29 27 -38l24 -5v-26h-237v26z" />
    <glyph glyph-name="icircumflex" unicode="&#xee;" horiz-adv-x="282" 
d="M140 578l-105 -65l-25 22q47 94 112 153h36q66 -60 111 -153l-24 -22zM209 69q0 -29 27 -38l24 -5v-26h-237v26l24 5q26 7 27 38q2 150 0 308q-1 32 -27 38q-6 1 -17.5 2.5t-16.5 2.5v25q169 30 173 31l24 -1q-2 -272 -1 -406z" />
    <glyph glyph-name="idieresis" unicode="&#xef;" horiz-adv-x="282" 
d="M53 533q-32 0 -49.5 21.5t-17.5 48.5q0 25 18 47t50 22q30 0 49.5 -18.5t19.5 -49.5t-18 -51t-52 -20zM226 533q-33 0 -50.5 21.5t-17.5 48.5q0 25 18.5 47t50.5 22q29 0 48.5 -18.5t19.5 -49.5t-18 -51t-51 -20zM23 26l24 5q26 7 27 38q2 150 0 308q-1 32 -27 38
q-6 1 -17.5 2.5t-16.5 2.5v25q169 30 173 31l24 -1q-2 -272 -1 -406q0 -29 27 -38l24 -5v-26h-237v26z" />
    <glyph glyph-name="eth" unicode="&#xf0;" horiz-adv-x="551" 
d="M513 284q1 -151 -66.5 -223t-180.5 -72q-108 0 -167.5 65t-59.5 165q0 112 68.5 179t179.5 67q25 0 48 -6q-32 80 -87 133l-116 -61l-17 30l105 55q-45 36 -103 53l7 29q90 -11 162 -48l86 45l17 -29l-68 -35q90 -56 140.5 -146.5t51.5 -200.5zM282 22q92 0 92 226
q0 92 -25 173q-24 14 -52 13q-57 -1 -87.5 -56t-30.5 -150q0 -93 27 -149.5t76 -56.5z" />
    <glyph glyph-name="ntilde" unicode="&#xf1;" horiz-adv-x="576" 
d="M182 578l-24 -45l-27 1q0 45 20 84t60 39q26 0 91 -20.5t94 -26.5l23 46l28 -2q0 -45 -20 -83.5t-60 -38.5q-27 0 -95.5 20.5t-89.5 25.5zM533 31l24 -5v-26h-243v26l29 5q27 7 27 38q2 88 0 252q0 89 -67 89q-38 0 -93 -39q-2 -202 -1 -302q0 -31 28 -38l29 -5v-26h-243
v26l24 5q26 8 26 38q3 151 0 310q0 30 -29 36l-31 4v26q48 8 164 30h20l9 -68l30 18q86 51 142 51q59 0 94 -36.5t34 -97.5v-85v-100.5v-87.5q0 -29 27 -38z" />
    <glyph glyph-name="ograve" unicode="&#xf2;" horiz-adv-x="551" 
d="M326 517q-141 40 -221 115l6 27l101 25l132 -143zM275 -11q-117 0 -177 67.5t-60 173.5q0 104 61.5 174.5t177.5 70.5q115 0 175.5 -66t60.5 -173q0 -106 -61 -176.5t-177 -70.5zM282 19q44 0 68.5 52t24.5 148q0 102 -29 164t-78 62q-44 0 -68.5 -52t-24.5 -148
q0 -102 29 -164t78 -62z" />
    <glyph glyph-name="oacute" unicode="&#xf3;" horiz-adv-x="551" 
d="M224 517l-17 24l132 143l100 -25l7 -27q-80 -75 -222 -115zM275 -11q-117 0 -177 67.5t-60 173.5q0 104 61.5 174.5t177.5 70.5q115 0 175.5 -66t60.5 -173q0 -106 -61 -176.5t-177 -70.5zM282 19q44 0 68.5 52t24.5 148q0 102 -29 164t-78 62q-44 0 -68.5 -52
t-24.5 -148q0 -102 29 -164t78 -62z" />
    <glyph glyph-name="ocircumflex" unicode="&#xf4;" horiz-adv-x="551" 
d="M275 583l-121 -72l-25 23q57 86 128 153h37q70 -63 127 -153l-25 -23zM277 475q115 0 175.5 -66t60.5 -173q0 -106 -61 -176.5t-177 -70.5q-117 0 -177 67.5t-60 173.5q0 104 61.5 174.5t177.5 70.5zM282 19q44 0 68.5 52t24.5 148q0 102 -29 164t-78 62q-44 0 -68.5 -52
t-24.5 -148q0 -102 29 -164t78 -62z" />
    <glyph glyph-name="otilde" unicode="&#xf5;" horiz-adv-x="551" 
d="M144 532l-27 1q0 45 20 84t60 39q26 0 91 -20.5t94 -26.5l23 46l28 -2q0 -45 -20 -83.5t-60 -38.5q-27 0 -95.5 20.5t-89.5 25.5zM275 -11q-117 0 -177 67.5t-60 173.5q0 104 61.5 174.5t177.5 70.5q115 0 175.5 -66t60.5 -173q0 -106 -61 -176.5t-177 -70.5zM282 19
q44 0 68.5 52t24.5 148q0 102 -29 164t-78 62q-44 0 -68.5 -52t-24.5 -148q0 -102 29 -164t78 -62z" />
    <glyph glyph-name="odieresis" unicode="&#xf6;" horiz-adv-x="551" 
d="M181 524q-32 0 -49.5 21.5t-17.5 48.5q0 25 18 47t50 22q30 0 49 -18.5t19 -49.5t-17.5 -51t-51.5 -20zM370 524q-33 0 -50.5 21.5t-17.5 48.5q0 25 18.5 47t50.5 22q29 0 48.5 -18.5t19.5 -49.5t-18 -51t-51 -20zM275 -11q-117 0 -177 67.5t-60 173.5q0 104 61.5 174.5
t177.5 70.5q115 0 175.5 -66t60.5 -173q0 -106 -61 -176.5t-177 -70.5zM282 19q44 0 68.5 52t24.5 148q0 102 -29 164t-78 62q-44 0 -68.5 -52t-24.5 -148q0 -102 29 -164t78 -62z" />
    <glyph glyph-name="divide" unicode="&#xf7;" horiz-adv-x="531" 
d="M263 422q-29 0 -45 18t-16 41q0 21 16.5 40t45.5 19q27 0 44.5 -16t17.5 -42t-16.5 -43t-46.5 -17zM84 277v83h363v-83h-363zM263 96q-29 0 -45 18t-16 42q0 21 16.5 40t45.5 19q27 0 44.5 -16t17.5 -42q0 -27 -16.5 -44t-46.5 -17z" />
    <glyph glyph-name="oslash" unicode="&#xf8;" horiz-adv-x="550" 
d="M440 420q73 -64 73 -184q0 -106 -61 -176.5t-177 -70.5q-77 0 -133 32l-37 -50h-51l56 74q-72 66 -72 185q0 104 61.5 174.5t177.5 70.5q77 0 131 -31l38 51h50zM175 245q0 -57 9 -100l168 224q-30 76 -84 76q-44 0 -68.5 -52t-24.5 -148zM282 19q44 0 68.5 52t24.5 148
q0 57 -9 102l-168 -225q30 -77 84 -77z" />
    <glyph glyph-name="ugrave" unicode="&#xf9;" horiz-adv-x="569" 
d="M353 542l-18 -24q-141 40 -221 115l6 27l101 25zM529 49l24 -3v-26q-68 -10 -145 -25l-18 1l-20 67l-15 -10q-73 -65 -156 -65q-58 0 -93 37t-35 98v80.5v98.5v83q0 26 -26 32l-33 7v28l171 21l24 -1q-3 -154 -1 -322q2 -92 68 -92q45 0 89 44q2 158 -1 283q0 26 -25 32
l-34 7v28l171 21l24 -1q-2 -199 0 -386q0 -30 31 -37z" />
    <glyph glyph-name="uacute" unicode="&#xfa;" horiz-adv-x="569" 
d="M455 633q-80 -75 -222 -115l-17 24l132 143l100 -25zM529 49l24 -3v-26q-68 -10 -145 -25l-18 1l-20 67l-15 -10q-73 -65 -156 -65q-58 0 -93 37t-35 98v80.5v98.5v83q0 26 -26 32l-33 7v28l171 21l24 -1q-3 -154 -1 -322q2 -92 68 -92q45 0 89 44q2 158 -1 283
q0 26 -25 32l-34 7v28l171 21l24 -1q-2 -199 0 -386q0 -30 31 -37z" />
    <glyph glyph-name="ucircumflex" unicode="&#xfb;" horiz-adv-x="569" 
d="M284 584l-121 -72l-25 23q57 86 128 153h37q70 -63 127 -153l-25 -23zM529 49l24 -3v-26q-68 -10 -145 -25l-18 1l-20 67l-15 -10q-73 -65 -156 -65q-58 0 -93 37t-35 98v80.5v98.5v83q0 26 -26 32l-33 7v28l171 21l24 -1q-3 -154 -1 -322q2 -92 68 -92q45 0 89 44
q2 158 -1 283q0 26 -25 32l-34 7v28l171 21l24 -1q-2 -199 0 -386q0 -30 31 -37z" />
    <glyph glyph-name="udieresis" unicode="&#xfc;" horiz-adv-x="569" 
d="M190 525q-32 0 -49.5 21.5t-17.5 48.5q0 25 18 47t50 22q30 0 49 -18.5t19 -49.5t-17.5 -51t-51.5 -20zM379 525q-33 0 -50.5 21.5t-17.5 48.5q0 25 18.5 47t50.5 22q29 0 48.5 -18.5t19.5 -49.5t-18 -51t-51 -20zM529 49l24 -3v-26q-68 -10 -145 -25l-18 1l-20 67
l-15 -10q-73 -65 -156 -65q-58 0 -93 37t-35 98v80.5v98.5v83q0 26 -26 32l-33 7v28l171 21l24 -1q-3 -154 -1 -322q2 -92 68 -92q45 0 89 44q2 158 -1 283q0 26 -25 32l-34 7v28l171 21l24 -1q-2 -199 0 -386q0 -30 31 -37z" />
    <glyph glyph-name="yacute" unicode="&#xfd;" horiz-adv-x="503" 
d="M422 634q-80 -75 -222 -115l-17 24l132 143l100 -25zM320 465h174v-26q-19 -19 -50 -62q-23 -33 -35 -65l-221 -551q-87 6 -136 7v23q43 34 175 147q1 5 4.5 13t5.5 13l-192 439q-11 23 -33 30l-19 6v26h250v-26l-27 -4q-34 -7 -21 -40q30 -79 108 -267l74 188
q11 28 -2 48q-6 8 -17.5 25.5t-20.5 30t-17 19.5v26z" />
    <glyph glyph-name="thorn" unicode="&#xfe;" horiz-adv-x="559" 
d="M341 476q84 0 132 -59.5t48 -159.5q0 -122 -67.5 -195t-174.5 -73q-42 0 -76 14q0 -127 1 -173q0 -27 26 -33l46 -9v-25h-260v25l25 5q26 7 26 34q3 421 0 789q-2 32 -27 37q-30 4 -44 7v26q73 12 182 36h24v-302q70 56 139 56zM287 22q41 0 67 44.5t26 127.5
q0 101 -29 161t-82 60q-33 0 -67 -31v-188v-12v-35q1 -58 24.5 -92.5t60.5 -34.5z" />
    <glyph glyph-name="ydieresis" unicode="&#xff;" horiz-adv-x="503" 
d="M157 526q-32 0 -49.5 21.5t-17.5 48.5q0 25 18 47t50 22q30 0 49 -18.5t19 -49.5t-17.5 -51t-51.5 -20zM346 526q-33 0 -50.5 21.5t-17.5 48.5q0 25 18.5 47t50.5 22q29 0 48.5 -18.5t19.5 -49.5t-18 -51t-51 -20zM320 465h174v-26q-19 -19 -50 -62q-23 -33 -35 -65
l-221 -551q-87 6 -136 7v23q43 34 175 147q1 5 4.5 13t5.5 13l-192 439q-11 23 -33 30l-19 6v26h250v-26l-27 -4q-34 -7 -21 -40q30 -79 108 -267l74 188q11 28 -2 48q-6 8 -17.5 25.5t-20.5 30t-17 19.5v26z" />
    <glyph glyph-name="Amacron" unicode="&#x100;" horiz-adv-x="586" 
d="M432 784v-76h-275v76h275zM583 33l17 -4v-29h-260v29l31 5q38 5 25 41l-55 154q-105 -1 -212 0l-24 -67q-10 -30 9 -59q21 -39 50 -74v-29h-179v29q13 14 37 46q38 53 51 91l168 464l90 29l215 -592q9 -27 37 -34zM139 258q86 -3 192 -1l-97 268z" />
    <glyph glyph-name="amacron" unicode="&#x101;" horiz-adv-x="504" 
d="M383 625v-82h-265v82h265zM466 47l25 -4v-26q-99 -17 -142 -26l-17 1l-21 64q-97 -67 -164 -67q-54 0 -87 30.5t-33 79.5q0 93 126 137q38 14 150 46v32q0 65 -19.5 97t-52.5 32q-45 0 -77 -68q-12 -24 -38 -88h-26l-46 108q117 80 219 80q77 0 125 -35.5t47 -112.5
q0 -175 1 -243q0 -31 30 -37zM163 121q0 -78 60 -78q34 0 81 39v173q-20 -5 -62 -21q-79 -32 -79 -113z" />
    <glyph glyph-name="Abreve" unicode="&#x102;" horiz-adv-x="586" 
d="M294 690q-129 0 -140 152l41 4q4 -35 32 -56.5t67 -21.5q38 0 66 21.5t32 56.5l41 -4q-5 -74 -40.5 -113t-98.5 -39zM583 33l17 -4v-29h-260v29l31 5q38 5 25 41l-55 154q-105 -1 -212 0l-24 -67q-10 -30 9 -59q21 -39 50 -74v-29h-179v29q13 14 37 46q38 53 51 91
l168 464l90 29l215 -592q9 -27 37 -34zM139 258q86 -3 192 -1l-97 268z" />
    <glyph glyph-name="abreve" unicode="&#x103;" horiz-adv-x="504" 
d="M252 520q-129 0 -140 159l41 4q4 -39 31.5 -60t67.5 -21q39 0 66.5 21.5t31.5 59.5l41 -4q-9 -159 -139 -159zM466 47l25 -4v-26q-99 -17 -142 -26l-17 1l-21 64q-97 -67 -164 -67q-54 0 -87 30.5t-33 79.5q0 93 126 137q38 14 150 46v32q0 65 -19.5 97t-52.5 32
q-45 0 -77 -68q-12 -24 -38 -88h-26l-46 108q117 80 219 80q77 0 125 -35.5t47 -112.5q0 -175 1 -243q0 -31 30 -37zM163 121q0 -78 60 -78q34 0 81 39v173q-20 -5 -62 -21q-79 -32 -79 -113z" />
    <glyph glyph-name="Aogonek" unicode="&#x104;" horiz-adv-x="591" 
d="M483 0q-64 0 -96 -28t-32 -67q0 -29 17 -47.5t47 -18.5q28 0 50 20l19 -22q-50 -60 -126 -60q-49 0 -78.5 28t-29.5 71q0 44 33.5 79.5t90.5 57.5q23 10 27 27.5t-6 37.5l-55 152q-105 -1 -211 0l-22 -63q-11 -32 8 -62q18 -31 50 -77v-28h-184v28q15 17 38 48
q38 46 55 92l167 461l93 31l214 -591q12 -32 41 -37l15 -4v-28h-125zM143 258q96 -2 191 0l-97 265z" />
    <glyph glyph-name="aogonek" unicode="&#x105;" horiz-adv-x="507" 
d="M476 -137l19 -22q-52 -60 -130 -60q-48 0 -77.5 27.5t-29.5 68.5q0 36 23 68.5t61 53.5l-29 59q-97 -69 -167 -69q-54 0 -87 30.5t-33 80.5q0 92 126 137q24 9 151 46v30q0 65 -19 98t-51 33q-46 0 -76 -65q-9 -19 -21.5 -48l-18.5 -42h-26l-47 107q115 80 220 80
q78 0 126.5 -36t48.5 -114q-2 -127 0 -239q0 -32 30 -37l25 -4v-25q-134 -25 -134 -114q0 -30 17.5 -47.5t44.5 -17.5q32 0 54 21zM166 122q0 -79 58 -79q33 0 80 39v174q-20 -6 -62 -22q-76 -30 -76 -112z" />
    <glyph glyph-name="Cacute" unicode="&#x106;" horiz-adv-x="664" 
d="M300 699l-13 28l165 119l98 -46v-30q-97 -60 -250 -71zM366 -11q-152 0 -239.5 91t-87.5 240q0 143 91.5 239t245.5 96q127 0 233 -38q-6 -104 -19 -195h-25q-39 72 -70 123q-31 50 -61.5 66.5t-66.5 16.5q-84 0 -130 -78.5t-46 -212.5q0 -131 53 -225.5t131 -94.5
q62 0 128 89q45 55 84 111h26q-15 -109 -35 -191q-80 -37 -212 -37z" />
    <glyph glyph-name="cacute" unicode="&#x107;" horiz-adv-x="484" 
d="M209 517l-17 24l132 143l100 -25l7 -27q-80 -75 -222 -115zM271 -11q-110 0 -171.5 66t-61.5 166q0 110 69.5 182t176.5 72q88 0 155 -36l-37 -166h-28q-10 19 -31 66l-30 66q-15 35 -50 35q-44 0 -71 -45.5t-27 -116.5q0 -93 46.5 -150t126.5 -57q54 0 87 25l14 -20
q-53 -87 -168 -87z" />
    <glyph glyph-name="Ccircumflex" unicode="&#x108;" horiz-adv-x="664" 
d="M364 746l-133 -57l-25 23q67 84 138 125h40q70 -39 138 -125l-25 -23zM587 217h26q-15 -109 -35 -191q-80 -37 -212 -37q-152 0 -239.5 91t-87.5 240q0 143 91.5 239t245.5 96q127 0 233 -38q-6 -104 -19 -195h-25q-39 72 -70 123q-31 50 -61.5 66.5t-66.5 16.5
q-84 0 -130 -78.5t-46 -212.5q0 -131 53 -225.5t131 -94.5q62 0 128 89q45 55 84 111z" />
    <glyph glyph-name="ccircumflex" unicode="&#x109;" horiz-adv-x="484" 
d="M260 583l-121 -72l-25 23q57 86 128 153h37q70 -63 127 -153l-25 -23zM338 71q54 0 87 25l14 -20q-53 -87 -168 -87q-110 0 -171.5 66t-61.5 166q0 110 69.5 182t176.5 72q88 0 155 -36l-37 -166h-28q-10 19 -31 66l-30 66q-15 35 -50 35q-44 0 -71 -45.5t-27 -116.5
q0 -93 46.5 -150t126.5 -57z" />
    <glyph glyph-name="Cdotaccent" unicode="&#x10a;" horiz-adv-x="664" 
d="M363 699q-39 0 -59.5 23.5t-20.5 54.5q0 27 21.5 52t59.5 25q35 0 58 -20.5t23 -55.5t-21 -57t-61 -22zM366 -11q-152 0 -239.5 91t-87.5 240q0 143 91.5 239t245.5 96q127 0 233 -38q-6 -104 -19 -195h-25q-39 72 -70 123q-31 50 -61.5 66.5t-66.5 16.5
q-84 0 -130 -78.5t-46 -212.5q0 -131 53 -225.5t131 -94.5q62 0 128 89q45 55 84 111h26q-15 -109 -35 -191q-80 -37 -212 -37z" />
    <glyph glyph-name="cdotaccent" unicode="&#x10b;" horiz-adv-x="484" 
d="M259 540q-39 0 -59.5 23.5t-20.5 54.5q0 28 21.5 52.5t59.5 24.5q35 0 58 -20.5t23 -54.5q0 -35 -21 -57.5t-61 -22.5zM271 -11q-110 0 -171.5 66t-61.5 166q0 110 69.5 182t176.5 72q88 0 155 -36l-37 -166h-28q-10 19 -31 66l-30 66q-15 35 -50 35q-44 0 -71 -45.5
t-27 -116.5q0 -93 46.5 -150t126.5 -57q54 0 87 25l14 -20q-53 -87 -168 -87z" />
    <glyph glyph-name="Ccaron" unicode="&#x10c;" horiz-adv-x="664" 
d="M343 693q-72 43 -138 126l25 23l133 -57l133 57l25 -23q-67 -85 -138 -126h-40zM587 217h26q-15 -109 -35 -191q-80 -37 -212 -37q-152 0 -239.5 91t-87.5 240q0 143 91.5 239t245.5 96q127 0 233 -38q-6 -104 -19 -195h-25q-39 72 -70 123q-31 50 -61.5 66.5t-66.5 16.5
q-84 0 -130 -78.5t-46 -212.5q0 -131 53 -225.5t131 -94.5q62 0 128 89q45 55 84 111z" />
    <glyph glyph-name="ccaron" unicode="&#x10d;" horiz-adv-x="484" 
d="M242 519q-71 67 -128 153l25 23l121 -72l121 72l25 -23q-57 -90 -127 -153h-37zM338 71q54 0 87 25l14 -20q-53 -87 -168 -87q-110 0 -171.5 66t-61.5 166q0 110 69.5 182t176.5 72q88 0 155 -36l-37 -166h-28q-10 19 -31 66l-30 66q-15 35 -50 35q-44 0 -71 -45.5
t-27 -116.5q0 -93 46.5 -150t126.5 -57z" />
    <glyph glyph-name="Dcaron" unicode="&#x10e;" horiz-adv-x="701" 
d="M323 692q-72 43 -138 126l25 23l133 -57l133 57l25 -23q-67 -85 -138 -126h-40zM322 643q154 0 247 -85t93 -228q0 -147 -93 -238.5t-246 -91.5h-295v29l36 5q29 6 29 34q3 254 0 506q0 29 -29 34l-36 6v29h294zM322 30q83 0 136 76t53 204q0 135 -58.5 218.5
t-149.5 83.5q-25 0 -68 -5q-3 -287 0 -570q56 -7 87 -7z" />
    <glyph glyph-name="dcaron" unicode="&#x10f;" horiz-adv-x="692" 
d="M704 652q1 -52 -35.5 -103t-100.5 -88l-16 24q78 49 97 104l-29 17q-51 31 -49 66q1 28 20 44.5t47 14.5q28 -1 47 -22t19 -57zM493 83q0 -30 30 -36l25 -4v-26q-93 -15 -145 -26l-16 1l-20 57q-69 -61 -141 -61q-85 0 -136.5 64t-51.5 164q0 118 67 189t173 71
q43 0 80 -16q0 104 -1 155q0 29 -26 34q-9 2 -26 4.5t-25 3.5v26q59 10 189 36h24v-168v-259.5v-208.5zM180 273q0 -99 29 -161.5t83 -62.5q32 0 66 29q1 73 1 244q-3 57 -27.5 89.5t-57.5 32.5q-42 0 -68 -45t-26 -126z" />
    <glyph glyph-name="Dcroat" unicode="&#x110;" horiz-adv-x="703" 
d="M324 643q153 0 246 -85t93 -228q0 -147 -92.5 -238.5t-246.5 -91.5h-294v29l36 5q28 6 28 34q1 81 1 244h-67v30h67q0 155 -1 232q0 30 -28 34l-36 6v29h294zM324 30q83 0 135.5 76t52.5 204q0 135 -58.5 218.5t-149.5 83.5q-25 0 -68 -5q0 -45 -0.5 -133t-0.5 -132h130
v-30h-130q0 -46 0.5 -138t0.5 -137q58 -7 88 -7z" />
    <glyph glyph-name="dcroat" unicode="&#x111;" horiz-adv-x="564" 
d="M523 47l25 -4v-26q-93 -15 -145 -26l-16 1l-20 57q-69 -61 -141 -61q-85 0 -136.5 64t-51.5 164q0 118 67 189t173 71q43 0 80 -16v84h-158v29h157v42q0 29 -26 34q-9 2 -26 4.5t-25 3.5v26q59 10 189 36h24v-146h49v-29h-49v-148v-178.5v-134.5q0 -30 30 -36zM180 273
q0 -99 29 -161.5t83 -62.5q32 0 66 29q1 73 1 244q-3 57 -27.5 89.5t-57.5 32.5q-42 0 -68 -45t-26 -126z" />
    <glyph glyph-name="Emacron" unicode="&#x112;" horiz-adv-x="543" 
d="M428 784v-76h-275v76h275zM477 189h29q-8 -95 -18 -189h-459v29l35 5q28 6 28 34q4 254 0 507q0 29 -28 33l-36 6v29h467q-20 -166 -21 -173h-28q-35 66 -69 122q-13 20 -32 20h-56q-25 0 -55 -9q-1 -87 -1 -252h82q20 0 36 19q26 30 42 53h29q3 -101 0 -204h-29
q-34 66 -43 81q-13 22 -35 22h-82q0 -184 1 -282l115 -9q22 -3 37 18q47 67 91 140z" />
    <glyph glyph-name="emacron" unicode="&#x113;" horiz-adv-x="489" 
d="M392 625v-82h-265v82h265zM429 229q-170 -2 -260 -1q12 -74 57 -115.5t111 -41.5q53 0 89 25l14 -20q-52 -87 -170 -87q-109 0 -170.5 66t-61.5 168q0 111 66 181.5t166 70.5q88 0 138 -56.5t45 -150.5zM165 280q0 -15 1 -22l162 3q6 82 -15.5 132t-57.5 50
q-39 0 -64.5 -45.5t-25.5 -117.5z" />
    <glyph glyph-name="Ebreve" unicode="&#x114;" horiz-adv-x="543" 
d="M291 690q-129 0 -140 152l41 4q4 -35 32 -56.5t67 -21.5q38 0 66 21.5t32 56.5l41 -4q-5 -74 -40.5 -113t-98.5 -39zM477 189h29q-8 -95 -18 -189h-459v29l35 5q28 6 28 34q4 254 0 507q0 29 -28 33l-36 6v29h467q-20 -166 -21 -173h-28q-35 66 -69 122q-13 20 -32 20
h-56q-25 0 -55 -9q-1 -87 -1 -252h82q20 0 36 19q26 30 42 53h29q3 -101 0 -204h-29q-34 66 -43 81q-13 22 -35 22h-82q0 -184 1 -282l115 -9q22 -3 37 18q47 67 91 140z" />
    <glyph glyph-name="ebreve" unicode="&#x115;" horiz-adv-x="489" 
d="M261 520q-129 0 -140 159l41 4q4 -39 31.5 -60t67.5 -21q39 0 66.5 21.5t31.5 59.5l41 -4q-9 -159 -139 -159zM429 229q-170 -2 -260 -1q12 -74 57 -115.5t111 -41.5q53 0 89 25l14 -20q-52 -87 -170 -87q-109 0 -170.5 66t-61.5 168q0 111 66 181.5t166 70.5
q88 0 138 -56.5t45 -150.5zM165 280q0 -15 1 -22l162 3q6 82 -15.5 132t-57.5 50q-39 0 -64.5 -45.5t-25.5 -117.5z" />
    <glyph glyph-name="Edotaccent" unicode="&#x116;" horiz-adv-x="543" 
d="M290 698q-39 0 -59.5 23.5t-20.5 54.5q0 27 21.5 52t59.5 25q35 0 58 -20.5t23 -55.5t-21 -57t-61 -22zM477 189h29q-8 -95 -18 -189h-459v29l35 5q28 6 28 34q4 254 0 507q0 29 -28 33l-36 6v29h467q-20 -166 -21 -173h-28q-35 66 -69 122q-13 20 -32 20h-56
q-25 0 -55 -9q-1 -87 -1 -252h82q20 0 36 19q26 30 42 53h29q3 -101 0 -204h-29q-34 66 -43 81q-13 22 -35 22h-82q0 -184 1 -282l115 -9q22 -3 37 18q47 67 91 140z" />
    <glyph glyph-name="edotaccent" unicode="&#x117;" horiz-adv-x="489" 
d="M259 540q-39 0 -59.5 23.5t-20.5 54.5q0 28 21.5 52.5t59.5 24.5q35 0 58 -20.5t23 -54.5q0 -35 -21 -57.5t-61 -22.5zM429 229q-170 -2 -260 -1q12 -74 57 -115.5t111 -41.5q53 0 89 25l14 -20q-52 -87 -170 -87q-109 0 -170.5 66t-61.5 168q0 111 66 181.5t166 70.5
q88 0 138 -56.5t45 -150.5zM165 280q0 -15 1 -22l162 3q6 82 -15.5 132t-57.5 50q-39 0 -64.5 -45.5t-25.5 -117.5z" />
    <glyph glyph-name="Eogonek" unicode="&#x118;" horiz-adv-x="544" 
d="M420 -161q29 0 51 20l19 -22q-50 -60 -126 -60q-49 0 -79 27.5t-30 70.5t31 75.5t79 45.5v4h-336v29l35 5q28 6 28 34q4 254 0 507q0 29 -28 33l-36 6v29h467q-20 -166 -21 -173h-28q-35 66 -69 122q-13 20 -32 20h-56q-25 0 -55 -9q-1 -87 -1 -252h82q20 0 36 19
q26 30 42 53h29q3 -101 0 -204h-29q-34 66 -43 81q-13 22 -35 22h-82q0 -184 1 -282l115 -9q22 -3 37 18q47 67 91 140h29q-8 -95 -18 -189h-42q-35 -4 -61.5 -33t-26.5 -67q0 -28 17 -44.5t45 -16.5z" />
    <glyph glyph-name="eogonek" unicode="&#x119;" horiz-adv-x="489" 
d="M454 266l-24 -38q-84 -1 -259 -1q13 -71 57 -111t109 -40q55 0 91 25l14 -20q-12 -21 -39 -45.5t-50 -42.5t-41 -45t-18 -56q0 -28 16 -46t45 -18q31 0 52 21l19 -19q-50 -62 -126 -62q-51 0 -80 28.5t-29 68.5q0 71 102 124v3q-13 -3 -24 -3q-109 0 -171 66.5t-62 169.5
q0 111 66.5 181t168.5 70q89 0 139 -57.5t44 -152.5zM166 282q0 -17 1 -25q54 0 158 2q7 84 -13.5 134.5t-55.5 50.5q-39 0 -64.5 -44t-25.5 -118z" />
    <glyph glyph-name="Ecaron" unicode="&#x11a;" horiz-adv-x="543" 
d="M270 692q-72 43 -138 126l25 23l133 -57l133 57l25 -23q-67 -85 -138 -126h-40zM477 189h29q-8 -95 -18 -189h-459v29l35 5q28 6 28 34q4 254 0 507q0 29 -28 33l-36 6v29h467q-20 -166 -21 -173h-28q-35 66 -69 122q-13 20 -32 20h-56q-25 0 -55 -9q-1 -87 -1 -252h82
q20 0 36 19q26 30 42 53h29q3 -101 0 -204h-29q-34 66 -43 81q-13 22 -35 22h-82q0 -184 1 -282l115 -9q22 -3 37 18q47 67 91 140z" />
    <glyph glyph-name="ecaron" unicode="&#x11b;" horiz-adv-x="489" 
d="M242 519q-71 67 -128 153l25 23l121 -72l121 72l25 -23q-57 -90 -127 -153h-37zM429 229q-170 -2 -260 -1q12 -74 57 -115.5t111 -41.5q53 0 89 25l14 -20q-52 -87 -170 -87q-109 0 -170.5 66t-61.5 168q0 111 66 181.5t166 70.5q88 0 138 -56.5t45 -150.5zM165 280
q0 -15 1 -22l162 3q6 82 -15.5 132t-57.5 50q-39 0 -64.5 -45.5t-25.5 -117.5z" />
    <glyph glyph-name="Gcircumflex" unicode="&#x11c;" horiz-adv-x="688" 
d="M362 746l-133 -57l-25 23q67 84 138 125h40q70 -39 138 -125l-25 -23zM401 313h266v-29l-23 -4q-25 -5 -25 -36q-2 -103 0 -207q-94 -48 -247 -48q-155 0 -244 90.5t-89 240.5q0 142 91.5 238t244.5 96q137 0 245 -37q-9 -111 -20 -194h-28q-3 6 -27.5 52t-37.5 67
q-56 83 -137 83q-86 0 -132.5 -82t-46.5 -205q0 -142 56.5 -231.5t138.5 -89.5q62 0 97 58q1 59 -1 167q0 32 -32 37l-49 5v29z" />
    <glyph glyph-name="gcircumflex" unicode="&#x11d;" horiz-adv-x="524" 
d="M249 584l-121 -72l-25 23q57 86 128 153h37q70 -63 127 -153l-25 -23zM507 412h-30.5h-34.5h-28q36 -42 36 -104q0 -69 -57.5 -115.5t-151.5 -46.5q-33 0 -71 7l-49 -70q57 1 168 1q114 0 161 -30t47 -92q0 -87 -71.5 -146t-183.5 -59q-76 0 -143 20.5t-104 56.5l101 137
h-14l-34 101l57 51t40 37q-55 19 -83 59t-27 93q0 69 57.5 116t151.5 47q91 0 144 -39q57 33 100 61h19q-1 -49 0 -85zM248 176q38 0 60 33.5t22 94.5q0 68 -25.5 104t-66.5 36q-38 0 -60 -32.5t-22 -93.5q0 -67 25 -104.5t67 -37.5zM444 -93q0 35 -43.5 50t-144.5 15h-128
l-43 -72q42 -29 113 -47.5t137 -18.5q109 0 109 73z" />
    <glyph glyph-name="Gbreve" unicode="&#x11e;" horiz-adv-x="688" 
d="M362 691q-129 0 -140 152l41 4q4 -35 32 -56.5t67 -21.5q38 0 66 21.5t32 56.5l41 -4q-5 -74 -40.5 -113t-98.5 -39zM401 313h266v-29l-23 -4q-25 -5 -25 -36q-2 -103 0 -207q-94 -48 -247 -48q-155 0 -244 90.5t-89 240.5q0 142 91.5 238t244.5 96q137 0 245 -37
q-9 -111 -20 -194h-28q-3 6 -27.5 52t-37.5 67q-56 83 -137 83q-86 0 -132.5 -82t-46.5 -205q0 -142 56.5 -231.5t138.5 -89.5q62 0 97 58q1 59 -1 167q0 32 -32 37l-49 5v29z" />
    <glyph glyph-name="gbreve" unicode="&#x11f;" horiz-adv-x="524" 
d="M250 521q-129 0 -140 159l41 4q4 -39 31.5 -60t67.5 -21q39 0 66.5 21.5t31.5 59.5l41 -4q-9 -159 -139 -159zM507 412h-30.5h-34.5h-28q36 -42 36 -104q0 -69 -57.5 -115.5t-151.5 -46.5q-33 0 -71 7l-49 -70q57 1 168 1q114 0 161 -30t47 -92q0 -87 -71.5 -146
t-183.5 -59q-76 0 -143 20.5t-104 56.5l101 137h-14l-34 101l57 51t40 37q-55 19 -83 59t-27 93q0 69 57.5 116t151.5 47q91 0 144 -39q57 33 100 61h19q-1 -49 0 -85zM248 176q38 0 60 33.5t22 94.5q0 68 -25.5 104t-66.5 36q-38 0 -60 -32.5t-22 -93.5q0 -67 25 -104.5
t67 -37.5zM444 -93q0 35 -43.5 50t-144.5 15h-128l-43 -72q42 -29 113 -47.5t137 -18.5q109 0 109 73z" />
    <glyph glyph-name="Gdotaccent" unicode="&#x120;" horiz-adv-x="688" 
d="M361 699q-39 0 -59.5 23.5t-20.5 54.5q0 27 21.5 52t59.5 25q35 0 58 -20.5t23 -55.5t-21 -57t-61 -22zM401 313h266v-29l-23 -4q-25 -5 -25 -36q-2 -103 0 -207q-94 -48 -247 -48q-155 0 -244 90.5t-89 240.5q0 142 91.5 238t244.5 96q137 0 245 -37q-9 -111 -20 -194
h-28q-3 6 -27.5 52t-37.5 67q-56 83 -137 83q-86 0 -132.5 -82t-46.5 -205q0 -142 56.5 -231.5t138.5 -89.5q62 0 97 58q1 59 -1 167q0 32 -32 37l-49 5v29z" />
    <glyph glyph-name="gdotaccent" unicode="&#x121;" horiz-adv-x="524" 
d="M248 541q-39 0 -59.5 23.5t-20.5 54.5q0 28 21.5 52.5t59.5 24.5q35 0 58 -20.5t23 -54.5q0 -35 -21 -57.5t-61 -22.5zM507 412h-30.5h-34.5h-28q36 -42 36 -104q0 -69 -57.5 -115.5t-151.5 -46.5q-33 0 -71 7l-49 -70q57 1 168 1q114 0 161 -30t47 -92q0 -87 -71.5 -146
t-183.5 -59q-76 0 -143 20.5t-104 56.5l101 137h-14l-34 101l57 51t40 37q-55 19 -83 59t-27 93q0 69 57.5 116t151.5 47q91 0 144 -39q57 33 100 61h19q-1 -49 0 -85zM248 176q38 0 60 33.5t22 94.5q0 68 -25.5 104t-66.5 36q-38 0 -60 -32.5t-22 -93.5q0 -67 25 -104.5
t67 -37.5zM444 -93q0 35 -43.5 50t-144.5 15h-128l-43 -72q42 -29 113 -47.5t137 -18.5q109 0 109 73z" />
    <glyph glyph-name="uni0122" unicode="&#x122;" horiz-adv-x="688" 
d="M401 313h266v-29l-23 -4q-25 -5 -25 -36q-2 -103 0 -207q-94 -48 -247 -48q-155 0 -244 90.5t-89 240.5q0 142 91.5 238t244.5 96q137 0 245 -37q-9 -111 -20 -194h-28q-3 6 -27.5 52t-37.5 67q-56 83 -137 83q-86 0 -132.5 -82t-46.5 -205q0 -142 56.5 -231.5
t138.5 -89.5q62 0 97 58q1 59 -1 167q0 32 -32 37l-49 5v29zM354 -57q32 -2 53 -25.5t21 -64.5q1 -57 -39.5 -114.5t-112.5 -98.5l-18 27q87 56 108 116l-32 20q-57 33 -55 73q1 31 23 50t52 17z" />
    <glyph glyph-name="uni0123" unicode="&#x123;" horiz-adv-x="524" 
d="M236 517q-32 1 -53 24.5t-21 64.5q0 58 40.5 115t111.5 98l18 -27q-88 -57 -108 -116l32 -19q57 -34 55 -74q-1 -31 -23 -49.5t-52 -16.5zM507 412h-30.5h-34.5h-28q36 -42 36 -104q0 -69 -57.5 -115.5t-151.5 -46.5q-33 0 -71 7l-49 -70q57 1 168 1q114 0 161 -30
t47 -92q0 -87 -71.5 -146t-183.5 -59q-76 0 -143 20.5t-104 56.5l101 137h-14l-34 101l57 51t40 37q-55 19 -83 59t-27 93q0 69 57.5 116t151.5 47q91 0 144 -39q57 33 100 61h19q-1 -49 0 -85zM248 176q38 0 60 33.5t22 94.5q0 68 -25.5 104t-66.5 36q-38 0 -60 -32.5
t-22 -93.5q0 -67 25 -104.5t67 -37.5zM444 -93q0 35 -43.5 50t-144.5 15h-128l-43 -72q42 -29 113 -47.5t137 -18.5q109 0 109 73z" />
    <glyph glyph-name="Hcircumflex" unicode="&#x124;" horiz-adv-x="739" 
d="M368 745l-133 -57l-25 23q67 84 138 125h40q70 -39 138 -125l-25 -23zM675 608q-29 -6 -29 -33q-3 -254 0 -508q0 -27 29 -33l36 -5v-29h-275v29l39 5q29 6 29 33q2 170 1 255q-136 -1 -271 0q0 -170 1 -255q1 -27 30 -33l38 -5v-29h-275v29l37 5q28 6 28 33q3 253 0 508
q0 27 -28 33l-37 6v29h275v-29l-39 -6q-27 -4 -29 -33q0 -37 -0.5 -110t-0.5 -109q136 -1 271 0q0 146 -1 219q0 28 -29 33l-39 6v29h275v-29z" />
    <glyph glyph-name="hcircumflex" unicode="&#x125;" horiz-adv-x="573" 
d="M286 837l-133 -57l-25 23q67 84 138 125h40q70 -39 138 -125l-25 -23zM531 31l24 -5v-26h-243v26l29 5q27 6 28 38q1 89 -1 253q0 88 -67 88q-39 0 -96 -41q0 -201 2 -300q0 -30 27 -38l30 -5v-26h-243v26l24 5q26 7 26 38q3 231 -1 552q0 29 -26 34q-30 4 -45 7v26
q65 11 183 36h24q-1 -106 -1 -315l29 17q82 50 142 50q58 0 93 -36.5t35 -97.5q-1 -133 0 -273q0 -30 27 -38z" />
    <glyph glyph-name="Hbar" unicode="&#x126;" horiz-adv-x="741" 
d="M675 608q-28 -6 -29 -33v-81q10 0 30.5 0.5t30.5 0.5v-37h-62q0 -260 1 -391q1 -27 29 -33l36 -5v-29h-274v29l38 5q29 6 30 33q1 85 1 255q-136 -1 -271 0q-1 -85 1 -255q0 -27 29 -33l39 -5v-29h-275v29l36 5q29 6 29 33q3 173 1 390q-22 1 -67 1v37q11 0 33.5 -0.5
t33.5 -0.5q0 14 -0.5 41t-0.5 40q0 27 -29 33l-36 6v29h275v-29l-39 -6q-29 -5 -29 -33q0 -13 -0.5 -41t-0.5 -41h270v82q-2 29 -30 33l-38 6v29h274v-29zM506 356v101q-136 -1 -271 0v-101q135 -1 271 0z" />
    <glyph glyph-name="hbar" unicode="&#x127;" horiz-adv-x="574" 
d="M531 31l24 -5v-26h-243v26l30 5q27 7 27 38q1 131 0 253q-1 88 -68 88q-37 0 -95 -40q0 -251 1 -301q0 -30 27 -38l30 -5v-26h-243v26l24 5q26 7 27 38q1 149 -1 468h-70v30h70v54q-2 29 -27 34q-34 5 -44 7v26q69 11 182 36h24v-158q24 0 72 0.5t73 0.5v-30
q-25 0 -73 -0.5t-72 -0.5v-127l28 17q84 50 142 50q59 0 94 -36.5t34 -97.5q-1 -133 0 -273q0 -30 27 -38z" />
    <glyph glyph-name="Itilde" unicode="&#x128;" horiz-adv-x="329" 
d="M36 697l-30 2q0 44 20.5 82.5t59.5 38.5q26 0 94 -21t99 -21l14 43l31 -2q0 -44 -20 -82t-60 -38q-26 0 -94 21t-99 21zM28 0v28l36 5q28 5 28 34q3 254 0 509q0 29 -28 34l-36 6v28h272v-28l-35 -6q-28 -5 -28 -34q-3 -255 0 -509q0 -29 28 -34l35 -5v-28h-272z" />
    <glyph glyph-name="itilde" unicode="&#x129;" horiz-adv-x="282" 
d="M9 533l-27 1q0 45 20 84t60 39q26 0 91 -20.5t94 -26.5l23 46l28 -2q0 -45 -20 -83.5t-60 -38.5q-27 0 -95.5 20.5t-89.5 25.5zM23 26l24 5q26 7 27 38q2 150 0 308q-1 32 -27 38q-6 1 -17.5 2.5t-16.5 2.5v25q169 30 173 31l24 -1q-2 -272 -1 -406q0 -29 27 -38l24 -5
v-26h-237v26z" />
    <glyph glyph-name="Imacron" unicode="&#x12a;" horiz-adv-x="329" 
d="M27 785h275v-76h-275v76zM28 0v28l36 5q28 5 28 34q3 254 0 509q0 29 -28 34l-36 6v28h272v-28l-35 -6q-28 -5 -28 -34q-3 -255 0 -509q0 -29 28 -34l35 -5v-28h-272z" />
    <glyph glyph-name="imacron" unicode="&#x12b;" horiz-adv-x="282" 
d="M23 632h232v-82h-232v82zM23 26l24 5q26 7 27 38q2 150 0 308q-1 32 -27 38q-6 1 -17.5 2.5t-16.5 2.5v25q169 30 173 31l24 -1q-2 -272 -1 -406q0 -29 27 -38l24 -5v-26h-237v26z" />
    <glyph glyph-name="Ibreve" unicode="&#x12c;" horiz-adv-x="329" 
d="M165 691q-129 0 -140 152l41 4q4 -35 32 -56.5t67 -21.5q38 0 66 21.5t32 56.5l41 -4q-5 -74 -40.5 -113t-98.5 -39zM28 0v28l36 5q28 5 28 34q3 254 0 509q0 29 -28 34l-36 6v28h272v-28l-35 -6q-28 -5 -28 -34q-3 -255 0 -509q0 -29 28 -34l35 -5v-28h-272z" />
    <glyph glyph-name="ibreve" unicode="&#x12d;" horiz-adv-x="282" 
d="M140 521q-57 0 -89 40.5t-34 118.5l41 2q2 -38 25.5 -59.5t56.5 -21.5t56.5 21.5t24.5 59.5l41 -2q-2 -78 -33.5 -118.5t-88.5 -40.5zM23 26l24 5q26 7 27 38q2 150 0 308q-1 32 -27 38q-6 1 -17.5 2.5t-16.5 2.5v25q169 30 173 31l24 -1q-2 -272 -1 -406q0 -29 27 -38
l24 -5v-26h-237v26z" />
    <glyph glyph-name="Iogonek" unicode="&#x12e;" horiz-adv-x="329" 
d="M265 610q-28 -5 -28 -34q-3 -255 0 -509q0 -29 28 -34l35 -5v-28h-43q-36 -4 -62.5 -33t-26.5 -67q0 -28 17 -44.5t46 -16.5t51 20l18 -22q-50 -60 -125 -60q-49 0 -79.5 27.5t-30.5 70.5q0 42 30.5 74.5t78.5 45.5v5h-146v28l36 5q28 5 28 34q3 254 0 509q0 29 -28 34
l-36 6v28h272v-28z" />
    <glyph glyph-name="iogonek" unicode="&#x12f;" horiz-adv-x="281" 
d="M138 541q-39 0 -59.5 23.5t-20.5 54.5q0 28 21.5 52.5t59.5 24.5q35 0 58 -20.5t23 -54.5q0 -35 -21 -57.5t-61 -22.5zM243 -141l18 -22q-50 -60 -125 -60q-49 0 -79.5 27.5t-30.5 70.5q0 42 30.5 74.5t78.5 45.5v5h-112v26l24 5q26 7 27 38q2 150 0 308q-1 32 -27 38
q-6 1 -17.5 2.5t-16.5 2.5v25q169 30 173 31l24 -1q-2 -272 -1 -406q0 -29 27 -38l24 -5v-26h-42q-36 -4 -62.5 -33t-26.5 -67q0 -28 17 -44.5t46 -16.5t51 20zM155 0h1h-1z" />
    <glyph glyph-name="Idotaccent" unicode="&#x130;" horiz-adv-x="329" 
d="M164 699q-39 0 -59.5 23.5t-20.5 54.5q0 27 21.5 52t59.5 25q35 0 58 -20.5t23 -55.5t-21 -57t-61 -22zM28 0v28l36 5q28 5 28 34q3 254 0 509q0 29 -28 34l-36 6v28h272v-28l-35 -6q-28 -5 -28 -34q-3 -255 0 -509q0 -29 28 -34l35 -5v-28h-272z" />
    <glyph glyph-name="dotlessi" unicode="&#x131;" horiz-adv-x="282" 
d="M23 26l24 5q26 7 27 38q2 150 0 308q-1 32 -27 38q-6 1 -17.5 2.5t-16.5 2.5v25q169 30 173 31l24 -1q-2 -272 -1 -406q0 -29 27 -38l24 -5v-26h-237v26z" />
    <glyph glyph-name="IJ" unicode="&#x132;" horiz-adv-x="651" 
d="M28 197v28l36 6q28 4 28 34q3 155 0 311q0 29 -28 34l-36 6v28h272v-28l-35 -6q-28 -5 -28 -34q-3 -156 0 -311q0 -29 28 -34l35 -6v-28h-272zM329 -32q-102 0 -186 9q4 125 7 187h28l78 -115q36 -50 80 -50q43 0 62 43.5t20 129.5q1 198 0 402q0 31 -28 36l-43 6v28h280
v-28l-36 -6q-28 -6 -28 -36v-369q1 -113 -62.5 -175t-171.5 -62z" />
    <glyph glyph-name="ij" unicode="&#x133;" horiz-adv-x="575" 
d="M139 541q-39 0 -59.5 23.5t-20.5 54.5q0 28 21.5 52.5t59.5 24.5q35 0 58 -20.5t23 -54.5q0 -35 -21 -57.5t-61 -22.5zM431 541q-39 0 -59.5 23.5t-20.5 54.5q0 28 21.5 52.5t59.5 24.5q35 0 58 -20.5t23 -54.5q0 -35 -21 -57.5t-61 -22.5zM23 26l24 5q26 7 27 38
q2 150 0 308q-1 32 -27 38q-6 1 -17.5 2.5t-16.5 2.5v25q169 30 173 31l24 -1q-2 -272 -1 -406q0 -29 27 -38l24 -5v-26h-237v26zM286 -215q46 11 62.5 55.5t17.5 135.5q2 204 0 398q0 37 -25 41q-15 2 -47 4v26q22 4 85.5 14t98.5 17l24 -1q-1 -136 -1 -428
q1 -139 -53.5 -204.5t-157.5 -79.5z" />
    <glyph glyph-name="Jcircumflex" unicode="&#x134;" horiz-adv-x="478" 
d="M317 746l-133 -57l-25 23q67 84 138 125h40q70 -39 138 -125l-25 -23zM174 616v28h281v-28l-37 -6q-27 -6 -28 -36q-1 -179 0 -354q1 -113 -53.5 -172.5t-153.5 -59.5q-77 0 -171 28q5 160 7 207h27q34 -74 89 -175q13 -32 46 -32q62 0 64 172q2 189 0 386q0 30 -28 36z
" />
    <glyph glyph-name="jcircumflex" unicode="&#x135;" horiz-adv-x="293" 
d="M168 688q66 -60 111 -153l-24 -22l-105 65l-105 -65l-25 22q47 94 112 153h36zM196 476l24 -1q-1 -136 -1 -428q1 -139 -53.5 -204.5t-157.5 -79.5l-4 22q46 11 62.5 55.5t17.5 135.5q2 204 0 398q0 37 -25 41q-15 2 -47 4v26q22 4 85.5 14t98.5 17z" />
    <glyph glyph-name="uni0136" unicode="&#x136;" horiz-adv-x="660" 
d="M300 28v-28h-272v28l36 5q28 5 28 34q3 254 0 509q0 29 -28 34l-36 6v28h272v-28l-35 -6q-28 -5 -28 -34q-3 -255 0 -509q0 -29 28 -34zM634 35l27 -6v-29h-182l-206 343l150 156q22 22 13 50l-24 66v28h217v-29l-68 -48q-27 -20 -50 -41l-118 -114l209 -353
q11 -18 32 -23zM338 -57q32 -2 53 -25.5t21 -64.5q1 -57 -39.5 -114.5t-112.5 -98.5l-18 27q87 56 108 116l-32 20q-57 33 -55 73q1 31 23 50t52 17z" />
    <glyph glyph-name="uni0137" unicode="&#x137;" horiz-adv-x="576" 
d="M45 31q26 7 26 38q3 245 -1 550q0 30 -26 36q-7 1 -22 3.5t-23 3.5v26q132 24 183 34h24q-1 -223 1 -653q0 -33 26 -38l32 -5v-26h-244v26zM546 31l22 -5v-26h-176l-161 278l141 96l-58 70v21h215v-27l-169 -113l159 -271q9 -18 27 -23zM299 -57q32 -2 53 -25.5t21 -64.5
q1 -57 -39.5 -114.5t-112.5 -98.5l-18 27q87 56 108 116l-32 20q-57 33 -55 73q1 31 23 50t52 17z" />
    <glyph glyph-name="Lacute" unicode="&#x139;" horiz-adv-x="517" 
d="M118 698l-13 28l165 119l98 -46v-30q-97 -60 -250 -71zM31 0v29l32 6q29 6 29 37q3 255 0 502q0 30 -28 34l-36 6v29h273v-29l-39 -6q-28 -6 -28 -34q-3 -254 0 -532l105 -8q23 -2 35 19q47 77 96 168h29q-8 -81 -23 -221h-445z" />
    <glyph glyph-name="lacute" unicode="&#x13a;" horiz-adv-x="277" 
d="M75 782l-13 28l165 119l98 -46v-30q-97 -60 -250 -71zM21 0v26l24 5q27 7 27 38q3 244 -1 550q0 30 -27 36q-35 5 -45 7v26q100 18 183 36h24q-1 -226 1 -655q0 -31 26 -38l25 -5v-26h-237z" />
    <glyph glyph-name="uni013B" unicode="&#x13b;" horiz-adv-x="517" 
d="M31 0v29l32 6q29 6 29 37q3 255 0 502q0 30 -28 34l-36 6v29h273v-29l-39 -6q-28 -6 -28 -34q-3 -254 0 -532l105 -8q23 -2 35 19q47 77 96 168h29q-8 -81 -23 -221h-445zM190 -360l-18 27q87 56 108 116l-32 20q-57 33 -55 73q1 31 23 50t52 17q32 -2 53 -25.5t21 -64.5
q1 -57 -39.5 -114.5t-112.5 -98.5z" />
    <glyph glyph-name="uni013C" unicode="&#x13c;" horiz-adv-x="276" 
d="M21 0v26l24 5q27 7 27 38q3 244 -1 550q0 30 -27 36q-35 5 -45 7v26q100 18 183 36h24q-1 -226 1 -655q0 -31 26 -38l25 -5v-26h-237zM76 -360l-17 27q86 56 108 116l-32 20q-59 33 -55 73q1 31 22.5 50t52.5 17t52.5 -25.5t21.5 -64.5q0 -57 -41 -114.5t-112 -98.5z" />
    <glyph glyph-name="Lcaron" unicode="&#x13d;" horiz-adv-x="517" 
d="M373 483l-16 24q78 51 97 104l-29 17q-51 31 -49 66q1 28 20 44.5t47 14.5q28 -1 47 -22t19 -57q1 -52 -35.5 -103t-100.5 -88zM31 0v29l32 6q29 6 29 37q3 255 0 502q0 30 -28 34l-36 6v29h273v-29l-39 -6q-28 -6 -28 -34q-3 -254 0 -532l105 -8q23 -2 35 19
q47 77 96 168h29q-8 -81 -23 -221h-445z" />
    <glyph glyph-name="lcaron" unicode="&#x13e;" horiz-adv-x="404" 
d="M281 461l-16 24q78 51 97 104l-29 17q-51 31 -49 66q1 28 20 44.5t47 14.5q28 -1 47 -22t19 -57q1 -52 -35.5 -103t-100.5 -88zM21 0v26l24 5q27 7 27 38q3 244 -1 550q0 30 -27 36q-35 5 -45 7v26q100 18 183 36h24q-1 -226 1 -655q0 -31 26 -38l25 -5v-26h-237z" />
    <glyph glyph-name="Ldot" unicode="&#x13f;" horiz-adv-x="519" 
d="M31 0v29l32 6q29 6 29 37q3 255 0 502q0 30 -28 34l-36 6v29h273v-29l-39 -6q-28 -6 -28 -34q-3 -254 0 -532l105 -8q23 -2 35 19q47 77 96 168h29q-8 -81 -23 -221h-445zM409 323q-36 0 -56 22t-20 52q0 27 20.5 50t55.5 23q33 0 55.5 -20.5t22.5 -51.5q0 -32 -21 -53.5
t-57 -21.5z" />
    <glyph glyph-name="ldot" unicode="&#x140;" horiz-adv-x="385" 
d="M21 0v26l24 5q27 7 27 38q3 244 -1 550q0 30 -27 36q-35 5 -45 7v26q100 18 183 36h24q-1 -226 1 -655q0 -31 26 -38l25 -5v-26h-237zM331 280q-36 0 -56 22t-20 51q0 28 20.5 50.5t55.5 22.5q33 0 55.5 -20t22.5 -52t-21 -53t-57 -21z" />
    <glyph glyph-name="Lslash" unicode="&#x141;" horiz-adv-x="520" 
d="M470 221h29q-14 -148 -23 -221h-445v29l32 6q29 5 30 37q0 31 0.5 94.5t0.5 95.5l-66 -41v35l66 41q0 188 -1 277q-2 30 -28 34l-36 6v29h272v-29l-39 -6q-27 -6 -28 -34q0 -30 -0.5 -93t-0.5 -96l144 91v-35l-144 -91q0 -204 1 -308l105 -8q24 -2 35 19q39 62 96 168z
" />
    <glyph glyph-name="lslash" unicode="&#x142;" horiz-adv-x="276" 
d="M273 476v-35l-67 -42q0 -218 1 -330q0 -31 26 -38l25 -5v-26h-237v26l24 5q27 7 27 38q1 79 1 246l-70 -44v35l70 44q0 103 -2 269q0 30 -27 36q-35 5 -45 7v26q100 18 183 36h24v-290z" />
    <glyph glyph-name="Nacute" unicode="&#x143;" horiz-adv-x="673" 
d="M527 770q-97 -60 -250 -71l-13 28l165 119l98 -46v-30zM447 644h200v-28l-23.5 -57.5t-26.5 -62.5q-12 -24 -12 -55v-445h-130l-333 571v-351q0 -28 20 -55q10 -13 29 -41.5l35.5 -51.5l29.5 -40v-28h-204v28q8 18 24 61.5t24 61.5q12 27 12 64v386q-9 5 -19 6l-45 9v28
h217l310 -541v333q0 33 -19 57l-42 58.5t-48 64.5z" />
    <glyph glyph-name="nacute" unicode="&#x144;" horiz-adv-x="576" 
d="M459 633q-80 -75 -222 -115l-17 24l132 143l100 -25zM533 31l24 -5v-26h-243v26l29 5q27 7 27 38q2 88 0 252q0 89 -67 89q-38 0 -93 -39q-2 -202 -1 -302q0 -31 28 -38l29 -5v-26h-243v26l24 5q26 8 26 38q3 151 0 310q0 30 -29 36l-31 4v26q48 8 164 30h20l9 -68l30 18
q86 51 142 51q59 0 94 -36.5t34 -97.5v-85v-100.5v-87.5q0 -29 27 -38z" />
    <glyph glyph-name="uni0145" unicode="&#x145;" horiz-adv-x="673" 
d="M447 644h200v-28l-23.5 -57.5t-26.5 -62.5q-12 -24 -12 -55v-445h-130l-333 571v-351q0 -28 20 -55q10 -13 29 -41.5l35.5 -51.5l29.5 -40v-28h-204v28q8 18 24 61.5t24 61.5q12 27 12 64v386q-9 5 -19 6l-45 9v28h217l310 -541v333q0 33 -19 57l-42 58.5t-48 64.5z
M348 -57q32 -2 53 -25.5t21 -64.5q1 -57 -39.5 -114.5t-112.5 -98.5l-18 27q87 56 108 116l-32 20q-57 33 -55 73q1 31 23 50t52 17z" />
    <glyph glyph-name="uni0146" unicode="&#x146;" horiz-adv-x="576" 
d="M533 31l24 -5v-26h-243v26l29 5q27 7 27 38q2 88 0 252q0 89 -67 89q-38 0 -93 -39q-2 -202 -1 -302q0 -31 28 -38l29 -5v-26h-243v26l24 5q26 8 26 38q3 151 0 310q0 30 -29 36l-31 4v26q48 8 164 30h20l9 -68l30 18q86 51 142 51q59 0 94 -36.5t34 -97.5v-85v-100.5
v-87.5q0 -29 27 -38zM299 -57q32 -2 53 -25.5t21 -64.5q1 -57 -39.5 -114.5t-112.5 -98.5l-18 27q87 56 108 116l-32 20q-57 33 -55 73q1 31 23 50t52 17z" />
    <glyph glyph-name="Ncaron" unicode="&#x147;" horiz-adv-x="673" 
d="M320 693q-72 43 -138 126l25 23l133 -57l133 57l25 -23q-67 -85 -138 -126h-40zM447 644h200v-28l-23.5 -57.5t-26.5 -62.5q-12 -24 -12 -55v-445h-130l-333 571v-351q0 -28 20 -55q10 -13 29 -41.5l35.5 -51.5l29.5 -40v-28h-204v28q8 18 24 61.5t24 61.5q12 27 12 64
v386q-9 5 -19 6l-45 9v28h217l310 -541v333q0 33 -19 57l-42 58.5t-48 64.5z" />
    <glyph glyph-name="ncaron" unicode="&#x148;" horiz-adv-x="576" 
d="M271 520q-71 67 -128 153l25 23l121 -72l121 72l25 -23q-57 -90 -127 -153h-37zM533 31l24 -5v-26h-243v26l29 5q27 7 27 38q2 88 0 252q0 89 -67 89q-38 0 -93 -39q-2 -202 -1 -302q0 -31 28 -38l29 -5v-26h-243v26l24 5q26 8 26 38q3 151 0 310q0 30 -29 36l-31 4v26
q48 8 164 30h20l9 -68l30 18q86 51 142 51q59 0 94 -36.5t34 -97.5v-85v-100.5v-87.5q0 -29 27 -38z" />
    <glyph glyph-name="Eng" unicode="&#x14a;" horiz-adv-x="672" 
d="M447 644h200v-28l-23.5 -57.5t-26.5 -62.5q-12 -24 -12 -55v-481q0 -102 -44 -157.5t-122 -55.5q-77 0 -157 36l3 173h28l75 -145q15 -35 50 -35q64 0 100 46t36 132v42h-99l-333 571v-351q0 -28 20 -55q10 -13 29 -41.5l35.5 -51.5l29.5 -40v-28h-204v28q8 18 24 61.5
t24 61.5q12 27 12 64v386q-9 5 -19 6l-45 9v28h217l309 -539v3h1v328q0 33 -19 57l-42 58.5t-48 64.5z" />
    <glyph glyph-name="eng" unicode="&#x14b;" horiz-adv-x="583" 
d="M506 342q-2 -148 0 -299q0 -140 -54.5 -205.5t-157.5 -79.5l-5 22q47 11 64 56.5t18 136.5q2 175 0 349q-1 88 -68 88q-39 0 -94 -38q-2 -203 0 -303q0 -32 27 -38l30 -5v-26h-243v26l24 5q26 7 26 38q3 151 0 310q0 33 -29 37l-31 3v26q73 12 164 31h20l8 -68l31 18
q86 51 142 51q58 0 93 -37t35 -98z" />
    <glyph glyph-name="Omacron" unicode="&#x14c;" horiz-adv-x="729" 
d="M227 790h275v-76h-275v76zM363 -11q-156 0 -240 94t-84 237q0 141 87 238t240 97q156 0 240 -94t84 -238q0 -141 -86.5 -237.5t-240.5 -96.5zM377 20q56 0 93.5 44t52.5 106t15 135q0 148 -53.5 233.5t-132.5 85.5q-56 0 -93.5 -44.5t-52 -106t-15.5 -135.5
q0 -148 53.5 -233t132.5 -85z" />
    <glyph glyph-name="omacron" unicode="&#x14d;" horiz-adv-x="551" 
d="M142 625h265v-82h-265v82zM275 -11q-117 0 -177 67.5t-60 173.5q0 104 61.5 174.5t177.5 70.5q115 0 175.5 -66t60.5 -173q0 -106 -61 -176.5t-177 -70.5zM282 19q44 0 68.5 52t24.5 148q0 102 -29 164t-78 62q-44 0 -68.5 -52t-24.5 -148q0 -102 29 -164t78 -62z" />
    <glyph glyph-name="Obreve" unicode="&#x14e;" horiz-adv-x="729" 
d="M365 696q-129 0 -140 152l41 4q4 -35 32 -56.5t67 -21.5q38 0 66 21.5t32 56.5l41 -4q-5 -74 -40.5 -113t-98.5 -39zM363 -11q-156 0 -240 94t-84 237q0 141 87 238t240 97q156 0 240 -94t84 -238q0 -141 -86.5 -237.5t-240.5 -96.5zM377 20q56 0 93.5 44t52.5 106
t15 135q0 148 -53.5 233.5t-132.5 85.5q-56 0 -93.5 -44.5t-52 -106t-15.5 -135.5q0 -148 53.5 -233t132.5 -85z" />
    <glyph glyph-name="obreve" unicode="&#x14f;" horiz-adv-x="551" 
d="M276 520q-129 0 -140 159l41 4q4 -39 31.5 -60t67.5 -21q39 0 66.5 21.5t31.5 59.5l41 -4q-9 -159 -139 -159zM275 -11q-117 0 -177 67.5t-60 173.5q0 104 61.5 174.5t177.5 70.5q115 0 175.5 -66t60.5 -173q0 -106 -61 -176.5t-177 -70.5zM282 19q44 0 68.5 52t24.5 148
q0 102 -29 164t-78 62q-44 0 -68.5 -52t-24.5 -148q0 -102 29 -164t78 -62z" />
    <glyph glyph-name="Ohungarumlaut" unicode="&#x150;" horiz-adv-x="729" 
d="M281 689l-18 21l116 148l99 -16l8 -26q-74 -80 -205 -127zM459 689l-19 21l117 148l98 -16l8 -27q-72 -78 -204 -126zM363 -11q-156 0 -240 94t-84 237q0 141 87 238t240 97q156 0 240 -94t84 -238q0 -141 -86.5 -237.5t-240.5 -96.5zM377 20q56 0 93.5 44t52.5 106
t15 135q0 148 -53.5 233.5t-132.5 85.5q-56 0 -93.5 -44.5t-52 -106t-15.5 -135.5q0 -148 53.5 -233t132.5 -85z" />
    <glyph glyph-name="ohungarumlaut" unicode="&#x151;" horiz-adv-x="551" 
d="M187 517l-21 20l100 162l101 -6l11 -25q-63 -87 -191 -151zM360 518l-21 19l100 162l101 -5l12 -26q-65 -86 -192 -150zM275 -11q-117 0 -177 67.5t-60 173.5q0 104 61.5 174.5t177.5 70.5q115 0 175.5 -66t60.5 -173q0 -106 -61 -176.5t-177 -70.5zM282 19q44 0 68.5 52
t24.5 148q0 102 -29 164t-78 62q-44 0 -68.5 -52t-24.5 -148q0 -102 29 -164t78 -62z" />
    <glyph glyph-name="OE" unicode="&#x152;" horiz-adv-x="989" 
d="M925 192h28q-7 -96 -18 -192h-453v9q-54 -20 -119 -20q-156 0 -240 94t-84 237q0 141 87 238t240 97q65 0 116 -18v7h461q-14 -116 -22 -174h-28q-41 74 -73 124q-13 20 -31 20h-54q-18 0 -54 -9q-1 -87 -1 -254h78q21 0 37 19l44 54h29q1 -103 0 -206h-29l-46 83
q-11 21 -35 21h-78q0 -46 0.5 -140t0.5 -144l112 -8q21 -1 36 19q53 75 96 143zM377 20q56 0 93.5 44t52.5 106t15 135q0 148 -53.5 233.5t-132.5 85.5q-56 0 -93.5 -44.5t-52 -106t-15.5 -135.5q0 -148 53.5 -233t132.5 -85z" />
    <glyph glyph-name="oe" unicode="&#x153;" horiz-adv-x="835" 
d="M797 266l-23 -38q-84 -1 -259 -1q13 -71 57 -111t110 -40q54 0 90 25l13 -20q-50 -92 -172 -92q-105 0 -168 63q-63 -63 -168 -63q-117 0 -178 67.5t-61 173.5q0 105 62 175.5t178 70.5q111 0 173 -65q65 65 162 65q90 0 140 -57.5t44 -152.5zM284 19q43 0 67 52.5
t24 148.5q0 102 -28.5 164t-76.5 62q-43 0 -67 -52.5t-24 -148.5q0 -102 28.5 -164t76.5 -62zM510 284v-11q1 -6 1 -16q54 0 158 2q7 84 -13.5 134.5t-56.5 50.5q-39 0 -64 -44.5t-25 -115.5z" />
    <glyph glyph-name="Racute" unicode="&#x154;" horiz-adv-x="625" 
d="M497 769q-97 -60 -250 -71l-13 28l165 119l98 -46v-30zM619 33l19 -4v-29h-183l-166 293h-55q0 -151 1 -222q0 -30 29 -35l44 -7v-29h-276v29l32 5q29 6 29 34q2 173 0 506q0 28 -29 34l-36 6v29h299q110 0 170 -42t60 -117q0 -57 -35 -102t-95 -69l160 -258
q12 -18 32 -22zM235 608q-2 -184 -1 -282q31 -3 67 -3q50 0 79.5 38.5t29.5 109.5q0 63 -32.5 103t-87.5 40q-19 0 -55 -6z" />
    <glyph glyph-name="racute" unicode="&#x155;" horiz-adv-x="421" 
d="M376 632q-80 -75 -222 -115l-17 24l132 143l100 -25zM346 476q36 0 52 -24l-37 -176h-34q-17 63 -29 100q-5 16 -17.5 20.5t-25.5 -3.5q-14 -8 -49 -37q-2 -136 0 -284q0 -32 28 -37l53 -9v-26h-264v26l24 5q27 9 27 38q1 154 0 308q0 31 -29 37l-31 3l-1 27
q82 14 159 31h21l10 -82q16 14 32 26q67 57 111 57z" />
    <glyph glyph-name="uni0156" unicode="&#x156;" horiz-adv-x="625" 
d="M619 33l19 -4v-29h-183l-166 293h-55q0 -151 1 -222q0 -30 29 -35l44 -7v-29h-276v29l32 5q29 6 29 34q2 173 0 506q0 28 -29 34l-36 6v29h299q110 0 170 -42t60 -117q0 -57 -35 -102t-95 -69l160 -258q12 -18 32 -22zM235 608q-2 -184 -1 -282q31 -3 67 -3
q50 0 79.5 38.5t29.5 109.5q0 63 -32.5 103t-87.5 40q-19 0 -55 -6zM320 -57q32 -2 53 -25.5t21 -64.5q1 -57 -39.5 -114.5t-112.5 -98.5l-18 27q87 56 108 116l-32 20q-57 33 -55 73q1 31 23 50t52 17z" />
    <glyph glyph-name="uni0157" unicode="&#x157;" horiz-adv-x="421" 
d="M346 476q36 0 52 -24l-37 -176h-34q-17 63 -29 100q-5 16 -17.5 20.5t-25.5 -3.5q-14 -8 -49 -37q-2 -136 0 -284q0 -32 28 -37l53 -9v-26h-264v26l24 5q27 9 27 38q1 154 0 308q0 31 -29 37l-31 3l-1 27q82 14 159 31h21l10 -82q16 14 32 26q67 57 111 57zM148 -57
q32 -2 53 -25.5t21 -64.5q1 -57 -39.5 -114.5t-112.5 -98.5l-18 27q87 56 108 116l-32 20q-57 33 -55 73q1 31 23 50t52 17z" />
    <glyph glyph-name="Rcaron" unicode="&#x158;" horiz-adv-x="625" 
d="M290 692q-72 43 -138 126l25 23l133 -57l133 57l25 -23q-67 -85 -138 -126h-40zM619 33l19 -4v-29h-183l-166 293h-55q0 -151 1 -222q0 -30 29 -35l44 -7v-29h-276v29l32 5q29 6 29 34q2 173 0 506q0 28 -29 34l-36 6v29h299q110 0 170 -42t60 -117q0 -57 -35 -102
t-95 -69l160 -258q12 -18 32 -22zM235 608q-2 -184 -1 -282q31 -3 67 -3q50 0 79.5 38.5t29.5 109.5q0 63 -32.5 103t-87.5 40q-19 0 -55 -6z" />
    <glyph glyph-name="rcaron" unicode="&#x159;" horiz-adv-x="421" 
d="M188 519q-71 67 -128 153l25 23l121 -72l121 72l25 -23q-57 -90 -127 -153h-37zM346 476q36 0 52 -24l-37 -176h-34q-17 63 -29 100q-5 16 -17.5 20.5t-25.5 -3.5q-14 -8 -49 -37q-2 -136 0 -284q0 -32 28 -37l53 -9v-26h-264v26l24 5q27 9 27 38q1 154 0 308
q0 31 -29 37l-31 3l-1 27q82 14 159 31h21l10 -82q16 14 32 26q67 57 111 57z" />
    <glyph glyph-name="Sacute" unicode="&#x15a;" horiz-adv-x="524" 
d="M197 701l-13 28l165 119l98 -46v-30q-97 -60 -250 -71zM245 -11q-125 0 -193 39q3 59 5 183h26q48 -80 91 -144q11 -21 34 -35t52 -14q94 0 94 83q0 30 -16.5 57.5t-43.5 50t-59 45.5l-64 47t-59 50.5t-43.5 61t-16.5 72.5q0 74 55.5 121.5t164.5 47.5q99 0 185 -31
q-9 -46 -27 -164h-26q-47 87 -67 120q-22 46 -75 46q-41 0 -62 -20t-21 -56q0 -32 22.5 -63.5t56 -56l72.5 -54l72.5 -57t56 -65.5t22.5 -79q-1 -89 -66 -137t-170 -48z" />
    <glyph glyph-name="sacute" unicode="&#x15b;" horiz-adv-x="443" 
d="M168 518l-17 24l132 143l100 -25l7 -27q-80 -75 -222 -115zM204 -11q-93 0 -158 28q3 114 3 136h29q45 -70 71 -100q22 -34 72 -34q33 0 49 16t16 41q0 30 -24.5 53t-60 40.5t-70.5 37t-59.5 51.5t-24.5 75q0 63 48.5 103t135.5 40q84 0 143 -27q-5 -41 -11 -119h-27
q-27 46 -47 71q-33 45 -77 45q-26 0 -41.5 -13.5t-15.5 -37.5q0 -29 25 -52.5t60.5 -41.5l71 -37.5t60.5 -52t25 -75.5q0 -67 -51 -107t-142 -40z" />
    <glyph glyph-name="Scircumflex" unicode="&#x15c;" horiz-adv-x="524" 
d="M260 748l-133 -57l-25 23q67 84 138 125h40q70 -39 138 -125l-25 -23zM179 549q0 -32 22.5 -63.5t56 -56l72.5 -54l72.5 -57t56 -65.5t22.5 -79q-1 -89 -66 -137t-170 -48q-125 0 -193 39q3 59 5 183h26q48 -80 91 -144q11 -21 34 -35t52 -14q94 0 94 83q0 30 -16.5 57.5
t-43.5 50t-59 45.5l-64 47t-59 50.5t-43.5 61t-16.5 72.5q0 74 55.5 121.5t164.5 47.5q99 0 185 -31q-9 -46 -27 -164h-26q-47 87 -67 120q-22 46 -75 46q-41 0 -62 -20t-21 -56z" />
    <glyph glyph-name="scircumflex" unicode="&#x15d;" horiz-adv-x="443" 
d="M220 584l-121 -72l-25 23q57 86 128 153h37q70 -63 127 -153l-25 -23zM155 395q0 -29 25 -52.5t60.5 -41.5l71 -37.5t60.5 -52t25 -75.5q0 -67 -51 -107t-142 -40q-93 0 -158 28q3 114 3 136h29q45 -70 71 -100q22 -34 72 -34q33 0 49 16t16 41q0 30 -24.5 53t-60 40.5
t-70.5 37t-59.5 51.5t-24.5 75q0 63 48.5 103t135.5 40q84 0 143 -27q-5 -41 -11 -119h-27q-27 46 -47 71q-33 45 -77 45q-26 0 -41.5 -13.5t-15.5 -37.5z" />
    <glyph glyph-name="Scedilla" unicode="&#x15e;" horiz-adv-x="524" 
d="M481 174q-1 -83 -57 -130t-149 -54l-19 -37q45 -5 71 -26t26 -54q0 -48 -43.5 -75t-115.5 -27l2 28q70 5 70 40q0 29 -73 32l-12 24l61 94q-124 0 -190 39q3 59 5 183h26q48 -80 91 -144q11 -21 34 -35t52 -14q94 0 94 83q0 30 -16.5 57.5t-43.5 50t-59 45.5l-64 47
t-59 50.5t-43.5 61t-16.5 72.5q0 74 55.5 121.5t164.5 47.5q99 0 185 -31q-9 -46 -27 -164h-26q-47 87 -67 120q-22 46 -75 46q-41 0 -62 -20t-21 -56q0 -32 22.5 -63.5t56 -56l72.5 -54l72.5 -57t56 -65.5t22.5 -79z" />
    <glyph glyph-name="scedilla" unicode="&#x15f;" horiz-adv-x="443" 
d="M397 136q0 -61 -42.5 -100t-118.5 -46l-19 -36q45 -5 71 -26t26 -54q0 -48 -43.5 -75t-115.5 -27l2 28q70 5 70 40q0 29 -73 32l-12 24l61 93q-92 0 -157 28q3 114 3 136h29q45 -70 71 -100q22 -34 72 -34q33 0 49 16t16 41q0 30 -24.5 53t-60 40.5t-70.5 37t-59.5 51.5
t-24.5 75q0 63 48.5 103t135.5 40q84 0 143 -27q-5 -41 -11 -119h-27q-27 46 -47 71q-33 45 -77 45q-26 0 -41.5 -13.5t-15.5 -37.5q0 -29 25 -52.5t60.5 -41.5l71 -37.5t60.5 -52t25 -75.5z" />
    <glyph glyph-name="Scaron" unicode="&#x160;" horiz-adv-x="524" 
d="M240 695q-72 43 -138 126l25 23l133 -57l133 57l25 -23q-67 -85 -138 -126h-40zM179 549q0 -32 22.5 -63.5t56 -56l72.5 -54l72.5 -57t56 -65.5t22.5 -79q-1 -89 -66 -137t-170 -48q-125 0 -193 39q3 59 5 183h26q48 -80 91 -144q11 -21 34 -35t52 -14q94 0 94 83
q0 30 -16.5 57.5t-43.5 50t-59 45.5l-64 47t-59 50.5t-43.5 61t-16.5 72.5q0 74 55.5 121.5t164.5 47.5q99 0 185 -31q-9 -46 -27 -164h-26q-47 87 -67 120q-22 46 -75 46q-41 0 -62 -20t-21 -56z" />
    <glyph glyph-name="scaron" unicode="&#x161;" horiz-adv-x="443" 
d="M202 520q-71 67 -128 153l25 23l121 -72l121 72l25 -23q-57 -90 -127 -153h-37zM155 395q0 -29 25 -52.5t60.5 -41.5l71 -37.5t60.5 -52t25 -75.5q0 -67 -51 -107t-142 -40q-93 0 -158 28q3 114 3 136h29q45 -70 71 -100q22 -34 72 -34q33 0 49 16t16 41q0 30 -24.5 53
t-60 40.5t-70.5 37t-59.5 51.5t-24.5 75q0 63 48.5 103t135.5 40q84 0 143 -27q-5 -41 -11 -119h-27q-27 46 -47 71q-33 45 -77 45q-26 0 -41.5 -13.5t-15.5 -37.5z" />
    <glyph glyph-name="uni0162" unicode="&#x162;" horiz-adv-x="613" 
d="M582 644q-1 -65 -1 -187h-34q-33 58 -81 130q-18 25 -35 25l-54 3q-3 -243 -1 -547q1 -31 30 -37l48 -6v-25h-128l-24 -46q45 -5 71 -26t26 -54q0 -48 -43.5 -75t-115.5 -27l2 28q70 5 70 40q0 29 -73 32l-12 24l68 104h-130v25l41 6q29 4 29 36q3 270 0 548l-53 -2
q-17 -1 -35 -24l-93 -132h-33l10 187h551z" />
    <glyph glyph-name="uni0163" unicode="&#x163;" horiz-adv-x="356" 
d="M172 -46q45 -5 71 -26t26 -54q0 -48 -43.5 -75t-115.5 -27l2 28q70 5 70 40q0 29 -73 32l-12 24l64 97q-89 21 -89 128q2 156 0 312l-61 3v29h69q42 58 99 144h28q0 -98 -1 -144h127v-22l-46 -21l-81 4q0 -208 1 -299q0 -80 62 -80q30 0 59 16l11 -28q-54 -46 -137 -46
h-12z" />
    <glyph glyph-name="Tcaron" unicode="&#x164;" horiz-adv-x="613" 
d="M284 693q-72 43 -138 126l25 23l133 -57l133 57l25 -23q-67 -85 -138 -126h-40zM582 644q-1 -65 -1 -187h-34q-33 58 -81 130q-18 25 -35 25l-54 3q-3 -243 -1 -547q1 -31 30 -37l48 -6v-25h-289v25l41 6q29 4 29 36q3 270 0 548l-53 -2q-17 -1 -35 -24l-93 -132h-33
l10 187h551z" />
    <glyph glyph-name="tcaron" unicode="&#x165;" horiz-adv-x="378" 
d="M244 517q78 49 97 104l-28 17q-52 31 -50 66q1 28 20 44.5t47 15.5q28 -2 47 -22.5t20 -57.5q0 -52 -36.5 -103t-100.5 -88zM269 47q30 0 59 16l11 -28q-54 -46 -137 -46q-61 0 -95.5 32t-34.5 100q2 156 0 312l-61 3v29h69q42 58 99 144h28q0 -98 -1 -144h127v-22
l-46 -21l-81 4q0 -208 1 -299q0 -80 62 -80z" />
    <glyph glyph-name="Tbar" unicode="&#x166;" horiz-adv-x="611" 
d="M582 644q-1 -65 -1 -187h-34q-33 58 -81 130q-18 25 -35 25l-54 3q-2 -186 -2 -273h111v-30h-111q0 -40 0.5 -121t0.5 -123q1 -31 30 -37l48 -6v-25h-289v25l41 6q29 4 29 36q1 83 1 245h-106v30h106q1 89 -1 273l-53 -2q-17 -1 -35 -24l-93 -132h-33l10 187h551z" />
    <glyph glyph-name="tbar" unicode="&#x167;" horiz-adv-x="357" 
d="M333 63l11 -28q-54 -46 -137 -46q-61 0 -95.5 32t-34.5 100q0 21 0.5 63t0.5 62l-67 9l67 4q0 116 -1 174l-61 3v29h69q42 58 99 144h28q0 -98 -1 -144h127v-22l-46 -21l-81 4v-167l112 -14l-112 -7q1 -38 1 -111q0 -80 62 -80q30 0 59 16z" />
    <glyph glyph-name="Utilde" unicode="&#x168;" horiz-adv-x="687" 
d="M231 696l-30 2q0 44 20.5 82.5t59.5 38.5q26 0 94 -21t99 -21l14 43l31 -2q0 -44 -20 -82t-60 -38q-26 0 -94 21t-99 21zM349 -12q-129 0 -195 63t-65 191q0 219 -1 330q0 29 -27 36l-37 6v29h283v-29l-50 -7q-28 -6 -28 -37q-1 -173 0 -348q1 -95 44 -143.5t115 -48.5
q167 0 167 238v191q0 30 -15 49q-49 69 -80 106v29h209v-29q-26 -39 -62 -103q-13 -20 -13 -49v-185q0 -140 -61.5 -214.5t-183.5 -74.5z" />
    <glyph glyph-name="utilde" unicode="&#x169;" horiz-adv-x="569" 
d="M177 578l-24 -45l-27 1q0 45 20 84t60 39q26 0 91 -20.5t94 -26.5l23 46l28 -2q0 -45 -20 -83.5t-60 -38.5q-27 0 -95.5 20.5t-89.5 25.5zM529 49l24 -3v-26q-68 -10 -145 -25l-18 1l-20 67l-15 -10q-73 -65 -156 -65q-58 0 -93 37t-35 98v80.5v98.5v83q0 26 -26 32
l-33 7v28l171 21l24 -1q-3 -154 -1 -322q2 -92 68 -92q45 0 89 44q2 158 -1 283q0 26 -25 32l-34 7v28l171 21l24 -1q-2 -199 0 -386q0 -30 31 -37z" />
    <glyph glyph-name="Umacron" unicode="&#x16a;" horiz-adv-x="687" 
d="M222 784h275v-76h-275v76zM349 -12q-129 0 -195 63t-65 191q0 219 -1 330q0 29 -27 36l-37 6v29h283v-29l-50 -7q-28 -6 -28 -37q-1 -173 0 -348q1 -95 44 -143.5t115 -48.5q167 0 167 238v191q0 30 -15 49q-49 69 -80 106v29h209v-29q-26 -39 -62 -103q-13 -20 -13 -49
v-185q0 -140 -61.5 -214.5t-183.5 -74.5z" />
    <glyph glyph-name="umacron" unicode="&#x16b;" horiz-adv-x="569" 
d="M416 626v-82h-265v82h265zM529 49l24 -3v-26q-68 -10 -145 -25l-18 1l-20 67l-15 -10q-73 -65 -156 -65q-58 0 -93 37t-35 98v80.5v98.5v83q0 26 -26 32l-33 7v28l171 21l24 -1q-3 -154 -1 -322q2 -92 68 -92q45 0 89 44q2 158 -1 283q0 26 -25 32l-34 7v28l171 21l24 -1
q-2 -199 0 -386q0 -30 31 -37z" />
    <glyph glyph-name="Ubreve" unicode="&#x16c;" horiz-adv-x="687" 
d="M360 690q-129 0 -140 152l41 4q4 -35 32 -56.5t67 -21.5q38 0 66 21.5t32 56.5l41 -4q-5 -74 -40.5 -113t-98.5 -39zM349 -12q-129 0 -195 63t-65 191q0 219 -1 330q0 29 -27 36l-37 6v29h283v-29l-50 -7q-28 -6 -28 -37q-1 -173 0 -348q1 -95 44 -143.5t115 -48.5
q167 0 167 238v191q0 30 -15 49q-49 69 -80 106v29h209v-29q-26 -39 -62 -103q-13 -20 -13 -49v-185q0 -140 -61.5 -214.5t-183.5 -74.5z" />
    <glyph glyph-name="ubreve" unicode="&#x16d;" horiz-adv-x="569" 
d="M285 521q-129 0 -140 159l41 4q4 -39 31.5 -60t67.5 -21q39 0 66.5 21.5t31.5 59.5l41 -4q-9 -159 -139 -159zM529 49l24 -3v-26q-68 -10 -145 -25l-18 1l-20 67l-15 -10q-73 -65 -156 -65q-58 0 -93 37t-35 98v80.5v98.5v83q0 26 -26 32l-33 7v28l171 21l24 -1
q-3 -154 -1 -322q2 -92 68 -92q45 0 89 44q2 158 -1 283q0 26 -25 32l-34 7v28l171 21l24 -1q-2 -199 0 -386q0 -30 31 -37z" />
    <glyph glyph-name="Uring" unicode="&#x16e;" horiz-adv-x="687" 
d="M360 692q-53 0 -84 31.5t-31 75.5q0 45 31 76.5t84 31.5t84 -30.5t31 -75.5q0 -46 -31 -77.5t-84 -31.5zM361 724q28 0 44 21.5t16 53.5t-16.5 54t-45.5 22q-28 0 -44 -21.5t-16 -52.5q0 -33 16.5 -55t45.5 -22zM349 -12q-129 0 -195 63t-65 191q0 219 -1 330
q0 29 -27 36l-37 6v29h283v-29l-50 -7q-28 -6 -28 -37q-1 -173 0 -348q1 -95 44 -143.5t115 -48.5q167 0 167 238v191q0 30 -15 49q-49 69 -80 106v29h209v-29q-26 -39 -62 -103q-13 -20 -13 -49v-185q0 -140 -61.5 -214.5t-183.5 -74.5z" />
    <glyph glyph-name="uring" unicode="&#x16f;" horiz-adv-x="569" 
d="M285 523q-53 0 -84.5 31.5t-31.5 76.5t31 76t84 31t84.5 -30.5t31.5 -74.5q0 -46 -31 -78t-84 -32zM284 706q-29 0 -44.5 -21t-15.5 -52q0 -33 16 -55t45 -22q28 0 44 21.5t16 53.5t-16 53.5t-45 21.5zM529 49l24 -3v-26q-68 -10 -145 -25l-18 1l-20 67l-15 -10
q-73 -65 -156 -65q-58 0 -93 37t-35 98v80.5v98.5v83q0 26 -26 32l-33 7v28l171 21l24 -1q-3 -154 -1 -322q2 -92 68 -92q45 0 89 44q2 158 -1 283q0 26 -25 32l-34 7v28l171 21l24 -1q-2 -199 0 -386q0 -30 31 -37z" />
    <glyph glyph-name="Uhungarumlaut" unicode="&#x170;" horiz-adv-x="687" 
d="M276 683l-18 21l116 148l99 -16l8 -26q-74 -80 -205 -127zM454 683l-19 21l117 148l98 -16l8 -27q-72 -78 -204 -126zM349 -12q-129 0 -195 63t-65 191q0 219 -1 330q0 29 -27 36l-37 6v29h283v-29l-50 -7q-28 -6 -28 -37q-1 -173 0 -348q1 -95 44 -143.5t115 -48.5
q167 0 167 238v191q0 30 -15 49q-49 69 -80 106v29h209v-29q-26 -39 -62 -103q-13 -20 -13 -49v-185q0 -140 -61.5 -214.5t-183.5 -74.5z" />
    <glyph glyph-name="uhungarumlaut" unicode="&#x171;" horiz-adv-x="569" 
d="M386 669q-63 -87 -191 -151l-21 20l100 162l101 -6zM368 519l-21 19l100 162l101 -5l12 -26q-65 -86 -192 -150zM498 86q0 -30 31 -37l24 -3v-26q-68 -10 -145 -25l-18 1l-20 67l-15 -10q-73 -65 -156 -65q-58 0 -93 37t-35 98v80.5v98.5v83q0 26 -26 32l-33 7v28l171 21
l24 -1q-3 -154 -1 -322q2 -92 68 -92q45 0 89 44q2 158 -1 283q0 26 -25 32l-34 7v28l171 21l24 -1q-2 -199 0 -386z" />
    <glyph glyph-name="Uogonek" unicode="&#x172;" horiz-adv-x="686" 
d="M460 643h209v-29q-26 -39 -62 -103q-13 -20 -13 -49v-185q0 -241 -174 -281q-32 -12 -53 -39t-21 -60q0 -28 17 -44.5t45 -16.5q29 0 51 20l19 -22q-50 -60 -126 -60q-49 0 -79 27.5t-30 70.5q0 38 24.5 67t65.5 45l-1 4q-244 9 -243 254q0 219 -1 330q0 29 -27 36l-37 6
v29h283v-29l-50 -7q-28 -6 -28 -37q-1 -173 0 -348q1 -95 44 -143.5t115 -48.5q167 0 167 238v191q0 30 -15 49q-49 69 -80 106v29z" />
    <glyph glyph-name="uogonek" unicode="&#x173;" horiz-adv-x="569" 
d="M536 -137l19 -22q-50 -60 -130 -60q-48 0 -77.5 27.5t-29.5 68.5q0 36 23 68t61 54l-31 65l-16 -11q-73 -65 -156 -65q-58 0 -93 37t-35 98v80.5v98.5v83q0 27 -26 32l-33 7v28l171 21l24 -1q-3 -154 -1 -322q2 -92 68 -92q45 0 89 44q2 158 -1 283q0 28 -25 32l-34 7v28
l171 21l24 -1q-2 -199 0 -386q0 -31 31 -37l24 -3v-26q-133 -24 -133 -113q0 -30 17.5 -47.5t44.5 -17.5q32 0 54 21z" />
    <glyph glyph-name="Wcircumflex" unicode="&#x174;" horiz-adv-x="979" 
d="M492 745l-133 -57l-25 23q67 84 138 125h40q70 -39 138 -125l-25 -23zM771 643h195v-29q-46 -67 -72 -108q-17 -27 -26 -56l-159 -459h-80l-139 423l-147 -423h-79l-201 589q-10 24 -33 30l-23 4v29h274v-29l-44 -5q-35 -5 -23 -40l143 -451l107 323q9 23 0 48l-32 91
q-9 25 -32 30l-31 4v29h278v-29l-41 -5q-16 -2 -22 -13t-1 -27l140 -450l112 336q10 26 -2 49q-28 57 -62 110v29z" />
    <glyph glyph-name="wcircumflex" unicode="&#x175;" horiz-adv-x="802" 
d="M403 583l-121 -72l-25 23q57 86 128 153h37q70 -63 127 -153l-25 -23zM625 464h169v-26q-25 -26 -48 -59q-21 -31 -34 -63l-129 -321h-57l-122 295l-123 -295h-58q-80 197 -176 408q-8 20 -31 28l-24 7v26h246v-26l-33 -9q-23 -8 -12 -37l108 -269l75 185q9 23 -1 48
q-1 1 -1 2l-20 45q-10 22 -28 28l-24 7v26h246v-26l-31 -9q-29 -9 -18 -37l103 -269q33 81 75 197q11 29 -5 50q-26 43 -47 68v26z" />
    <glyph glyph-name="Ycircumflex" unicode="&#x176;" horiz-adv-x="597" 
d="M300 745l-133 -57l-25 23q67 84 138 125h40q70 -39 138 -125l-25 -23zM393 643h191v-30q-51 -47 -74 -71q-16 -13 -28 -39l-109 -214q0 -146 1 -218q0 -33 29 -37l40 -5v-29h-278v29l38 5q29 3 29 37q2 111 0 211l-165 301q-12 20 -35 26l-26 5v29h273v-29l-39 -6
q-32 -6 -16 -37l136 -249l90 183q13 25 -6 50q-42 50 -51 59v29z" />
    <glyph glyph-name="ycircumflex" unicode="&#x177;" horiz-adv-x="503" 
d="M251 585l-121 -72l-25 23q57 86 128 153h37q70 -63 127 -153l-25 -23zM320 465h174v-26q-19 -19 -50 -62q-23 -33 -35 -65l-221 -551q-87 6 -136 7v23q43 34 175 147q1 5 4.5 13t5.5 13l-192 439q-11 23 -33 30l-19 6v26h250v-26l-27 -4q-34 -7 -21 -40q30 -79 108 -267
l74 188q11 28 -2 48q-6 8 -17.5 25.5t-20.5 30t-17 19.5v26z" />
    <glyph glyph-name="Ydieresis" unicode="&#x178;" horiz-adv-x="597" 
d="M206 689q-32 0 -49.5 21t-17.5 48q0 25 18 47t50 22q30 0 49 -18.5t19 -49.5t-17.5 -50.5t-51.5 -19.5zM395 689q-33 0 -50.5 21t-17.5 48q0 25 18.5 47t50.5 22q29 0 48.5 -18.5t19.5 -49.5t-18 -50.5t-51 -19.5zM393 643h191v-30q-51 -47 -74 -71q-16 -13 -28 -39
l-109 -214q0 -146 1 -218q0 -33 29 -37l40 -5v-29h-278v29l38 5q29 3 29 37q2 111 0 211l-165 301q-12 20 -35 26l-26 5v29h273v-29l-39 -6q-32 -6 -16 -37l136 -249l90 183q13 25 -6 50q-42 50 -51 59v29z" />
    <glyph glyph-name="Zacute" unicode="&#x179;" horiz-adv-x="559" 
d="M467 770q-97 -60 -250 -71l-13 28l165 119l98 -46v-30zM387 58q44 70 108 185h28q-8 -162 -14 -243h-489l-2 18l344 596l-154 -4q-24 0 -38 -23q-60 -97 -98 -167h-29q4 151 7 224h481l2 -19l-344 -595l160 5q24 1 38 23z" />
    <glyph glyph-name="zacute" unicode="&#x17a;" horiz-adv-x="492" 
d="M424 632q-80 -75 -222 -115l-17 24l132 143l100 -25zM447 464v-25l-257 -409l114 2q27 1 40 25q31 52 72 134h25l-6 -191h-399v25l255 411l-106 -2q-22 0 -36 -25l-68 -121h-29l4 176h391z" />
    <glyph glyph-name="Zdotaccent" unicode="&#x17b;" horiz-adv-x="559" 
d="M279 699q-39 0 -59.5 23.5t-20.5 54.5q0 27 21.5 52t59.5 25q35 0 58 -20.5t23 -55.5t-21 -57t-61 -22zM387 58q44 70 108 185h28q-8 -162 -14 -243h-489l-2 18l344 596l-154 -4q-24 0 -38 -23q-60 -97 -98 -167h-29q4 151 7 224h481l2 -19l-344 -595l160 5q24 1 38 23z
" />
    <glyph glyph-name="zdotaccent" unicode="&#x17c;" horiz-adv-x="492" 
d="M253 540q-39 0 -59.5 23.5t-20.5 54.5q0 28 21.5 52.5t59.5 24.5q35 0 58 -20.5t23 -54.5q0 -35 -21 -57.5t-61 -22.5zM447 464v-25l-257 -409l114 2q27 1 40 25q31 52 72 134h25l-6 -191h-399v25l255 411l-106 -2q-22 0 -36 -25l-68 -121h-29l4 176h391z" />
    <glyph glyph-name="Zcaron" unicode="&#x17d;" horiz-adv-x="559" 
d="M260 693q-72 43 -138 126l25 23l133 -57l133 57l25 -23q-67 -85 -138 -126h-40zM387 58q44 70 108 185h28q-8 -162 -14 -243h-489l-2 18l344 596l-154 -4q-24 0 -38 -23q-60 -97 -98 -167h-29q4 151 7 224h481l2 -19l-344 -595l160 5q24 1 38 23z" />
    <glyph glyph-name="zcaron" unicode="&#x17e;" horiz-adv-x="492" 
d="M236 519q-71 67 -128 153l25 23l121 -72l121 72l25 -23q-57 -90 -127 -153h-37zM447 464v-25l-257 -409l114 2q27 1 40 25q31 52 72 134h25l-6 -191h-399v25l255 411l-106 -2q-22 0 -36 -25l-68 -121h-29l4 176h391z" />
    <glyph glyph-name="uni018F" unicode="&#x18f;" horiz-adv-x="624" 
d="M280 654q144 0 224.5 -92.5t80.5 -231.5q0 -151 -86 -246.5t-219 -95.5q-119 0 -184 79.5t-55 213.5l28 42q162 3 374 1q-13 110 -74 172.5t-157 62.5q-87 0 -135 -37l-17 23q64 109 220 109zM294 29q68 0 110 66.5t42 173.5v19q-192 -2 -268 -4q-10 -116 23 -185.5
t93 -69.5z" />
    <glyph glyph-name="florin" unicode="&#x192;" horiz-adv-x="406" 
d="M367 689q-58 -42 -90 -200l-5 -22h100l-2 -14q-31 -18 -102 -18h-2l-88 -418q-26 -122 -98.5 -194t-175.5 -73q-35 0 -66.5 15.5t-48.5 39.5l80 66l88 -86q58 42 90 200l96 457q-12 1 -32 3.5t-28 2.5l3 19h62q27 118 99 187t172 70q36 0 67 -15t48 -40l-79 -66z" />
    <glyph glyph-name="Gcaron" unicode="&#x1e6;" horiz-adv-x="688" 
d="M342 693q-72 43 -138 126l25 23l133 -57l133 57l25 -23q-67 -85 -138 -126h-40zM401 313h266v-29l-23 -4q-25 -5 -25 -36q-2 -103 0 -207q-94 -48 -247 -48q-155 0 -244 90.5t-89 240.5q0 142 91.5 238t244.5 96q137 0 245 -37q-9 -111 -20 -194h-28q-3 6 -27.5 52
t-37.5 67q-56 83 -137 83q-86 0 -132.5 -82t-46.5 -205q0 -142 56.5 -231.5t138.5 -89.5q62 0 97 58q1 59 -1 167q0 32 -32 37l-49 5v29z" />
    <glyph glyph-name="gcaron" unicode="&#x1e7;" horiz-adv-x="524" 
d="M231 520q-71 67 -128 153l25 23l121 -72l121 72l25 -23q-57 -90 -127 -153h-37zM507 412h-30.5h-34.5h-28q36 -42 36 -104q0 -69 -57.5 -115.5t-151.5 -46.5q-33 0 -71 7l-49 -70q57 1 168 1q114 0 161 -30t47 -92q0 -87 -71.5 -146t-183.5 -59q-76 0 -143 20.5
t-104 56.5l101 137h-14l-34 101l57 51t40 37q-55 19 -83 59t-27 93q0 69 57.5 116t151.5 47q91 0 144 -39q57 33 100 61h19q-1 -49 0 -85zM248 176q38 0 60 33.5t22 94.5q0 68 -25.5 104t-66.5 36q-38 0 -60 -32.5t-22 -93.5q0 -67 25 -104.5t67 -37.5zM444 -93
q0 35 -43.5 50t-144.5 15h-128l-43 -72q42 -29 113 -47.5t137 -18.5q109 0 109 73z" />
    <glyph glyph-name="uni01EA" unicode="&#x1ea;" horiz-adv-x="729" 
d="M388 -10q-26 -12 -43 -37t-17 -55q0 -28 17 -45t45 -17q30 0 51 21l19 -22q-51 -61 -126 -61q-49 0 -79 27.5t-30 70.5q0 41 27.5 72.5t71.5 46.5q-138 12 -211.5 103.5t-73.5 225.5q0 141 87 238t240 97q156 0 240 -94t84 -238q0 -134 -79.5 -229t-222.5 -104zM191 338
q0 -148 53.5 -233t132.5 -85q56 0 93.5 44t52.5 106t15 135q0 148 -53.5 233.5t-132.5 85.5q-56 0 -93.5 -44.5t-52 -106t-15.5 -135.5z" />
    <glyph glyph-name="uni01EB" unicode="&#x1eb;" horiz-adv-x="555" 
d="M252 -15h-17q-26 -12 -43 -37t-17 -55q0 -28 17 -44.5t45 -16.5q29 0 51 20l19 -22q-50 -60 -126 -60q-49 0 -79.5 28t-30.5 70q0 47 37.5 81.5t92.5 43.5h22q-91 15 -138 80t-47 157q0 104 61.5 174.5t177.5 70.5q115 0 175.5 -66t60.5 -173q0 -106 -61 -176.5
t-177 -70.5q-16 0 -23 1v-5zM268 445q-44 0 -68.5 -52t-24.5 -148q0 -102 29 -164t78 -62q44 0 68.5 52t24.5 148q0 102 -29 164t-78 62z" />
    <glyph glyph-name="Aringacute" unicode="&#x1fa;" horiz-adv-x="586" 
d="M481 1015q-97 -60 -250 -71l-13 28l165 119l98 -46v-30zM294 692q-53 0 -84 31.5t-31 75.5q0 45 31 76.5t84 31.5t84 -30.5t31 -75.5q0 -46 -31 -77.5t-84 -31.5zM293 875q-28 0 -44 -21.5t-16 -52.5q0 -33 16.5 -55t45.5 -22q28 0 44 21.5t16 53.5t-16.5 54t-45.5 22z
M583 33l17 -4v-29h-260v29l31 5q38 5 25 41l-55 154q-105 -1 -212 0l-24 -67q-10 -30 9 -59q21 -39 50 -74v-29h-179v29q13 14 37 46q38 53 51 91l168 464l90 29l215 -592q9 -27 37 -34zM139 258q86 -3 192 -1l-97 268z" />
    <glyph glyph-name="aringacute" unicode="&#x1fb;" horiz-adv-x="504" 
d="M420 880q-80 -75 -222 -115l-17 24l132 143l100 -25zM252 522q-53 0 -84.5 31.5t-31.5 76.5t31 76t84 31t84.5 -30.5t31.5 -74.5q0 -46 -31 -78t-84 -32zM251 705q-29 0 -44.5 -21t-15.5 -52q0 -33 16 -55t45 -22q28 0 44 21.5t16 53.5t-16 53.5t-45 21.5zM466 47l25 -4
v-26q-99 -17 -142 -26l-17 1l-21 64q-97 -67 -164 -67q-54 0 -87 30.5t-33 79.5q0 93 126 137q38 14 150 46v32q0 65 -19.5 97t-52.5 32q-45 0 -77 -68q-12 -24 -38 -88h-26l-46 108q117 80 219 80q77 0 125 -35.5t47 -112.5q0 -175 1 -243q0 -31 30 -37zM163 121
q0 -78 60 -78q34 0 81 39v173q-20 -5 -62 -21q-79 -32 -79 -113z" />
    <glyph glyph-name="AEacute" unicode="&#x1fc;" horiz-adv-x="849" 
d="M653 763q-97 -60 -250 -71l-13 28l165 119l98 -46v-30zM784 192h29l-18 -192h-460v29l35 5q28 6 28 33q1 50 1 160q-119 -2 -229 0l-37 -58q-21 -35 1 -69l47 -71v-29h-198v29l40 46q37 37 71 90l304 472h405l-22 -174h-29l-73 124q-13 20 -30 20h-53q-17 0 -53 -9
q-1 -84 -1 -250h77q19 0 35 19l45 54h29v-206h-29l-21.5 39t-24.5 43q-11 21 -34 21h-77q0 -185 1 -279l109 -8q22 -3 36 18zM188 255q103 -2 211 0v328z" />
    <glyph glyph-name="aeacute" unicode="&#x1fd;" horiz-adv-x="757" 
d="M556 633q-80 -75 -222 -115l-17 24l132 143l100 -25zM695 243q-170 -2 -259 -1q10 -77 56 -121.5t115 -44.5q55 0 88 24l14 -19q-50 -92 -172 -92t-186 84q-47 -40 -92.5 -62.5t-105.5 -22.5q-58 0 -92 30.5t-34 80.5q0 94 126 137q77 26 151 46v30q0 66 -19.5 99.5
t-51.5 33.5q-46 0 -67 -53q-42 -92 -48 -107h-26l-47 107q113 84 219 84q92 0 130 -47q62 48 147 48q86 0 135 -56t44 -140zM434 281v-10l157 3q5 75 -13 123t-52 48q-39 0 -65.5 -43.5t-26.5 -120.5zM221 42q72 0 85 148q-2 22 -2 32v33q-32 -10 -62 -21q-76 -32 -76 -112
t55 -80z" />
    <glyph glyph-name="Oslashacute" unicode="&#x1fe;" horiz-adv-x="729" 
d="M551 775q-97 -60 -250 -71l-13 28l165 119l98 -46v-30zM587 580q103 -91 103 -257q0 -141 -86.5 -237.5t-240.5 -96.5q-108 0 -183 47l-49 -65h-59l70 93q-103 91 -103 256q0 141 87 238t240 97q106 0 183 -47l49 66h59zM191 338q0 -101 26 -173l273 364q-54 95 -138 95
q-56 0 -93.5 -44.5t-52 -106t-15.5 -135.5zM377 20q56 0 93.5 44t52.5 106t15 135q0 97 -26 175l-273 -365q52 -95 138 -95z" />
    <glyph glyph-name="oslashacute" unicode="&#x1ff;" horiz-adv-x="550" 
d="M446 632q-80 -75 -222 -115l-17 24l132 143l100 -25zM440 420q73 -64 73 -184q0 -106 -61 -176.5t-177 -70.5q-77 0 -133 32l-37 -50h-51l56 74q-72 66 -72 185q0 104 61.5 174.5t177.5 70.5q77 0 131 -31l38 51h50zM175 245q0 -57 9 -100l168 224q-30 76 -84 76
q-44 0 -68.5 -52t-24.5 -148zM282 19q44 0 68.5 52t24.5 148q0 57 -9 102l-168 -225q30 -77 84 -77z" />
    <glyph glyph-name="uni0218" unicode="&#x218;" horiz-adv-x="524" 
d="M245 -11q-125 0 -193 39q3 59 5 183h26q48 -80 91 -144q11 -21 34 -35t52 -14q94 0 94 83q0 30 -16.5 57.5t-43.5 50t-59 45.5l-64 47t-59 50.5t-43.5 61t-16.5 72.5q0 74 55.5 121.5t164.5 47.5q99 0 185 -31q-9 -46 -27 -164h-26q-47 87 -67 120q-22 46 -75 46
q-41 0 -62 -20t-21 -56q0 -32 22.5 -63.5t56 -56l72.5 -54l72.5 -57t56 -65.5t22.5 -79q-1 -89 -66 -137t-170 -48zM191 -361l-18 27q87 56 108 116l-32 20q-57 33 -55 73q1 31 23 50t52 17q32 -2 53 -25.5t21 -64.5q1 -57 -39.5 -114.5t-112.5 -98.5z" />
    <glyph glyph-name="uni0219" unicode="&#x219;" horiz-adv-x="443" 
d="M204 -11q-93 0 -158 28q3 114 3 136h29q45 -70 71 -100q22 -34 72 -34q33 0 49 16t16 41q0 30 -24.5 53t-60 40.5t-70.5 37t-59.5 51.5t-24.5 75q0 63 48.5 103t135.5 40q84 0 143 -27q-5 -41 -11 -119h-27q-27 46 -47 71q-33 45 -77 45q-26 0 -41.5 -13.5t-15.5 -37.5
q0 -29 25 -52.5t60.5 -41.5l71 -37.5t60.5 -52t25 -75.5q0 -67 -51 -107t-142 -40zM152 -360l-18 27q87 56 108 116l-32 20q-57 33 -55 73q1 31 23 50t52 17q32 -2 53 -25.5t21 -64.5q1 -57 -39.5 -114.5t-112.5 -98.5z" />
    <glyph glyph-name="uni021A" unicode="&#x21a;" horiz-adv-x="613" 
d="M582 644q-1 -65 -1 -187h-34q-33 58 -81 130q-18 25 -35 25l-54 3q-3 -243 -1 -547q1 -31 30 -37l48 -6v-25h-289v25l41 6q29 4 29 36q3 270 0 548l-53 -2q-17 -1 -35 -24l-93 -132h-33l10 187h551zM315 -57q32 -2 53 -25.5t21 -64.5q1 -57 -39.5 -114.5t-112.5 -98.5
l-18 27q87 56 108 116l-32 20q-57 33 -55 73q1 31 23 50t52 17z" />
    <glyph glyph-name="uni021B" unicode="&#x21b;" horiz-adv-x="356" 
d="M72 121q2 156 0 312l-61 3v29h69q42 58 99 144h28q0 -98 -1 -144h127v-22l-46 -21l-81 4q0 -208 1 -299q0 -80 62 -80q30 0 59 16l11 -28q-54 -46 -137 -46q-61 0 -95.5 32t-34.5 100zM185 -57q32 -2 53 -25.5t21 -64.5q1 -57 -39.5 -114.5t-112.5 -98.5l-18 27
q87 56 108 116l-32 20q-57 33 -55 73q1 31 23 50t52 17z" />
    <glyph glyph-name="uni0232" unicode="&#x232;" horiz-adv-x="597" 
d="M438 784v-76h-275v76h275zM393 643h191v-30q-51 -47 -74 -71q-16 -13 -28 -39l-109 -214q0 -146 1 -218q0 -33 29 -37l40 -5v-29h-278v29l38 5q29 3 29 37q2 111 0 211l-165 301q-12 20 -35 26l-26 5v29h273v-29l-39 -6q-32 -6 -16 -37l136 -249l90 183q13 25 -6 50
q-42 50 -51 59v29z" />
    <glyph glyph-name="uni0233" unicode="&#x233;" horiz-adv-x="503" 
d="M383 627v-82h-265v82h265zM320 465h174v-26q-19 -19 -50 -62q-23 -33 -35 -65l-221 -551q-87 6 -136 7v23q43 34 175 147q1 5 4.5 13t5.5 13l-192 439q-11 23 -33 30l-19 6v26h250v-26l-27 -4q-34 -7 -21 -40q30 -79 108 -267l74 188q11 28 -2 48q-6 8 -17.5 25.5
t-20.5 30t-17 19.5v26z" />
    <glyph glyph-name="uni0237" unicode="&#x237;" horiz-adv-x="293" 
d="M4 -215q46 11 62.5 55.5t17.5 135.5q2 204 0 398q0 37 -25 41q-15 2 -47 4v26q22 4 85.5 14t98.5 17l24 -1q-1 -136 -1 -428q1 -139 -53.5 -204.5t-157.5 -79.5z" />
    <glyph glyph-name="uni0259" unicode="&#x259;" horiz-adv-x="489" 
d="M219 476q109 0 170.5 -66t61.5 -168q0 -111 -66 -181.5t-166 -70.5q-88 0 -138 56.5t-45 150.5l24 39q170 2 260 1q-12 74 -57 115.5t-111 41.5q-53 0 -89 -25l-14 20q52 87 170 87zM234 22q39 0 64.5 45.5t25.5 117.5q0 15 -1 22l-162 -3q-6 -82 15.5 -132t57.5 -50z
" />
    <glyph glyph-name="circumflex" unicode="&#x2c6;" horiz-adv-x="392" 
d="M342 535l-25 -23l-121 72l-121 -72l-25 23q57 86 128 153h37q70 -63 127 -153z" />
    <glyph glyph-name="caron" unicode="&#x2c7;" horiz-adv-x="392" 
d="M317 696l25 -23q-57 -90 -127 -153h-37q-71 67 -128 153l25 23l121 -72z" />
    <glyph glyph-name="breve" unicode="&#x2d8;" horiz-adv-x="379" 
d="M190 521q-129 0 -140 159l41 4q4 -39 31.5 -60t67.5 -21q39 0 66.5 21.5t31.5 59.5l41 -4q-9 -159 -139 -159z" />
    <glyph glyph-name="dotaccent" unicode="&#x2d9;" horiz-adv-x="262" 
d="M130 541q-39 0 -59.5 23.5t-20.5 54.5q0 28 21.5 52.5t59.5 24.5q35 0 58 -20.5t23 -54.5q0 -35 -21 -57.5t-61 -22.5z" />
    <glyph glyph-name="ring" unicode="&#x2da;" horiz-adv-x="331" 
d="M166 523q-53 0 -84.5 31.5t-31.5 76.5t31 76t84 31t84.5 -30.5t31.5 -74.5q0 -46 -31 -78t-84 -32zM166 556q28 0 44 21.5t16 53.5t-16 53.5t-45 21.5t-44.5 -21t-15.5 -52q0 -33 16 -55t45 -22z" />
    <glyph glyph-name="ogonek" unicode="&#x2db;" horiz-adv-x="335" 
d="M159 -223q-49 0 -79 27.5t-30 70.5q0 47 37 81.5t93 43.5h61q-35 -4 -61.5 -33t-26.5 -67q0 -28 17 -44.5t45 -16.5q31 0 51 20l19 -22q-50 -60 -126 -60z" />
    <glyph glyph-name="tilde" unicode="&#x2dc;" horiz-adv-x="416" 
d="M77 533l-27 1q0 45 20 84t60 39q26 0 91 -20.5t94 -26.5l23 46l28 -2q0 -45 -20 -83.5t-60 -38.5q-27 0 -95.5 20.5t-89.5 25.5z" />
    <glyph glyph-name="hungarumlaut" unicode="&#x2dd;" horiz-adv-x="508" 
d="M84 518l-21 20l100 162l101 -6l11 -25q-64 -87 -191 -151zM257 519l-21 19l100 162l101 -5l11 -26q-62 -85 -191 -150z" />
    <glyph glyph-name="gravecomb" unicode="&#x300;" 
d="M-63 518q-141 40 -221 115l6 27l101 25l132 -143z" />
    <glyph glyph-name="acutecomb" unicode="&#x301;" 
d="M-272 518l-17 24l132 143l100 -25l7 -27q-80 -75 -222 -115z" />
    <glyph glyph-name="uni0302" unicode="&#x302;" 
d="M-50 535l-25 -23l-121 72l-121 -72l-25 23q57 86 128 153h37q70 -63 127 -153z" />
    <glyph glyph-name="tildecomb" unicode="&#x303;" 
d="M-339 533l-27 1q0 45 20 84t60 39q26 0 91 -20.5t94 -26.5l23 46l28 -2q0 -45 -20 -83.5t-60 -38.5q-27 0 -95.5 20.5t-89.5 25.5z" />
    <glyph glyph-name="uni0304" unicode="&#x304;" 
d="M-289 626h265v-82h-265v82z" />
    <glyph glyph-name="uni0306" unicode="&#x306;" 
d="M-189 521q-129 0 -140 159l41 4q4 -39 31.5 -60t67.5 -21q39 0 66.5 21.5t31.5 59.5l41 -4q-9 -159 -139 -159z" />
    <glyph glyph-name="uni0307" unicode="&#x307;" 
d="M-132 541q-39 0 -59.5 23.5t-20.5 54.5q0 28 21.5 52.5t59.5 24.5q35 0 58 -20.5t23 -54.5q0 -35 -21 -57.5t-61 -22.5z" />
    <glyph glyph-name="uni0308" unicode="&#x308;" 
d="M-306 525q-32 0 -49.5 21.5t-17.5 48.5q0 25 18 47t50 22q30 0 49 -18.5t19 -49.5t-17.5 -51t-51.5 -20zM-117 525q-33 0 -50.5 21.5t-17.5 48.5q0 25 18.5 47t50.5 22q29 0 48.5 -18.5t19.5 -49.5t-18 -51t-51 -20z" />
    <glyph glyph-name="uni030A" unicode="&#x30a;" 
d="M-165 523q-53 0 -84.5 31.5t-31.5 76.5t31 76t84 31t84.5 -30.5t31.5 -74.5q0 -46 -31 -78t-84 -32zM-165 556q28 0 44 21.5t16 53.5t-16 53.5t-45 21.5t-44.5 -21t-15.5 -52q0 -33 16 -55t45 -22z" />
    <glyph glyph-name="uni030B" unicode="&#x30b;" 
d="M-378 518l-21 20l100 162l101 -6l11 -25q-63 -87 -191 -151zM-205 519l-21 19l100 162l101 -5l12 -26q-65 -86 -192 -150z" />
    <glyph glyph-name="uni030C" unicode="&#x30c;" 
d="M-75 696l25 -23q-57 -90 -127 -153h-37q-71 67 -128 153l25 23l121 -72z" />
    <glyph glyph-name="uni0312" unicode="&#x312;" 
d="M-68 819l18 -27q-88 -57 -108 -116l32 -19q57 -34 55 -74q-1 -31 -23 -49.5t-52 -16.5q-32 1 -53 24.5t-21 64.5q0 58 40.5 115t111.5 98z" />
    <glyph glyph-name="dotbelowcomb" unicode="&#x323;" 
d="M-132 -221q-39 0 -59.5 23.5t-20.5 53.5q0 28 21.5 53t59.5 25q35 0 58 -21t23 -55q0 -35 -21 -57t-61 -22z" />
    <glyph glyph-name="uni0326" unicode="&#x326;" 
d="M-202 -360l-18 27q87 56 108 116l-32 20q-57 33 -55 73q1 31 23 50t52 17q32 -2 53 -25.5t21 -64.5q1 -57 -39.5 -114.5t-112.5 -98.5z" />
    <glyph glyph-name="uni0327" unicode="&#x327;" 
d="M-147 -46q45 -5 71 -26t26 -54q0 -48 -43.5 -75t-115.5 -27l2 28q70 5 70 40q0 29 -73 32l-12 24l68 104h31z" />
    <glyph glyph-name="uni0328" unicode="&#x328;" 
d="M-176 -223q-49 0 -79 27.5t-30 70.5q0 47 37 81.5t93 43.5h61q-35 -4 -61.5 -33t-26.5 -67q0 -28 17 -44.5t45 -16.5q31 0 51 20l19 -22q-50 -60 -126 -60z" />
    <glyph glyph-name="uni0394" unicode="&#x394;" horiz-adv-x="656" 
d="M533 0h-409l-40 39l203 595h81l204 -595zM190 85h276l-138 422z" />
    <glyph glyph-name="uni03A9" unicode="&#x3a9;" horiz-adv-x="698" 
d="M92 1v75l122 -1q-119 109 -119 275q0 54 13.5 104t42 94t79.5 70t119 26t119 -26t79.5 -70t42 -94t13.5 -104q0 -163 -119 -275h123v-74h-216v60q130 116 130 288q0 56 -14.5 103t-55 82t-102.5 35q-47 0 -81.5 -19.5t-54 -52.5t-28.5 -70.5t-9 -78.5q0 -170 131 -287
v-60h-215z" />
    <glyph glyph-name="uni03BC" unicode="&#x3bc;" horiz-adv-x="569" 
d="M530 50l24 -2v-26q-89 -15 -146 -26l-17 1l-21 65l-13 -10q-74 -61 -150 -64v-225l-135 -21v440v64v76v63q0 28 -25 32l-35 7v28l172 21l24 -9q-3 -128 -1 -282v-33q2 -91 68 -91q46 0 89 43q2 160 -1 284q0 28 -25 32l-34 7l-1 28l172 21l24 -9q-2 -190 0 -376
q0 -32 31 -38z" />
    <glyph glyph-name="pi" unicode="&#x3c0;" horiz-adv-x="664" 
d="M594 425h-73v-393h73v-32h-198v425h-128v-425h-124v425h-77v32h527v-32z" />
    <glyph glyph-name="Wgrave" unicode="&#x1e80;" horiz-adv-x="979" 
d="M572 726l-12 -28q-153 11 -251 71l1 30l98 46zM771 643h195v-29q-46 -67 -72 -108q-17 -27 -26 -56l-159 -459h-80l-139 423l-147 -423h-79l-201 589q-10 24 -33 30l-23 4v29h274v-29l-44 -5q-35 -5 -23 -40l143 -451l107 323q9 23 0 48l-32 91q-9 25 -32 30l-31 4v29
h278v-29l-41 -5q-16 -2 -22 -13t-1 -27l140 -450l112 336q10 26 -2 49q-28 57 -62 110v29z" />
    <glyph glyph-name="wgrave" unicode="&#x1e81;" horiz-adv-x="802" 
d="M472 541l-18 -24q-141 40 -221 115l6 27l101 25zM625 464h169v-26q-25 -26 -48 -59q-21 -31 -34 -63l-129 -321h-57l-122 295l-123 -295h-58q-80 197 -176 408q-8 20 -31 28l-24 7v26h246v-26l-33 -9q-23 -8 -12 -37l108 -269l75 185q9 23 -1 48q-1 1 -1 2l-20 45
q-10 22 -28 28l-24 7v26h246v-26l-31 -9q-29 -9 -18 -37l103 -269q33 81 75 197q11 29 -5 50q-26 43 -47 68v26z" />
    <glyph glyph-name="Wacute" unicode="&#x1e82;" horiz-adv-x="979" 
d="M679 769q-97 -60 -250 -71l-13 28l165 119l98 -46v-30zM771 643h195v-29q-46 -67 -72 -108q-17 -27 -26 -56l-159 -459h-80l-139 423l-147 -423h-79l-201 589q-10 24 -33 30l-23 4v29h274v-29l-44 -5q-35 -5 -23 -40l143 -451l107 323q9 23 0 48l-32 91q-9 25 -32 30
l-31 4v29h278v-29l-41 -5q-16 -2 -22 -13t-1 -27l140 -450l112 336q10 26 -2 49q-28 57 -62 110v29z" />
    <glyph glyph-name="wacute" unicode="&#x1e83;" horiz-adv-x="802" 
d="M574 632q-80 -75 -222 -115l-17 24l132 143l100 -25zM625 464h169v-26q-25 -26 -48 -59q-21 -31 -34 -63l-129 -321h-57l-122 295l-123 -295h-58q-80 197 -176 408q-8 20 -31 28l-24 7v26h246v-26l-33 -9q-23 -8 -12 -37l108 -269l75 185q9 23 -1 48q-1 1 -1 2l-20 45
q-10 22 -28 28l-24 7v26h246v-26l-31 -9q-29 -9 -18 -37l103 -269q33 81 75 197q11 29 -5 50q-26 43 -47 68v26z" />
    <glyph glyph-name="Wdieresis" unicode="&#x1e84;" horiz-adv-x="979" 
d="M398 689q-32 0 -49.5 21t-17.5 48q0 25 18 47t50 22q30 0 49 -18.5t19 -49.5t-17.5 -50.5t-51.5 -19.5zM587 689q-33 0 -50.5 21t-17.5 48q0 25 18.5 47t50.5 22q29 0 48.5 -18.5t19.5 -49.5t-18 -50.5t-51 -19.5zM771 643h195v-29q-46 -67 -72 -108q-17 -27 -26 -56
l-159 -459h-80l-139 423l-147 -423h-79l-201 589q-10 24 -33 30l-23 4v29h274v-29l-44 -5q-35 -5 -23 -40l143 -451l107 323q9 23 0 48l-32 91q-9 25 -32 30l-31 4v29h278v-29l-41 -5q-16 -2 -22 -13t-1 -27l140 -450l112 336q10 26 -2 49q-28 57 -62 110v29z" />
    <glyph glyph-name="wdieresis" unicode="&#x1e85;" horiz-adv-x="802" 
d="M309 524q-32 0 -49.5 21.5t-17.5 48.5q0 25 18 47t50 22q30 0 49 -18.5t19 -49.5t-17.5 -51t-51.5 -20zM498 524q-33 0 -50.5 21.5t-17.5 48.5q0 25 18.5 47t50.5 22q29 0 48.5 -18.5t19.5 -49.5t-18 -51t-51 -20zM625 464h169v-26q-25 -26 -48 -59q-21 -31 -34 -63
l-129 -321h-57l-122 295l-123 -295h-58q-80 197 -176 408q-8 20 -31 28l-24 7v26h246v-26l-33 -9q-23 -8 -12 -37l108 -269l75 185q9 23 -1 48q-1 1 -1 2l-20 45q-10 22 -28 28l-24 7v26h246v-26l-31 -9q-29 -9 -18 -37l103 -269q33 81 75 197q11 29 -5 50q-26 43 -47 68v26
z" />
    <glyph glyph-name="uni1E9E" unicode="&#x1e9e;" horiz-adv-x="1049" 
d="M245 -11q-125 0 -193 39q3 59 5 183h26q48 -80 91 -144q11 -21 34 -35t52 -14q94 0 94 83q0 30 -16.5 57.5t-43.5 50t-59 45.5l-64 47t-59 50.5t-43.5 61t-16.5 72.5q0 74 55.5 121.5t164.5 47.5q99 0 185 -31q-9 -46 -27 -164h-26q-47 87 -67 120q-22 46 -75 46
q-41 0 -62 -20t-21 -56q0 -32 22.5 -63.5t56 -56l72.5 -54l72.5 -57t56 -65.5t22.5 -79q-1 -89 -66 -137t-170 -48zM769 -11q-125 0 -193 39q3 59 5 183h26q48 -80 91 -144q11 -21 34 -35t52 -14q94 0 94 83q0 30 -16.5 57.5t-43.5 50t-59 45.5l-64 47t-59 50.5t-43.5 61
t-16.5 72.5q0 74 55.5 121.5t164.5 47.5q99 0 185 -31q-9 -46 -27 -164h-26q-47 87 -67 120q-22 46 -75 46q-41 0 -62 -20t-21 -56q0 -32 22.5 -63.5t56 -56l72.5 -54l72.5 -57t56 -65.5t22.5 -79q-1 -89 -66 -137t-170 -48z" />
    <glyph glyph-name="uni1EA0" unicode="&#x1ea0;" horiz-adv-x="586" 
d="M583 33l17 -4v-29h-260v29l31 5q38 5 25 41l-55 154q-105 -1 -212 0l-24 -67q-10 -30 9 -59q21 -39 50 -74v-29h-179v29q13 14 37 46q38 53 51 91l168 464l90 29l215 -592q9 -27 37 -34zM139 258q86 -3 192 -1l-97 268zM293 -66q35 0 58 -21t23 -55q0 -35 -21 -57
t-61 -22q-39 0 -59.5 23.5t-20.5 53.5q0 28 21.5 53t59.5 25z" />
    <glyph glyph-name="uni1EA1" unicode="&#x1ea1;" horiz-adv-x="504" 
d="M466 47l25 -4v-26q-99 -17 -142 -26l-17 1l-21 64q-97 -67 -164 -67q-54 0 -87 30.5t-33 79.5q0 93 126 137q38 14 150 46v32q0 65 -19.5 97t-52.5 32q-45 0 -77 -68q-12 -24 -38 -88h-26l-46 108q117 80 219 80q77 0 125 -35.5t47 -112.5q0 -175 1 -243q0 -31 30 -37z
M163 121q0 -78 60 -78q34 0 81 39v173q-20 -5 -62 -21q-79 -32 -79 -113zM254 -66q35 0 58 -21t23 -55q0 -35 -21 -57t-61 -22q-39 0 -59.5 23.5t-20.5 53.5q0 28 21.5 53t59.5 25z" />
    <glyph glyph-name="uni1EB8" unicode="&#x1eb8;" horiz-adv-x="543" 
d="M477 189h29q-8 -95 -18 -189h-459v29l35 5q28 6 28 34q4 254 0 507q0 29 -28 33l-36 6v29h467q-20 -166 -21 -173h-28q-35 66 -69 122q-13 20 -32 20h-56q-25 0 -55 -9q-1 -87 -1 -252h82q20 0 36 19q26 30 42 53h29q3 -101 0 -204h-29q-34 66 -43 81q-13 22 -35 22h-82
q0 -184 1 -282l115 -9q22 -3 37 18q47 67 91 140zM270 -66q35 0 58 -21t23 -55q0 -35 -21 -57t-61 -22q-39 0 -59.5 23.5t-20.5 53.5q0 28 21.5 53t59.5 25z" />
    <glyph glyph-name="uni1EB9" unicode="&#x1eb9;" horiz-adv-x="489" 
d="M429 229q-170 -2 -260 -1q12 -74 57 -115.5t111 -41.5q53 0 89 25l14 -20q-52 -87 -170 -87q-109 0 -170.5 66t-61.5 168q0 111 66 181.5t166 70.5q88 0 138 -56.5t45 -150.5zM165 280q0 -15 1 -22l162 3q6 82 -15.5 132t-57.5 50q-39 0 -64.5 -45.5t-25.5 -117.5z
M244 -66q35 0 58 -21t23 -55q0 -35 -21 -57t-61 -22q-39 0 -59.5 23.5t-20.5 53.5q0 28 21.5 53t59.5 25z" />
    <glyph glyph-name="uni1EBC" unicode="&#x1ebc;" horiz-adv-x="543" 
d="M177 740l-15 -44l-30 2q0 44 20.5 82.5t59.5 38.5q26 0 94 -21t99 -21l14 43l31 -2q0 -44 -20 -82t-60 -38q-26 0 -94 21t-99 21zM477 189h29q-8 -95 -18 -189h-459v29l35 5q28 6 28 34q4 254 0 507q0 29 -28 33l-36 6v29h467q-20 -166 -21 -173h-28q-35 66 -69 122
q-13 20 -32 20h-56q-25 0 -55 -9q-1 -87 -1 -252h82q20 0 36 19q26 30 42 53h29q3 -101 0 -204h-29q-34 66 -43 81q-13 22 -35 22h-82q0 -184 1 -282l115 -9q22 -3 37 18q47 67 91 140z" />
    <glyph glyph-name="uni1EBD" unicode="&#x1ebd;" horiz-adv-x="489" 
d="M153 577l-24 -45l-27 1q0 45 20 84t60 39q26 0 91 -20.5t94 -26.5l23 46l28 -2q0 -45 -20 -83.5t-60 -38.5q-27 0 -95.5 20.5t-89.5 25.5zM429 229q-170 -2 -260 -1q12 -74 57 -115.5t111 -41.5q53 0 89 25l14 -20q-52 -87 -170 -87q-109 0 -170.5 66t-61.5 168
q0 111 66 181.5t166 70.5q88 0 138 -56.5t45 -150.5zM165 280q0 -15 1 -22l162 3q6 82 -15.5 132t-57.5 50q-39 0 -64.5 -45.5t-25.5 -117.5z" />
    <glyph glyph-name="uni1ECA" unicode="&#x1eca;" horiz-adv-x="329" 
d="M28 0v28l36 5q28 5 28 34q3 254 0 509q0 29 -28 34l-36 6v28h272v-28l-35 -6q-28 -5 -28 -34q-3 -255 0 -509q0 -29 28 -34l35 -5v-28h-272zM163 -221q-39 0 -59.5 23.5t-20.5 53.5q0 28 21.5 53t59.5 25q35 0 58 -21t23 -55q0 -35 -21 -57t-61 -22z" />
    <glyph glyph-name="uni1ECB" unicode="&#x1ecb;" horiz-adv-x="282" 
d="M139 541q-39 0 -59.5 23.5t-20.5 54.5q0 28 21.5 52.5t59.5 24.5q35 0 58 -20.5t23 -54.5q0 -35 -21 -57.5t-61 -22.5zM23 26l24 5q26 7 27 38q2 150 0 308q-1 32 -27 38q-6 1 -17.5 2.5t-16.5 2.5v25q169 30 173 31l24 -1q-2 -272 -1 -406q0 -29 27 -38l24 -5v-26h-237
v26zM140 -221q-39 0 -59.5 23.5t-20.5 53.5q0 28 21.5 53t59.5 25q35 0 58 -21t23 -55q0 -35 -21 -57t-61 -22z" />
    <glyph glyph-name="uni1ECC" unicode="&#x1ecc;" horiz-adv-x="729" 
d="M363 -11q-156 0 -240 94t-84 237q0 141 87 238t240 97q156 0 240 -94t84 -238q0 -141 -86.5 -237.5t-240.5 -96.5zM377 20q56 0 93.5 44t52.5 106t15 135q0 148 -53.5 233.5t-132.5 85.5q-56 0 -93.5 -44.5t-52 -106t-15.5 -135.5q0 -148 53.5 -233t132.5 -85zM364 -221
q-39 0 -59.5 23.5t-20.5 53.5q0 28 21.5 53t59.5 25q35 0 58 -21t23 -55q0 -35 -21 -57t-61 -22z" />
    <glyph glyph-name="uni1ECD" unicode="&#x1ecd;" horiz-adv-x="551" 
d="M275 -11q-117 0 -177 67.5t-60 173.5q0 104 61.5 174.5t177.5 70.5q115 0 175.5 -66t60.5 -173q0 -106 -61 -176.5t-177 -70.5zM282 19q44 0 68.5 52t24.5 148q0 102 -29 164t-78 62q-44 0 -68.5 -52t-24.5 -148q0 -102 29 -164t78 -62zM274 -221q-39 0 -59.5 23.5
t-20.5 53.5q0 28 21.5 53t59.5 25q35 0 58 -21t23 -55q0 -35 -21 -57t-61 -22z" />
    <glyph glyph-name="uni1EE4" unicode="&#x1ee4;" horiz-adv-x="687" 
d="M349 -12q-129 0 -195 63t-65 191q0 219 -1 330q0 29 -27 36l-37 6v29h283v-29l-50 -7q-28 -6 -28 -37q-1 -173 0 -348q1 -95 44 -143.5t115 -48.5q167 0 167 238v191q0 30 -15 49q-49 69 -80 106v29h209v-29q-26 -39 -62 -103q-13 -20 -13 -49v-185q0 -140 -61.5 -214.5
t-183.5 -74.5zM348 -221q-39 0 -59.5 23.5t-20.5 53.5q0 28 21.5 53t59.5 25q35 0 58 -21t23 -55q0 -35 -21 -57t-61 -22z" />
    <glyph glyph-name="uni1EE5" unicode="&#x1ee5;" horiz-adv-x="569" 
d="M529 49l24 -3v-26q-68 -10 -145 -25l-18 1l-20 67l-15 -10q-73 -65 -156 -65q-58 0 -93 37t-35 98v80.5v98.5v83q0 26 -26 32l-33 7v28l171 21l24 -1q-3 -154 -1 -322q2 -92 68 -92q45 0 89 44q2 158 -1 283q0 26 -25 32l-34 7v28l171 21l24 -1q-2 -199 0 -386
q0 -30 31 -37zM284 -66q35 0 58 -21t23 -55q0 -35 -21 -57t-61 -22q-39 0 -59.5 23.5t-20.5 53.5q0 28 21.5 53t59.5 25z" />
    <glyph glyph-name="Ygrave" unicode="&#x1ef2;" horiz-adv-x="597" 
d="M380 726l-12 -28q-153 11 -251 71l1 30l98 46zM393 643h191v-30q-51 -47 -74 -71q-16 -13 -28 -39l-109 -214q0 -146 1 -218q0 -33 29 -37l40 -5v-29h-278v29l38 5q29 3 29 37q2 111 0 211l-165 301q-12 20 -35 26l-26 5v29h273v-29l-39 -6q-32 -6 -16 -37l136 -249
l90 183q13 25 -6 50q-42 50 -51 59v29z" />
    <glyph glyph-name="ygrave" unicode="&#x1ef3;" horiz-adv-x="503" 
d="M320 543l-18 -24q-141 40 -221 115l6 27l101 25zM320 465h174v-26q-19 -19 -50 -62q-23 -33 -35 -65l-221 -551q-87 6 -136 7v23q43 34 175 147q1 5 4.5 13t5.5 13l-192 439q-11 23 -33 30l-19 6v26h250v-26l-27 -4q-34 -7 -21 -40q30 -79 108 -267l74 188q11 28 -2 48
q-6 8 -17.5 25.5t-20.5 30t-17 19.5v26z" />
    <glyph glyph-name="uni1EF8" unicode="&#x1ef8;" horiz-adv-x="597" 
d="M186 740l-15 -44l-30 2q0 44 20.5 82.5t59.5 38.5q26 0 94 -21t99 -21l14 43l31 -2q0 -44 -20 -82t-60 -38q-26 0 -94 21t-99 21zM393 643h191v-30q-51 -47 -74 -71q-16 -13 -28 -39l-109 -214q0 -146 1 -218q0 -33 29 -37l40 -5v-29h-278v29l38 5q29 3 29 37
q2 111 0 211l-165 301q-12 20 -35 26l-26 5v29h273v-29l-39 -6q-32 -6 -16 -37l136 -249l90 183q13 25 -6 50q-42 50 -51 59v29z" />
    <glyph glyph-name="uni1EF9" unicode="&#x1ef9;" horiz-adv-x="503" 
d="M144 579l-24 -45l-27 1q0 45 20 84t60 39q26 0 91 -20.5t94 -26.5l23 46l28 -2q0 -45 -20 -83.5t-60 -38.5q-27 0 -95.5 20.5t-89.5 25.5zM320 465h174v-26q-19 -19 -50 -62q-23 -33 -35 -65l-221 -551q-87 6 -136 7v23q43 34 175 147q1 5 4.5 13t5.5 13l-192 439
q-11 23 -33 30l-19 6v26h250v-26l-27 -4q-34 -7 -21 -40q30 -79 108 -267l74 188q11 28 -2 48q-6 8 -17.5 25.5t-20.5 30t-17 19.5v26z" />
    <glyph glyph-name="uni2000" unicode="&#x2000;" horiz-adv-x="403" 
 />
    <glyph glyph-name="uni2001" unicode="&#x2001;" horiz-adv-x="806" 
 />
    <glyph glyph-name="uni2002" unicode="&#x2002;" horiz-adv-x="645" 
 />
    <glyph glyph-name="uni2003" unicode="&#x2003;" horiz-adv-x="806" 
 />
    <glyph glyph-name="uni2008" unicode="&#x2008;" horiz-adv-x="212" 
 />
    <glyph glyph-name="uni2009" unicode="&#x2009;" horiz-adv-x="169" 
 />
    <glyph glyph-name="uni200A" unicode="&#x200a;" horiz-adv-x="45" 
 />
    <glyph glyph-name="uni2011" unicode="&#x2011;" horiz-adv-x="445" 
d="M62 294h322v-59h-322v59z" />
    <glyph glyph-name="endash" unicode="&#x2013;" horiz-adv-x="636" 
d="M62 294h512v-59h-512v59z" />
    <glyph glyph-name="emdash" unicode="&#x2014;" horiz-adv-x="879" 
d="M62 235v59h755v-59h-755z" />
    <glyph glyph-name="quoteleft" unicode="&#x2018;" horiz-adv-x="213" 
d="M104 440q-31 2 -52 25.5t-21 64.5q1 57 41.5 113.5t111.5 96.5l18 -26q-87 -56 -107 -114l31 -20q58 -36 54 -75q-1 -31 -23 -49t-53 -16z" />
    <glyph glyph-name="quoteright" unicode="&#x2019;" horiz-adv-x="213" 
d="M109 739q31 -2 52 -26t21 -65q-1 -57 -41.5 -113.5t-111.5 -96.5l-18 27q86 54 107 114l-31 20q-58 34 -54 74q1 31 23 49.5t53 16.5z" />
    <glyph glyph-name="quotesinglbase" unicode="&#x201a;" horiz-adv-x="212" 
d="M29 -148l-18 27q88 57 108 116l-32 19q-57 35 -55 74q1 31 23 50t52 17q32 -2 53 -25.5t21 -64.5q0 -58 -40.5 -115t-111.5 -98z" />
    <glyph glyph-name="quotedblleft" unicode="&#x201c;" horiz-adv-x="404" 
d="M104 439q-31 2 -52 25.5t-21 64.5q1 57 41.5 113.5t111.5 96.5l18 -27q-87 -55 -107 -114l31 -19q58 -36 54 -75q-1 -31 -23 -49t-53 -16zM296 439q-32 2 -53 25.5t-20 64.5q0 57 41 113.5t112 96.5l18 -27q-86 -54 -108 -114l32 -19q57 -36 53 -75q-1 -31 -23 -49
t-52 -16z" />
    <glyph glyph-name="quotedblright" unicode="&#x201d;" horiz-adv-x="404" 
d="M109 736q31 -2 52 -25.5t21 -64.5q-1 -57 -41.5 -113.5t-111.5 -97.5l-18 27q87 56 107 114l-31 20q-28 17 -42 34.5t-12 40.5q1 31 23 49t53 16zM300 736q32 -2 52.5 -25.5t20.5 -64.5q-1 -57 -41.5 -113.5t-111.5 -97.5l-18 27q86 56 108 114l-32 20q-28 18 -42 35
t-12 40q1 31 23 49t53 16z" />
    <glyph glyph-name="quotedblbase" unicode="&#x201e;" horiz-adv-x="404" 
d="M109 91q31 -2 52 -25.5t21 -64.5q-1 -57 -41.5 -113.5t-111.5 -96.5l-18 27q87 55 107 114l-31 20q-58 34 -54 74q1 31 23 49t53 16zM300 91q32 -2 52.5 -25.5t20.5 -64.5q-1 -57 -41.5 -113.5t-111.5 -96.5l-18 27q86 54 108 114l-32 20q-58 35 -54 74q1 31 23 49t53 16
z" />
    <glyph glyph-name="dagger" unicode="&#x2020;" horiz-adv-x="539" 
d="M78 432l129 -9q23 -2 31.5 -9t8.5 -29l3 -528h40l3 528q1 22 9.5 29t30.5 9l128 9v33h-168v167h-46v-167h-168z" />
    <glyph glyph-name="daggerdbl" unicode="&#x2021;" horiz-adv-x="539" 
d="M333 425q-22 -2 -30.5 -9t-9.5 -29l-1 -153l1 -154q1 -21 9.5 -28t30.5 -9l128 -9v-34h-168v-166h-46v166h-168l-1 34l129 9q23 2 31.5 9t8.5 28l1 154l-1 153q0 21 -9 28.5t-31 9.5l-129 9l1 33h168v167h46v-167h168v-33z" />
    <glyph glyph-name="bullet" unicode="&#x2022;" horiz-adv-x="334" 
d="M169 214q-52 0 -80 31.5t-28 72.5q0 38 29 71t81 33q47 0 77.5 -28t30.5 -74q0 -47 -28.5 -76.5t-81.5 -29.5z" />
    <glyph glyph-name="ellipsis" unicode="&#x2026;" horiz-adv-x="801" 
d="M137 -11q-35 0 -55 22t-20 51q0 28 20.5 50.5t55.5 22.5q33 0 55 -20t22 -52t-20.5 -53t-57.5 -21zM399 -11q-35 0 -55 22t-20 51q0 28 20 50.5t56 22.5q33 0 55 -20t22 -52t-20.5 -53t-57.5 -21zM661 -11q-36 0 -55.5 21.5t-19.5 51.5q0 28 20 50.5t56 22.5q33 0 55 -20
t22 -52t-21 -53t-57 -21z" />
    <glyph glyph-name="perthousand" unicode="&#x2030;" horiz-adv-x="1302" 
d="M223 -12h-31l467 666h30zM207 270q-77 0 -122.5 50t-45.5 137q0 86 45.5 136t122.5 50t122.5 -50t45.5 -136q0 -87 -46 -137t-122 -50zM207 288q34 0 52.5 44t18.5 123q0 81 -18.5 125.5t-52.5 44.5t-52.5 -43t-18.5 -122q0 -82 18.5 -127t52.5 -45zM681 -6
q-77 0 -122.5 50t-45.5 137t45.5 137t122.5 50t122.5 -50t45.5 -137t-46 -137t-122 -50zM1095 -6q-77 0 -122.5 50t-45.5 137t45.5 137t122.5 50t122.5 -50t45.5 -137t-46 -137t-122 -50zM681 13q34 0 52.5 43.5t18.5 122.5q0 81 -18.5 125.5t-52.5 44.5t-52.5 -43
t-18.5 -122q0 -82 18.5 -126.5t52.5 -44.5zM1095 13q34 0 52.5 43.5t18.5 122.5q0 81 -18.5 125.5t-52.5 44.5t-52.5 -43t-18.5 -122q0 -82 18.5 -126.5t52.5 -44.5z" />
    <glyph glyph-name="guilsinglleft" unicode="&#x2039;" horiz-adv-x="299" 
d="M267 397l-117 -162l117 -163l-28 -23l-213 161v49l213 161z" />
    <glyph glyph-name="guilsinglright" unicode="&#x203a;" horiz-adv-x="299" 
d="M60 420l213 -161v-49l-213 -161l-28 23l117 163l-117 162z" />
    <glyph glyph-name="fraction" unicode="&#x2044;" horiz-adv-x="65" 
d="M-187 -12h-31l467 666h30z" />
    <glyph glyph-name="uni2070" unicode="&#x2070;" horiz-adv-x="414" 
d="M207 365q-77 0 -122.5 50t-45.5 137t45.5 137t122.5 50t122.5 -50t45.5 -137t-46 -137t-122 -50zM207 384q34 0 52.5 43.5t18.5 122.5q0 81 -18.5 125.5t-52.5 44.5t-52.5 -43t-18.5 -122q0 -82 18.5 -126.5t52.5 -44.5z" />
    <glyph glyph-name="uni2074" unicode="&#x2074;" horiz-adv-x="362" 
d="M287 525h54v-15l-15 -56h-38v-45q0 -15 16 -18l20 -3v-17h-193v17l45 5q18 1 18 17q0 8 0.5 23t0.5 22q-111 0 -167 -1l-11 69l189 212h82q-1 -74 -1 -210zM41 525h154q1 62 -1 170z" />
    <glyph glyph-name="uni2075" unicode="&#x2075;" horiz-adv-x="354" 
d="M161 600q150 0 150 -112q0 -57 -42 -90.5t-119 -33.5q-56 0 -109 7l14 96h17l64 -73q6 -9 15 -9q6 -2 22 0q27 5 45 24.5t18 44.5q0 62 -96 62h-82l-8 7l18 211q115 -1 231 0v-61l-12 -11h-206l-7 -63q30 1 87 1z" />
    <glyph glyph-name="uni2076" unicode="&#x2076;" horiz-adv-x="393" 
d="M222 613q62 0 98 -31.5t36 -84.5q0 -60 -45 -96t-111 -36q-76 0 -118.5 42.5t-42.5 112.5q0 95 74.5 154.5t203.5 67.5l3 -15q-64 -5 -108 -39t-63 -91q29 16 73 16zM201 384q27 0 43.5 23t16.5 69q0 52 -19.5 81.5t-52.5 29.5q-27 0 -48 -18q-5 -30 -5 -58q0 -59 17 -93
t48 -34z" />
    <glyph glyph-name="uni2077" unicode="&#x2077;" horiz-adv-x="343" 
d="M299 734l13 -11l-118 -352h-110l-13 10l203 281h-185q-11 0 -19 -9l-24 -39h-17v120h270z" />
    <glyph glyph-name="uni2078" unicode="&#x2078;" horiz-adv-x="383" 
d="M235 584q37 -21 57.5 -34.5t39.5 -36.5t19 -46q0 -54 -46 -78.5t-111 -24.5q-72 0 -117 22t-45 63q0 33 28.5 55t76.5 30q-87 51 -87 104q0 47 39.5 74t101.5 27q66 0 104 -21.5t38 -57.5q0 -33 -29 -52.5t-69 -23.5zM191 721q-26 0 -42.5 -13t-16.5 -31q0 -22 23 -41.5
t68 -44.5q27 19 27 62q0 31 -16 49.5t-43 18.5zM194 382q31 0 50 13t19 35q0 8 -3 15.5t-10 15.5t-13 13.5t-19.5 13.5l-20 12t-23.5 13.5t-23 12.5q-33 -27 -33 -72q0 -31 21 -51.5t55 -20.5z" />
    <glyph glyph-name="uni2079" unicode="&#x2079;" horiz-adv-x="390" 
d="M192 739q72 0 115.5 -41.5t43.5 -106.5q0 -93 -71.5 -155t-194.5 -72l-3 14q57 8 99.5 44t61.5 91q-31 -15 -76 -15q-59 0 -95 31.5t-36 83.5q0 56 44 91t112 35zM203 521q27 0 47 18q5 27 5 51q0 131 -63 131q-27 0 -44 -24t-17 -68q0 -49 20 -78.5t52 -29.5z" />
    <glyph glyph-name="uni2080" unicode="&#x2080;" horiz-adv-x="414" 
d="M207 -151q-77 0 -122.5 50t-45.5 137t45.5 137t122.5 50t122.5 -50t45.5 -137t-46 -137t-122 -50zM207 -132q34 0 52.5 43.5t18.5 122.5q0 81 -18.5 125.5t-52.5 44.5t-52.5 -43t-18.5 -122q0 -82 18.5 -126.5t52.5 -44.5z" />
    <glyph glyph-name="uni2081" unicode="&#x2081;" horiz-adv-x="239" 
d="M31 -128l26 3q17 3 17 19q2 137 0 257q0 16 -17 16h-24l-7 15l125 38h16q-2 -166 0 -326q0 -16 17 -19l26 -3v-17h-179v17z" />
    <glyph glyph-name="uni2082" unicode="&#x2082;" horiz-adv-x="354" 
d="M292 -28h18l-24 -117h-261v15l62 65.5t54.5 64.5t47 72t15.5 61q0 24 -11 43t-28 25q-17 8 -32 3q-9 0 -15 -12l-49 -98h-17l-15 102q73 27 132 27q62 0 97 -23t35 -66q0 -90 -186 -195v-4h145q14 0 21 13z" />
    <glyph glyph-name="uni2083" unicode="&#x2083;" horiz-adv-x="348" 
d="M164 40q67 1 104 -21.5t37 -64.5q0 -47 -45.5 -76.5t-119.5 -29.5q-61 0 -112 8l16 101h17l49 -78q0 -1 6 -4q7 -7 21 -7q29 0 50 21.5t21 52.5q0 40 -28.5 62t-78.5 23v17q43 5 69 33.5t26 63.5q0 22 -11.5 39t-31.5 22q-15 4 -25 1q-10 0 -17 -12l-41 -83h-17l-19 86
q73 29 136 29q59 0 90.5 -23t31.5 -57q0 -78 -128 -101v-2z" />
    <glyph glyph-name="uni2084" unicode="&#x2084;" horiz-adv-x="362" 
d="M287 9h54v-15l-15 -56h-38v-45q0 -15 16 -18l20 -3v-17h-193v17l45 5q18 1 18 17q0 8 0.5 23t0.5 22q-111 0 -167 -1l-11 69l189 212h82q-1 -74 -1 -210zM41 9h154q1 62 -1 170z" />
    <glyph glyph-name="uni2085" unicode="&#x2085;" horiz-adv-x="354" 
d="M161 84q150 0 150 -112q0 -57 -42 -90.5t-119 -33.5q-56 0 -109 7l14 96h17l64 -73q6 -9 15 -9q6 -2 22 0q27 5 45 24.5t18 44.5q0 62 -96 62h-82l-8 7l18 211q116 -1 231 0v-61l-12 -11h-206l-7 -63q30 1 87 1z" />
    <glyph glyph-name="uni2086" unicode="&#x2086;" horiz-adv-x="393" 
d="M222 97q62 0 98 -31.5t36 -84.5q0 -60 -45 -96t-111 -36q-76 0 -118.5 42.5t-42.5 112.5q0 95 74.5 154.5t203.5 67.5l3 -15q-64 -5 -108 -39t-63 -91q29 16 73 16zM201 -132q27 0 43.5 23t16.5 69q0 52 -19.5 81.5t-52.5 29.5q-27 0 -48 -18q-5 -30 -5 -58q0 -59 17 -93
t48 -34z" />
    <glyph glyph-name="uni2087" unicode="&#x2087;" horiz-adv-x="343" 
d="M299 218l13 -11l-118 -352h-110l-13 10l203 281h-185q-11 0 -19 -9l-24 -39h-17v120h270z" />
    <glyph glyph-name="uni2088" unicode="&#x2088;" horiz-adv-x="383" 
d="M235 68q37 -21 57.5 -34.5t39.5 -36.5t19 -46q0 -54 -46 -78.5t-111 -24.5q-72 0 -117 22t-45 63q0 33 28.5 55t76.5 30q-87 51 -87 104q0 47 39.5 74t101.5 27q66 0 104 -21.5t38 -57.5q0 -33 -29 -52.5t-69 -23.5zM191 205q-26 0 -42.5 -13t-16.5 -31q0 -22 23 -41.5
t68 -44.5q27 19 27 62q0 31 -16 49.5t-43 18.5zM194 -134q31 0 50 13t19 35q0 8 -3 15.5t-10 15.5t-13 13.5t-19.5 13.5l-20 12t-23.5 13.5t-23 12.5q-33 -27 -33 -72q0 -31 21 -51.5t55 -20.5z" />
    <glyph glyph-name="uni2089" unicode="&#x2089;" horiz-adv-x="390" 
d="M192 223q72 0 115.5 -41.5t43.5 -106.5q0 -93 -71.5 -155t-194.5 -72l-3 14q57 8 99.5 44t61.5 91q-31 -15 -76 -15q-59 0 -95 31.5t-36 83.5q0 56 44 91t112 35zM203 5q27 0 47 18q5 27 5 51q0 131 -63 131q-27 0 -44 -24t-17 -68q0 -49 20 -78.5t52 -29.5z" />
    <glyph glyph-name="Euro" unicode="&#x20ac;" horiz-adv-x="637" 
d="M534 211h25q-19 -122 -34 -186q-79 -36 -172 -36q-117 0 -188.5 73t-86.5 197h-75v24h73q-1 11 -1 34q0 14 2 38h-74v25h77q17 116 92 188.5t192 72.5q87 0 190 -37q-6 -98 -18 -191h-24l-68 125q-47 77 -91 77q-55 0 -89 -63.5t-39 -171.5h171v-25h-172v-17q0 -19 2 -55
h170v-24h-168q11 -106 46.5 -174t83.5 -68q40 0 99 83q18 23 42 59.5t35 51.5z" />
    <glyph glyph-name="uni2113" unicode="&#x2113;" horiz-adv-x="528" 
d="M225 57q59 0 109 76l53 -34q-68 -104 -162 -104q-48 0 -79.5 31.5t-42.5 87.5q-62 -16 -71 -18l-11 61q39 9 76 21q0 120 32.5 227.5t87.5 172.5t117 65q47 0 76.5 -35.5t29.5 -90.5q0 -132 -71 -229t-207 -153q11 -78 63 -78zM334 580q-39 0 -78.5 -53.5t-66 -142
t-29.5 -182.5q218 98 218 315q0 30 -12 46.5t-32 16.5z" />
    <glyph glyph-name="trademark" unicode="&#x2122;" horiz-adv-x="777" 
d="M314 644v-123h-22l-42 84q-8 14 -23 14h-12q-2 -127 0 -243q0 -18 18 -23l16 -4v-23h-157v23l13 2q17 6 17 24q0 7 0.5 124t-0.5 120h-14q-13 0 -21 -13l-49 -85h-22q2 32 7 123h291zM712 346l13 -3v-17h-151l3 17l11 3q14 10 12 24q-15 117 -23 207l-71 -255h-14v1h-1v1
l-95 264l-15 -141q-3 -18 6 -39q22 -48 33 -65v-17h-98v17q3 6 9.5 17.5t11.5 22t10 27.5q9 19 10 36l17 150q3 20 -17 26l-17 5v17h128l59 -169l47 169h123v-17l-17 -4q-19 -9 -17 -26q5 -40 14 -118l13 -112q2 -17 16 -21z" />
    <glyph glyph-name="uni2126" unicode="&#x2126;" horiz-adv-x="698" 
d="M92 1v75l122 -1q-119 109 -119 275q0 54 13.5 104t42 94t79.5 70t119 26t119 -26t79.5 -70t42 -94t13.5 -104q0 -163 -119 -275h123v-74h-216v60q130 116 130 288q0 56 -14.5 103t-55 82t-102.5 35q-47 0 -81.5 -19.5t-54 -52.5t-28.5 -70.5t-9 -78.5q0 -170 131 -287
v-60h-215z" />
    <glyph glyph-name="estimated" unicode="&#x212e;" horiz-adv-x="722" 
d="M369 31q137 0 217 130l34 -21q-47 -75 -107 -113t-148 -38q-126 0 -212.5 89t-86.5 233q0 154 88 239.5t214 85.5q118 0 200.5 -86.5t87.5 -244.5h-462v-191q25 -37 71 -60t104 -23zM367 595q-108 0 -173 -74v-175h337v171q-26 36 -70 57t-94 21z" />
    <glyph glyph-name="uni2153" unicode="&#x2153;" horiz-adv-x="749" 
d="M545 654h30l-466 -666h-31zM57 294q17 3 17 18q2 139 0 257q0 17 -17 17h-24l-7 14l125 39h16q-2 -167 0 -327q0 -16 17 -18l26 -4v-17h-179v17zM566 185q67 1 104 -21.5t37 -64.5q0 -47 -45.5 -76.5t-119.5 -29.5q-61 0 -112 8l16 101h17l49 -78q0 -1 6 -4q7 -7 21 -7
q29 0 50 21.5t21 52.5q0 40 -28.5 62t-78.5 23v17q43 5 69 33.5t26 63.5q0 22 -11.5 39t-31.5 22q-15 4 -25 1q-10 0 -17 -12l-41 -83h-17l-19 86q73 29 136 29q59 0 90.5 -23t31.5 -57q0 -78 -128 -101v-2z" />
    <glyph glyph-name="uni2154" unicode="&#x2154;" horiz-adv-x="839" 
d="M634 654h30l-466 -666h-31zM310 391l-24 -118h-261v15l62.5 66.5t54 63.5t47.5 72.5t15 60.5q0 24 -11 43.5t-28 25.5q-18 6 -32 3q-9 -1 -15 -12l-49 -99h-17l-15 102q73 27 132 27q62 0 97 -23t35 -65q0 -91 -186 -196v-3h145q14 0 21 12l11 25h18zM655 185
q67 1 104 -21.5t37 -64.5q0 -47 -45.5 -76.5t-119.5 -29.5q-61 0 -112 8l16 101h17l49 -78q0 -1 6 -4q7 -7 21 -7q29 0 50 21.5t21 52.5q0 40 -28.5 62t-78.5 23v17q43 5 69 33.5t26 63.5q0 22 -11.5 39t-31.5 22q-15 4 -25 1q-10 0 -17 -12l-41 -83h-17l-19 86
q73 29 136 29q59 0 90.5 -23t31.5 -57q0 -78 -128 -101v-2z" />
    <glyph glyph-name="uni2155" unicode="&#x2155;" horiz-adv-x="720" 
d="M545 654h30l-466 -666h-31zM57 294q17 3 17 18q2 139 0 257q0 17 -17 17h-24l-7 14l125 39h16q-2 -167 0 -327q0 -16 17 -18l26 -4v-17h-179v17zM528 229q150 0 150 -112q0 -57 -42 -90.5t-119 -33.5q-57 0 -109 7l14 96h17l64 -73q6 -9 15 -9q6 -2 22 0q27 5 45 24.5
t18 44.5q0 62 -96 62h-82l-8 7l18 211q116 -1 231 0v-61l-12 -11h-206l-7 -63q30 1 87 1z" />
    <glyph glyph-name="uni2156" unicode="&#x2156;" horiz-adv-x="810" 
d="M634 654h30l-466 -666h-31zM310 391l-24 -118h-261v15l62.5 66.5t54 63.5t47.5 72.5t15 60.5q0 24 -11 43.5t-28 25.5q-18 6 -32 3q-9 -1 -15 -12l-49 -99h-17l-15 102q73 27 132 27q62 0 97 -23t35 -65q0 -91 -186 -196v-3h145q14 0 21 12l11 25h18zM617 229
q150 0 150 -112q0 -57 -42 -90.5t-119 -33.5q-56 0 -109 7l14 96h17l64 -73q6 -9 15 -9q6 -2 22 0q27 5 45 24.5t18 44.5q0 62 -96 62h-82l-8 7l18 211q116 -1 231 0v-61l-12 -11h-206l-7 -63q30 1 87 1z" />
    <glyph glyph-name="uni2157" unicode="&#x2157;" horiz-adv-x="783" 
d="M608 654h30l-466 -666h-31zM305 373q0 -48 -45.5 -77.5t-119.5 -29.5q-54 0 -112 9l16 101h17l49 -78q1 -2 6 -5q8 -7 21 -7q30 0 50.5 21.5t20.5 53.5q0 39 -28.5 61.5t-78.5 22.5v17q43 6 69 34t26 63q0 22 -11.5 39t-31.5 23q-12 3 -25 1q-11 -1 -17 -13l-41 -83h-17
l-19 87q70 28 136 28q59 0 90.5 -22.5t31.5 -57.5q0 -78 -128 -100v-2q67 1 104 -22t37 -64zM590 229q150 0 150 -112q0 -57 -42 -90.5t-119 -33.5q-57 0 -109 7l14 96h17l64 -73q6 -9 15 -9q6 -2 22 0q27 5 45 24.5t18 44.5q0 62 -96 62h-82l-8 7l18 211q115 -1 231 0v-61
l-12 -11h-206l-7 -63q30 1 87 1z" />
    <glyph glyph-name="uni2158" unicode="&#x2158;" horiz-adv-x="833" 
d="M657 654h30l-466 -666h-31zM176 295q18 1 18 18q0 8 0.5 22.5t0.5 21.5h-167l-11 69l189 212h82q-1 -75 -1 -210h54v-16l-15 -55h-38v-45q0 -16 16 -19l20 -3v-17h-193v17zM41 428q50 -1 154 -1q1 62 -1 170zM640 229q150 0 150 -112q0 -57 -42 -90.5t-119 -33.5
q-57 0 -109 7l14 96h17l64 -73q6 -9 15 -9q6 -2 22 0q27 5 45 24.5t18 44.5q0 62 -96 62h-82l-8 7l18 211q115 -1 231 0v-61l-12 -11h-206l-7 -63q30 1 87 1z" />
    <glyph glyph-name="uni2159" unicode="&#x2159;" horiz-adv-x="721" 
d="M545 654h30l-466 -666h-31zM57 294q17 3 17 18q2 139 0 257q0 17 -17 17h-24l-7 14l125 39h16q-2 -167 0 -327q0 -16 17 -18l26 -4v-17h-179v17zM550 242q62 0 98 -31.5t36 -84.5q0 -60 -45 -96t-111 -36q-76 0 -118.5 42.5t-42.5 112.5q0 95 74.5 154.5t203.5 67.5
l3 -15q-64 -5 -108 -39t-63 -91q29 16 73 16zM529 13q27 0 43.5 23t16.5 69q0 52 -19.5 81.5t-52.5 29.5q-27 0 -48 -18q-5 -30 -5 -58q0 -59 17 -93t48 -34z" />
    <glyph glyph-name="uni215A" unicode="&#x215a;" horiz-adv-x="785" 
d="M609 654h30l-466 -666h-31zM173 288q27 5 45 24t18 44q0 63 -96 63q-49 0 -82 -1l-8 8l18 210h231v-61l-12 -11h-206l-7 -62h87q150 0 150 -112q0 -57 -42 -90.5t-119 -33.5q-61 0 -109 8l14 95h17l64 -73q6 -9 15 -9q4 -1 22 1zM614 242q62 0 98 -31.5t36 -84.5
q0 -60 -45 -96t-111 -36q-76 0 -118.5 42.5t-42.5 112.5q0 95 74.5 154.5t203.5 67.5l3 -15q-64 -5 -108 -39t-63 -91q29 16 73 16zM593 13q27 0 43.5 23t16.5 69q0 52 -19.5 81.5t-52.5 29.5q-27 0 -48 -18q-5 -30 -5 -58q0 -59 17 -93t48 -34z" />
    <glyph glyph-name="oneeighth" unicode="&#x215b;" horiz-adv-x="736" 
d="M545 654h30l-466 -666h-31zM57 294q17 3 17 18q2 139 0 257q0 17 -17 17h-24l-7 14l125 39h16q-2 -167 0 -327q0 -16 17 -18l26 -4v-17h-179v17zM588 213q37 -21 57.5 -34.5t39.5 -36.5t19 -46q0 -54 -46 -78.5t-111 -24.5q-72 0 -117 22t-45 63q0 33 28.5 55t76.5 30
q-87 51 -87 104q0 47 39.5 74t101.5 27q66 0 104 -21.5t38 -57.5q0 -33 -29 -52.5t-69 -23.5zM544 350q-26 0 -42.5 -13t-16.5 -31q0 -22 23 -41.5t68 -44.5q27 19 27 62q0 31 -16 49.5t-43 18.5zM547 11q31 0 50 13t19 35q0 8 -3 15.5t-10 15.5t-13 13.5t-19.5 13.5l-20 12
t-23.5 13.5t-23 12.5q-33 -27 -33 -72q0 -31 21 -51.5t55 -20.5z" />
    <glyph glyph-name="threeeighths" unicode="&#x215c;" horiz-adv-x="798" 
d="M608 654h30l-466 -666h-31zM305 373q0 -48 -45.5 -77.5t-119.5 -29.5q-54 0 -112 9l16 101h17l49 -78q1 -2 6 -5q8 -7 21 -7q30 0 50.5 21.5t20.5 53.5q0 39 -28.5 61.5t-78.5 22.5v17q43 6 69 34t26 63q0 22 -11.5 39t-31.5 23q-12 3 -25 1q-11 -1 -17 -13l-41 -83h-17
l-19 87q70 28 136 28q59 0 90.5 -22.5t31.5 -57.5q0 -78 -128 -100v-2q67 1 104 -22t37 -64zM650 213q37 -21 57.5 -34.5t39.5 -36.5t19 -46q0 -54 -46 -78.5t-111 -24.5q-72 0 -117 22t-45 63q0 33 28.5 55t76.5 30q-87 51 -87 104q0 47 39.5 74t101.5 27q66 0 104 -21.5
t38 -57.5q0 -33 -29 -52.5t-69 -23.5zM606 350q-26 0 -42.5 -13t-16.5 -31q0 -22 23 -41.5t68 -44.5q27 19 27 62q0 31 -16 49.5t-43 18.5zM609 11q31 0 50 13t19 35q0 8 -3 15.5t-10 15.5t-13 13.5t-19.5 13.5l-20 12t-23.5 13.5t-23 12.5q-33 -27 -33 -72q0 -31 21 -51.5
t55 -20.5z" />
    <glyph glyph-name="fiveeighths" unicode="&#x215d;" horiz-adv-x="800" 
d="M609 654h30l-466 -666h-31zM173 288q27 5 45 24t18 44q0 63 -96 63q-49 0 -82 -1l-8 8l18 210h231v-61l-12 -11h-206l-7 -62h87q150 0 150 -112q0 -57 -42 -90.5t-119 -33.5q-61 0 -109 8l14 95h17l64 -73q6 -9 15 -9q4 -1 22 1zM652 213q37 -21 57.5 -34.5t39.5 -36.5
t19 -46q0 -54 -46 -78.5t-111 -24.5q-72 0 -117 22t-45 63q0 33 28.5 55t76.5 30q-87 51 -87 104q0 47 39.5 74t101.5 27q66 0 104 -21.5t38 -57.5q0 -33 -29 -52.5t-69 -23.5zM608 350q-26 0 -42.5 -13t-16.5 -31q0 -22 23 -41.5t68 -44.5q27 19 27 62q0 31 -16 49.5
t-43 18.5zM611 11q31 0 50 13t19 35q0 8 -3 15.5t-10 15.5t-13 13.5t-19.5 13.5l-20 12t-23.5 13.5t-23 12.5q-33 -27 -33 -72q0 -31 21 -51.5t55 -20.5z" />
    <glyph glyph-name="seveneighths" unicode="&#x215e;" horiz-adv-x="748" 
d="M558 654h30l-466 -666h-31zM312 626l-118 -353h-110l-13 11l203 280h-185q-13 0 -19 -9l-24 -39h-17v120h270zM600 213q37 -21 57.5 -34.5t39.5 -36.5t19 -46q0 -54 -46 -78.5t-111 -24.5q-72 0 -117 22t-45 63q0 33 28.5 55t76.5 30q-87 51 -87 104q0 47 39.5 74
t101.5 27q66 0 104 -21.5t38 -57.5q0 -33 -29 -52.5t-69 -23.5zM556 350q-26 0 -42.5 -13t-16.5 -31q0 -22 23 -41.5t68 -44.5q27 19 27 62q0 31 -16 49.5t-43 18.5zM559 11q31 0 50 13t19 35q0 8 -3 15.5t-10 15.5t-13 13.5t-19.5 13.5l-20 12t-23.5 13.5t-23 12.5
q-33 -27 -33 -72q0 -31 21 -51.5t55 -20.5z" />
    <glyph glyph-name="partialdiff" unicode="&#x2202;" horiz-adv-x="551" 
d="M513 284q1 -151 -66.5 -223t-180.5 -72q-108 0 -167.5 65t-59.5 165q0 112 68.5 179t179.5 67q25 0 48 -6q-32 79 -88 133.5t-130 76.5l7 29q171 -20 279.5 -134.5t109.5 -279.5zM282 22q92 0 92 226q0 92 -25 173q-24 14 -52 13q-57 -1 -87.5 -56t-30.5 -150
q0 -93 27 -149.5t76 -56.5z" />
    <glyph glyph-name="uni2206" unicode="&#x2206;" horiz-adv-x="656" 
d="M533 0h-409l-40 39l203 595h81l204 -595zM190 85h276l-138 422z" />
    <glyph glyph-name="product" unicode="&#x220f;" horiz-adv-x="600" 
d="M532 637v-84h-79v-691h-86v691h-119v-691h-86v691h-86v84h456z" />
    <glyph glyph-name="summation" unicode="&#x2211;" horiz-adv-x="600" 
d="M500 -64v-83h-412l181 406l-183 377h414v-82h-282l142 -294l-145 -324h285z" />
    <glyph glyph-name="minus" unicode="&#x2212;" horiz-adv-x="531" 
d="M84 277v83h363v-83h-363z" />
    <glyph glyph-name="uni2215" unicode="&#x2215;" horiz-adv-x="65" 
d="M-187 -12h-31l467 666h30z" />
    <glyph glyph-name="uni2219" unicode="&#x2219;" horiz-adv-x="334" 
d="M169 214q-52 0 -80 31.5t-28 72.5q0 38 29 71t81 33q47 0 77.5 -28t30.5 -74q0 -47 -28.5 -76.5t-81.5 -29.5z" />
    <glyph glyph-name="radical" unicode="&#x221a;" horiz-adv-x="638" 
d="M426 637h168v-87h-104l-202 -645l-86 -1l-140 335l96 2l84 -212z" />
    <glyph glyph-name="infinity" unicode="&#x221e;" horiz-adv-x="783" 
d="M541 167q-95 0 -149 94q-59 -94 -151 -94q-67 0 -112 41t-45 111q0 71 44.5 112t112.5 41q93 0 150 -94q56 94 149 94q69 0 114 -41t45 -112q0 -70 -45 -111t-113 -41zM244 232q66 0 117 87q-49 89 -117 89q-40 0 -66 -23.5t-26 -65.5q0 -41 26 -64t66 -23zM539 232
q40 0 65.5 23t25.5 64q0 42 -25.5 65.5t-65.5 23.5q-69 0 -118 -89q51 -87 118 -87z" />
    <glyph glyph-name="integral" unicode="&#x222b;" horiz-adv-x="453" 
d="M159 -169q-46 0 -93 22v77q43 -16 68 -16q46 0 46 51v560q0 117 114 117q50 0 93 -22v-77q-40 16 -68 16q-46 0 -46 -51v-560q0 -117 -114 -117z" />
    <glyph glyph-name="approxequal" unicode="&#x2248;" horiz-adv-x="548" 
d="M117 347l-33 2q0 51 25 94.5t73 43.5q31 0 110.5 -23t115.5 -29l29 51l34 -2q-1 -52 -26 -95t-73 -43q-32 0 -113.5 23t-111.5 29zM117 161l-33 2q0 51 25 95t73 44q32 0 112 -23.5t114 -29.5l29 51l34 -1q-1 -52 -26 -95t-73 -43q-33 0 -116 23.5t-109 28.5z" />
    <glyph glyph-name="notequal" unicode="&#x2260;" horiz-adv-x="531" 
d="M447 370h-147l-39 -101h186v-82h-218l-51 -134h-29l51 134h-116v82h148l39 101h-187v83h219l51 134h29l-51 -134h115v-83z" />
    <glyph glyph-name="lessequal" unicode="&#x2264;" horiz-adv-x="531" 
d="M447 205l-363 144v74l363 144v-86l-246 -95l246 -96v-85zM84 79v83h363v-83h-363z" />
    <glyph glyph-name="greaterequal" unicode="&#x2265;" horiz-adv-x="532" 
d="M84 205v85l246 96l-246 95v86l363 -144v-74zM447 79h-363v83h363v-83z" />
    <glyph glyph-name="lozenge" unicode="&#x25ca;" horiz-adv-x="600" 
d="M295 -26l-192 342l192 342l192 -342zM295 103l119 213l-119 212l-119 -212z" />
    <glyph glyph-name="uni00ED006A0301" unicode="&#xe132;" horiz-adv-x="575" 
d="M101 509l-23 19l82 159h106l16 -26q-73 -97 -181 -152zM393 509l-23 19l82 159h106l16 -26q-73 -97 -181 -152zM23 26l24 5q26 7 27 38q2 150 0 308q-1 32 -27 38q-6 1 -17.5 2.5t-16.5 2.5v25q169 30 173 31l24 -1q-2 -272 -1 -406q0 -29 27 -38l24 -5v-26h-237v26z
M286 -215q46 11 62.5 55.5t17.5 135.5q2 204 0 398q0 37 -25 41q-15 2 -47 4v26q22 4 85.5 14t98.5 17l24 -1q-1 -136 -1 -428q1 -139 -53.5 -204.5t-157.5 -79.5z" />
    <glyph glyph-name="uni00CD00A40301" unicode="&#xe133;" horiz-adv-x="651" 
d="M96 699l-12 28l164 119l98 -46l1 -30q-98 -60 -251 -71zM422 699l-13 28l165 119l97 -46l1 -30q-98 -60 -250 -71zM28 197v28l36 6q28 4 28 34q3 155 0 311q0 29 -28 34l-36 6v28h272v-28l-35 -6q-28 -5 -28 -34q-3 -156 0 -311q0 -29 28 -34l35 -6v-28h-272zM329 -32
q-102 0 -186 9q4 125 7 187h28l78 -115q36 -50 80 -50q43 0 62 43.5t20 129.5q1 198 0 402q0 31 -28 36l-43 6v28h280v-28l-36 -6q-28 -6 -28 -36v-369q1 -113 -62.5 -175t-171.5 -62z" />
    <glyph glyph-name="uniF8FF" unicode="&#xf8ff;" horiz-adv-x="1000" 
d="M500 -32l-241 32l-89 220q-19 45 -36 59.5t-42 14.5v369h137q43 0 72 -28.5t29 -72.5v-116h67v217h206v-217h67v116q0 44 29 72.5t72 28.5h137v-369q-24 0 -41.5 -14.5t-36.5 -59.5l-89 -220zM327 214h70q25 0 41.5 13t16.5 35v32h-185v-32q0 -23 16 -35.5t41 -12.5z
M603 214h70q25 0 41 12.5t16 35.5v32h-185v-32q0 -22 16.5 -35t41.5 -13z" />
    <glyph glyph-name="fi" unicode="&#xfb01;" horiz-adv-x="565" 
d="M521 32l25 -6v-26h-236v26l26 6q26 9 26 37q2 146 0 308q0 27 -10 38.5t-39 12.5q-19 1 -55.5 2.5t-53.5 1.5q0 -243 1 -362q0 -31 25 -37l34 -7v-26h-243v26l25 6q26 9 27 37q1 124 -1 366q-10 1 -29 1t-28 1v27h57q3 81 41 140t94.5 85.5t122.5 26.5q102 0 160 -28
l-44 -143h-32q-24 59 -42 91q-11 26 -24.5 36.5t-36.5 10.5q-55 0 -80.5 -54t-26.5 -143v-22h291q-2 -259 -1 -395q0 -29 27 -37z" />
    <glyph glyph-name="fl" unicode="&#xfb02;" horiz-adv-x="570" 
d="M528 31l24 -6v-25h-237v25l24 5q26 7 26 38q3 263 0 562q-6 25 -23 41t-40 16q-93 0 -95 -198v-24h100v-23l-49 -20l-51 3q0 -239 1 -352q0 -33 25 -41l33 -6v-26h-245v26l26 6q26 8 26 34q1 180 0 368q-11 1 -30.5 2.5t-27.5 1.5v27h58q4 124 74.5 189.5t176.5 65.5
q94 0 178 -20q-3 -359 -1 -632q0 -31 27 -37z" />
    <glyph glyph-name="f_b" horiz-adv-x="858" 
d="M640 476q84 0 132 -58.5t48 -157.5q0 -124 -68 -197.5t-179 -73.5q-96 0 -155 51q-19 -22 -33 -47h-20q4 298 0 637q-7 25 -24.5 41t-39.5 16q-92 0 -94 -198v-24h100v-24q-32 -12 -49 -19l-51 3q0 -239 1 -352q0 -30 25 -36l51 -11v-26h-263v26l26 6q26 8 26 34
q1 180 0 368q-11 1 -30.5 2.5t-27.5 1.5v27h58q4 124 74.5 189.5t176.5 65.5q93 0 177 -20v-268q73 44 139 44zM585 17q94 0 94 190q0 100 -29.5 156.5t-81.5 56.5q-31 0 -67 -24v-237v-21q0 -51 23.5 -86t60.5 -35z" />
    <glyph glyph-name="f_h" horiz-adv-x="868" 
d="M826 30l24 -4v-26h-243v26l30 5q27 5 27 38q1 131 0 253q-1 88 -68 88q-37 0 -95 -40q0 -251 1 -301q0 -31 27 -38l30 -5v-26h-243v26l24 5q26 5 26 38q3 227 -1 561q-16 57 -63 57q-93 0 -95 -198v-24h100v-24q-32 -12 -49 -19l-51 3q-2 -238 1 -352q0 -32 25 -38l40 -9
v-26h-252v26l26 6q26 8 26 34q1 180 0 368q-11 1 -30.5 2.5t-27.5 1.5v27h58q4 124 74.5 189.5t176.5 65.5q94 0 178 -20v-142t-1 -148l28 16q86 51 142 51q58 0 93 -36.5t35 -98.5v-273q0 -31 27 -39z" />
    <glyph glyph-name="f_j" horiz-adv-x="560" 
d="M500 465q-2 -199 0 -418q0 -140 -54.5 -205.5t-157.5 -79.5l-5 22q46 11 63 56t19 137q2 139 0 404q-1 27 -11 37.5t-36 11.5l-111 3q0 -304 1 -363q0 -31 24 -38l36 -6v-26h-247v26l26 5q25 9 25 37q2 119 0 368q-10 0 -29 1t-28 1v27h57q3 122 79 189t180 67
q103 0 163 -29l-43 -146h-31l-18 41t-19 42q-18 34 -33 46t-37 12q-54 0 -79.5 -53.5t-26.5 -143.5v-25h293z" />
    <glyph glyph-name="f_k" horiz-adv-x="871" 
d="M502 69q0 -33 27 -38l32 -5v-26h-245v26l24 5q27 7 27 38q2 224 -1 561q-7 25 -24.5 41t-40.5 16q-92 0 -94 -198v-24h100v-24q-32 -12 -49 -19l-51 3q-2 -238 1 -352q0 -32 25 -38l40 -9v-26h-252v26l26 6q26 8 26 34q1 180 0 368q-11 1 -30.5 2.5t-27.5 1.5v27h58
q4 124 74.5 189.5t176.5 65.5q93 0 177 -20q-1 -123 0 -339.5t1 -291.5zM841 31l22 -5v-26h-175l-162 278l145 98l-62 67v22h215v-27l-170 -114l159 -270q11 -18 28 -23z" />
    <glyph glyph-name="f_ij" horiz-adv-x="858" 
d="M494 69q0 -29 27 -37l25 -6v-26h-236v26l26 6q26 9 26 37q2 146 0 308q0 27 -10 38.5t-39 12.5q-19 1 -55.5 2.5t-53.5 1.5q0 -243 1 -362q0 -31 25 -37l34 -7v-26h-243v26l25 6q26 9 27 37q1 124 -1 366q-10 1 -29 1t-28 1v27h57q3 81 41 140t94.5 85.5t122.5 26.5
q102 0 160 -28l-44 -143h-32q-24 59 -42 91q-11 26 -24.5 36.5t-36.5 10.5q-55 0 -80.5 -54t-26.5 -143v-22h291q-2 -259 -1 -395zM714 541q-39 0 -59.5 23.5t-20.5 54.5q0 28 21.5 52.5t59.5 24.5q35 0 58 -20.5t23 -54.5q0 -35 -21 -57.5t-61 -22.5zM761 476l24 -1
q-1 -136 -1 -428q1 -139 -53.5 -204.5t-157.5 -79.5l-4 22q46 11 62.5 55.5t17.5 135.5q2 204 0 398q0 37 -25 41q-15 2 -47 4v26q22 4 85.5 14t98.5 17z" />
    <glyph glyph-name="f_f_b" horiz-adv-x="1157" 
d="M939 476q84 0 132 -58.5t48 -157.5q0 -124 -68 -197.5t-179 -73.5q-96 0 -155 51q-19 -22 -33 -47l-20 1q4 297 0 636q-7 25 -24.5 41t-39.5 16q-92 0 -94 -198v-24h100v-23l-49 -20q-8 1 -25 1.5t-26 0.5q0 -238 1 -351q0 -30 25 -36l51 -11v-26h-263v26l26 6
q26 8 26 34q1 177 0 362q-53 1 -165 5q-1 -183 0 -365q1 -29 27 -36l34 -6v-26h-247v26l26 6q25 7 26 34q1 182 0 370q-10 0 -29 0.5t-29 1.5v27h58q3 114 71 179.5t171 65.5q78 0 139 -48q67 58 169 58q93 0 177 -20v-268q73 44 139 44zM207 465h165q1 59 21 111
q-25 57 -44.5 79.5t-43.5 22.5q-44 0 -70.5 -51t-27.5 -144v-18zM883 17q95 0 95 190q0 100 -29.5 156.5t-81.5 56.5q-31 0 -67 -24v-237v-21q0 -51 23.5 -86t59.5 -35z" />
    <glyph glyph-name="f_f_h" horiz-adv-x="1167" 
d="M1125 30l24 -4v-26h-243v26l30 5q27 5 27 38q1 131 0 253q-1 88 -68 88q-37 0 -95 -40q0 -251 1 -301q0 -31 27 -38l30 -5v-26h-243v26l24 5q26 5 26 38q3 227 -1 561q-16 57 -63 57q-93 0 -95 -198v-24h100v-23l-49 -20q-8 1 -25.5 1.5t-25.5 0.5q-2 -237 1 -351
q0 -32 25 -38l40 -9v-26h-252v26l26 6q26 8 26 34q1 177 0 362q-53 1 -165 5q-1 -183 0 -365q1 -29 27 -36l34 -6v-26h-247v26l26 6q25 7 26 34q1 182 0 370q-10 0 -29 0.5t-29 1.5v27h58q3 114 71 179.5t171 65.5q78 0 139 -48q67 58 169 58q94 0 178 -20q-1 -45 -1 -142.5
v-147.5l28 16q86 51 142 51q58 0 93 -36.5t35 -98.5v-84v-101v-88q0 -31 27 -39zM207 465h165q2 65 21 111q-25 57 -44.5 79.5t-43.5 22.5q-44 0 -70.5 -51t-27.5 -144v-18z" />
    <glyph glyph-name="f_f_j" horiz-adv-x="861" 
d="M802 465q-1 -65 -1 -418q1 -140 -53.5 -205.5t-158.5 -79.5l-4 22q46 11 63 56t18 137v404q0 27 -10.5 37.5t-36.5 11.5q-37 1 -110 1q-2 -181 0 -361q0 -31 25 -38l35 -6v-26h-246v26l25 5q25 9 26 37q1 179 0 365q-114 2 -167 2q-1 -183 0 -367q1 -29 27 -36l34 -6v-26
h-247v26l26 6q25 7 26 34q1 183 0 371q-9 0 -28.5 0.5t-29.5 0.5v27h58q3 114 71 179.5t171 65.5q82 0 145 -49q72 60 172 60q103 0 163 -29l-42 -146h-32q-21 49 -37 83q-18 34 -33 46t-37 12q-54 0 -79.5 -53.5t-25.5 -143.5v-25h293zM207 483v-18h167q1 60 21 107
q-26 59 -46 82.5t-44 23.5q-44 0 -70.5 -51t-27.5 -144z" />
    <glyph glyph-name="f_f_k" horiz-adv-x="1170" 
d="M801 69q0 -33 27 -38l32 -5v-26h-245v26l24 5q27 7 27 38q2 224 -1 561q-7 25 -24.5 41t-40.5 16q-92 0 -94 -198v-24h100v-23l-49 -20q-8 1 -25.5 1.5t-25.5 0.5q-2 -237 1 -351q0 -32 25 -38l40 -9v-26h-252v26l26 6q26 8 26 34q1 177 0 362q-53 1 -165 5
q-1 -183 0 -365q1 -29 27 -36l34 -6v-26h-247v26l26 6q25 7 26 34q1 182 0 370q-10 0 -29 0.5t-29 1.5v27h58q3 114 71 179.5t171 65.5q80 0 138 -49q66 59 170 59q93 0 177 -20q-1 -123 0 -339.5t1 -291.5zM207 465h165q2 65 21 111q-25 57 -44.5 79.5t-43.5 22.5
q-44 0 -70.5 -51t-27.5 -144v-18zM1140 31l22 -5v-26h-175l-162 278l145 98l-62 67v22h215v-27l-171 -114l160 -270q11 -18 28 -23z" />
    <glyph glyph-name="f_f_ij" horiz-adv-x="1164" 
d="M800 69q1 -29 27 -38l25 -5v-26h-239v26l26 6q26 7 26 37q2 147 0 310q0 27 -10 38t-39 12q-18 0 -54 0.5t-54 1.5q-2 -183 0 -361q0 -31 25 -37l35 -7v-26h-246v26l25 5q25 9 26 37q1 179 0 365q-28 0 -83.5 0.5t-82.5 1.5v-371q0 -23 27 -32l32 -6v-26h-245v26l26 6
q25 8 26 34v118.5v139v113.5q-9 0 -28.5 0.5t-29.5 0.5v27h58q4 115 71.5 180t170.5 65q71 0 143 -50q71 61 173 61q103 0 163 -29l-42 -146h-32q-21 49 -37 83q-18 34 -33 46t-37 12q-54 0 -79.5 -53.5t-25.5 -143.5v-25h293q-2 -265 -1 -396zM1020 541q-39 0 -59.5 23.5
t-20.5 54.5q0 28 21.5 52.5t59.5 24.5q35 0 58 -20.5t23 -54.5q0 -35 -21 -57.5t-61 -22.5zM207 483v-18h166q1 60 21 107q-26 59 -46 82.5t-43 23.5q-44 0 -70.5 -51t-27.5 -144zM1067 476l24 -1q-1 -136 -1 -428q1 -139 -53.5 -204.5t-157.5 -79.5l-4 22q46 11 62.5 55.5
t17.5 135.5q2 204 0 398q0 37 -25 41q-15 2 -47 4v26q22 4 85.5 14t98.5 17z" />
    <glyph glyph-name="a.sc" horiz-adv-x="499" 
d="M494 30l13 -3v-27h-230v27l20 3q32 7 20 36l-36 98q-85 -1 -169 0l-7 -17q-12 -29 6 -61l34 -59v-27h-151v27l34 45q26 29 38 57l137 337l90 28q153 -399 169 -437q10 -23 32 -27zM124 194q72 -1 145 0l-72 180z" />
    <glyph glyph-name="b.sc" horiz-adv-x="522" 
d="M326 268q75 -7 124 -39.5t49 -88.5q0 -68 -64 -104t-165 -36h-240v27l24 4q25 5 25 28q3 145 0 363q0 23 -25 28l-24 4v27h239q99 0 148.5 -27t49.5 -75q0 -44 -38.5 -72.5t-102.5 -35.5v-3zM253 455q-8 0 -34 -4q0 -30 -0.5 -89t-0.5 -88h58q16 0 32.5 24t16.5 61
q0 44 -21 70t-51 26zM272 27q33 0 57 25.5t24 73.5q0 54 -26.5 88.5t-75.5 33.5h-33q0 -139 1 -217q34 -4 53 -4z" />
    <glyph glyph-name="c.sc" horiz-adv-x="541" 
d="M290 -9q-118 0 -189.5 67t-71.5 180q0 111 71.5 182t195.5 71q109 0 193 -30l-16 -152h-27l-33.5 51l-30.5 46q-41 56 -97 56q-51 0 -80.5 -50.5t-29.5 -154.5q0 -111 35 -174.5t90 -63.5q43 0 99 68q42 46 72 84h27l-33 -154q-68 -26 -175 -26z" />
    <glyph glyph-name="d.sc" horiz-adv-x="587" 
d="M30 0v27l24 4q25 5 25 28q3 181 0 364q0 24 -26 27l-23 4v27h250q131 0 205 -64t74 -171q0 -113 -76.5 -179.5t-203.5 -66.5h-249zM278 29q59 0 96.5 54.5t37.5 150.5q0 100 -36 159.5t-105 59.5q-18 0 -52 -4q-1 -208 0 -415q32 -5 59 -5z" />
    <glyph glyph-name="e.sc" horiz-adv-x="460" 
d="M410 151h26l-15 -151h-391v27l24 4q25 4 25 28q3 188 0 364q0 22 -25 27l-24 4v27h398q-11 -82 -19 -135h-25q-42 57 -72 92q-14 16 -28 16h-32q-10 0 -33 -7q0 -31 -0.5 -91t-0.5 -90h47q17 0 33 15q14 11 41 38h26q-1 -79 0 -156h-26q-12 19 -43 60q-13 17 -31 17h-47
q1 -34 1.5 -102.5t0.5 -103.5l67 -6q19 -2 33 15q68 79 90 108z" />
    <glyph glyph-name="f.sc" horiz-adv-x="451" 
d="M30 481h399l-20 -135h-27q-21 33 -71 93q-11 15 -27 15h-32q-12 0 -33 -7q-1 -66 -1 -197h37q17 0 33 16l41 39h28q-1 -83 0 -174h-28q-22 42 -43 74q-11 19 -32 19h-36q0 -28 0.5 -82t0.5 -80q2 -25 25 -29l46 -7v-26h-260v27l24 4q25 4 25 28q3 185 0 364q0 22 -25 27
l-24 4v27z" />
    <glyph glyph-name="g.sc" horiz-adv-x="549" 
d="M311 234h228v-27l-15 -3q-22 -6 -22 -31q-1 -73 0 -147q-82 -35 -212 -35q-118 0 -189.5 66.5t-71.5 181.5q0 112 73.5 181.5t189.5 69.5q107 0 197 -29l-16 -155h-27q-12 20 -35 55.5l-29 44.5q-43 56 -97 56q-51 0 -80.5 -50.5t-29.5 -152.5q0 -111 34 -175.5t91 -64.5
q19 0 38.5 11.5t31.5 31.5q0 74 -1 109q0 27 -28 32l-30 4v27z" />
    <glyph glyph-name="h.sc" horiz-adv-x="630" 
d="M575 450q-23 -5 -23 -28q-4 -216 0 -363q0 -23 23 -28l25 -4v-27h-238v27l25 4q24 5 24 28q1 57 1 178q-129 -2 -194 -1q0 -30 0.5 -89t0.5 -88q1 -22 25 -28l24 -4v-27h-238v27l25 4q24 5 24 28q3 182 0 363q0 22 -24 28l-25 4v27h238v-27l-24 -4q-24 -6 -25 -28
q0 -26 -0.5 -78t-0.5 -77q96 -1 194 0q0 104 -1 155q0 22 -24 28l-25 4v27h238v-27z" />
    <glyph glyph-name="i.sc" horiz-adv-x="299" 
d="M30 0v27l24 4q25 5 25 28q3 179 0 363q0 23 -25 28l-24 4v27h239v-27l-24 -4q-25 -5 -25 -28q-3 -182 0 -363q0 -23 25 -28l24 -4v-27h-239z" />
    <glyph glyph-name="j.sc" horiz-adv-x="418" 
d="M160 -10q-76 0 -146 24l6 158h27q42 -79 81 -136q10 -19 30 -19q44 0 46 116q1 75 -1 286q0 27 -25 31l-30 4v27h244v-27l-24 -4q-24 -4 -25 -31v-254q1 -84 -48 -129.5t-135 -45.5z" />
    <glyph glyph-name="k.sc" horiz-adv-x="571" 
d="M219 60q0 -24 25 -29l26 -4v-27h-240v27l24 4q25 5 25 29q2 117 0 362q0 25 -25 28l-24 4v27h240v-27l-26 -4q-25 -3 -25 -28q-3 -182 0 -362zM553 31l20 -4v-27h-174l-154 255l115 106q24 20 17 43l-20 54v23h189v-27l-71 -42q-33 -22 -47 -34l-70 -62l168 -266
q7 -12 27 -19z" />
    <glyph glyph-name="l.sc" horiz-adv-x="449" 
d="M30 0v27l24 4q25 4 25 29q3 184 0 363q0 22 -25 27l-24 4v27h240v-27l-26 -4q-24 -6 -25 -27q-2 -214 1 -387l64 -7q19 -3 31 14q29 42 87 134h27q-8 -96 -18 -177h-381z" />
    <glyph glyph-name="m.sc" horiz-adv-x="653" 
d="M618 32l23 -5v-27h-234v27l27 4q23 6 22 33q-14 169 -30 331l-122 -400h-25l-150 405l-27 -224q-3 -30 12 -57q22 -43 56 -92v-27h-161v27q16 27 45 91q15 29 18 57l31 235q2 17 -3.5 25.5t-21.5 11.5l-31 7v27h196l97 -271l83 271h193v-27l-31 -6q-26 -4 -25 -38
q14 -163 33 -350q2 -25 25 -28z" />
    <glyph glyph-name="n.sc" horiz-adv-x="567" 
d="M373 482h162v-27q-21 -56 -37 -106q-11 -30 -11 -48v-302h-129l-249 416v-224q0 -21 15 -44l80 -123v-24h-172v24q14 37 37 111q11 32 11 56v254q-5 2 -17 4l-32 5v27h196l231 -394v210q0 28 -14 47q-10 15 -34.5 54.5t-36.5 56.5v27z" />
    <glyph glyph-name="o.sc" horiz-adv-x="585" 
d="M292 -10q-127 0 -195 71t-68 179q0 105 70 178t194 73q127 0 195 -70.5t68 -179.5q0 -105 -70 -178t-194 -73zM301 19q51 0 79.5 51.5t29.5 156.5q1 111 -34.5 173t-91.5 62q-51 0 -79.5 -51t-29.5 -156q-1 -112 34.5 -174t91.5 -62z" />
    <glyph glyph-name="p.sc" horiz-adv-x="511" 
d="M487 349q0 -73 -58 -118.5t-162 -45.5q-19 0 -49 2q0 -23 0.5 -64t0.5 -59q0 -28 27 -32l39 -5v-27h-255v27l24 4q23 4 25 29q2 236 0 361q-2 25 -25 29l-24 4v27h256q96 0 148.5 -35.5t52.5 -96.5zM218 226q27 -12 47 -12q77 0 77 124q0 47 -26.5 81t-66.5 34
q-8 0 -30 -2q-1 -65 -1 -225z" />
    <glyph glyph-name="q.sc" horiz-adv-x="585" 
d="M410 12l347 -118v-23l-181 -28l-235 150q-23 -3 -49 -3q-127 0 -195 71t-68 179q0 105 70 178t194 73q127 0 195 -70.5t68 -179.5q0 -76 -38 -137.5t-108 -91.5zM175 255q-1 -99 27 -159.5t75 -73.5l23 29q27 -10 49 -17q60 42 61 193q1 111 -34.5 173t-91.5 62
q-51 0 -79.5 -51t-29.5 -156z" />
    <glyph glyph-name="r.sc" horiz-adv-x="538" 
d="M525 31l20 -4v-27h-171l-124 211h-33q0 -98 1 -148q0 -26 25 -32l31 -4v-27h-245v27l24 4q24 4 24 28q5 181 0 363q0 23 -24 28l-24 4v27h257q97 0 149 -32.5t52 -91.5q0 -46 -30.5 -79.5t-84.5 -51.5h17l114 -181q9 -12 22 -14zM218 451q-2 -135 -1 -203q25 -9 50 -9
q34 0 53.5 27t19.5 78q0 47 -26 78t-65 31q-7 0 -31 -2z" />
    <glyph glyph-name="s.sc" horiz-adv-x="446" 
d="M213 -10q-107 0 -165 34q1 23 2.5 74t2.5 67h27l42 -55t44 -58q24 -33 71 -33q63 0 63 50q0 28 -26 54.5t-63 50l-74 48.5t-63 59t-26 72q0 62 47 100t141 38q76 0 158 -27q-20 -86 -26 -124h-27q-38 58 -64 92q-17 30 -59 30q-28 0 -43.5 -13t-15.5 -34q0 -26 26 -52.5
t63 -50.5l74.5 -49t63 -58t25.5 -69q0 -72 -53.5 -109t-144.5 -37z" />
    <glyph glyph-name="t.sc" horiz-adv-x="520" 
d="M492 482v-170h-27l-74 123q-14 22 -34 22l-25 1q-3 -267 0 -399q0 -24 25 -28l32 -4v-27h-248v27l27 5q23 3 23 27q3 190 0 399l-24 -1q-20 -2 -32 -21l-84 -124h-27q2 30 4.5 89.5t3.5 80.5h460z" />
    <glyph glyph-name="u.sc" horiz-adv-x="573" 
d="M297 -9q-112 0 -167.5 47.5t-54.5 145.5q0 162 -1 234q-1 26 -24 32l-25 4v27h245v-27l-32 -5q-24 -5 -24 -32q-2 -79 0 -254q1 -68 34 -101.5t86 -33.5q126 0 126 167v113q0 24 -15 50q-19 30 -67 99v24h175v-24q-36 -64 -49 -96q-13 -26 -13 -52v-103q0 -215 -194 -215
z" />
    <glyph glyph-name="v.sc" horiz-adv-x="520" 
d="M334 481h176v-27q-49 -78 -66 -112q-15 -21 -29 -58l-113 -290h-83l-168 431q-8 20 -28 26l-14 3v27h241v-27l-31 -4q-30 -5 -20 -35l113 -312l78 207q11 28 1 46l-32 54.5l-25 43.5v27z" />
    <glyph glyph-name="w.sc" horiz-adv-x="817" 
d="M630 481h177v-27q-49 -79 -67 -112q-14 -22 -28 -58l-110 -290h-83l-102 282l-115 -282h-83l-166 431q-7 20 -30 26l-14 3v27h241v-27l-28 -3q-29 -5 -18 -34q43 -128 112 -313l76 201q8 21 0 41l-33 80q-9 23 -25 25l-22 3v27h241v-27l-26 -3q-27 -5 -17 -36
q33 -102 104 -306l73 201q11 28 1 46l-58 98v27z" />
    <glyph glyph-name="x.sc" horiz-adv-x="568" 
d="M538 34l25 -7v-27h-270v27l23 6q23 15 -2 52l-91 133l-58 -68q-25 -29 -3 -55q18 -22 60 -68v-27h-218v27q70 64 140 142l63 74l-115 168q-20 29 -46 36l-25 7v27h269v-27l-22 -6q-22 -14 3 -52l79 -116l54 63q24 29 2 52q-15 20 -52 59v27h192v-27q-51 -47 -122 -128
l-58 -69l127 -186q21 -30 45 -37z" />
    <glyph glyph-name="y.sc" horiz-adv-x="507" 
d="M332 482h161v-27l-20 -20t-23.5 -24.5l-19.5 -21.5q-12 -10 -21 -29l-84 -154q0 -125 1 -150q0 -20 21 -25l30 -4v-27h-243v27l30 4q21 3 21 25q3 71 1 148l-128 227q-10 17 -29 20l-18 3v28h244v-28l-29 -3q-27 -5 -13 -28l101 -189l66 128q10 18 -6 40l-42 53v27z" />
    <glyph glyph-name="z.sc" horiz-adv-x="496" 
d="M332 48l96 153h27q-1 -32 -3.5 -99.5t-4.5 -101.5h-419l-1 18l269 437l-96 -1q-23 0 -35 -18l-92 -139h-27q1 65 5 185h411l1 -18l-269 -436l103 2q22 0 35 18z" />
    <glyph glyph-name="exclam.sc" horiz-adv-x="217" 
d="M93 170l-66 307l147 37l16 -13l-71 -331h-26zM105 -11q-36 0 -56 22t-20 51q0 28 20.5 50.5t56.5 22.5q33 0 55 -20t22 -52t-21 -53t-57 -21z" />
    <glyph glyph-name="exclamdown.sc" horiz-adv-x="217" 
d="M112 492q36 0 56 -22t20 -51q0 -28 -20.5 -50.5t-56.5 -22.5q-33 0 -55 20t-22 52t21 53t57 21zM124 311l66 -307l-147 -37l-16 13l71 331h26z" />
    <glyph glyph-name="question.sc" horiz-adv-x="328" 
d="M170 511q66 0 101 -31t35 -82q0 -85 -101 -171l-41 -35l-5 -22h-27l-33 123l41 29q84 60 84 111q0 24 -16 37.5t-43 13.5q-19 0 -36 -9l-59 -102h-27l-21 104q70 34 148 34zM146 135q33 0 55 -20t22 -52t-21 -53t-57 -21t-55.5 21.5t-19.5 51.5q0 28 20 50.5t56 22.5z
" />
    <glyph glyph-name="questiondown.sc" horiz-adv-x="328" 
d="M182 346q-33 0 -55 20t-22 52t21 53t57 21t55.5 -21.5t19.5 -51.5q0 -28 -20 -50.5t-56 -22.5zM285 108l21 -104q-70 -34 -148 -34q-66 0 -101 31t-35 82q0 85 101 171l41 35l5 22h27l33 -123l-41 -29q-84 -60 -84 -111q0 -24 16 -37.5t43 -13.5q19 0 36 9l59 102h27z
" />
    <glyph glyph-name="zero.zero" horiz-adv-x="612" 
d="M306 644q118 0 189 -87.5t71 -238.5q0 -152 -71 -239.5t-189 -87.5q-119 0 -189.5 87.5t-70.5 238.5t70.5 239t189.5 88zM192 321q-2 -170 42 -248l127 514q-24 27 -55 27q-54 0 -84 -77t-30 -216zM306 20q54 0 84 77t30 216q0 152 -35 235l-126 -509q22 -19 47 -19z" />
    <glyph glyph-name="zero.osf" horiz-adv-x="605" 
d="M302 -11q-123 0 -190.5 66t-67.5 182q0 117 68 185t190 68q124 0 191.5 -66.5t67.5 -182.5q0 -117 -68 -184.5t-191 -67.5zM303 19q55 0 84.5 55t29.5 162q0 109 -30 167t-85 58t-84.5 -56t-29.5 -163q0 -110 30 -166.5t85 -56.5z" />
    <glyph glyph-name="one.osf" horiz-adv-x="321" 
d="M28 27l38 7q26 4 27 30q2 165 0 332q-1 26 -27 27l-34 1l-8 28l179 39h28q-2 -226 0 -427q0 -25 27 -30l38 -7v-27h-268v27z" />
    <glyph glyph-name="two.osf" horiz-adv-x="523" 
d="M180 97l288 21v-26l-69 -92h-360v27q56 40 94.5 71t81.5 74.5t65.5 88.5t22.5 90q0 47 -21.5 77t-51.5 30t-48 -20q-7 -9 -14 -25l-56 -134h-27l-35 164q103 47 203 47q92 0 144 -36.5t52 -105.5q0 -145 -269 -249v-2z" />
    <glyph glyph-name="three.osf" horiz-adv-x="508" 
d="M240 173q105 0 163 -40t58 -113q0 -83 -70 -133t-187 -50q-104 0 -171 15l23 169h26l74 -128q2 -9 10 -14q15 -11 36 -11q48 0 80.5 38t32.5 95q0 70 -44.5 109.5t-125.5 40.5v26q69 12 110.5 61t41.5 111q0 40 -19.5 70.5t-53.5 38.5q-23 4 -41 -2q-16 -3 -23 -21
l-63 -137h-27l-28 143q104 49 209 49q92 0 140.5 -38t48.5 -99q0 -65 -50 -110.5t-150 -66.5v-3z" />
    <glyph glyph-name="four.osf" horiz-adv-x="526" 
d="M433 102h74v-26l-14 -37l-15 -40h-45q0 -25 0.5 -74t0.5 -73h-139q1 49 1 148q-175 0 -262 -1l-16 88l296 399h120q-2 -257 -1 -384zM63 102q78 -1 233 -1q1 105 -1 314z" />
    <glyph glyph-name="five.osf" horiz-adv-x="516" 
d="M227 246q119 -1 175.5 -48.5t56.5 -145.5q0 -99 -64.5 -157t-183.5 -58q-93 0 -168 13l20 162h27l93 -122q10 -16 25 -17q13 -5 35 -2q45 8 75 43t30 84q0 119 -152 119h-127l-13 12l28 351q178 -1 356 0v-93l-18 -20q-159 1 -318 0l-11 -122q47 1 134 1z" />
    <glyph glyph-name="six.osf" horiz-adv-x="579" 
d="M327 418q96 0 152.5 -54.5t56.5 -146.5q0 -103 -69.5 -165t-172.5 -62q-117 0 -183 73t-66 196q0 163 116 269t314 122l6 -25q-102 -11 -172.5 -74t-99.5 -165q47 32 118 32zM295 20q45 0 71.5 42t26.5 122q0 89 -30.5 139.5t-83.5 50.5q-45 0 -81 -36q-8 -46 -8 -93
q0 -106 28 -165.5t77 -59.5z" />
    <glyph glyph-name="seven.osf" horiz-adv-x="511" 
d="M453 480l18 -17l-188 -619h-163l-19 17l314 507h-291q-19 0 -28 -15l-37 -69h-25l-1 196h420z" />
    <glyph glyph-name="eight.osf" horiz-adv-x="564" 
d="M349 364q42 -25 66 -41.5t54 -42.5t44 -54t14 -59q0 -91 -70.5 -135t-170.5 -44q-111 0 -180 39.5t-69 111.5q0 57 43.5 96t118.5 56q-63 39 -99 80.5t-36 97.5q0 80 60.5 127.5t156.5 47.5q102 0 160.5 -37.5t58.5 -102.5q0 -58 -43.5 -93t-107.5 -47zM281 614
q-42 0 -68 -24.5t-26 -61.5q0 -42 36 -75.5t106 -75.5q47 39 47 116q0 55 -25.5 88t-69.5 33zM286 18q50 0 79.5 25t29.5 67q0 12 -2.5 23t-10 21.5t-13 19t-19 19.5l-21 17t-25.5 17l-25.5 15.5l-29 17t-27.5 16.5q-56 -48 -56 -130q0 -56 32.5 -92t87.5 -36z" />
    <glyph glyph-name="nine.osf" horiz-adv-x="576" 
d="M276 490q112 0 179 -71t67 -185q0 -162 -110.5 -270.5t-299.5 -128.5l-7 24q90 16 158 80.5t97 162.5q-49 -28 -121 -28q-92 0 -147.5 54.5t-55.5 145.5q0 96 67 156t173 60zM292 114q44 0 78 34q8 43 8 86q0 110 -26.5 168.5t-76.5 58.5q-43 0 -70.5 -42.5t-27.5 -119.5
q0 -85 31.5 -135t83.5 -50z" />
    <glyph glyph-name="zero.numr" horiz-adv-x="414" 
d="M207 270q-77 0 -122.5 50t-45.5 137t45.5 137t122.5 50t122.5 -50t45.5 -137t-46 -137t-122 -50zM207 289q34 0 52.5 43.5t18.5 122.5q0 81 -18.5 125.5t-52.5 44.5t-52.5 -43t-18.5 -122q0 -82 18.5 -126.5t52.5 -44.5z" />
    <glyph glyph-name="one.numr" horiz-adv-x="239" 
d="M31 290l26 3q17 3 17 19q2 137 0 257q0 16 -17 16h-24l-7 15l125 38h16q-2 -166 0 -326q0 -16 17 -19l26 -3v-17h-179v17z" />
    <glyph glyph-name="two.numr" horiz-adv-x="354" 
d="M292 390h18l-24 -117h-261v15l62 65.5t54.5 64.5t47 72t15.5 61q0 24 -11 43t-28 25q-17 8 -32 3q-9 0 -15 -12l-49 -98h-17l-15 102q73 27 132 27q62 0 97 -23t35 -66q0 -90 -186 -195v-4h145q14 0 21 13z" />
    <glyph glyph-name="three.numr" horiz-adv-x="348" 
d="M164 458q67 1 104 -21.5t37 -64.5q0 -47 -45.5 -76.5t-119.5 -29.5q-61 0 -112 8l16 101h17l49 -78q0 -1 6 -4q7 -7 21 -7q29 0 50 21.5t21 52.5q0 40 -28.5 62t-78.5 23v17q43 5 69 33.5t26 63.5q0 22 -11.5 39t-31.5 22q-15 4 -25 1q-10 0 -17 -12l-41 -83h-17l-19 86
q72 29 136 29q59 0 90.5 -23t31.5 -57q0 -78 -128 -101v-2z" />
    <glyph glyph-name="four.numr" horiz-adv-x="362" 
d="M287 427h54v-15l-15 -56h-38v-45q0 -15 16 -18l20 -3v-17h-193v17l45 5q18 1 18 17q0 8 0.5 23t0.5 22q-111 0 -167 -1l-11 69l189 212h82q-1 -74 -1 -210zM41 427h154q1 62 -1 170z" />
    <glyph glyph-name="five.numr" horiz-adv-x="354" 
d="M161 502q150 0 150 -112q0 -57 -42 -90.5t-119 -33.5q-56 0 -109 7l14 96h17l64 -73q6 -9 15 -9q6 -2 22 0q27 5 45 24.5t18 44.5q0 62 -96 62h-82l-8 7l18 211q115 -1 231 0v-61l-12 -11h-206l-7 -63q30 1 87 1z" />
    <glyph glyph-name="six.numr" horiz-adv-x="393" 
d="M222 515q62 0 98 -31.5t36 -84.5q0 -60 -45 -96t-111 -36q-76 0 -118.5 42.5t-42.5 112.5q0 95 74.5 154.5t203.5 67.5l3 -15q-64 -5 -108 -39t-63 -91q29 16 73 16zM201 286q27 0 43.5 23t16.5 69q0 52 -19.5 81.5t-52.5 29.5q-27 0 -48 -18q-5 -30 -5 -58q0 -59 17 -93
t48 -34z" />
    <glyph glyph-name="seven.numr" horiz-adv-x="343" 
d="M299 636l13 -11l-118 -352h-110l-13 10l203 281h-185q-11 0 -19 -9l-24 -39h-17v120h270z" />
    <glyph glyph-name="eight.numr" horiz-adv-x="383" 
d="M235 486q37 -21 57.5 -34.5t39.5 -36.5t19 -46q0 -54 -46 -78.5t-111 -24.5q-72 0 -117 22t-45 63q0 33 28.5 55t76.5 30q-87 51 -87 104q0 47 39.5 74t101.5 27q66 0 104 -21.5t38 -57.5q0 -33 -29 -52.5t-69 -23.5zM191 623q-26 0 -42.5 -13t-16.5 -31q0 -22 23 -41.5
t68 -44.5q27 19 27 62q0 31 -16 49.5t-43 18.5zM194 284q31 0 50 13t19 35q0 8 -3 15.5t-10 15.5t-13 13.5t-19.5 13.5l-20 12t-23.5 13.5t-23 12.5q-33 -27 -33 -72q0 -31 21 -51.5t55 -20.5z" />
    <glyph glyph-name="nine.numr" horiz-adv-x="390" 
d="M192 641q72 0 115.5 -41.5t43.5 -106.5q0 -93 -71.5 -155t-194.5 -72l-3 14q57 8 99.5 44t61.5 91q-31 -15 -76 -15q-59 0 -95 31.5t-36 83.5q0 56 44 91t112 35zM203 423q27 0 47 18q5 27 5 51q0 131 -63 131q-27 0 -44 -24t-17 -68q0 -49 20 -78.5t52 -29.5z" />
    <glyph glyph-name="zero.dnom" horiz-adv-x="414" 
d="M207 -6q-77 0 -122.5 50t-45.5 137t45.5 137t122.5 50t122.5 -50t45.5 -137t-46 -137t-122 -50zM207 13q34 0 52.5 43.5t18.5 122.5q0 81 -18.5 125.5t-52.5 44.5t-52.5 -43t-18.5 -122q0 -82 18.5 -126.5t52.5 -44.5z" />
    <glyph glyph-name="one.dnom" horiz-adv-x="239" 
d="M31 17l26 3q17 3 17 19q2 137 0 257q0 16 -17 16h-24l-7 15l125 38h16q-2 -166 0 -326q0 -16 17 -19l26 -3v-17h-179v17z" />
    <glyph glyph-name="two.dnom" horiz-adv-x="354" 
d="M292 117h18l-24 -117h-261v15l62 65.5t54.5 64.5t47 72t15.5 61q0 24 -11 43t-28 25q-17 8 -32 3q-9 0 -15 -12l-49 -98h-17l-15 102q73 27 132 27q62 0 97 -23t35 -66q0 -90 -186 -195v-4h145q14 0 21 13z" />
    <glyph glyph-name="three.dnom" horiz-adv-x="348" 
d="M164 185q67 1 104 -21.5t37 -64.5q0 -47 -45.5 -76.5t-119.5 -29.5q-61 0 -112 8l16 101h17l49 -78q0 -1 6 -4q7 -7 21 -7q29 0 50 21.5t21 52.5q0 40 -28.5 62t-78.5 23v17q43 5 69 33.5t26 63.5q0 22 -11.5 39t-31.5 22q-15 4 -25 1q-10 0 -17 -12l-41 -83h-17l-19 86
q73 29 136 29q59 0 90.5 -23t31.5 -57q0 -78 -128 -101v-2z" />
    <glyph glyph-name="four.dnom" horiz-adv-x="362" 
d="M287 154h54v-15l-15 -56h-38v-45q0 -15 16 -18l20 -3v-17h-193v17l45 5q18 2 18 17q0 8 0.5 22.5t0.5 22.5q-111 0 -167 -1l-11 69l189 212h82q-1 -74 -1 -210zM41 154h154q1 62 -1 170z" />
    <glyph glyph-name="five.dnom" horiz-adv-x="354" 
d="M161 229q150 0 150 -112q0 -57 -42 -90.5t-119 -33.5q-56 0 -109 7l14 96h17l64 -73q6 -9 15 -9q6 -2 22 0q27 5 45 24.5t18 44.5q0 62 -96 62h-82l-8 7l18 211q116 -1 231 0v-61l-12 -11h-206l-7 -63q30 1 87 1z" />
    <glyph glyph-name="six.dnom" horiz-adv-x="393" 
d="M222 242q62 0 98 -31.5t36 -84.5q0 -60 -45 -96t-111 -36q-76 0 -118.5 42.5t-42.5 112.5q0 95 74.5 154.5t203.5 67.5l3 -15q-64 -5 -108 -39t-63 -91q29 16 73 16zM201 13q27 0 43.5 23t16.5 69q0 52 -19.5 81.5t-52.5 29.5q-27 0 -48 -18q-5 -30 -5 -58q0 -59 17 -93
t48 -34z" />
    <glyph glyph-name="seven.dnom" horiz-adv-x="343" 
d="M299 363l13 -11l-118 -352h-110l-13 10l203 281h-185q-11 0 -19 -9l-24 -39h-17v120h270z" />
    <glyph glyph-name="eight.dnom" horiz-adv-x="383" 
d="M235 213q37 -21 57.5 -34.5t39.5 -36.5t19 -46q0 -54 -46 -78.5t-111 -24.5q-72 0 -117 22t-45 63q0 33 28.5 55t76.5 30q-87 51 -87 104q0 47 39.5 74t101.5 27q66 0 104 -21.5t38 -57.5q0 -33 -29 -52.5t-69 -23.5zM191 350q-26 0 -42.5 -13t-16.5 -31q0 -22 23 -41.5
t68 -44.5q27 19 27 62q0 31 -16 49.5t-43 18.5zM194 11q31 0 50 13t19 35q0 8 -3 15.5t-10 15.5t-13 13.5t-19.5 13.5l-20 12t-23.5 13.5t-23 12.5q-33 -27 -33 -72q0 -31 21 -51.5t55 -20.5z" />
    <glyph glyph-name="nine.dnom" horiz-adv-x="390" 
d="M192 368q72 0 115.5 -41.5t43.5 -106.5q0 -93 -71.5 -155t-194.5 -72l-3 14q57 8 99.5 44t61.5 91q-31 -15 -76 -15q-59 0 -95 31.5t-36 83.5q0 56 44 91t112 35zM203 150q27 0 47 18q5 27 5 51q0 131 -63 131q-27 0 -44 -24t-17 -68q0 -49 20 -78.5t52 -29.5z" />
    <glyph glyph-name="aacute.sc" horiz-adv-x="499" 
d="M423 649q-80 -75 -222 -115l-17 24l132 143l100 -25zM494 30l13 -3v-27h-230v27l20 3q32 7 20 36l-36 98q-85 -1 -169 0l-7 -17q-12 -29 6 -61l34 -59v-27h-151v27l34 45q26 29 38 57l137 337l90 28q153 -399 169 -437q10 -23 32 -27zM124 194q72 -1 145 0l-72 180z" />
    <glyph glyph-name="abreve.sc" horiz-adv-x="499" 
d="M253 537q-129 0 -140 159l41 4q4 -39 31.5 -60t67.5 -21q39 0 66.5 21.5t31.5 59.5l41 -4q-9 -159 -139 -159zM494 30l13 -3v-27h-230v27l20 3q32 7 20 36l-36 98q-85 -1 -169 0l-7 -17q-12 -29 6 -61l34 -59v-27h-151v27l34 45q26 29 38 57l137 337l90 28
q153 -399 169 -437q10 -23 32 -27zM124 194q72 -1 145 0l-72 180z" />
    <glyph glyph-name="acircumflex.sc" horiz-adv-x="499" 
d="M252 600l-121 -72l-25 23q57 86 128 153h37q70 -63 127 -153l-25 -23zM494 30l13 -3v-27h-230v27l20 3q32 7 20 36l-36 98q-85 -1 -169 0l-7 -17q-12 -29 6 -61l34 -59v-27h-151v27l34 45q26 29 38 57l137 337l90 28q153 -399 169 -437q10 -23 32 -27zM124 194
q72 -1 145 0l-72 180z" />
    <glyph glyph-name="adieresis.sc" horiz-adv-x="499" 
d="M158 541q-32 0 -49.5 21.5t-17.5 48.5q0 25 18 47t50 22q30 0 49 -18.5t19 -49.5t-17.5 -51t-51.5 -20zM347 541q-33 0 -50.5 21.5t-17.5 48.5q0 25 18.5 47t50.5 22q29 0 48.5 -18.5t19.5 -49.5t-18 -51t-51 -20zM494 30l13 -3v-27h-230v27l20 3q32 7 20 36l-36 98
q-85 -1 -169 0l-7 -17q-12 -29 6 -61l34 -59v-27h-151v27l34 45q26 29 38 57l137 337l90 28q153 -399 169 -437q10 -23 32 -27zM124 194q72 -1 145 0l-72 180z" />
    <glyph glyph-name="uni1EA1.sc" horiz-adv-x="499" 
d="M494 30l13 -3v-27h-230v27l20 3q32 7 20 36l-36 98q-85 -1 -169 0l-7 -17q-12 -29 6 -61l34 -59v-27h-151v27l34 45q26 29 38 57l137 337l90 28q153 -399 169 -437q10 -23 32 -27zM124 194q72 -1 145 0l-72 180zM252 -66q35 0 58 -21t23 -55q0 -35 -21 -57t-61 -22
q-39 0 -59.5 23.5t-20.5 53.5q0 28 21.5 53t59.5 25z" />
    <glyph glyph-name="ae.sc" horiz-adv-x="695" 
d="M647 151h25l-15 -151h-384v24l24 4q24 4 24 29q1 34 1 111h-188l-12 -17q-19 -26 -2 -61l34 -66v-24h-160v24l33 43q42 52 60 78l234 336h342l-18 -136h-25q-9 13 -32 43.5t-37 52.5q-12 16 -27 16h-33q-8 0 -34 -7q-1 -63 -1 -185h49q15 0 32 15q21 23 41 39h25v-157
h-25l-42 62q-11 17 -31 17h-49q-1 -68 1 -210l71 -6q17 -3 33 15zM149 190q81 -2 173 0v78.5v94v77.5z" />
    <glyph glyph-name="aeacute.sc" horiz-adv-x="695" 
d="M559 649q-80 -75 -222 -115l-17 24l132 143l100 -25zM647 151h25l-15 -151h-384v24l24 4q24 4 24 29q1 34 1 111h-188l-12 -17q-19 -26 -2 -61l34 -66v-24h-160v24l33 43q42 52 60 78l234 336h342l-18 -136h-25q-9 13 -32 43.5t-37 52.5q-12 16 -27 16h-33q-8 0 -34 -7
q-1 -63 -1 -185h49q15 0 32 15q21 23 41 39h25v-157h-25l-42 62q-11 17 -31 17h-49q-1 -68 1 -210l71 -6q17 -3 33 15zM149 190q81 -2 173 0v78.5v94v77.5z" />
    <glyph glyph-name="agrave.sc" horiz-adv-x="499" 
d="M321 558l-18 -24q-141 40 -221 115l6 27l101 25zM494 30l13 -3v-27h-230v27l20 3q32 7 20 36l-36 98q-85 -1 -169 0l-7 -17q-12 -29 6 -61l34 -59v-27h-151v27l34 45q26 29 38 57l137 337l90 28q153 -399 169 -437q10 -23 32 -27zM124 194q72 -1 145 0l-72 180z" />
    <glyph glyph-name="amacron.sc" horiz-adv-x="499" 
d="M384 642v-82h-265v82h265zM494 30l13 -3v-27h-230v27l20 3q32 7 20 36l-36 98q-85 -1 -169 0l-7 -17q-12 -29 6 -61l34 -59v-27h-151v27l34 45q26 29 38 57l137 337l90 28q153 -399 169 -437q10 -23 32 -27zM124 194q72 -1 145 0l-72 180z" />
    <glyph glyph-name="aogonek.sc" horiz-adv-x="499" 
d="M383 0q-30 -10 -50 -36.5t-20 -59.5q0 -28 17 -44.5t45 -16.5q31 0 51 20l19 -22q-50 -60 -126 -60q-49 0 -79 27.5t-30 70.5t31 75.5t80 45.5h-44v27l20 3q32 7 20 36l-36 98q-85 -1 -169 0l-7 -17q-12 -29 6 -61l34 -59v-27h-151v27l34 45q26 29 38 57l137 337l90 28
q153 -399 169 -437q10 -23 32 -27l13 -3v-27h-124zM124 194q72 -1 145 0l-72 180z" />
    <glyph glyph-name="aring.sc" horiz-adv-x="499" 
d="M253 539q-53 0 -84.5 31.5t-31.5 76.5t31 76t84 31t84.5 -30.5t31.5 -74.5q0 -46 -31 -78t-84 -32zM252 722q-29 0 -44.5 -21t-15.5 -52q0 -33 16 -55t45 -22q28 0 44 21.5t16 53.5t-16 53.5t-45 21.5zM494 30l13 -3v-27h-230v27l20 3q32 7 20 36l-36 98q-85 -1 -169 0
l-7 -17q-12 -29 6 -61l34 -59v-27h-151v27l34 45q26 29 38 57l137 337l90 28q153 -399 169 -437q10 -23 32 -27zM124 194q72 -1 145 0l-72 180z" />
    <glyph glyph-name="aringacute.sc" horiz-adv-x="499" 
d="M422 897q-80 -75 -222 -115l-17 24l132 143l100 -25zM253 539q-53 0 -84.5 31.5t-31.5 76.5t31 76t84 31t84.5 -30.5t31.5 -74.5q0 -46 -31 -78t-84 -32zM252 722q-29 0 -44.5 -21t-15.5 -52q0 -33 16 -55t45 -22q28 0 44 21.5t16 53.5t-16 53.5t-45 21.5zM494 30l13 -3
v-27h-230v27l20 3q32 7 20 36l-36 98q-85 -1 -169 0l-7 -17q-12 -29 6 -61l34 -59v-27h-151v27l34 45q26 29 38 57l137 337l90 28q153 -399 169 -437q10 -23 32 -27zM124 194q72 -1 145 0l-72 180z" />
    <glyph glyph-name="atilde.sc" horiz-adv-x="499" 
d="M145 594l-24 -45l-27 1q0 45 20 84t60 39q26 0 91 -20.5t94 -26.5l23 46l28 -2q0 -45 -20 -83.5t-60 -38.5q-27 0 -95.5 20.5t-89.5 25.5zM494 30l13 -3v-27h-230v27l20 3q32 7 20 36l-36 98q-85 -1 -169 0l-7 -17q-12 -29 6 -61l34 -59v-27h-151v27l34 45q26 29 38 57
l137 337l90 28q153 -399 169 -437q10 -23 32 -27zM124 194q72 -1 145 0l-72 180z" />
    <glyph glyph-name="cacute.sc" horiz-adv-x="541" 
d="M223 534l-17 24l132 143l100 -25l7 -27q-80 -75 -222 -115zM290 -9q-118 0 -189.5 67t-71.5 180q0 111 71.5 182t195.5 71q109 0 193 -30l-16 -152h-27l-33.5 51l-30.5 46q-41 56 -97 56q-51 0 -80.5 -50.5t-29.5 -154.5q0 -111 35 -174.5t90 -63.5q43 0 99 68
q42 46 72 84h27l-33 -154q-68 -26 -175 -26z" />
    <glyph glyph-name="ccaron.sc" horiz-adv-x="541" 
d="M256 536q-71 67 -128 153l25 23l121 -72l121 72l25 -23q-57 -90 -127 -153h-37zM471 171h27l-33 -154q-68 -26 -175 -26q-118 0 -189.5 67t-71.5 180q0 111 71.5 182t195.5 71q109 0 193 -30l-16 -152h-27l-33.5 51l-30.5 46q-41 56 -97 56q-51 0 -80.5 -50.5
t-29.5 -154.5q0 -111 35 -174.5t90 -63.5q43 0 99 68q42 46 72 84z" />
    <glyph glyph-name="ccedilla.sc" horiz-adv-x="541" 
d="M290 -9h-4l-19 -37q45 -5 71 -26t26 -54q0 -48 -43.5 -75t-115.5 -27l2 28q70 5 70 40q0 29 -73 32l-12 24l63 97q-104 10 -165 75.5t-61 169.5q0 111 71.5 182t195.5 71q109 0 193 -30l-16 -152h-27l-33.5 51l-30.5 46q-41 56 -97 56q-51 0 -80.5 -50.5t-29.5 -154.5
q0 -111 35 -174.5t90 -63.5q43 0 99 68q42 46 72 84h27l-33 -154q-68 -26 -175 -26z" />
    <glyph glyph-name="ccircumflex.sc" horiz-adv-x="541" 
d="M274 600l-121 -72l-25 23q57 86 128 153h37q70 -63 127 -153l-25 -23zM471 171h27l-33 -154q-68 -26 -175 -26q-118 0 -189.5 67t-71.5 180q0 111 71.5 182t195.5 71q109 0 193 -30l-16 -152h-27l-33.5 51l-30.5 46q-41 56 -97 56q-51 0 -80.5 -50.5t-29.5 -154.5
q0 -111 35 -174.5t90 -63.5q43 0 99 68q42 46 72 84z" />
    <glyph glyph-name="cdotaccent.sc" horiz-adv-x="541" 
d="M273 557q-39 0 -59.5 23.5t-20.5 54.5q0 28 21.5 52.5t59.5 24.5q35 0 58 -20.5t23 -54.5q0 -35 -21 -57.5t-61 -22.5zM290 -9q-118 0 -189.5 67t-71.5 180q0 111 71.5 182t195.5 71q109 0 193 -30l-16 -152h-27l-33.5 51l-30.5 46q-41 56 -97 56q-51 0 -80.5 -50.5
t-29.5 -154.5q0 -111 35 -174.5t90 -63.5q43 0 99 68q42 46 72 84h27l-33 -154q-68 -26 -175 -26z" />
    <glyph glyph-name="dcaron.sc" horiz-adv-x="587" 
d="M280 536q-71 67 -128 153l25 23l121 -72l121 72l25 -23q-57 -90 -127 -153h-37zM280 481q131 0 205 -64t74 -171q0 -113 -76.5 -179.5t-203.5 -66.5h-249v27l24 4q25 5 25 28q3 181 0 364q0 24 -26 27l-23 4v27h250zM278 29q59 0 96.5 54.5t37.5 150.5q0 100 -36 159.5
t-105 59.5q-18 0 -52 -4q-1 -208 0 -415q32 -5 59 -5z" />
    <glyph glyph-name="dcroat.sc" horiz-adv-x="584" 
d="M280 481q131 0 205 -64t74 -171q0 -113 -76.5 -179.5t-203.5 -66.5h-249v27l24 4q25 5 25 28q1 61 1 175h-49v27h49q0 106 -1 162q0 24 -26 27l-23 4v27h250zM278 29q59 0 96.5 54.5t37.5 150.5q0 100 -36 159.5t-105 59.5q-18 0 -52 -4q0 -32 -0.5 -94.5t-0.5 -93.5h93
v-27h-93q0 -33 0.5 -99.5t0.5 -100.5q32 -5 59 -5z" />
    <glyph glyph-name="eacute.sc" horiz-adv-x="460" 
d="M408 649q-80 -75 -222 -115l-17 24l132 143l100 -25zM410 151h26l-15 -151h-391v27l24 4q25 4 25 28q3 188 0 364q0 22 -25 27l-24 4v27h398q-11 -82 -19 -135h-25q-42 57 -72 92q-14 16 -28 16h-32q-10 0 -33 -7q0 -31 -0.5 -91t-0.5 -90h47q17 0 33 15q14 11 41 38h26
q-1 -79 0 -156h-26q-12 19 -43 60q-13 17 -31 17h-47q1 -34 1.5 -102.5t0.5 -103.5l67 -6q19 -2 33 15q68 79 90 108z" />
    <glyph glyph-name="ebreve.sc" horiz-adv-x="460" 
d="M238 537q-129 0 -140 159l41 4q4 -39 31.5 -60t67.5 -21q39 0 66.5 21.5t31.5 59.5l41 -4q-9 -159 -139 -159zM410 151h26l-15 -151h-391v27l24 4q25 4 25 28q3 188 0 364q0 22 -25 27l-24 4v27h398q-11 -82 -19 -135h-25q-42 57 -72 92q-14 16 -28 16h-32q-10 0 -33 -7
q0 -31 -0.5 -91t-0.5 -90h47q17 0 33 15q14 11 41 38h26q-1 -79 0 -156h-26q-12 19 -43 60q-13 17 -31 17h-47q1 -34 1.5 -102.5t0.5 -103.5l67 -6q19 -2 33 15q68 79 90 108z" />
    <glyph glyph-name="ecaron.sc" horiz-adv-x="460" 
d="M219 536q-71 67 -128 153l25 23l121 -72l121 72l25 -23q-57 -90 -127 -153h-37zM410 151h26l-15 -151h-391v27l24 4q25 4 25 28q3 188 0 364q0 22 -25 27l-24 4v27h398q-11 -82 -19 -135h-25q-42 57 -72 92q-14 16 -28 16h-32q-10 0 -33 -7q0 -31 -0.5 -91t-0.5 -90h47
q17 0 33 15q14 11 41 38h26q-1 -79 0 -156h-26q-12 19 -43 60q-13 17 -31 17h-47q1 -34 1.5 -102.5t0.5 -103.5l67 -6q19 -2 33 15q68 79 90 108z" />
    <glyph glyph-name="ecircumflex.sc" horiz-adv-x="460" 
d="M237 600l-121 -72l-25 23q57 86 128 153h37q70 -63 127 -153l-25 -23zM410 151h26l-15 -151h-391v27l24 4q25 4 25 28q3 188 0 364q0 22 -25 27l-24 4v27h398q-11 -82 -19 -135h-25q-42 57 -72 92q-14 16 -28 16h-32q-10 0 -33 -7q0 -31 -0.5 -91t-0.5 -90h47q17 0 33 15
q14 11 41 38h26q-1 -79 0 -156h-26q-12 19 -43 60q-13 17 -31 17h-47q1 -34 1.5 -102.5t0.5 -103.5l67 -6q19 -2 33 15q68 79 90 108z" />
    <glyph glyph-name="edieresis.sc" horiz-adv-x="460" 
d="M143 541q-32 0 -49.5 21.5t-17.5 48.5q0 25 18 47t50 22q30 0 49 -18.5t19 -49.5t-17.5 -51t-51.5 -20zM332 541q-33 0 -50.5 21.5t-17.5 48.5q0 25 18.5 47t50.5 22q29 0 48.5 -18.5t19.5 -49.5t-18 -51t-51 -20zM410 151h26l-15 -151h-391v27l24 4q25 4 25 28
q3 188 0 364q0 22 -25 27l-24 4v27h398q-11 -82 -19 -135h-25q-42 57 -72 92q-14 16 -28 16h-32q-10 0 -33 -7q0 -31 -0.5 -91t-0.5 -90h47q17 0 33 15q14 11 41 38h26q-1 -79 0 -156h-26q-12 19 -43 60q-13 17 -31 17h-47q1 -34 1.5 -102.5t0.5 -103.5l67 -6q19 -2 33 15
q68 79 90 108z" />
    </font>
</defs>
</svg>
