<?xml version="1.0" encoding="utf-8"?>
<!-- Generator: Adobe Illustrator 18.1.1, SVG Export Plug-In . SVG Version: 6.00 Build 0)  -->
<svg version="1.1" id="Layer_1" xmlns="http://www.w3.org/2000/svg" xmlns:xlink="http://www.w3.org/1999/xlink" x="0px" y="0px"
	 viewBox="0 0 288 249.8" enable-background="new 0 0 288 249.8" xml:space="preserve">
<title>degree_logos_outline</title>
<path fill="#FFFFFF" d="M27.1,45.5c-0.9-1.1-2.2-1.6-3.6-2s-2.9-0.4-4.1-0.2c-0.9,0.2-1.6,0.4-2.3,0.5c-0.9,0.4-1.6,0.7-2.3,1.3
	c-0.7,0.5-1.3,1.1-1.8,1.8c-0.4,0.7-0.7,1.6-0.7,2.3c0,0.9,0.4,2,0.9,2.5c0.7,0.7,1.6,1.3,2.5,1.4c1.1,0.4,2.3,0.5,3.6,0.7
	c1.4,0.2,2.7,0.4,4.1,0.7c1.4,0.2,2.7,0.5,4.1,1.1c1.3,0.4,2.5,1.1,3.6,2s2,2.2,2.5,3.4c0.7,1.6,1.1,3.4,0.9,5.4
	c0,2.5-0.5,5-1.4,7.4c-0.9,2.2-2.3,3.9-4.1,5.6c-1.8,1.6-3.8,3-5.9,3.9c-2.3,0.9-4.7,1.6-7,2c-2.9,0.5-5.7,0.4-8.6-0.2
	c-2.7-0.7-5.4-2-7.5-3.6L7.5,72c1.1,1.3,2.5,2.2,4.1,2.7s3.4,0.7,5,0.5c0.9-0.2,1.8-0.4,2.5-0.7c0.9-0.4,1.6-0.7,2.3-1.3
	s1.3-1.1,1.6-1.8c0.4-0.7,0.7-1.6,0.7-2.3c0.2-1.3-0.5-2.5-1.6-3.2c-1.3-0.7-2.7-1.3-4.1-1.6c-1.6-0.4-3.4-0.7-5.4-1.1
	c-1.8-0.4-3.8-0.9-5.4-1.6s-3-2-4.1-3.4c-1.3-1.8-1.8-4.1-1.6-6.3c0-2.5,0.5-4.8,1.4-7.2c0.9-2.2,2.3-3.9,4.1-5.6
	c1.8-1.6,3.8-2.9,5.9-3.9c2.2-0.9,4.5-1.6,6.8-2c2.5-0.4,5.2-0.4,7.9,0c2.5,0.4,4.8,1.4,6.8,3L27.1,45.5z"/>
<path fill="#FFFFFF" d="M50.4,30.3L61,28.9v18.3l20.4-2.9V26L92,24.6v48.8l-10.6,1.4v-21L61,56.7v21.2l-10.6,1.4
	C50.4,79.3,50.4,30.3,50.4,30.3z"/>
<path fill="#FFFFFF" d="M107.4,46.8c0-3.8,0.7-7.4,2-10.9c1.3-3.2,3-6.3,5.4-8.8c2.3-2.5,5-4.7,8.2-6.3c3.2-1.6,6.8-2.7,10.4-3.2
	c3.4-0.5,7-0.4,10.4,0.4c6.1,1.4,11.1,5.6,13.4,11.3c1.4,3.2,2,6.8,2,10.4c0,3.8-0.7,7.4-2,10.9c-1.3,3.2-3,6.3-5.4,9
	c-2.3,2.5-5.2,4.7-8.2,6.3c-3.2,1.6-6.6,2.9-10.2,3.4c-3.4,0.5-7,0.4-10.4-0.4c-3-0.7-5.7-2-8.2-3.9c-2.3-2-4.3-4.7-5.4-7.5
	C107.9,54,107.4,50.4,107.4,46.8z M118.3,45.2c0,2.2,0.4,4.1,1.1,6.1c0.7,1.8,1.6,3.2,3,4.5c1.3,1.3,2.9,2.2,4.7,2.7
	c2,0.5,4.1,0.7,6.1,0.4c2.2-0.2,4.3-0.9,6.1-2s3.4-2.3,4.7-3.9s2.3-3.6,3-5.6c0.7-2.2,1.1-4.3,1.1-6.5s-0.4-4.1-1.1-6.1
	c-0.7-1.8-1.6-3.4-3-4.7c-1.3-1.3-2.9-2.2-4.7-2.5c-2-0.5-4.1-0.7-6.1-0.4c-2.2,0.2-4.3,0.9-6.1,2s-3.4,2.3-4.7,3.9s-2.3,3.4-3,5.4
	C118.7,40.7,118.3,43,118.3,45.2z"/>
<path fill="#FFFFFF" d="M215,37.3c0,2.9-0.4,5.6-1.3,8.2c-1.6,5.2-5.4,9.5-10.2,12c-2.7,1.4-5.7,2.3-8.8,2.7
	c-2.9,0.5-5.9,0.4-8.8-0.4c-2.3-0.5-4.5-1.6-6.3-3.4c-1.8-1.6-3-3.6-3.9-5.9c-0.9-2.5-1.3-5.2-1.3-7.9V12.7l10.6-1.4v29.6
	c0,1.4,0.2,2.9,0.7,4.1c0.4,1.1,1.1,2.2,2,3s2,1.4,3,1.8c1.3,0.4,2.7,0.5,3.9,0.2c1.4-0.2,2.7-0.7,3.9-1.3c1.1-0.7,2.2-1.6,3-2.7
	c0.9-1.1,1.4-2.3,2-3.6c0.5-1.4,0.7-2.9,0.7-4.3V8.5l10.6-1.4v30.2H215z"/>
<path fill="#FFFFFF" d="M242.1,12.9l-13.6,2V5.4l38-5.4v9.5l-13.6,2v39.4l-10.6,1.4L242.1,12.9z"/>
<path fill="#FFFFFF" d="M19.2,147L1.3,121.5l13.1-2l10.2,16.9l10.8-19.9l12.6-1.8l-17.9,30.7v20.8l-10.6,1.4L19.2,147z"/>
<path fill="#FFFFFF" d="M56.8,138.3c0-3.8,0.5-7.4,2-10.9c1.3-3.2,3-6.3,5.4-9c2.3-2.5,5-4.7,8.2-6.3c3.2-1.6,6.8-2.7,10.4-3.2
	c3.4-0.5,7-0.4,10.4,0.4c3,0.7,5.7,2,8.1,3.9s4.1,4.5,5.4,7.4c1.4,3.2,2,6.8,2,10.4c0,3.8-0.7,7.4-2,10.9c-1.3,3.2-3,6.3-5.4,8.8
	c-2.3,2.5-5,4.7-8.2,6.3s-6.8,2.7-10.4,3.2c-3.4,0.5-7,0.4-10.4-0.4c-3-0.7-5.7-2-8.2-3.9c-2.3-2-4.1-4.5-5.4-7.4
	C57.4,145.3,56.6,141.8,56.8,138.3z M67.8,136.6c0,2.2,0.4,4.1,1.1,6.1c0.7,1.8,1.6,3.2,3,4.5c1.3,1.3,2.9,2.2,4.7,2.7
	c2,0.5,4.1,0.7,6.1,0.4c2.2-0.2,4.3-0.9,6.1-2s3.4-2.3,4.7-3.9c1.3-1.6,2.3-3.4,3-5.4c0.7-2.2,1.1-4.3,1.1-6.5s-0.4-4.1-1.1-6.1
	c-0.7-1.8-1.6-3.4-3-4.7c-1.4-1.3-3-2.2-4.8-2.7c-2-0.5-4.1-0.7-6.1-0.4c-2.2,0.2-4.3,0.9-6.1,2s-3.4,2.3-4.7,3.9s-2.3,3.4-3,5.4
	C68.1,132.3,67.8,134.5,67.8,136.6z"/>
<path fill="#FFFFFF" d="M164.2,128.8c0,2.9-0.4,5.6-1.3,8.2c-0.9,2.5-2.2,4.8-3.9,6.8c-1.8,2.2-3.9,3.8-6.3,5
	c-2.7,1.4-5.7,2.3-8.8,2.7c-2.9,0.5-5.9,0.4-8.8-0.4c-4.7-1.1-8.6-4.5-10.2-9.1c-0.9-2.5-1.3-5.2-1.3-7.9v-29.9l10.6-1.4v29.6
	c0,1.4,0.2,2.9,0.7,4.1c0.4,1.1,1.1,2.2,2,3c0.9,0.9,2,1.4,3,1.8c1.3,0.4,2.7,0.5,3.9,0.2c1.4-0.2,2.7-0.5,3.9-1.3
	c1.1-0.7,2.2-1.6,3-2.7s1.4-2.3,2-3.6c0.5-1.4,0.7-2.9,0.7-4.3V100l10.6-1.4v30.2H164.2z"/>
<path fill="#FFFFFF" d="M182.2,96.1l18.7-2.7c2.3-0.4,4.7-0.4,7-0.2c2,0.2,3.9,0.7,5.7,1.6c1.6,0.9,3,2.3,3.9,3.9
	c1.1,2.2,1.6,4.5,1.4,7c0,3.2-0.9,6.5-2.7,9.1s-4.5,4.7-7.7,5.7l12.2,19l-12.7,1.8l-10-18.1l-5.2,0.7v19.4l-10.6,1.4L182.2,96.1z
	 M192.8,114.9l6.3-0.9c0.9-0.2,2-0.4,3-0.5c1.1-0.2,2-0.5,2.9-1.1c0.9-0.5,1.6-1.1,2.2-2c0.5-0.9,0.9-2.2,0.9-3.2
	c0-1.1-0.2-2-0.7-2.9c-0.5-0.7-1.3-1.1-2-1.4c-0.9-0.4-1.8-0.4-2.7-0.4s-2,0-2.9,0.2l-7,0.9L192.8,114.9L192.8,114.9z"/>
<path fill="#FFFFFF" d="M3,202.8l11.5-1.6l7.7,30.3h0.2l10-32.8l9.7-1.4l10,30.8h0.2l8.1-33.2l10.8-1.4l-14,50.7l-9.5,1.3
	l-10.6-32.3h-0.2l-10.6,35.3l-9.1,1.3L3,202.8z"/>
<path fill="#FFFFFF" d="M81.2,216.3c0-3.8,0.5-7.4,2-10.9c1.3-3.2,3-6.3,5.4-8.8c2.3-2.5,5-4.7,8.2-6.3s6.8-2.9,10.4-3.2
	c3.4-0.5,7-0.4,10.4,0.4c3,0.7,5.7,2,8.1,3.9c2.3,2,4.1,4.5,5.4,7.4c1.4,3.2,2,6.8,2,10.4c0,3.8-0.7,7.4-2,10.9
	c-1.3,3.2-3,6.3-5.4,8.8c-2.3,2.5-5,4.7-8.2,6.3s-6.8,2.7-10.4,3.2c-3.4,0.5-7,0.4-10.4-0.4c-3-0.7-5.7-2-8.2-3.9
	c-2.3-2-4.1-4.5-5.4-7.4C81.9,223.3,81.2,219.9,81.2,216.3z M92.3,214.7c0,2.2,0.4,4.1,1.1,6.1c0.7,1.8,1.6,3.2,3,4.5
	c1.3,1.3,2.9,2.2,4.7,2.7c2,0.5,4.1,0.7,6.1,0.4c2.2-0.2,4.3-0.9,6.1-2s3.4-2.3,4.7-3.9c1.3-1.6,2.3-3.4,3-5.4
	c0.7-2.2,1.1-4.3,1.1-6.5s-0.4-4.1-1.1-6.1c-1.3-3.6-4.1-6.3-7.9-7.2c-2-0.5-4.1-0.7-6.1-0.4c-4.3,0.5-8.1,2.7-10.8,5.9
	c-1.3,1.6-2.3,3.4-3,5.4C92.5,210.3,92.3,212.5,92.3,214.7z"/>
<path fill="#FFFFFF" d="M148.3,182.4l18.5-2.7c2.3-0.4,4.7-0.4,7-0.2c2,0.2,3.9,0.7,5.7,1.6c1.6,0.9,3,2.3,3.9,3.9
	c1.1,2.2,1.6,4.5,1.4,7c0,3.2-0.9,6.5-2.7,9.1c-1.8,2.7-4.5,4.7-7.7,5.7l12.2,19l-12.7,1.8l-10-18.1l-5.2,0.7v19.7l-10.6,1.4
	L148.3,182.4z M158.9,201l6.3-0.9c0.9-0.2,2-0.4,3-0.5c1.1-0.2,2-0.5,2.9-1.1c0.9-0.5,1.6-1.1,2.2-2c0.5-0.9,0.9-2.2,0.9-3.2
	c0-1.1-0.2-2-0.7-2.9c-0.5-0.7-1.3-1.1-2-1.4c-0.9-0.4-1.8-0.4-2.7-0.4s-2,0-2.9,0.2l-7,0.9V201z"/>
<path fill="#FFFFFF" d="M208.5,183.5l-13.6,2v-9.7l38-5.4v9.5l-13.6,2v39.5l-10.6,1.4L208.5,183.5z"/>
<path fill="#FFFFFF" d="M246.2,168.6l10.6-1.4v18.3l20.6-3v-18.1L288,163v48.8l-10.6,1.4v-21.3l-20.4,2.9v21.1l-10.6,1.4
	L246.2,168.6z"/>
</svg>
