<?xml version="1.0" encoding="utf-8"?>
<!-- Generator: Adobe Illustrator 18.1.1, SVG Export Plug-In . SVG Version: 6.00 Build 0)  -->
<svg version="1.1" id="Layer_1" xmlns="http://www.w3.org/2000/svg" xmlns:xlink="http://www.w3.org/1999/xlink" x="0px" y="0px"
	 viewBox="0 0 288 250.1" enable-background="new 0 0 288 250.1" xml:space="preserve">
<title>degree_logos_outline</title>
<path d="M27.2,45.9c-0.9-1.1-2.2-1.6-3.6-2c-1.4-0.4-2.9-0.4-4.1-0.2c-0.9,0.2-1.6,0.4-2.3,0.5c-0.9,0.4-1.6,0.7-2.3,1.3
	c-0.7,0.5-1.3,1.1-1.8,1.8c-0.4,0.7-0.7,1.6-0.7,2.3c0,0.9,0.4,2,0.9,2.5c0.7,0.7,1.6,1.3,2.5,1.4c1.1,0.4,2.3,0.5,3.6,0.7
	c1.4,0.2,2.7,0.4,4.1,0.7c1.4,0.2,2.7,0.5,4.1,1.1c1.3,0.4,2.5,1.1,3.6,2s2,2.2,2.5,3.4c0.7,1.6,1.1,3.4,0.9,5.4
	c0,2.5-0.5,5-1.4,7.4c-0.9,2.2-2.3,3.9-4.1,5.6c-1.8,1.6-3.8,3-5.9,3.9c-2.3,0.9-4.7,1.6-7,2c-2.9,0.5-5.7,0.4-8.6-0.2
	c-2.7-0.7-5.4-2-7.5-3.6l7.5-9.5c1.1,1.3,2.5,2.2,4.1,2.7c1.6,0.5,3.4,0.7,5,0.5c0.9-0.2,1.8-0.4,2.5-0.7c0.9-0.4,1.6-0.7,2.3-1.3
	c0.7-0.5,1.3-1.1,1.6-1.8c0.4-0.7,0.7-1.6,0.7-2.3c0.2-1.3-0.5-2.5-1.6-3.2c-1.3-0.7-2.7-1.3-4.1-1.6c-1.6-0.4-3.4-0.7-5.4-1.1
	c-1.8-0.4-3.8-0.9-5.4-1.6c-1.6-0.7-3-2-4.1-3.4c-1.3-1.8-1.8-4.1-1.6-6.3c0-2.5,0.5-4.8,1.4-7.2c0.9-2.2,2.3-3.9,4.1-5.6
	c1.8-1.6,3.8-2.9,5.9-3.9c2.2-0.9,4.5-1.6,6.8-2c2.5-0.4,5.2-0.4,7.9,0c2.5,0.4,4.8,1.4,6.8,3L27.2,45.9z"/>
<path d="M50.5,30.6l10.6-1.4v18.3l20.4-2.9V26.3l10.6-1.4v48.8l-10.6,1.4v-21L61.1,57v21.2l-10.6,1.4V30.6z"/>
<path d="M107.5,47.1c0-3.8,0.7-7.4,2-10.9c1.3-3.2,3-6.3,5.4-8.8c2.3-2.5,5-4.7,8.2-6.3c3.2-1.6,6.8-2.7,10.4-3.2
	c3.4-0.5,7-0.4,10.4,0.4c6.1,1.4,11.1,5.6,13.4,11.3c1.4,3.2,2,6.8,2,10.4c0,3.8-0.7,7.4-2,10.9c-1.3,3.2-3,6.3-5.4,9
	c-2.3,2.5-5.2,4.7-8.2,6.3c-3.2,1.6-6.6,2.9-10.2,3.4c-3.4,0.5-7,0.4-10.4-0.4c-3-0.7-5.7-2-8.2-3.9c-2.3-2-4.3-4.7-5.4-7.5
	C108,54.3,107.5,50.7,107.5,47.1z M118.4,45.5c0,2.2,0.4,4.1,1.1,6.1c0.7,1.8,1.6,3.2,3,4.5c1.3,1.3,2.9,2.2,4.7,2.7
	c2,0.5,4.1,0.7,6.1,0.4c2.2-0.2,4.3-0.9,6.1-2c1.8-1.1,3.4-2.3,4.7-3.9c1.3-1.6,2.3-3.6,3-5.6c0.7-2.2,1.1-4.3,1.1-6.5
	c0-2.2-0.4-4.1-1.1-6.1c-0.7-1.8-1.6-3.4-3-4.7c-1.3-1.3-2.9-2.2-4.7-2.5c-2-0.5-4.1-0.7-6.1-0.4c-2.2,0.2-4.3,0.9-6.1,2
	s-3.4,2.3-4.7,3.9c-1.3,1.6-2.3,3.4-3,5.4C118.8,41,118.4,43.4,118.4,45.5z"/>
<path d="M215.1,37.6c0,2.9-0.4,5.6-1.3,8.2c-1.6,5.2-5.4,9.5-10.2,12c-2.7,1.4-5.7,2.3-8.8,2.7c-2.9,0.5-5.9,0.4-8.8-0.4
	c-2.3-0.5-4.5-1.6-6.3-3.4c-1.8-1.6-3-3.6-3.9-5.9c-0.9-2.5-1.3-5.2-1.3-7.9V13.1l10.6-1.4v29.6c0,1.4,0.2,2.9,0.7,4.1
	c0.4,1.1,1.1,2.2,2,3s2,1.4,3,1.8c1.3,0.4,2.7,0.5,3.9,0.2c1.4-0.2,2.7-0.7,3.9-1.3c1.1-0.7,2.2-1.6,3-2.7c0.9-1.1,1.4-2.3,2-3.6
	c0.5-1.4,0.7-2.9,0.7-4.3V8.9l10.6-1.4V37.6z"/>
<path d="M242.2,13.2l-13.6,2V5.7l38-5.4v9.5l-13.6,2v39.5l-10.6,1.4L242.2,13.2z"/>
<path d="M19.3,147.4L1.3,121.9l13.1-2l10.2,16.9l10.8-19.9l12.6-1.8L30,145.8v20.8L19.5,168L19.3,147.4z"/>
<path d="M56.9,138.6c0-3.8,0.5-7.4,2-10.9c1.3-3.2,3-6.3,5.4-9c2.3-2.5,5-4.7,8.2-6.3c3.2-1.6,6.8-2.7,10.4-3.2
	c3.4-0.5,7-0.4,10.4,0.4c3,0.7,5.7,2,8.1,3.9c2.3,2,4.1,4.5,5.4,7.4c1.4,3.2,2,6.8,2,10.4c0,3.8-0.7,7.4-2,10.9
	c-1.3,3.2-3,6.3-5.4,8.8s-5,4.7-8.2,6.3c-3.2,1.6-6.8,2.7-10.4,3.2c-3.4,0.5-7,0.4-10.4-0.4c-3-0.7-5.7-2-8.2-3.9
	c-2.3-2-4.1-4.5-5.4-7.4C57.5,145.6,56.8,142.2,56.9,138.6z M67.9,137c0,2.2,0.4,4.1,1.1,6.1c0.7,1.8,1.6,3.2,3,4.5
	c1.3,1.3,2.9,2.2,4.7,2.7c2,0.5,4.1,0.7,6.1,0.4c2.2-0.2,4.3-0.9,6.1-2s3.4-2.3,4.7-3.9c1.3-1.6,2.3-3.4,3-5.4
	c0.7-2.2,1.1-4.3,1.1-6.5c0-2.2-0.4-4.1-1.1-6.1c-0.7-1.8-1.6-3.4-3-4.7c-1.4-1.3-3-2.2-4.8-2.7c-2-0.5-4.1-0.7-6.1-0.4
	c-2.2,0.2-4.3,0.9-6.1,2c-1.8,1.1-3.4,2.3-4.7,3.9c-1.3,1.6-2.3,3.4-3,5.4C68.2,132.7,67.9,134.8,67.9,137z"/>
<path d="M164.4,129.1c0,2.9-0.4,5.6-1.3,8.2c-0.9,2.5-2.2,4.8-3.9,6.8c-1.8,2.2-3.9,3.8-6.3,5c-2.7,1.4-5.7,2.3-8.8,2.7
	c-2.9,0.5-5.9,0.4-8.8-0.4c-4.7-1.1-8.6-4.5-10.2-9.1c-0.9-2.5-1.3-5.2-1.3-7.9v-29.9l10.6-1.4v29.6c0,1.4,0.2,2.9,0.7,4.1
	c0.4,1.1,1.1,2.2,2,3s2,1.4,3,1.8c1.3,0.4,2.7,0.5,3.9,0.2c1.4-0.2,2.7-0.5,3.9-1.3c1.1-0.7,2.2-1.6,3-2.7s1.4-2.3,2-3.6
	c0.5-1.4,0.7-2.9,0.7-4.3v-29.6l10.6-1.4V129.1z"/>
<path d="M182.3,96.5l18.7-2.7c2.3-0.4,4.7-0.4,7-0.2c2,0.2,3.9,0.7,5.7,1.6c1.6,0.9,3,2.3,3.9,3.9c1.1,2.2,1.6,4.5,1.4,7
	c0,3.2-0.9,6.5-2.7,9.1c-1.8,2.7-4.5,4.7-7.7,5.7l12.2,19l-12.7,1.8l-10-18.1l-5.2,0.7v19.4l-10.6,1.4L182.3,96.5z M192.9,115.3
	l6.3-0.9c0.9-0.2,2-0.4,3-0.5c1.1-0.2,2-0.5,2.9-1.1c0.9-0.5,1.6-1.1,2.2-2c0.5-0.9,0.9-2.2,0.9-3.2c0-1.1-0.2-2-0.7-2.9
	c-0.5-0.7-1.3-1.1-2-1.4c-0.9-0.4-1.8-0.4-2.7-0.4s-2,0-2.9,0.2l-7,0.9V115.3z"/>
<path d="M3.1,203.2l11.5-1.6l7.7,30.3h0.2l10-32.8l9.7-1.4l10,30.8h0.2l8.1-33.2l10.8-1.4l-14,50.7l-9.5,1.3l-10.6-32.3H37
	l-10.6,35.3l-9.1,1.3L3.1,203.2z"/>
<path d="M81.3,216.6c0-3.8,0.5-7.4,2-10.9c1.3-3.2,3-6.3,5.4-8.8c2.3-2.5,5-4.7,8.2-6.3c3.2-1.6,6.8-2.9,10.4-3.2
	c3.4-0.5,7-0.4,10.4,0.4c3,0.7,5.7,2,8.1,3.9c2.3,2,4.1,4.5,5.4,7.4c1.4,3.2,2,6.8,2,10.4c0,3.8-0.7,7.4-2,10.9
	c-1.3,3.2-3,6.3-5.4,8.8c-2.3,2.5-5,4.7-8.2,6.3c-3.2,1.6-6.8,2.7-10.4,3.2c-3.4,0.5-7,0.4-10.4-0.4c-3-0.7-5.7-2-8.2-3.9
	c-2.3-2-4.1-4.5-5.4-7.4C82,223.6,81.3,220.2,81.3,216.6z M92.4,215c0,2.2,0.4,4.1,1.1,6.1c0.7,1.8,1.6,3.2,3,4.5
	c1.3,1.3,2.9,2.2,4.7,2.7c2,0.5,4.1,0.7,6.1,0.4c2.2-0.2,4.3-0.9,6.1-2s3.4-2.3,4.7-3.9c1.3-1.6,2.3-3.4,3-5.4
	c0.7-2.2,1.1-4.3,1.1-6.5s-0.4-4.1-1.1-6.1c-1.3-3.6-4.1-6.3-7.9-7.2c-2-0.5-4.1-0.7-6.1-0.4c-4.3,0.5-8.1,2.7-10.8,5.9
	c-1.3,1.6-2.3,3.4-3,5.4C92.6,210.7,92.4,212.8,92.4,215z"/>
<path d="M148.4,182.7l18.5-2.7c2.3-0.4,4.7-0.4,7-0.2c2,0.2,3.9,0.7,5.7,1.6c1.6,0.9,3,2.3,3.9,3.9c1.1,2.2,1.6,4.5,1.4,7
	c0,3.2-0.9,6.5-2.7,9.1s-4.5,4.7-7.7,5.7l12.2,19l-12.7,1.8L164,210l-5.2,0.7v19.5l-10.6,1.4L148.4,182.7z M159,201.4l6.3-0.9
	c0.9-0.2,2-0.4,3-0.5c1.1-0.2,2-0.5,2.9-1.1c0.9-0.5,1.6-1.1,2.2-2c0.5-0.9,0.9-2.2,0.9-3.2c0-1.1-0.2-2-0.7-2.9
	c-0.5-0.7-1.3-1.1-2-1.4c-0.9-0.4-1.8-0.4-2.7-0.4s-2,0-2.9,0.2l-7,0.9V201.4z"/>
<path d="M208.6,183.8l-13.6,2v-9.7l38-5.4v9.5l-13.6,2v39.5l-10.6,1.4L208.6,183.8z"/>
<path d="M246.3,168.9l10.6-1.4v18.3l20.6-3v-18.1l10.6-1.4v48.8l-10.6,1.4v-21.2l-20.4,2.9v21.2l-10.6,1.4L246.3,168.9z"/>
</svg>
