<?xml version="1.0" encoding="UTF-8"?>
<svg width="36px" height="30px" viewBox="0 0 36 30" version="1.1" xmlns="http://www.w3.org/2000/svg" xmlns:xlink="http://www.w3.org/1999/xlink">
    <!-- Generator: Sketch 54.1 (76490) - https://sketchapp.com -->
    <title>“</title>
    <desc>Created with Sketch.</desc>
    <g id="Page-1" stroke="none" stroke-width="1" fill="none" fill-rule="evenodd">
        <g id="v3_research-2/2" transform="translate(-666.000000, -735.000000)" fill="#2D2D2D" fill-rule="nonzero">
            <path d="M673.396,764.978 C669.574,764.782 666.242,761.744 666.242,756.158 C666.34,748.71 671.926,740.87 681.236,735.578 L683,738.224 C677.414,741.752 673.886,745.378 672.514,749.396 L675.552,751.258 C678.688,753.218 681.138,755.374 680.844,758.608 C680.648,762.724 677.316,765.272 673.396,764.978 Z M692.212,764.978 C688.292,764.782 684.96,761.744 685.058,756.158 C685.058,748.71 690.742,740.87 700.052,735.578 L701.816,738.224 C696.23,741.752 692.702,745.378 691.232,749.396 L694.368,751.258 C697.406,753.218 699.856,755.374 699.562,758.608 C699.366,762.724 696.132,765.272 692.212,764.978 Z" id="“"></path>
        </g>
    </g>
</svg>